<?xml version="1.0" encoding="utf-8"?>
<!-- Generator: Adobe Illustrator 15.0.0, SVG Export Plug-In . SVG Version: 6.00 Build 0)  -->
<!DOCTYPE svg PUBLIC "-//W3C//DTD SVG 1.1//EN" "http://www.w3.org/Graphics/SVG/1.1/DTD/svg11.dtd">
<svg version="1.1" id="Capa_1" xmlns="http://www.w3.org/2000/svg" xmlns:xlink="http://www.w3.org/1999/xlink" x="0px" y="0px"
	 width="277.262px" height="217.362px" viewBox="0 0 277.262 217.362" enable-background="new 0 0 277.262 217.362"
	 xml:space="preserve">
<polygon fill="#E6E7E8" points="138.63,0 0,0 0,217.362 138.63,217.362 277.262,217.362 277.262,0 "/>
<g>
	<g>
		<g>
			<path fill="#FFFFFF" d="M133.356,97.145v6.398V97.145z"/>
			<path fill="#231F20" d="M133.356,103.93c-0.224,0-0.406-0.173-0.406-0.387v-6.398c0-0.213,0.182-0.386,0.406-0.386
				c0.225,0,0.407,0.173,0.407,0.386v6.398C133.763,103.757,133.581,103.93,133.356,103.93z"/>
		</g>
		<g>
			<ellipse fill="#FFFFFF" cx="133.356" cy="106.074" rx="2.522" ry="2.397"/>
			<path fill="#231F20" d="M133.356,108.857c-1.615,0-2.929-1.249-2.929-2.783c0-1.536,1.314-2.785,2.929-2.785
				c1.616,0,2.929,1.249,2.929,2.785C136.285,107.608,134.972,108.857,133.356,108.857z M133.356,104.062
				c-1.167,0-2.116,0.902-2.116,2.012c0,1.108,0.949,2.011,2.116,2.011s2.116-0.902,2.116-2.011
				C135.472,104.964,134.523,104.062,133.356,104.062z"/>
		</g>
		<rect x="80.088" y="22.746" fill="#FFFFFF" width="106.537" height="74.399"/>
		<path fill="#F9F9F9" d="M95.404,25.108c-13.167,0-15.088,46.847-15.315,66.503V22.746h18.735
			C99.591,24.199,98.737,25.108,95.404,25.108z"/>
		<rect x="72.671" y="21.645" fill="#00386F" width="121.37" height="3.463"/>
		<rect x="91.947" y="82.667" fill="#D1D3D4" width="82.583" height="2.934"/>
		<rect x="91.947" y="88.374" fill="#D1D3D4" width="62.758" height="2.934"/>
		<polygon fill="#D22940" points="92.668,73.557 91.399,72.443 127.844,34.91 149.719,57.525 157.613,46.89 166.607,61.755 
			173.803,51.045 175.258,51.93 166.531,64.922 157.465,49.939 149.896,60.135 127.842,37.333 		"/>
		<polygon fill="#FFC200" points="130.299,61.463 109.787,40.02 94.407,55.132 93.166,53.99 109.827,37.619 130.393,59.12 
			155.002,37.029 168.623,44.882 174.064,41.577 174.996,42.96 168.648,46.817 155.232,39.083 		"/>
		<path fill="#231F20" d="M174.529,78.314H91.947c-0.224,0-0.406-0.173-0.406-0.386V38.286c0-0.214,0.182-0.386,0.406-0.386
			c0.225,0,0.407,0.172,0.407,0.386v39.256h82.176c0.225,0,0.406,0.172,0.406,0.386C174.936,78.141,174.754,78.314,174.529,78.314z"
			/>
	</g>
	<path fill="#E6E7E8" d="M66.408,164.579h161.483c9.809,0,19.471,1.379,28.176,4.021l17.783,5.4
		c2.834,0.861,1.787,3.365-1.408,3.365H30.835c-3.201,0-4.243-2.514-1.397-3.369l18.149-5.459
		C56.239,165.937,56.679,164.579,66.408,164.579z"/>
	<g>
		<path fill="#FFFFFF" d="M170.336,141.319l-5.244,29.133L170.336,141.319z"/>
		<path fill="#231F20" d="M165.092,170.839c-0.021,0-0.045-0.002-0.068-0.006c-0.221-0.035-0.371-0.234-0.332-0.445l5.244-29.133
			c0.037-0.211,0.248-0.354,0.469-0.316c0.223,0.035,0.371,0.236,0.332,0.445l-5.244,29.135
			C165.459,170.706,165.287,170.839,165.092,170.839z"/>
	</g>
	<g>
		<path fill="#FFFFFF" d="M192.768,141.319l5.244,29.133L192.768,141.319z"/>
		<path fill="#231F20" d="M198.012,170.839c-0.195,0-0.367-0.133-0.4-0.32l-5.244-29.135c-0.037-0.209,0.109-0.41,0.332-0.445
			c0.221-0.037,0.432,0.105,0.469,0.316l5.244,29.133c0.039,0.211-0.111,0.41-0.332,0.445
			C198.057,170.837,198.035,170.839,198.012,170.839z"/>
	</g>
	<g>
		<path fill="#FFFFFF" d="M169.57,133.698l-7.004,33.014L169.57,133.698z"/>
		<path fill="#231F20" d="M162.566,167.099c-0.027,0-0.055-0.002-0.08-0.008c-0.221-0.043-0.363-0.246-0.318-0.455l7.004-33.014
			c0.043-0.211,0.258-0.346,0.479-0.303c0.219,0.041,0.361,0.246,0.318,0.455l-7.004,33.014
			C162.926,166.972,162.756,167.099,162.566,167.099z"/>
	</g>
	<g>
		<path fill="#FFFFFF" d="M193.535,133.698l7.002,33.014L193.535,133.698z"/>
		<path fill="#231F20" d="M200.537,167.099c-0.189,0-0.359-0.127-0.398-0.311l-7.004-33.014c-0.043-0.209,0.1-0.414,0.318-0.455
			c0.221-0.043,0.436,0.092,0.48,0.303l7.002,33.014c0.045,0.209-0.098,0.412-0.318,0.455
			C200.592,167.097,200.564,167.099,200.537,167.099z"/>
	</g>
	<g>
		<path fill="#FFFFFF" d="M227.035,139.38l-7.004,33.014L227.035,139.38z"/>
		<path fill="#231F20" d="M220.033,172.778c-0.027,0-0.055-0.002-0.082-0.006c-0.221-0.043-0.363-0.246-0.318-0.455l7.004-33.016
			c0.045-0.209,0.258-0.344,0.479-0.303c0.221,0.043,0.363,0.246,0.318,0.455l-7.004,33.016
			C220.391,172.653,220.223,172.778,220.033,172.778z"/>
	</g>
	<g>
		<path fill="#FFFFFF" d="M251,139.38l7.004,33.014L251,139.38z"/>
		<path fill="#231F20" d="M258.002,172.778c-0.189,0-0.357-0.125-0.396-0.309l-7.004-33.016c-0.045-0.209,0.098-0.412,0.318-0.455
			c0.221-0.041,0.434,0.094,0.479,0.303l7.004,33.016c0.045,0.209-0.1,0.412-0.318,0.455
			C258.057,172.776,258.029,172.778,258.002,172.778z"/>
	</g>
	<path fill="#2D2D2D" d="M164.4,137.763c0,0-0.85,4.148,7.875,4.125c23.113-0.061,25.736,0.871,26.477-4.125
		C190.779,135.97,164.4,137.763,164.4,137.763z"/>
	<path fill="#2D2D2D" d="M196.055,132.774h-28.959l-0.699-25.876c0-3.061,2.609-5.542,5.83-5.542h18.699
		c3.219,0,5.83,2.481,5.83,5.542L196.055,132.774z"/>
	<path fill="#231F20" d="M196.715,139.696h-30.277c-1.125,0-2.037-0.865-2.037-1.934c0,0,2.313-5.787,3.438-5.787h27.477
		c1.125,0,3.438,5.787,3.438,5.787C198.752,138.831,197.84,139.696,196.715,139.696z"/>
	<g>
		<path fill="#00386F" d="M169.256,139.696c0,0-2.092,3.578,18.236,1.59C185.271,134.106,169.256,139.696,169.256,139.696z"/>
		<path fill="#F5C185" d="M193.611,124.413c0.086,0.07,2.574,0.074,2.588,0.074c-0.439-1.064-0.311-0.961-0.844-3.039
			c-0.441-1.721-0.543-2.096-1.801-3.189c-1.016-0.885-1.234-2.611-1.623-4.34c-0.004,0.013-0.008,0.026-0.014,0.039
			c-0.068,0.213-0.139,0.424-0.209,0.637c-0.004,0.012-0.006,0.02-0.01,0.029c-0.025,0.091-0.064,0.217-0.074,0.252
			c-0.051,0.186-0.098,0.387-0.141,0.576c-0.008,0.036-0.063,0.297-0.092,0.436c-0.018,0.125-0.064,0.434-0.07,0.475
			c-0.123,1.043-0.16,0.65-0.244,1.695c-0.027,0.344,0.127,1.438,0.229,1.656C192.092,121.396,192.441,123.47,193.611,124.413z"/>
		<path fill="#F65338" d="M190.102,104.176c-0.113-3.915-1.832-8.377-1.342-12.004c0.398-2.955,0.652-7.257-0.746-9.718
			c-1.486-2.616-4.023-3.082-6.258-3.583c-2.061-0.464-5.367,0.228-7.014,2.155c-1.51,1.768-1.344,4.417-1.533,7.326
			c-0.1,1.527,0.811,5.407,0.93,5.898c-0.035,0.14-0.059,0.288-0.068,0.443c-0.158,2.28-0.057,4.565-0.016,6.848
			c0.035,1.999-0.18,4.115,0.223,6.058c0.662,3.211,2.609,5.102,4.752,5.651c1.439,0.37,2.875,0.257,4.301-0.204
			c1.328-0.43,2.611-1.142,3.945-1.537c0.336-0.1,0.629-0.207,0.885-0.331l-0.219-3.586l0.781,3.241
			c0.824-0.652,1.102-1.714,1.297-3.832C190.107,106.059,190.129,105.116,190.102,104.176z"/>
		<path fill="#F5C185" d="M150.086,124.724c1.299,0.061,2.836,0.271,4.043,0.916c0.107-0.107,0.219-0.225,0.365-0.355
			c0.307-0.271,0.646-0.461,0.568-0.865c-0.035-0.178-0.133-0.365-0.275-0.537c0.035-0.008,0.07-0.012,0.105-0.02
			c0.5-0.113,0.238-0.693-0.262-0.58c-0.188,0.041-0.387,0.045-0.594,0.033c-0.051-0.002-0.098-0.014-0.146-0.027
			c-0.066-0.02-0.135-0.035-0.203-0.043c-0.049-0.008-0.096-0.008-0.139-0.002c-0.055,0.006-0.109,0.006-0.164-0.002
			c-0.154-0.021-0.305-0.041-0.449-0.051c-1.961-0.129-8.387,0.955-6.621,1.662C147.57,124.786,148.822,124.663,150.086,124.724z"/>
		<path fill="#F5C185" d="M179.396,99.43c1.064,0.947,3.398,1.333,4.393-0.026c0.471,0.02,0.957-0.444,0.791-1.17
			c-0.018-0.073-0.033-0.146-0.049-0.218c-0.004-0.121-0.029-0.248-0.078-0.375c-0.078-0.441-0.133-0.887-0.186-1.333
			c-0.021-0.18-0.043-0.36-0.068-0.54c-0.002-0.116-0.002-0.233,0-0.351c0.006-0.263-0.057-0.47-0.156-0.619
			c-0.01-0.036-0.018-0.073-0.025-0.108c-0.018-0.095-0.041-0.188-0.064-0.282c-0.258-0.993-1.285-0.8-1.477,0.005
			c-0.18,0.098-0.336,0.28-0.422,0.565c-0.014,0.048-0.027,0.097-0.039,0.146c-0.055,0.216-0.082,0.441-0.09,0.668
			c-0.004,0.002-0.006,0.002-0.008,0.003c-0.008,0.002-0.014,0.006-0.023,0.009c-0.273-0.184-0.633-0.168-0.877,0.099
			c-0.111-0.047-0.23-0.062-0.35-0.043c-0.021-0.047-0.047-0.092-0.076-0.131c-0.021-0.104-0.053-0.196-0.094-0.274
			c-0.326-0.649-1.193-0.41-1.373,0.299c-0.041,0.15-0.047,0.321-0.012,0.509c0.039,0.214,0.063,0.43,0.074,0.648
			c-0.014,0.173-0.027,0.346-0.041,0.519v0.001c-0.025,0.312-0.049,0.622-0.059,0.935C179.014,98.733,179.086,99.153,179.396,99.43z
			"/>
		<path fill="#E2A971" d="M179.113,96.263c0.039,0.214,0.063,0.43,0.074,0.648c-0.014,0.173-0.027,0.346-0.041,0.519v0.001
			c0,0,1.736,3.139,5.307,0.21c-0.021-0.18-0.229-1.693-0.254-1.873c-0.002-0.116-0.002-0.233,0-0.351
			c0.006-0.263-0.057-0.47-0.156-0.619c-0.01-0.036-0.018-0.073-0.025-0.108l-2.002,0.435l-1.518,0.33l-1.373,0.299
			C179.084,95.904,179.078,96.075,179.113,96.263z"/>
		<path fill="#F5C185" d="M175.414,84.106c0.234-0.241,0.537-0.454,0.928-0.629c0.752-0.339,1.963-0.055,2.758-0.219
			c1.357-0.282,3.26-0.881,4.408,0.131c1.068,0.94,0.893,2.441,1.113,3.75c0.047,0.274,0.109,0.543,0.182,0.809
			c0.014-0.012,0.027-0.026,0.037-0.037c0.295-0.27,0.654-0.429,1.066-0.434c0.311-0.004,0.697,0.19,0.768,0.506
			c0.232,1.04-0.295,1.999-1.088,2.699c-0.006,0.006-0.014,0.011-0.02,0.018c0.074,0.44,0.105,0.891,0.061,1.358
			c-0.162,1.624-1.223,2.803-2.336,3.96c-1.025,1.068-2.266,1.292-3.723,0.931c-1.477-0.365-2.219-1.381-2.836-2.636
			c-0.67-1.362-1.291-2.703-1.395-4.218C175.211,88.234,173.959,85.609,175.414,84.106z"/>
		<path fill="#F5C185" d="M169.84,112.326c-0.348,0.455-0.688,0.914-1.014,1.382c-1.055,1.502-1.574,3.15-3.439,3.822
			c-2.051,0.74-4.049,1.6-5.973,2.602c-1.994,1.035-4.344,2.184-5.904,3.791c-0.383,0.395-0.467,0.342-0.479,0.867
			c-0.033,1.557,3.213,0.084,4.117-0.176c1.619-0.465,3.225-0.967,4.816-1.508c0.379-0.129,0.77-0.258,1.166-0.389
			c1.9-0.629,3.926-1.338,5.363-2.607c1.123-0.99,2.178-2.082,3.271-3.119C170.959,115.528,170.238,113.943,169.84,112.326z"/>
		<path fill="#F5C185" d="M173.703,103.663c0.043-1.23-0.041-2.458-0.33-3.698c0.512-0.19,1.063-0.318,1.617-0.425
			c0.266-0.049,0.531-0.094,0.795-0.14c0.576-0.099,1.143-0.194,1.664-0.334c0.799-0.216,1.471-0.39,2.254-0.018
			c0.441,0.207,0.869,0.477,1.357,0.529c0.879,0.093,1.328-0.489,2.008-0.855c0.281-0.151,0.557-0.225,0.848-0.256
			c0.645-0.068,1.422,0.492,2.01,0.707c0.752,0.274,1.518,0.521,2.285,0.758c0.014,0.004,0.027,0.008,0.041,0.012
			c0.293,0.094,0.588,0.185,0.881,0.274c0.287,0.09,0.572,0.179,0.859,0.268c0.123,0.038,0.238,0.081,0.342,0.128
			c0.52,0.226,0.822,0.559,0.936,1.169c0.049,0.268,0.055,0.534,0.035,0.798c-0.082,0.052-0.16,0.114-0.223,0.19
			c-0.5,0.588-0.764,1.222-0.939,1.895c0.014,0.117,0.008,0.243-0.025,0.376c-0.146,0.59-0.313,1.184-0.383,1.788
			c-0.049,0.414-0.262,0.751-0.625,0.906c-0.125,0.054-0.268,0.086-0.426,0.092c-0.424,0.019-0.846,0.003-1.262-0.026
			c-0.598-0.046-1.188-0.125-1.785-0.203c-0.146-0.018-0.293-0.036-0.439-0.051c-0.266-0.028-0.531-0.049-0.797-0.066
			c-0.033,0.113-0.107,0.225-0.23,0.325c-1.979,1.599-4.838,1.83-6.75,0.003c-0.119-0.115-0.188-0.238-0.215-0.36
			c-0.275-0.012-0.549-0.028-0.822-0.05c-0.295,0.265-0.73,0.369-1.186,0.104c-0.738-0.436-1.334-1.245-1.576-2.108
			c-0.141-0.498-0.162-1.013-0.025-1.483C173.621,103.818,173.658,103.736,173.703,103.663z"/>
		<path fill="#004A8E" d="M189.66,123.823c-0.66-1.941-1.615-4.051-1.445-5.967c0.064-0.74,0.279-1.436,0.543-2.117
			c0.125-0.324,0.26-0.646,0.395-0.969c0.094,0.23,0.191,0.462,0.287,0.69c0.58,1.367,2.172,6.126,2.494,7.583
			c0.049,0.223,1.553,0.111,2.494-0.037c0.279-0.045,0.596-0.096,0.914-0.199c0.883-0.285,0.244-4.471-0.008-5.326
			c-0.295-0.996-0.668-1.994-0.869-2.992c-0.457-2.257-0.52-4.496-0.695-6.781c-0.166-2.131-0.445-4.549-1.768-6.355
			c-0.838-1.146-6.568-0.357-11.279-0.563c-3.574-0.155-6.414-1.46-6.928-1.288c-1.703,0.569-2.547,1.938-3.201,3.456
			c-0.643,1.493-1.014,3.064-1.48,4.609c-0.654,2.15-0.674,4.452-1.465,6.558c-0.367,0.98-14.207,8.146-13.66,9.119
			c0.48,0.852,1.02,1.814,1.672,2.543c0.516,0.576,15.172-6.197,15.566-6.697c0.654-0.82,1.107-1.75,1.479-2.719
			c0.164-0.434,0.313-0.879,0.455-1.326c0.158,0.257,0.307,0.512,0.43,0.779c0.197,0.425,0.332,0.879,0.338,1.4
			c0.014,1.527-0.678,2.986-1.105,4.436c-0.672,2.277-1.77,5.068-1.742,7.457c0,0.195,0.023,0.359,0.08,0.465
			c0.041,0.084,0.086,0.162,0.135,0.242c0.754,1.182,2.238,1.518,3.549,1.842c4.057,1.004,8.545,2.121,12.684,0.869
			c1.465-0.443,3.041-1.148,3.445-2.693c0.348-1.324-0.615-3.521-0.949-4.824C189.924,124.63,189.799,124.231,189.66,123.823z"/>
		<path fill="#00386F" d="M174.553,115.42c-0.432,0.02-0.742,0.185-0.963,0.405c-0.123-0.268-0.271-0.522-0.43-0.779
			c-0.143,0.447-0.291,0.893-0.455,1.326c-0.658-1.655-1.904-5.524-0.061-7.279C170.895,113.122,174.553,115.42,174.553,115.42z"/>
		<path fill="#00386F" d="M186.729,116.019c0,0,1.254-0.599,2.424-1.248c-0.135,0.323-0.27,0.645-0.395,0.969
			C187.805,116.024,186.729,116.019,186.729,116.019z"/>
		<path fill="#00386F" d="M190.014,114.959c-0.133,0.204-0.334,0.369-0.574,0.502c-0.096-0.229-0.193-0.46-0.287-0.69
			c1.146-0.634,0.088-5.086,0.045-5.27C189.254,109.662,190.701,113.909,190.014,114.959z"/>
		<path fill="#F5C185" d="M182.404,168.263c-0.326-1.246-0.748-2.459-1.486-3.576c-0.412-0.568-0.857-0.82-1.27-0.32
			c0.059-0.072-0.809-0.486-1.021-0.336c-0.371,0.264-0.344,1.379-0.385,1.875c-0.121,1.41-0.1,2.867,0.061,4.324
			c-0.014,0.795,0.244,1.662,0.324,2.383c0.047,0.439,0.158,0.936,0.557,1.215c0.123,0.086,0.248,0.133,0.367,0.146
			c0.318,0.514,0.904,0.656,1.395,0.283c0.215,0.119,0.453,0.164,0.717,0.051c0.252-0.107,0.408-0.33,0.545-0.561
			c0.18,0.063,0.367,0.084,0.564-0.006c0.307-0.135,0.482-0.473,0.529-0.773c0.123-0.779-0.148-1.535-0.326-2.285
			C182.785,169.872,182.613,169.06,182.404,168.263z"/>
		<path fill="#F5C185" d="M188.309,168.673c-0.025-0.176-0.059-0.346-0.102-0.51c-0.393-1.51-0.932-2.977-1.6-4.354
			c-0.223-0.459-0.609-1.525-1.059-1.676c-0.256-0.086-0.926,0.543-0.844,0.596c-0.574-0.363-0.902-0.004-1.082,0.648
			c-0.314,1.141-0.174,3.178-0.094,3.803c0.027,0.219,0.061,0.443,0.1,0.668c0.074,0.584,0.229,1.156,0.377,1.734
			c0.152,0.598,0.221,1.205,0.361,1.803c0.09,0.375,0.209,0.859,0.592,1.061c0.313,0.164,0.584,0.074,0.803-0.109
			c0.188,0.193,0.4,0.332,0.76,0.291c0.236-0.027,0.406-0.121,0.527-0.258c0.223-0.061,0.42-0.193,0.588-0.379
			c0.236-0.16,0.426-0.422,0.518-0.719c0.404-0.162,0.537-0.691,0.496-1.188C188.609,169.612,188.492,169.13,188.309,168.673z"/>
		<path fill="#E2A971" d="M172.57,139.075c0,0,2.66-1.072,4.436-1.076c1.775,0,4.021,0.201,4.021,0.201l-3.43,3.313L172.57,139.075z
			"/>
		<path fill="#F5C185" d="M185.701,147.313c-0.309-3.232,0.131-8.637-4.674-9.113c-1.055-0.104-2.057-0.432-3.273-0.016
			c-0.609,0.998,0,4.049,0.281,5.238c0.793,3.359,1.617,6.697,2.283,10.088c0.234,1.197,0.635,2.344,1.066,3.482
			c0.582,1.922,1.211,3.828,1.766,5.76c0.02,0.131,0.053,0.248,0.1,0.352c0.127,0.451,0.252,0.904,0.367,1.359
			c0.154,0.598,0.863,0.867,1.41,0.746c0.631-0.137,0.963-0.695,0.967-1.307c0.002-0.219,0.002-0.438,0.002-0.656
			c0.164-0.209,0.264-0.482,0.248-0.818C186.02,157.394,186.182,152.333,185.701,147.313z"/>
		<path fill="#F5C185" d="M180.975,164.438c0.004-0.115-0.012-0.236-0.043-0.363c-0.234-2.002-0.389-4.006-0.594-6.006
			c-0.039-1.219-0.111-2.434-0.357-3.633c-0.693-3.393-1.219-6.797-1.783-10.209c-0.469-2.84-0.842-5.162-4.459-5.33
			c-0.945-0.043-2.193,0.764-2.68,1.256c-0.482,0.482-0.09,3.414,0.164,4.83c0.348,1.947,0.826,3.873,1.41,5.768
			c1.49,4.83,3.588,9.455,5.322,14.203c0.115,0.314,0.313,0.531,0.543,0.662c0.086,0.203,0.17,0.404,0.256,0.607
			c0.238,0.564,0.76,0.955,1.393,0.842c0.553-0.098,1.102-0.615,1.014-1.227C181.092,165.372,181.031,164.905,180.975,164.438z"/>
		<path fill="#231F20" d="M184.43,173.286c-0.98-1.301-1.088-3.391-0.768-4.807c0.551,0.865,0.85,2.063,2.117,2.189
			c1.059,0.107,1.982-0.561,2.25-1.527c0.119-0.439,0.109-0.895,0.025-1.338c-0.072-0.387-0.174-0.768-0.283-1.137
			c0.801,0.836,1.105,2.018,1.277,3.105c0.158,1.008,0.363,2.232,0.055,3.227c-0.475,1.518-2.299,1.846-3.668,1.145
			C185.029,173.937,184.697,173.64,184.43,173.286z"/>
		<path fill="#231F20" d="M184.061,174.157c0.338-1.568-0.461-3.518-1.359-4.688c-0.133,1.004,0.109,2.211-0.994,2.82
			c-0.92,0.508-2.051,0.256-2.709-0.525c-0.297-0.354-0.484-0.775-0.598-1.211c-0.098-0.381-0.17-0.768-0.23-1.148
			c-0.371,1.072-0.143,2.271,0.168,3.332c0.287,0.98,0.623,2.178,1.332,2.965c1.084,1.203,2.891,0.797,3.84-0.373
			C183.793,174.981,183.969,174.583,184.061,174.157z"/>
		<path fill="#F5C185" d="M195.873,123.366c-0.682-0.576-1.869-0.361-2.662-0.207c-0.746,0.145-1.045,0.709-1.125,1.594
			c-0.053,0.598,0.701,0.654,0.754,0.055c0.008-0.078,0.016-0.148,0.025-0.211c0.025,0.203,0.188,0.379,0.35,0.414
			c0.748,0.17,1.701,0.479,2.457,0.127C196.352,124.823,196.447,123.854,195.873,123.366z"/>
		<path fill="#004A8E" d="M190.488,133.692c1.547-3.734,2.352-7.439-3.352-7.607c-0.094-0.008-0.188-0.01-0.279-0.008
			c-0.865-0.006-1.775,0.063-2.633,0.105c-2.457,0.125-4.957,0.025-7.418,0.135c-0.578,0.025-1.152,0.047-1.684,0.115
			c-3.467,0.447-5.488,2.594-5.938,5.754c-0.264,1.867-0.832,6.539,0.137,8.193c1.279,2.18,1.941-4.543,14.105-1.682
			c0.617,0.145,4.076,2.953,4.064,2.588C187.447,139.817,189.447,136.206,190.488,133.692z"/>
	</g>
	<g>
		<polygon fill="#70C6C5" points="236.061,69.323 231.666,65.272 237.014,64.162 		"/>
		<ellipse fill="#70C6C5" cx="232.952" cy="59.654" rx="7.62" ry="7.241"/>
		<g>
			<path fill="#FFFFFF" d="M231.785,60.822v-0.479c0-0.365,0.078-0.672,0.234-0.923c0.156-0.25,0.434-0.494,0.832-0.733
				c0.316-0.189,0.545-0.36,0.684-0.512c0.139-0.153,0.207-0.327,0.207-0.524c0-0.156-0.074-0.279-0.221-0.371
				c-0.15-0.091-0.344-0.136-0.582-0.136c-0.59,0-1.279,0.198-2.068,0.596l-0.814-1.516c0.973-0.527,1.988-0.791,3.049-0.791
				c0.871,0,1.555,0.182,2.051,0.546c0.496,0.364,0.744,0.86,0.744,1.487c0,0.45-0.109,0.839-0.33,1.168s-0.574,0.64-1.059,0.934
				c-0.41,0.252-0.668,0.437-0.771,0.554c-0.104,0.117-0.154,0.255-0.154,0.416v0.284H231.785z M231.533,62.772
				c0-0.341,0.105-0.605,0.314-0.791c0.207-0.187,0.516-0.279,0.924-0.279c0.391,0,0.689,0.094,0.898,0.282
				c0.209,0.188,0.313,0.45,0.313,0.788c0,0.338-0.107,0.6-0.324,0.786c-0.217,0.186-0.514,0.279-0.887,0.279
				c-0.389,0-0.691-0.091-0.91-0.275S231.533,63.114,231.533,62.772z"/>
		</g>
	</g>
	<g>
		<polygon fill="#70C6C5" points="192.957,77.924 197.352,73.875 192.004,72.764 		"/>
		<ellipse fill="#70C6C5" cx="196.065" cy="68.255" rx="7.62" ry="7.243"/>
		<g>
			<path fill="#FFFFFF" d="M196.863,69.424h-1.936l-0.299-5.271h2.533L196.863,69.424z M194.652,71.375
				c0-0.338,0.105-0.601,0.316-0.789c0.211-0.187,0.52-0.281,0.92-0.281s0.701,0.094,0.906,0.281
				c0.207,0.188,0.309,0.451,0.309,0.789c0,0.334-0.105,0.596-0.32,0.783c-0.213,0.187-0.51,0.281-0.895,0.281
				c-0.387,0-0.689-0.094-0.908-0.281S194.652,71.709,194.652,71.375z"/>
		</g>
	</g>
	<g>
		<path fill="#FFFFFF" d="M93.375,141.319l5.245,29.133L93.375,141.319z"/>
		<path fill="#231F20" d="M98.62,170.839c-0.194,0-0.366-0.133-0.4-0.32l-5.244-29.135c-0.038-0.209,0.111-0.41,0.333-0.445
			c0.221-0.037,0.431,0.105,0.469,0.316l5.244,29.133c0.038,0.211-0.11,0.41-0.332,0.445
			C98.666,170.837,98.643,170.839,98.62,170.839z"/>
	</g>
	<g>
		<path fill="#FFFFFF" d="M70.944,141.319L65.7,170.452L70.944,141.319z"/>
		<path fill="#231F20" d="M65.7,170.839c-0.022,0-0.045-0.002-0.069-0.006c-0.221-0.035-0.37-0.234-0.332-0.445l5.244-29.133
			c0.039-0.211,0.248-0.354,0.469-0.316c0.222,0.035,0.371,0.236,0.333,0.445l-5.244,29.135
			C66.067,170.706,65.895,170.839,65.7,170.839z"/>
	</g>
	<g>
		<path fill="#FFFFFF" d="M94.143,133.698l7.003,33.014L94.143,133.698z"/>
		<path fill="#231F20" d="M101.145,167.099c-0.189,0-0.359-0.127-0.397-0.311l-7.004-33.014c-0.044-0.209,0.098-0.414,0.318-0.455
			c0.22-0.043,0.434,0.092,0.479,0.303l7.003,33.014c0.044,0.209-0.098,0.412-0.318,0.455
			C101.199,167.097,101.173,167.099,101.145,167.099z"/>
	</g>
	<g>
		<path fill="#FFFFFF" d="M70.178,133.698l-7.003,33.014L70.178,133.698z"/>
		<path fill="#231F20" d="M63.175,167.099c-0.027,0-0.054-0.002-0.081-0.008c-0.22-0.043-0.363-0.246-0.318-0.455l7.003-33.014
			c0.045-0.211,0.259-0.346,0.479-0.303c0.221,0.041,0.362,0.246,0.318,0.455l-7.003,33.014
			C63.534,166.972,63.364,167.099,63.175,167.099z"/>
	</g>
	<path fill="#2D2D2D" d="M99.312,137.763c0,0,0.85,4.148-7.875,4.125c-23.113-0.061-25.736,0.871-26.476-4.125
		C72.933,135.97,99.312,137.763,99.312,137.763z"/>
	<path fill="#2D2D2D" d="M67.656,132.774h28.959l0.701-25.876c0-3.061-2.611-5.542-5.831-5.542H72.787
		c-3.22,0-5.831,2.481-5.831,5.542L67.656,132.774z"/>
	<path fill="#231F20" d="M66.996,139.696h30.279c1.125,0,2.037-0.865,2.037-1.934c0,0-2.313-5.787-3.437-5.787H68.396
		c-1.125,0-3.436,5.787-3.436,5.787C64.96,138.831,65.872,139.696,66.996,139.696z"/>
	<g>
		<path fill="#004A8E" d="M92.654,140.153c0,0,0.577-11.141-2.059-13.018c-2.636-1.877-6.953,3.922-6.953,3.922
			s0.837,9.91,2.578,11.375C87.96,143.897,92.654,140.153,92.654,140.153z"/>
		<path fill="#66240E" d="M75.52,97.938c4.842-0.624,9.697-1.146,14.546-1.719c-0.018-0.081-0.413-2.531-0.432-2.611
			c-0.036-0.153-0.082-0.296-0.137-0.429c0.039-0.502,0.325-4.468-0.015-5.964c-0.647-2.85-0.901-5.492-2.675-7.024
			c-1.933-1.67-5.311-1.882-7.275-1.129c-2.128,0.816-4.564,1.638-5.62,4.438c-0.994,2.632-0.063,6.849,0.8,9.714
			C74.936,93.954,75.445,97.115,75.52,97.938z"/>
		<path fill="#F5C185" d="M84.316,99.43c-1.064,0.947-3.398,1.333-4.394-0.026c-0.469,0.02-0.956-0.444-0.791-1.17
			c0.019-0.073,0.033-0.146,0.05-0.218c0.004-0.121,0.028-0.248,0.077-0.375c0.079-0.441,0.133-0.887,0.187-1.333
			c0.022-0.18,0.043-0.36,0.067-0.54c0.003-0.116,0.004-0.233,0.001-0.351c-0.006-0.263,0.056-0.47,0.157-0.619
			c0.008-0.036,0.016-0.073,0.023-0.108c0.02-0.095,0.042-0.188,0.066-0.282c0.256-0.993,1.285-0.8,1.475,0.005
			c0.181,0.098,0.338,0.28,0.423,0.565c0.014,0.048,0.028,0.097,0.039,0.146c0.053,0.216,0.081,0.441,0.089,0.668
			c0.003,0.002,0.006,0.002,0.008,0.003c0.007,0.002,0.014,0.006,0.023,0.009c0.273-0.184,0.633-0.168,0.876,0.099
			c0.112-0.047,0.231-0.062,0.349-0.043c0.022-0.047,0.048-0.092,0.077-0.131c0.021-0.104,0.053-0.196,0.094-0.274
			c0.327-0.649,1.193-0.41,1.373,0.299c0.041,0.15,0.048,0.321,0.012,0.509c-0.039,0.214-0.063,0.43-0.075,0.648
			c0.014,0.173,0.027,0.346,0.042,0.519v0.001c0.025,0.312,0.049,0.622,0.059,0.935C84.698,98.733,84.625,99.153,84.316,99.43z"/>
		<path fill="#E2A971" d="M84.599,96.263c-0.039,0.214-0.063,0.43-0.075,0.648c0.014,0.173,0.027,0.346,0.042,0.519v0.001
			c0,0-1.735,3.139-5.307,0.21c0.022-0.18,0.23-1.693,0.254-1.873c0.003-0.116,0.004-0.233,0.001-0.351
			c-0.006-0.263,0.056-0.47,0.157-0.619c0.008-0.036,0.016-0.073,0.023-0.108l2.003,0.435l1.517,0.33l1.373,0.299
			C84.627,95.904,84.634,96.075,84.599,96.263z"/>
		<path fill="#F5C185" d="M86.631,83.333c-0.27-0.205-0.603-0.372-1.017-0.49c-0.796-0.227-1.95,0.227-2.76,0.177
			c-1.387-0.085-3.362-0.404-4.338,0.76c-0.907,1.081-0.497,2.541-0.508,3.866c-0.002,0.277-0.023,0.552-0.051,0.826
			c-0.015-0.011-0.03-0.022-0.044-0.031c-0.334-0.226-0.713-0.331-1.122-0.277c-0.308,0.041-0.659,0.287-0.679,0.61
			c-0.065,1.061,0.608,1.934,1.501,2.514c0.008,0.005,0.016,0.01,0.024,0.014c-0.004,0.447,0.036,0.896,0.156,1.352
			c0.417,1.582,1.651,2.597,2.934,3.583c1.183,0.909,2.444,0.953,3.828,0.388c1.402-0.573,1.975-1.684,2.386-3.011
			c0.447-1.443,0.85-2.857,0.712-4.37C87.485,87.385,88.309,84.611,86.631,83.333z"/>
		<path fill="#F5C185" d="M90.009,103.663c-0.042-1.23,0.041-2.458,0.331-3.698c-0.513-0.19-1.064-0.318-1.619-0.425
			c-0.265-0.049-0.53-0.094-0.793-0.14c-0.577-0.099-1.143-0.194-1.664-0.334c-0.8-0.216-1.471-0.39-2.255-0.018
			c-0.441,0.207-0.868,0.477-1.357,0.529c-0.879,0.093-1.327-0.489-2.008-0.855c-0.28-0.151-0.555-0.225-0.846-0.256
			c-0.646-0.068-1.423,0.492-2.01,0.707c-0.754,0.274-1.519,0.521-2.286,0.758c-0.014,0.004-0.027,0.008-0.041,0.012
			c-0.292,0.094-0.588,0.185-0.881,0.274c-0.287,0.09-0.573,0.179-0.858,0.268c-0.124,0.038-0.238,0.081-0.344,0.128
			c-0.52,0.226-0.82,0.559-0.934,1.169c-0.05,0.268-0.056,0.534-0.037,0.798c0.083,0.052,0.159,0.114,0.225,0.19
			c0.499,0.588,0.762,1.222,0.939,1.895c-0.015,0.117-0.01,0.243,0.024,0.376c0.147,0.59,0.313,1.184,0.384,1.788
			c0.049,0.414,0.262,0.751,0.625,0.906c0.125,0.054,0.266,0.086,0.426,0.092c0.424,0.019,0.844,0.003,1.262-0.026
			c0.597-0.046,1.188-0.125,1.784-0.203c0.145-0.018,0.292-0.036,0.438-0.051c0.266-0.028,0.532-0.049,0.798-0.066
			c0.034,0.113,0.107,0.225,0.231,0.325c1.977,1.599,4.836,1.83,6.749,0.003c0.12-0.115,0.188-0.238,0.216-0.36
			c0.275-0.012,0.548-0.028,0.823-0.05c0.295,0.265,0.73,0.369,1.185,0.104c0.738-0.436,1.333-1.245,1.576-2.108
			c0.14-0.498,0.162-1.013,0.027-1.483C90.09,103.818,90.053,103.736,90.009,103.663z"/>
		<path fill="#C0FFF7" d="M74.052,123.823c0.661-1.941,1.615-4.051,1.445-5.967c-0.065-0.74-0.28-1.436-0.543-2.117
			c-0.125-0.324-0.26-0.646-0.395-0.969c-0.094,0.23-0.191,0.462-0.288,0.69c-0.58,1.367-2.173,6.126-2.493,7.583
			c-0.05,0.223-1.553,0.111-2.494-0.037c-0.28-0.045-0.596-0.096-0.914-0.199c-0.884-0.285-0.245-4.471,0.007-5.326
			c0.294-0.996,0.667-1.994,0.87-2.992c0.456-2.257,0.519-4.496,0.694-6.781c0.166-2.131,0.445-4.549,1.768-6.355
			c0.837-1.146,6.569-0.357,11.28-0.563c3.574-0.155,6.413-1.46,6.927-1.288c1.703,0.569,2.548,1.938,3.202,3.456
			c0.643,1.493,1.012,3.064,1.48,4.609c0.653,2.15,0.673,4.452,1.464,6.558c0.367,0.98,4.402,8.146,3.855,9.119
			c-0.48,0.852-1.02,1.814-1.672,2.543c-0.515,0.576-5.366-6.197-5.762-6.697c-0.653-0.82-1.106-1.75-1.477-2.719
			c-0.165-0.434-0.314-0.879-0.457-1.326c-0.157,0.257-0.306,0.512-0.43,0.779c-0.196,0.425-0.331,0.879-0.336,1.4
			c-0.015,1.527,0.678,2.986,1.104,4.436c0.671,2.277,1.77,5.068,1.743,7.457c-0.001,0.195-0.023,0.359-0.08,0.465
			c-0.042,0.084-0.086,0.162-0.135,0.242c-0.754,1.182-2.238,1.518-3.549,1.842c-4.055,1.004-8.544,2.121-12.683,0.869
			c-1.466-0.443-3.04-1.148-3.446-2.693c-0.348-1.324,0.616-3.521,0.949-4.824C73.788,124.63,73.914,124.231,74.052,123.823z"/>
		<path fill="#90DDD2" d="M89.159,115.42c0.433,0.02,0.743,0.185,0.962,0.405c0.125-0.268,0.273-0.522,0.429-0.779
			c0.143,0.447,0.292,0.893,0.458,1.326c0.657-1.655,1.904-5.524,0.059-7.279C92.817,113.122,89.159,115.42,89.159,115.42z"/>
		<path fill="#70C6C5" d="M76.982,116.019c0,0-1.253-0.599-2.422-1.248c0.134,0.323,0.27,0.645,0.395,0.969
			C75.907,116.024,76.982,116.019,76.982,116.019z"/>
		<path fill="#90DDD2" d="M73.698,114.959c0.133,0.204,0.334,0.369,0.574,0.502c0.097-0.229,0.193-0.46,0.288-0.69
			c-1.146-0.634-0.089-5.086-0.045-5.27C74.458,109.662,73.011,113.909,73.698,114.959z"/>
		<path fill="#F5C185" d="M81.307,168.263c0.328-1.246,0.75-2.459,1.488-3.576c0.411-0.568,0.856-0.82,1.269-0.32
			c-0.059-0.072,0.81-0.486,1.021-0.336c0.373,0.264,0.344,1.379,0.387,1.875c0.12,1.41,0.099,2.867-0.062,4.324
			c0.013,0.795-0.244,1.662-0.324,2.383c-0.048,0.439-0.159,0.936-0.558,1.215c-0.123,0.086-0.247,0.133-0.367,0.146
			c-0.318,0.514-0.904,0.656-1.394,0.283c-0.215,0.119-0.454,0.164-0.716,0.051c-0.253-0.107-0.409-0.33-0.546-0.561
			c-0.18,0.063-0.365,0.084-0.566-0.006c-0.304-0.135-0.48-0.473-0.527-0.773c-0.123-0.779,0.149-1.535,0.326-2.285
			C80.927,169.872,81.098,169.06,81.307,168.263z"/>
		<path fill="#F5C185" d="M75.402,168.673c0.026-0.176,0.06-0.346,0.103-0.51c0.393-1.51,0.932-2.977,1.599-4.354
			c0.224-0.459,0.608-1.525,1.059-1.676c0.256-0.086,0.925,0.543,0.843,0.596c0.574-0.363,0.902-0.004,1.082,0.648
			c0.314,1.141,0.173,3.178,0.095,3.803c-0.028,0.219-0.061,0.443-0.101,0.668c-0.075,0.584-0.229,1.156-0.376,1.734
			c-0.153,0.598-0.221,1.205-0.362,1.803c-0.088,0.375-0.208,0.859-0.592,1.061c-0.312,0.164-0.584,0.074-0.802-0.109
			c-0.188,0.193-0.4,0.332-0.76,0.291c-0.235-0.027-0.405-0.121-0.526-0.258c-0.224-0.061-0.421-0.193-0.589-0.379
			c-0.236-0.16-0.426-0.422-0.517-0.719c-0.406-0.162-0.538-0.691-0.496-1.188C75.102,169.612,75.22,169.13,75.402,168.673z"/>
		<path fill="#004A8E" d="M78.011,147.313c0.31-3.232-0.13-8.637,4.675-9.113c1.054-0.104,2.055-0.432,3.272-0.016
			c0.61,0.998,0,4.049-0.281,5.238c-0.793,3.359-1.618,6.697-2.282,10.088c-0.235,1.197-0.637,2.344-1.068,3.482
			c-0.409,1.078-0.109,10.092-5.222,6.816c-1.958-1.254-0.085-5.195-0.05-7.311C77.106,153.435,77.718,150.368,78.011,147.313z"/>
		<path fill="#004A8E" d="M81.94,164.075c0.233-2.002,1.546-8.439,1.791-9.639c0.694-3.393,1.22-6.797,1.783-10.209
			c0.469-2.84,0.843-5.162,4.459-5.33c0.946-0.043,2.194,0.764,2.681,1.256c0.48,0.482,0.09,3.414-0.164,4.83
			c-0.35,1.947-0.826,3.873-1.411,5.768c-0.855,2.771-2.62,13.963-4.703,15.381C83.643,167.993,81.929,164.181,81.94,164.075z"/>
		<path fill="#231F20" d="M79.282,173.286c0.981-1.301,1.087-3.391,0.768-4.807c-0.551,0.865-0.849,2.063-2.117,2.189
			c-1.059,0.107-1.983-0.561-2.249-1.527c-0.121-0.439-0.11-0.895-0.026-1.338c0.073-0.387,0.173-0.768,0.281-1.137
			c-0.798,0.836-1.104,2.018-1.275,3.105c-0.158,1.008-0.364,2.232-0.054,3.227c0.474,1.518,2.299,1.846,3.668,1.145
			C78.683,173.937,79.015,173.64,79.282,173.286z"/>
		<path fill="#231F20" d="M79.651,174.157c-0.337-1.568,0.461-3.518,1.359-4.688c0.132,1.004-0.108,2.211,0.995,2.82
			c0.921,0.508,2.052,0.256,2.709-0.525c0.297-0.354,0.484-0.775,0.597-1.211c0.098-0.381,0.17-0.768,0.23-1.148
			c0.371,1.072,0.143,2.271-0.167,3.332c-0.288,0.98-0.624,2.178-1.333,2.965c-1.083,1.203-2.89,0.797-3.84-0.373
			C79.92,174.981,79.744,174.583,79.651,174.157z"/>
		<path fill="#F5C185" d="M100.986,123.165c-0.233-0.045-0.488-0.066-0.76-0.078c-0.7-0.029-1.414-0.059-2.09,0.115
			c-0.75,0.193-1.67,0.852-1.853,1.609c-0.007,0.135-0.007,0.27-0.002,0.402c0.003,0.16-0.013,0.314-0.045,0.463
			c0.155,0.191,0.309,0.354,0.607,0.502c0.44,0.223,0.909,0.398,1.388,0.527c0.938,0.252,2.041,0.375,2.954-0.025
			c0.04-0.018,0.073-0.043,0.1-0.072c0.054,0.094,0.109,0.186,0.164,0.279c0.198,0.334,0.781,0.348,0.904-0.061
			c0.241-0.799,0.185-1.764-0.062-2.555C102.071,123.567,101.607,123.284,100.986,123.165z M100.028,125.835
			c-0.193-0.094-0.225-0.385-0.401-0.504c0-0.002-0.001-0.002-0.002-0.002c0.137-0.035,0.273-0.074,0.407-0.119
			c0.045-0.016,0.094-0.021,0.143-0.021c0.128,0.002,0.258,0.012,0.388,0.025c0.12,0.275,0.254,0.545,0.396,0.811
			C100.654,125.974,100.251,125.944,100.028,125.835z"/>
		<path fill="#F5C185" d="M83.669,122.478c-0.233-0.045-0.488-0.066-0.761-0.078c-0.699-0.031-1.413-0.061-2.088,0.113
			c-0.751,0.195-1.671,0.852-1.854,1.611c-0.007,0.133-0.007,0.268-0.001,0.402c0.003,0.16-0.014,0.313-0.046,0.461
			c0.156,0.191,0.311,0.354,0.608,0.504c0.44,0.223,0.909,0.396,1.389,0.525c0.938,0.254,2.04,0.377,2.954-0.025
			c0.039-0.018,0.073-0.043,0.1-0.07c0.055,0.092,0.108,0.186,0.164,0.277c0.198,0.336,0.781,0.348,0.904-0.061
			c0.241-0.799,0.184-1.764-0.063-2.553C84.754,122.88,84.291,122.595,83.669,122.478z M82.711,125.146
			c-0.193-0.094-0.225-0.383-0.4-0.504c0,0-0.001,0-0.001-0.002c0.137-0.035,0.272-0.074,0.406-0.117
			c0.046-0.016,0.094-0.025,0.143-0.023c0.127,0.002,0.258,0.014,0.388,0.025c0.12,0.275,0.253,0.547,0.397,0.813
			C83.336,125.286,82.934,125.255,82.711,125.146z"/>
		<path fill="#C0FFF7" d="M68.058,119.257l12.992,3.361l-0.561,1.76c0,0-11.24,0.576-12.167-0.574
			C67.394,122.655,68.058,119.257,68.058,119.257z"/>
		<path fill="#66240E" d="M77.466,85.588l10.247-0.666c0,0,0.072-3.461-3.062-3.461S77.019,82.735,77.466,85.588z"/>
		<path fill="#004A8E" d="M78.918,141.513c0,0-7.385-7.543-5.404-11.832c1.98-4.289,11.677,0,11.677,0l1.027,10.076L78.918,141.513z
			"/>
	</g>
	<g>
		<polygon fill="#70C6C5" points="70.754,77.924 66.36,73.875 71.708,72.764 		"/>
		<ellipse fill="#70C6C5" cx="67.647" cy="68.255" rx="7.62" ry="7.243"/>
		<g>
			<path fill="#FFFFFF" d="M66.53,69.424v-0.479c0-0.364,0.079-0.671,0.235-0.922c0.156-0.25,0.434-0.496,0.833-0.733
				c0.317-0.189,0.545-0.36,0.683-0.512c0.139-0.152,0.208-0.327,0.208-0.524c0-0.156-0.075-0.28-0.223-0.37
				c-0.148-0.091-0.342-0.137-0.58-0.137c-0.59,0-1.281,0.199-2.07,0.597l-0.815-1.516c0.974-0.528,1.99-0.792,3.049-0.792
				c0.872,0,1.556,0.182,2.053,0.546c0.496,0.365,0.744,0.861,0.744,1.488c0,0.45-0.11,0.839-0.331,1.168
				c-0.221,0.328-0.574,0.64-1.058,0.933c-0.41,0.253-0.667,0.437-0.771,0.555c-0.104,0.117-0.156,0.255-0.156,0.415v0.284H66.53z
				 M66.278,71.375c0-0.342,0.105-0.605,0.313-0.792c0.209-0.186,0.518-0.279,0.923-0.279c0.391,0,0.691,0.094,0.9,0.281
				c0.21,0.188,0.314,0.451,0.314,0.789s-0.109,0.6-0.326,0.786c-0.217,0.185-0.513,0.278-0.889,0.278
				c-0.387,0-0.689-0.092-0.909-0.276C66.388,71.979,66.278,71.716,66.278,71.375z"/>
		</g>
	</g>
	<polygon fill="#231F20" points="228.65,137.624 250.477,137.624 256.08,141.788 228.65,141.788 	"/>
	<path fill="#2D2D2D" d="M247.943,146.103H228.65v-4.314h27.43l0,0C254.338,144.47,251.26,146.103,247.943,146.103z"/>
	<path fill="#2D2D2D" d="M256.08,141.788l3.115-32.077c0.346-1.875-0.854-3.695-2.781-4.217l-8.322-3.011
		c-2.52-0.683-5.02,1.139-4.98,3.63l0.467,30.289L256.08,141.788z"/>
	<g>
		<path fill="#843817" d="M246.191,78.227c0.033-1.68-0.842-3.311-2.402-4.145c-1.23-0.658-2.627-0.748-3.936-0.394
			c-0.877-0.677-1.949-1.029-3.166-0.817c-1.088,0.189-1.945,0.869-2.467,1.747c-0.34-0.379-0.814-0.599-1.561-0.493
			c-0.725,0.104-1.385,0.461-1.656,1.132c-0.07,0.176-0.107,0.355-0.127,0.537c-1.041-0.249-2.227,0.307-2.605,1.518
			c-0.682,2.171,1.416,3.586,2.977,4.706c0.863,0.62,1.701-0.767,0.848-1.379c-0.123-0.089-0.256-0.179-0.391-0.271
			c0.082,0.013,0.166,0.022,0.248,0.028c0.268,0.019,0.471-0.066,0.605-0.206c0.031,0.002,0.063,0.005,0.094,0.006
			c1.555,0.032,3.291,0.539,4.51-0.705c0.031-0.03,0.057-0.063,0.084-0.094c0.965,0.025,1.918,0.243,2.752,0.729
			c0.539,0.313,1,0.737,1.553,1.035c0.799,0.433,1.734,0.651,2.564,0.16c0.17-0.101,0.316-0.226,0.438-0.366
			c0.275-0.081,0.535-0.22,0.766-0.425C245.969,79.948,246.174,79.044,246.191,78.227z"/>
		<path fill="#231F20" d="M208.957,165.159l-9.561,1.867c-0.785,0.154-1.357,0.807-1.373,1.57l0,0
			c-0.02,0.902,0.734,1.65,1.686,1.67l13.506,0.266c1.072,0.023,1.904-0.885,1.736-1.893l-0.348-2.064
			c-0.133-0.781-0.832-1.361-1.664-1.377l-3.6-0.072C209.211,165.122,209.082,165.134,208.957,165.159z"/>
		<path fill="#2D2D2D" d="M214.518,169.177l-9.25,2.074c-0.895,0.201-1.248,1.146-0.861,2.203l0,0
			c0.424,1.152,1.564,1.986,2.539,1.951l10.279-0.367c0.607-0.023,1.172-0.816,1.201-1.721l0.066-2.086
			c0.029-0.885-0.352-1.619-0.924-1.697l-2.734-0.371C214.729,169.149,214.621,169.153,214.518,169.177z"/>
		<path fill="#F5C185" d="M204.119,124.792c0.289,0.117,0.678,0.082,0.916-0.055c0.852,0.406,1.768,0.686,2.801,0.584
			c0.092,0.057,0.211,0.102,0.365,0.125c1.063,0.156,2.121,0.205,3.133-0.023c0.393-0.088,0.75-0.217,1.014-0.426
			c0.324-0.254,0.254-0.566,0.479-0.836c0.078-0.096,0.098-0.188,0.076-0.273c0.684-0.309,0.967-0.969,0.098-1.443
			c-1.232-0.672-3.041-0.951-4.572-1.104c-0.971-0.096-1.805-0.01-2.586,0.186c-0.791,0.08-1.482,0.311-2.016,0.723
			c-0.006,0.002-0.014,0.006-0.02,0.008c-0.063,0.027-0.115,0.057-0.166,0.086c-1.141,0.426-1.053,1.68-0.992,2.471
			C202.695,125.423,204.15,125.396,204.119,124.792z M205.961,123.671c0.242-0.107,0.482-0.211,0.734-0.293
			c0.021,0.002,0.041,0,0.061,0.002c-0.121-0.004,0.43,0.051,0.572,0.074c0.02,0.002,0.037,0.006,0.057,0.01
			c-0.066,0.072-0.094,0.168-0.061,0.283c0.012,0.037,0.027,0.051,0.037,0.057c-0.014-0.004-0.051-0.008-0.131,0.002
			c-0.236,0.027-0.453,0.053-0.695,0.061c-0.299,0.01-0.6,0.004-0.9-0.002C205.754,123.815,205.865,123.751,205.961,123.671z"/>
		<polygon fill="#C0FFF7" points="213.203,121.259 211.563,121.513 212.232,125.265 214.213,124.833 		"/>
		<path fill="#00386F" d="M225.201,142.894c0.584-2.615,16.523-3.938,16.934-6.004c0.127-0.646-0.084-1.305-0.691-1.619
			c0.277-2.059,0.432-4.129,0.365-6.23c-0.049-1.555-2.602-1.627-2.551-0.063c0.014,0.471,0.018,0.939,0.01,1.406
			c0-0.008-0.002-0.016-0.004-0.021c-0.172-0.867-0.262-1.721-0.203-2.602c0.021-0.313-0.063-0.566-0.215-0.758
			c-0.02-0.711-0.607-1.406-1.531-1.148c-0.645,0.182-1.277,0.389-1.895,0.623c-0.395-0.848-2-1.031-2.436,0.121
			c-0.016,0.035-0.027,0.074-0.041,0.111c-0.43,1.201-0.48,2.498-0.568,3.752c-4.744,3.633-13.83,3.371-14.148,5.975
			C217.164,145.134,222.605,142.509,225.201,142.894z"/>
		<path fill="#00386F" d="M224.246,142.222c-2.264-1.641-4.393-3.553-6.02-5.785c-2.822,7.219-10.48,27.559-10.223,28.232
			c0.357,0.938,1.09,1.756,1.766,2.502c1.4,1.549,3.129,1.307,5.068,2.166c0.654,0.291,8.018-20.219,10.363-26.443
			C224.879,142.673,224.561,142.448,224.246,142.222z"/>
		<path fill="#F5C185" d="M243.033,97.103c-0.047,0.862-0.34,1.583-1.088,1.951c-0.85,0.418-1.924,0.793-2.893,0.821
			c-1.553,0.047-4.107-0.366-4.051-2.091c0.008-0.208,0.027-0.97,0.063-1.894c0.029-0.77,0.07-1.649,0.119-2.415
			c0.074-1.04,0.166-1.866,0.283-1.913c0.592-0.236,1.398-0.106,1.814,0.345c0.123,0.018,0.244,0.049,0.361,0.093
			c0.221,0.086,0.42,0.225,0.574,0.417l0.027,0.001c0.166-0.062,0.344-0.093,0.525-0.102c0.336-0.285,0.809-0.403,1.25-0.335
			c0.434-0.177,0.959-0.185,1.365,0.013c-0.086-0.042,0.029-0.354,0.193-0.484c0.141,0.719,0.297,1.438,0.471,2.152
			C242.328,94.82,242.654,95.971,243.033,97.103z"/>
		<path fill="#E2A971" d="M242.049,93.663c-2.521,3.943-5.711,2.88-6.984,2.228c0.029-0.77,0.07-1.649,0.119-2.415
			c0.264-0.171,1.258-0.805,2.459-1.475c0.221,0.086,0.42,0.225,0.574,0.417l0.027,0.001c0.166-0.062,0.344-0.093,0.525-0.102
			c0.336-0.285,0.809-0.403,1.25-0.335c0.434-0.177,0.959-0.185,1.365,0.013c-0.086-0.042,0.029-0.354,0.193-0.484
			C241.719,92.23,241.875,92.948,242.049,93.663z"/>
		<path fill="#004A8E" d="M234.063,148.12c-0.408-0.146-0.814-0.295-1.219-0.449c-2.588-0.994-5.102-2.201-7.482-3.6
			c-4.799,9.643-10.346,20.611-13.238,25.453c-0.33,0.553,4.908,3.795,7.023,3.926c1.059,0.066,1.596-1.16,2.016-2.023
			C221.836,170.04,228.088,158.646,234.063,148.12z"/>
		<path fill="#004A8E" d="M236.951,133.706c0.102,1.289-2.955,3.119-1.887,3.74c-0.006,0.717-9.729,4.688-9.703,6.625
			c0.785,4.049,7.803,3.822,8.701,4.049c16.713-4.426,15.672-8.951,15.867-10.074c0.402-2.299-0.371-4.666-0.787-6.967
			c-0.176-0.969-0.42-2.234-1.121-2.967c0-0.049,0.002-0.1,0.004-0.15c0.006-0.15,0.014-0.299,0.025-0.447
			c0.021-0.33-0.07-0.6-0.229-0.801c-0.021-0.754-0.646-1.488-1.623-1.217c-2.447,0.682-4.711,1.734-6.703,3.225
			c-0.215-1.416-2.648-1.398-2.684,0.174c-0.029,1.199,0.033,2.416,0.242,3.6C237.059,133.45,236.877,132.755,236.951,133.706z"/>
		<path fill="#00386F" d="M249.965,135.421c0,0-13.16,3.043-17.723-0.621c-2.219-1.785,8.742-5.713,8.742-5.713l8.158,1.992
			L249.965,135.421z"/>
		<path fill="#C0FFF7" d="M234.246,96.806c0.127,0.041,0.252,0.092,0.375,0.158c0.246,0.129,0.357,0.323,0.371,0.523
			c0.432,0.597,1.359,1.282,3.342,1.384c3.611,0.184,4.699-1.768,4.699-1.768l0.084,0.05c0.158-0.088,0.355-0.117,0.584-0.045
			c1.604,0.502,3.402,0.688,5.006,1.313c0.027,0.011,0.053,0.021,0.078,0.032c0.416,0.112,0.826,0.246,1.238,0.391
			c0.893,0.314-2.363,12.826-2.326,13.472c0.111,1.878,0.311,3.753,0.475,5.628c0.188,2.117,0.283,4.252,0.527,6.365
			c0.053,0.459,0.104,0.918,0.113,1.379c0.215,0.854,0.238,3.074-0.039,3.949c-0.242,0.768-0.672,0.193-1.24,0.76
			c-0.525,0.525-6.377,1.182-8.947,1.344c-2.539,0.16-5.229,0.521-6.996-1.279c-1.02-1.039-1.777-1.17-2.109-2.553
			c-0.404-1.688,0.85-12.474,0.855-13.295c0.01-1.593,0.131-3.331-0.105-4.958C230.244,105.6,227.779,96.65,234.246,96.806z"/>
		<path fill="#004A8E" d="M245.193,97.496c0,0-6.945,14.037-6.977,15.208c-0.027,1.024-1.418,15.729-1.764,19.373
			c-0.041,0.436,0.326,3.252,0.785,3.236c2.594-0.088,11.004,0.053,12.662-1.279c-0.443-6.77-0.904-22.239-0.904-22.239
			s4.551-12.407,2.828-12.908C247.041,97.497,245.193,97.496,245.193,97.496z"/>
		<path fill="#00386F" d="M238.727,110.841l4.975-13.733l3.34,0.389c0.254,0.063,0.383,0.332,0.266,0.555l-9.363,17.664l0.285-2.76
			C238.236,112.225,238.406,111.504,238.727,110.841z"/>
		<path fill="#004A8E" d="M234.246,96.806c0,0-4.51,0.37-6.332,2.876c-1.824,2.506-4.588,18.358-4.588,18.358l-10.684,2.354
			l0.697,5.852c0,0,13.707-1.895,14.768-3.082c1.063-1.188,1.98-7.91,1.98-7.91l-1.051,17.582c0,0,5.029,3.182,5.674,1.973
			c0.643-1.209,1.254-22.232,1.254-22.232L234.246,96.806z"/>
		<path fill="#00386F" d="M235.898,115.013l0.082-3.019l-1.734-15.188c0,0-2.137,0.007-3.523,0.583
			C232.127,102.544,235.898,115.013,235.898,115.013z"/>
		<polygon fill="#70C6C5" points="237.361,98.847 242.607,95.753 243.701,97.108 238.92,101.113 		"/>
		<polygon fill="#70C6C5" points="237.361,98.847 236.051,100.791 234.246,96.806 234.82,95.884 		"/>
		<g>
			<g>
				<path fill="#843817" d="M245.287,76.535c-1.252-1.052-3.021-1.779-4.43-0.564c-0.67,0.58,0.299,1.548,0.971,0.969
					c0.561-0.483,1.299-0.313,1.928,0.106c-0.313,0.1-0.559,0.378-0.455,0.771c0.254,0.962,0.771,1.837,0.91,2.83
					c0.059,0.416,0.414,0.549,0.748,0.48c-0.143,0.654-0.34,1.297-0.496,1.888c-0.354,1.353-0.734,2.823-1.498,4.028
					c-0.266,0.418-0.549,0.827-0.811,1.246c-0.174,0.276-0.484,0.669-0.451,1.014c0.08,0.813,1.381,0.884,1.408,0.126
					c-0.002,0.005-0.004-0.005,0.002-0.024c0-0.022-0.002-0.045-0.004-0.069c0.004,0.032,0.004,0.053,0.004,0.067
					c0.002-0.013,0.008-0.029,0.018-0.048c0.057-0.104,0.121-0.205,0.184-0.306c0.17-0.273,0.35-0.541,0.525-0.81
					c0.305-0.464,0.592-0.917,0.814-1.421c0.848-1.927,1.373-4.003,1.75-6.056C246.68,79.274,246.551,77.6,245.287,76.535z"/>
				<path fill="#843817" d="M243.111,89.429c0-0.002,0.002-0.006,0.002-0.016C243.113,89.419,243.111,89.424,243.111,89.429z"/>
			</g>
			<polygon fill="#843817" points="243.113,89.413 243.113,89.403 243.113,89.405 			"/>
		</g>
		<path fill="#F5C185" d="M243.309,88.286c0.227-0.615,0.695-0.478,1.07-0.817c0.721-0.657,1.262-1.995,0.857-2.898
			c-0.324-0.724-1.018-1.264-1.883-1.122c-0.045,0.008-0.088,0.017-0.131,0.027c0.053-0.375,0.139-0.751,0.281-1.133
			c0.014-0.434,0.018-0.863,0.018-1.29c-0.09-0.19-0.184-0.379-0.293-0.561c-0.592-0.985-2.178-1.399-3.313-1.489
			c-2.842-0.227-5.881,1.135-8.531-0.348c-0.047,0.129-0.09,0.261-0.125,0.396c-0.369,2.297,0.23,4.78,0.475,7.04
			c0.064,0.595,0.102,1.191,0.145,1.782c0.084,0.564,0.15,1.13,0.17,1.701c0,0.002,0,0.005,0,0.008
			c0.158,1.075,0.445,2.113,1.072,3.08c0.111,0.445,0.279,0.873,0.494,1.221c0.646,1.042,1.957,1.145,3.102,1.171
			c1.098,0.025,2.26,0.015,3.105-0.751c0.807-0.731,1.555-1.714,2.189-2.583C242.766,90.68,242.873,89.476,243.309,88.286z"/>
		<polygon fill="#00386F" points="234.063,138.218 236.91,141.788 243.578,136.401 235.064,137.446 		"/>
		<path fill="#843817" d="M244.139,80.685c-0.133-0.316-0.424-0.587-0.742-0.679c-0.641-0.183-1.162,0.181-1.406,0.713
			c-0.695,1.521,0.061,2.694,0.68,3.965c0.373,0.764-0.002,1.095-0.141,1.793c-0.049,0.237,0.193,1.495,0.793,0.803
			c0.383-0.441,0.76-0.965,0.928-1.465c0.408-1.208,1.957-5.333,1.957-5.333L244.139,80.685z"/>
		<polygon fill="#70C6C5" points="237.361,98.847 235.803,131.882 236.453,132.077 237.943,99.236 		"/>
		<path fill="#F5C185" d="M235.279,139.101c0.014-0.115-0.021-0.211-0.088-0.283c0.402-0.527,0.27-1.246-0.732-1.393
			c-1.422-0.205-3.109,0.156-4.492,0.541c-0.484,0.137-0.9,0.311-1.27,0.516c-1.084,0.305-2.105,0.838-2.84,1.566
			c-0.869,0.863-0.857,1.816-1.289,2.82c-0.074,0.127-0.141,0.26-0.195,0.396c-0.137,0.354,0.313,0.637,0.68,0.596
			c-0.01,0,0.152,0.242,0.172,0.26c0.164,0.137,0.141,0.102,0.383,0.127c0.393,0.041,0.908-0.115,1.262-0.242
			c-0.689,0.248,0.293,1.275,0.844,0.594c0.939-1.166,4.152-2.256,4.162-2.295c0.627-0.184,1.178-0.488,1.705-0.84
			c0.01-0.008,0.018-0.016,0.027-0.023c0.408-0.17,0.787-0.377,1.123-0.639c0.281-0.219,0.512-0.463,0.619-0.75
			C235.479,139.702,235.244,139.431,235.279,139.101z"/>
		<polygon fill="#C0FFF7" points="234.143,136.325 232.791,137.243 235.143,140.325 236.717,139.103 		"/>
		<path fill="#004A8E" d="M252.23,99.145c0,0,3.115,4.822-0.016,24.909c-0.361,2.32-15.342,16.406-15.342,16.406l-4.096-5.146
			l12.598-13.119l2.643-12.715L252.23,99.145z"/>
		<polygon fill="#00386F" points="248.018,109.479 244.332,122.194 236.873,131.081 245.375,122.829 		"/>
	</g>
	<rect x="63.777" y="124.411" fill="#843817" width="167.991" height="5.27"/>
	<rect x="69.948" y="129.341" fill="#66240E" width="155.648" height="3.434"/>
	<polygon fill="#843817" points="67.728,172.636 64.337,172.636 72.1,132.774 78.079,132.774 	"/>
	<polygon fill="#843817" points="227.697,172.636 231.088,172.636 223.324,132.774 217.346,132.774 	"/>
</g>
</svg>
