<?xml version="1.0" encoding="utf-8"?>
<!-- Generator: Adobe Illustrator 15.0.0, SVG Export Plug-In . SVG Version: 6.00 Build 0)  -->
<!DOCTYPE svg PUBLIC "-//W3C//DTD SVG 1.1//EN" "http://www.w3.org/Graphics/SVG/1.1/DTD/svg11.dtd">
<svg version="1.1" id="Capa_1" xmlns="http://www.w3.org/2000/svg" xmlns:xlink="http://www.w3.org/1999/xlink" x="0px" y="0px"
	 width="259.022px" height="217.362px" viewBox="0 0 259.022 217.362" enable-background="new 0 0 259.022 217.362"
	 xml:space="preserve">
<rect x="-0.958" y="1.05" fill="#E6F0F1" width="259.98" height="216.703"/>
<g>
	<defs>
		<rect id="SVGID_1_" x="28.161" y="10.828" width="203.969" height="203.968"/>
	</defs>
	<clipPath id="SVGID_2_">
		<use xlink:href="#SVGID_1_"  overflow="visible"/>
	</clipPath>
	<g clip-path="url(#SVGID_2_)">
		<defs>
			<rect id="SVGID_3_" x="39.161" y="10.828" width="203.969" height="203.968"/>
		</defs>
		<clipPath id="SVGID_4_">
			<use xlink:href="#SVGID_3_"  overflow="visible"/>
		</clipPath>
		<path clip-path="url(#SVGID_4_)" fill="#E1EAEF" d="M82.999,167.582c0,0-22.282-15.867-28.695-42.875
			c-6.415-27.007,3.375-59.755,21.943-76.298c18.568-16.542,51.991-5.401,66.846,8.44l14.854,13.842c0,0,14.179,7.765,32.748,7.089
			c18.568-0.674,35.11,24.646,39.499,44.564c4.39,19.918-6.076,46.252-6.076,46.252L82.999,167.582z"/>
		<g clip-path="url(#SVGID_4_)">
			<g>
				<defs>
					<rect id="SVGID_5_" x="52.685" y="41.105" width="178.412" height="130.867"/>
				</defs>
				<clipPath id="SVGID_6_">
					<use xlink:href="#SVGID_5_"  overflow="visible"/>
				</clipPath>
				<path clip-path="url(#SVGID_6_)" fill="#E1EAEF" d="M72.871,171.634c0,0-15.53-8.441-19.581-28.021
					c-4.051-19.582,13.505-37.474,15.192-47.265c1.688-9.79-2.025-21.943,13.504-31.396c15.53-9.453,43.214-6.077,53.679-8.44
					c10.466-2.363,22.62-18.567,43.552-14.854c20.931,3.714,41.188,14.854,42.2,39.162s-6.752,24.982,1.013,38.15
					c7.765,13.166,10.804,22.281,7.09,35.785s-11.479,17.217-11.479,17.217L72.871,171.634z"/>
			</g>
		</g>
		<g clip-path="url(#SVGID_4_)">
			<g>
				<defs>
					<rect id="SVGID_7_" x="98.529" y="91.661" width="103.861" height="79.973"/>
				</defs>
				<clipPath id="SVGID_8_">
					<use xlink:href="#SVGID_7_"  overflow="visible"/>
				</clipPath>
				<path clip-path="url(#SVGID_8_)" fill="#E1EAEF" d="M105.298,167.246c-0.966-1.014-15.135-29.373,0.644-55.367
					c15.779-25.996,55.387-22.957,71.165-12.83c15.779,10.129,23.508,23.294,25.118,37.136s-9.017,35.449-9.017,35.449
					L105.298,167.246z"/>
			</g>
		</g>
	</g>
	<g clip-path="url(#SVGID_2_)">
		<defs>
			<rect id="SVGID_9_" x="28.161" y="10.828" width="203.969" height="203.968"/>
		</defs>
		<clipPath id="SVGID_10_">
			<use xlink:href="#SVGID_9_"  overflow="visible"/>
		</clipPath>
		<path clip-path="url(#SVGID_10_)" fill="#61A5CC" d="M205.396,119.501h-18.203c-1.126,0-2.039-0.912-2.039-2.039v-9.087
			c0-1.126,0.913-2.039,2.039-2.039h18.203c1.127,0,2.039,0.913,2.039,2.039v9.087C207.435,118.589,206.522,119.501,205.396,119.501
			"/>
		<polygon clip-path="url(#SVGID_10_)" fill="#61A5CC" points="196.294,124.65 199.179,117.814 193.409,117.814 		"/>
		<polygon clip-path="url(#SVGID_10_)" fill="#233A7A" points="196.226,110.658 201.436,110.658 201.436,111.419 203.99,109.947 
			201.436,108.475 201.436,109.237 196.226,109.237 		"/>
		<polygon clip-path="url(#SVGID_10_)" fill="#FFFFFF" points="203.99,113.654 198.779,113.654 198.779,112.892 196.226,114.365 
			198.779,115.837 198.779,115.074 203.99,115.074 		"/>
		<path clip-path="url(#SVGID_10_)" fill="#233A7A" d="M193.027,114.994l-0.249,0.092c0,0-0.772-0.883-1.174-1.846
			c-0.401-0.961-0.415-2.135-0.415-2.135l0.181-0.076l-1.102-2.636c-0.196,0.154-0.384,0.352-0.535,0.607
			c-0.624,1.052-0.562,2.669,0.066,4.25c0.627,1.58,1.297,2.988,2.521,3.875c0.723,0.523,1.341,0.615,1.821,0.539L193.027,114.994z"
			/>
		<path clip-path="url(#SVGID_10_)" fill="#233A7A" d="M193.818,114.683l-0.343,0.125l1.128,2.699
			c0.127-0.041,0.241-0.092,0.341-0.146c0.291-0.16,0.419-0.51,0.296-0.818l-0.589-1.484
			C194.521,114.728,194.151,114.562,193.818,114.683"/>
		<path clip-path="url(#SVGID_10_)" fill="#233A7A" d="M191.13,107.931c-0.139,0.05-0.29,0.117-0.441,0.207l1.125,2.694l0.379-0.16
			c0.328-0.137,0.487-0.51,0.357-0.842l-0.592-1.519C191.831,107.98,191.463,107.811,191.13,107.931"/>
		<path clip-path="url(#SVGID_10_)" fill="#227DB7" d="M89.034,162.687v-30.385c0,0-0.338-8.188,3.967-10.549
			c4.305-2.363,22.451-1.098,22.451-1.098v42.031H89.034z"/>
		<path clip-path="url(#SVGID_10_)" fill="#F59C8C" d="M121.121,92.213c0,0-1.098,9.199-1.52,9.959l-0.422,0.76l-2.11,1.435
			c0,0,4.052,5.739,9.031,6.667c4.979,0.93,4.558-2.025,4.558-2.025l-0.76-1.604l1.013-8.777
			C130.911,98.627,121.88,94.491,121.121,92.213"/>
		<path clip-path="url(#SVGID_10_)" fill="#FFFFFF" d="M114.453,105.126l3.292-1.435c0,0,2.109,3.461,7.005,5.486
			c4.896,2.025,4.979,0.843,5.233,0c0.253-0.845-0.085-1.773-0.085-1.773l0.362-2.955l1.957,0.652l6.796,54.968l-17.471,0.846
			L114.453,105.126z"/>
		<path clip-path="url(#SVGID_10_)" fill="#233A7A" d="M130.573,104.507c0,0,1.182,2.729,2.279,9.143
			c1.097,6.414,2.11,17.219,2.363,24.646c0.253,7.426,0.422,24.391,0.422,24.391h22.029c0.253,0,1.771-8.355,1.771-8.355
			s-9.621-8.244-10.127-9.594c-0.338-0.9-0.17-17.584-1.604-25.264c-1.436-7.682-3.291-9.229-7.174-11.141
			C136.521,106.355,130.573,104.507,130.573,104.507"/>
		<path clip-path="url(#SVGID_10_)" fill="#8593B5" d="M142.052,153.015c-0.112,0-0.203-0.09-0.203-0.203
			c0-0.604-0.108-9.178-0.212-17.469s-0.21-16.867-0.21-17.473c0-0.113,0.091-0.205,0.203-0.205c0.113,0,0.204,0.092,0.204,0.205
			c0,0.604,0.107,9.176,0.211,17.467c0.104,8.293,0.211,16.869,0.211,17.475C142.256,152.925,142.165,153.015,142.052,153.015"/>
		<path clip-path="url(#SVGID_10_)" fill="#233A7A" d="M98.164,150.955l-0.169,11.732h25.657c0,0,1.098-9.959,0.676-10.887
			C123.906,150.871,98.164,150.955,98.164,150.955"/>
		<g clip-path="url(#SVGID_10_)">
			<g>
				<defs>
					<rect id="SVGID_11_" x="121.826" y="93.207" width="9.085" height="10.64"/>
				</defs>
				<clipPath id="SVGID_12_">
					<use xlink:href="#SVGID_11_"  overflow="visible"/>
				</clipPath>
				<path clip-path="url(#SVGID_12_)" fill="#8E9BBB" d="M126.72,101.919c1.045,0.843,2.476,1.519,3.589,1.929l0.603-5.221
					c0,0-6.783-3.107-9.085-5.42C122.307,95.834,123.49,99.314,126.72,101.919"/>
			</g>
		</g>
		<path clip-path="url(#SVGID_10_)" fill="#F59C8C" d="M138.846,75.079c0,0,1.771,3.038,2.109,6.752s0,13.251-3.038,17.302
			c-3.039,4.053-9.369,2.87-12.238,0.422c-2.634-2.246-5.233-4.727-5.908-9.621s1.435-14.18,7.427-16.12
			C133.19,71.871,138.846,75.079,138.846,75.079"/>
		<path clip-path="url(#SVGID_10_)" fill="#F59C8C" d="M146.459,157.38c0,0-0.298,0-0.751-0.012c-0.105-0.004-0.225,0-0.347-0.004
			c-0.437-0.012-0.967-0.023-1.501-0.041c-0.118-0.004-0.24-0.008-0.359-0.012c-0.53-0.012-0.982,0.053-1.407,0.029h-0.012
			c-0.09-0.006-0.221,0.008-0.327,0.012c-0.053,0.004-0.102,0.008-0.134,0.004c-0.245-0.045-0.294-0.102-0.559-0.221
			c-0.343-0.154-4.981-1.191-8.755-1.166c-3.77,0.016-7.151,0.273-7.702-0.188c-0.555-0.469-0.889-5.205,2.329-5.516l3.957,1.5
			c0,0,9.036-1.072,12.349,1.371C146.562,155.582,146.459,157.38,146.459,157.38"/>
		<path clip-path="url(#SVGID_10_)" fill="#233A7A" d="M142.082,157.341c-0.091-0.006-0.221,0.008-0.327,0.012
			c-0.081-0.131-0.252-0.367-0.346-0.465c-1.021-1.041-3.484-1.715-4.378-1.93c-0.081-0.021-0.135-0.104-0.114-0.184
			c0.017-0.082,0.103-0.131,0.188-0.115c1.301,0.314,4.063,1.119,4.846,2.436C141.976,157.132,142.041,157.259,142.082,157.341"/>
		<path clip-path="url(#SVGID_10_)" fill="#233A7A" d="M143.861,157.324c-0.118-0.002-0.241-0.006-0.358-0.012
			c-1.113-2.031-2.936-2.615-5.188-3.34l-0.133-0.043c-0.077-0.027-0.125-0.113-0.098-0.195c0.026-0.076,0.109-0.123,0.193-0.096
			l0.13,0.043C140.789,154.445,142.705,155.06,143.861,157.324"/>
		<path clip-path="url(#SVGID_10_)" fill="#233A7A" d="M145.709,157.369c-0.106-0.002-0.225-0.002-0.348-0.004
			c-0.675-1.42-2.91-3.797-5.867-4.352c-0.085-0.014-0.141-0.092-0.126-0.178c0.018-0.082,0.097-0.137,0.178-0.121
			C142.593,153.287,145.05,155.773,145.709,157.369"/>
		<path clip-path="url(#SVGID_10_)" fill="#233A7A" d="M121.796,85.756c0,0,1.856-0.887,3.165-3.376s1.14-4.727,1.14-4.727
			s2.363-0.38,5.908,0.675c3.545,1.056,7.765,2.49,11.309,0.465c3.546-2.025,3.546-5.275,1.815-6.626
			c-1.938-1.513-5.781-0.591-5.781-0.591s1.477-1.435,0.675-2.278c-0.802-0.845-3.714,0.253-3.714,0.253s-3.544-2.827-10.254-2.49
			c-6.71,0.338-9.918,5.021-10.297,10.256c-0.38,5.232,1.519,10.465,1.519,10.465L121.796,85.756z"/>
		<g clip-path="url(#SVGID_10_)">
			<g>
				<defs>
					<rect id="SVGID_13_" x="133.674" y="86.922" width="3.492" height="7.442"/>
				</defs>
				<clipPath id="SVGID_14_">
					<use xlink:href="#SVGID_13_"  overflow="visible"/>
				</clipPath>
				<path clip-path="url(#SVGID_14_)" fill="#8E9BBB" d="M135.409,87.024c-0.381,0.937-0.371,2.025-0.467,3.021
					c-0.074,0.773-0.217,1.676,0.492,2.199c0.339,0.25,1.94,0.922,1.117,1.468c-0.314,0.208-0.842,0.151-1.198,0.135
					c-0.247-0.012-0.495-0.022-0.741-0.04c-0.266-0.02-0.524-0.1-0.789-0.102c-0.155,0-0.204,0.207-0.077,0.285
					c0.426,0.268,1.051,0.35,1.548,0.368c0.496,0.02,0.834-0.003,1.28-0.226c0.275-0.137,0.542-0.329,0.586-0.656
					c0.05-0.367-0.228-0.697-0.504-0.903c-0.319-0.237-0.711-0.347-1.033-0.577c-0.447-0.32-0.41-0.859-0.378-1.358
					c0.074-1.2,0.351-2.379,0.458-3.573C135.72,86.881,135.467,86.881,135.409,87.024"/>
			</g>
		</g>
		<path clip-path="url(#SVGID_10_)" fill="#233A7A" d="M138.858,89.83c-0.126,0.712-0.643,1.215-1.155,1.125
			c-0.513-0.092-0.826-0.742-0.701-1.453c0.127-0.711,0.644-1.215,1.156-1.123C138.671,88.469,138.984,89.119,138.858,89.83"/>
		<path clip-path="url(#SVGID_10_)" fill="#233A7A" d="M132.4,89.268c-0.114,0.768-0.654,1.322-1.208,1.24
			c-0.553-0.082-0.908-0.771-0.794-1.539s0.654-1.322,1.208-1.24C132.159,87.811,132.515,88.5,132.4,89.268"/>
		<path clip-path="url(#SVGID_10_)" fill="#233A7A" d="M137.355,86.898c0.395,0.066,0.792-0.002,1.19,0.026
			c0.095,0.007,0.189,0.021,0.285,0.03c0.067,0.006-0.126-0.021-0.032-0.006c0.021,0.004,0.041,0.008,0.061,0.011
			c0.051,0.009,0.101,0.019,0.149,0.032c0.085,0.02,0.167,0.052,0.252,0.07c0.076,0.017,0.162,0.035,0.24,0.031
			c0.043-0.006,0.086-0.012,0.129-0.018c-0.026,0.004-0.055,0.01-0.081,0.015c0,0.009,0.147-0.015,0.161-0.017
			c0.227-0.054,0.366-0.316,0.303-0.533c-0.019-0.064-0.047-0.121-0.086-0.173c-0.017-0.022-0.034-0.044-0.052-0.065
			c0.016,0.018,0.032,0.036,0.048,0.055c-0.017-0.023-0.034-0.047-0.053-0.07c-0.022-0.037-0.052-0.066-0.09-0.09
			c-0.032-0.023-0.063-0.049-0.096-0.072c-0.104-0.072-0.242-0.115-0.366-0.146c-0.235-0.061-0.481-0.092-0.725-0.094
			c-0.241-0.001-0.479,0.024-0.719,0.058c-0.21,0.029-0.444,0.101-0.615,0.228c-0.132,0.098-0.213,0.225-0.189,0.396
			C137.089,86.709,137.202,86.873,137.355,86.898"/>
		<path clip-path="url(#SVGID_10_)" fill="#233A7A" d="M132.854,85.77c-0.054-0.032-0.108-0.061-0.165-0.086
			c-0.048-0.021-0.179-0.09-0.08-0.036c-0.035-0.021-0.071-0.04-0.107-0.058c-0.164-0.082-0.334-0.138-0.51-0.184
			c-0.386-0.098-0.792-0.122-1.186-0.08c-0.422,0.043-0.807,0.146-1.172,0.365c-0.051,0.031-0.104,0.063-0.147,0.105
			c-0.028,0.036-0.058,0.074-0.085,0.11c0.008-0.013,0.016-0.024,0.023-0.036c-0.112,0.078-0.178,0.207-0.177,0.344
			c0.001,0.131,0.069,0.24,0.183,0.304c0.138,0.077,0.269,0.04,0.41,0.003h-0.213c0.117,0.019,0.199,0.023,0.317-0.003
			c0.004-0.001,0.113-0.028,0.042-0.013c-0.068,0.014,0.114-0.014,0.135-0.018c0.022-0.003,0.15-0.016,0.016-0.002
			c0.024-0.003,0.05-0.006,0.074-0.01c0.063-0.007,0.127-0.015,0.191-0.02c0.278-0.022,0.556-0.035,0.835-0.045
			c0.259-0.008,0.522-0.01,0.782,0.001c0.111,0.005,0.222,0.009,0.332,0.013c0.063,0.001,0.036,0.011-0.007-0.002
			c0.023,0.006,0.046,0.011,0.069,0.017c0.047,0.013,0.091,0.028,0.137,0.045c0.18,0.069,0.396-0.062,0.462-0.227
			C133.086,86.078,133.025,85.871,132.854,85.77"/>
		<path clip-path="url(#SVGID_10_)" fill="#233A7A" d="M134.857,97.502c0.387-0.779,1.092-1.35,1.907-1.717
			c-0.708-0.072-4.047-0.381-4.89,0.098c-0.943,0.535,0.175,2.688,2.126,2.795c0.205,0.012,0.392-0.004,0.57-0.033
			C134.587,98.252,134.678,97.863,134.857,97.502"/>
		<path clip-path="url(#SVGID_10_)" fill="#DFE1E4" d="M119.433,92.973c0,0,0.338,1.308,2.279,2.826
			c1.94,1.52,4.754,2.631,4.754,2.631l0.226-0.984c0,0-2.912-1.266-4.263-2.658s-1.519-2.152-1.519-2.152L119.433,92.973z"/>
		<path clip-path="url(#SVGID_10_)" fill="#233A7A" d="M127.028,96.717c1.563-0.072,2.435,1.162,2.544,1.962
			c0.108,0.8-0.642,1.695-2.398,0.908C124.993,98.609,125.467,96.789,127.028,96.717"/>
		<path clip-path="url(#SVGID_10_)" fill="#DFE1E4" d="M120.656,83.309c0,0,0.675-4.851,3.925-8.145
			c6.204-6.288,11.479-5.908,11.479-5.908s-0.042-0.887-2.026-1.563c-1.861-0.633-2.7-0.295-2.7-0.295s-5.105,0.422-9.41,5.191
			c-4.305,4.768-4.769,10.846-4.769,10.846L120.656,83.309z"/>
		<path clip-path="url(#SVGID_10_)" fill="#FFFFFF" d="M120.192,82.717c-4.064-0.688-6.33,2.49-6.499,5.697s2.161,5.646,5.275,5.402
			C125.974,93.268,125.172,83.562,120.192,82.717"/>
		<path clip-path="url(#SVGID_10_)" fill="#818FB2" d="M118.169,90.699c-1.072,0-1.98-0.539-2.498-1.488
			c-0.556-1.018-0.509-2.27,0.119-3.189c0.047-0.069,0.143-0.088,0.212-0.041c0.07,0.049,0.089,0.143,0.041,0.213
			c-0.563,0.826-0.604,1.953-0.104,2.871c0.476,0.87,1.313,1.363,2.308,1.328c0.928-0.025,1.715-0.45,2.216-1.197
			c0.571-0.852,0.702-2.027,0.334-2.996c-0.364-0.961-1.365-1.617-2.276-1.498c-0.082,0.012-0.16-0.047-0.172-0.131
			c-0.011-0.084,0.048-0.16,0.132-0.172c1.064-0.142,2.183,0.586,2.603,1.691c0.402,1.059,0.259,2.345-0.366,3.276
			c-0.557,0.831-1.432,1.304-2.462,1.332C118.226,90.699,118.197,90.699,118.169,90.699"/>
		<path clip-path="url(#SVGID_10_)" fill="#233A7A" d="M115.213,103.944c0,0-12.323,3.038-16.627,7.934
			c-4.305,4.895-6.33,29.033-6.415,33.506c-0.084,4.475,3.039,6.33,4.896,7.596c1.856,1.268,10.044,3.545,16.627,3.885
			c6.584,0.336,12.829,0,12.829,0s-0.021-1.436,0.991-3.547c0.939-1.957,2.132-2.363,2.132-2.363l-5.655-2.025
			c0,0-0.99-17.742-2.532-26.332C119.687,112.722,115.213,103.944,115.213,103.944"/>
		<path clip-path="url(#SVGID_10_)" fill="#8593B5" d="M135.638,146.095c-0.027,0-0.056-0.006-0.082-0.018
			c-0.104-0.045-0.15-0.166-0.104-0.27c1.155-2.605,2.352-7.719,3.024-11.307l0.056-0.289c0.204-1.057,0.458-2.369-0.049-3.273
			c-0.258-0.463-0.842-1.467-1.402-2.43c-0.582-1.002-1.132-1.947-1.284-2.229c-0.298-0.551,0.639-2.021,1.993-4.041
			c0.366-0.547,0.683-1.018,0.866-1.336c0.483-0.836,0.162-1.602-0.21-2.488l-0.127-0.305c-0.338-0.828-0.721-1.658-1.091-2.461
			c-0.152-0.328-0.304-0.654-0.453-0.984c-0.198-0.438-0.397-0.881-0.599-1.33c-1.192-2.658-2.426-5.408-4.005-8.064
			c-0.059-0.096-0.026-0.221,0.071-0.279c0.096-0.057,0.222-0.025,0.278,0.072c1.592,2.676,2.83,5.435,4.027,8.105
			c0.201,0.447,0.4,0.891,0.598,1.326c0.149,0.33,0.301,0.656,0.451,0.984c0.373,0.807,0.758,1.641,1.1,2.477l0.125,0.303
			c0.379,0.902,0.771,1.838,0.188,2.848c-0.191,0.332-0.511,0.809-0.881,1.359c-0.706,1.053-2.176,3.244-1.973,3.621
			c0.149,0.275,0.697,1.219,1.277,2.217c0.563,0.967,1.147,1.971,1.406,2.434c0.579,1.037,0.31,2.432,0.093,3.551l-0.056,0.289
			c-0.244,1.307-1.545,7.996-3.052,11.396C135.79,146.05,135.716,146.095,135.638,146.095"/>
		<path clip-path="url(#SVGID_10_)" fill="#8593B5" d="M123.61,146.812c-0.052,0-0.104-0.02-0.145-0.059
			c-0.959-0.967-5.584-8.977-5.928-10.482c-0.189-0.824,0.284-2.914,0.741-4.938c0.354-1.566,0.722-3.188,0.617-3.627
			c-0.155-0.654-1.338-1.621-2.481-2.555c-1.383-1.129-2.811-2.297-3.088-3.348c-0.314-1.195-0.045-8.676,0.133-13.625
			c0.063-1.779,0.114-3.186,0.114-3.688c0-0.111,0.091-0.203,0.203-0.203s0.204,0.091,0.204,0.203c0,0.51-0.05,1.918-0.114,3.703
			c-0.166,4.626-0.444,12.369-0.146,13.505c0.243,0.922,1.682,2.098,2.951,3.135c1.251,1.023,2.433,1.988,2.62,2.779
			c0.127,0.529-0.217,2.049-0.615,3.809c-0.427,1.885-0.911,4.023-0.743,4.758c0.338,1.477,4.879,9.334,5.821,10.283
			c0.078,0.08,0.078,0.209-0.002,0.289C123.715,146.792,123.662,146.812,123.61,146.812"/>
		<path clip-path="url(#SVGID_10_)" fill="#8593B5" d="M107.026,143.31c-0.01,0-0.02,0-0.029-0.002
			c-0.111-0.016-0.188-0.119-0.174-0.23c0.15-1.061,2.492-22.193,2.6-23.811c0.007-0.113,0.104-0.201,0.217-0.189
			c0.112,0.006,0.197,0.104,0.19,0.217c-0.108,1.621-2.452,22.777-2.603,23.84C107.213,143.236,107.126,143.31,107.026,143.31"/>
		<path clip-path="url(#SVGID_10_)" fill="#8593B5" d="M123.821,149.048c-0.025,0-0.052-0.004-0.076-0.014
			c-0.519-0.211-2.812-0.984-5.713-1.963c-5.857-1.975-13.879-4.68-15.405-5.473c-0.1-0.053-0.139-0.174-0.087-0.275
			c0.052-0.1,0.175-0.139,0.275-0.086c1.497,0.777,9.832,3.588,15.347,5.447c2.909,0.982,5.206,1.756,5.736,1.971
			c0.104,0.043,0.154,0.162,0.112,0.266C123.979,149.001,123.902,149.048,123.821,149.048"/>
		<path clip-path="url(#SVGID_10_)" fill="#8593B5" d="M121.005,157.462c-5.154,0-15.148-0.928-22.74-3.613
			c-0.106-0.037-0.162-0.154-0.124-0.262c0.037-0.105,0.154-0.16,0.26-0.123c9.591,3.393,23.007,3.971,25.503,3.41
			c0.11-0.023,0.219,0.045,0.244,0.156c0.024,0.109-0.045,0.219-0.154,0.242C123.453,157.394,122.408,157.462,121.005,157.462"/>
		<path clip-path="url(#SVGID_10_)" fill="#6DABD0" d="M62.003,106.791c1.601,1.406,3.628,2.309,5.031,3.937
			c0.553,0.641,1.05,1.322,1.563,1.992c0.373,0.49,1.37,1.301,1.531,1.914c0.072,0.271,0.057-0.096-0.015-0.367
			c-0.003-0.012-0.009-0.021-0.013-0.033c-0.14-1.244-0.24-2.492-0.284-3.744c-0.043-1.248,0.035-2.5-0.044-3.746
			c-0.11-1.758-0.659-3.46-2.096-4.561c-0.702-0.539-1.604-0.867-2.25-1.464c-0.612-0.567-0.366-1.216-0.007-1.849
			c0.338-0.592,0.746-1.174,0.877-1.854c0.149-0.774-0.142-1.573-0.534-2.232c-0.836-1.403-2.689-2.968-4.445-2.757
			c-1.464,0.174-1.629,1.863-1.608,3.039c0.021,1.145,0.134,2.285,0.145,3.43c0.012,1.176-0.188,2.328-0.205,3.499
			C59.62,103.986,60.539,105.504,62.003,106.791"/>
		<path clip-path="url(#SVGID_10_)" fill="#6DABD0" d="M76.872,125.058c0.445-1.063,0.957-2.057,1.586-3.021
			c0.861-1.326,1.818-2.619,2.397-4.104c0.592-1.516,0.505-3.137,0.563-4.732c0.044-1.174,0.392-2.344,0.298-3.519
			c-0.045-0.564-0.37-1.478-1.101-1.385c-0.567,0.073-0.905,0.777-1.123,1.227c-0.381,0.785-0.645,1.621-0.928,2.443
			c-0.11,0.322-0.216,0.648-0.355,0.959c-0.081,0.182-0.339,0.621-0.583,0.563c-0.414-0.104-0.038-1.797,0.023-2.096
			c0.31-1.506,0.776-2.906,0.841-4.456c0.094-2.247-0.081-4.922-2.278-6.149c-0.575-0.322-1.303-0.514-1.849-0.033
			c-0.539,0.475-0.69,1.295-0.771,1.971c-0.245,2.076,0.243,4.041,0.908,5.993c0.549,1.612,1.203,3.276,1.251,4.999
			c0.046,1.66-0.817,3.131-1.223,4.699c-0.646,2.498-0.513,3.822-0.515,4.631c-0.005,1.014,0.032,2.018,0.105,3.027
			c0.068,0.93,0.149,1.857,0.263,2.783c0.023,0.188,0.044,0.383,0.069,0.578c-0.357-0.859-0.481-1.844-0.777-2.709
			c-0.525-1.535-1.136-3.037-1.64-4.582c-0.416-1.273-0.81-2.557-1.359-3.783c-0.517-1.148-1.14-2.365-2.102-3.209
			c-0.582-0.51-1.287-0.807-2.064-0.801c-0.498,0.004-0.945,0.176-1.42,0.301c-0.585,0.154-1.045,0.102-1.526-0.268
			c-1.575-1.211-2.054-3.383-3.22-4.916c-0.869-1.143-2.934-3.092-4.45-1.846c-0.805,0.662-1.027,1.94-0.984,2.919
			c0.052,1.23,0.59,2.354,1.229,3.381c0.681,1.094,1.559,2.072,2.185,3.195c0.369,0.664,0.427,1.301,0.368,2.051
			c-0.056,0.703-0.117,1.387,0.123,2.068c0.723,2.043,2.978,1.758,4.731,1.811c1.226,0.037,2.543,0.221,3.708,0.613
			c1.346,0.453,2.222,1.328,2.703,2.66c0.348,0.965,0.534,2.059,1.19,2.877c0.309,0.385,0.717,0.67,1.166,0.869
			c0.684,0.301,2.769,0.434,2.784,0.242c0.051-0.637,0.354-1.311,0.543-1.914C75.996,127.261,76.412,126.154,76.872,125.058"/>
		<path clip-path="url(#SVGID_10_)" fill="#6DABD0" d="M86.553,124.673c-0.181-1.168-0.146-2.455-0.699-3.529
			c-0.039-0.076-0.145-0.096-0.216-0.057c-0.396,0.221-0.413,0.861-0.445,1.254c-0.054,0.65-0.014,1.303-0.094,1.953
			c-0.141,1.141-0.404,2.316-0.815,3.391c-0.464,1.217-1.31,1.906-2.538,2.285c-0.789,0.244-1.563,0.457-2.222,0.98
			c-0.589,0.469-0.999,1.115-1.303,1.797c-0.819,1.838-1.21,3.893-1.59,5.857c-0.256,1.322-0.465,2.65-0.786,3.961
			c-0.32,1.309-0.665,2.609-0.85,3.945c-0.031,0.068-0.063,0.135-0.093,0.203c-0.084,0.201,0.229,0.309,0.337,0.143
			c1.268-1.951,2.812-3.703,4.918-4.777c0.951-0.484,2.215-0.586,3.009-1.35c0.604-0.58,0.687-1.465,0.596-2.254
			c-0.118-1.035-0.614-1.889-1.132-2.771c-0.285-0.486-0.62-1.006-0.506-1.596c0.108-0.557,0.57-0.965,1.029-1.25
			c0.876-0.545,1.9-0.789,2.617-1.572c0.667-0.729,1.035-1.635,1.109-2.613C86.979,127.365,86.753,125.964,86.553,124.673"/>
		<path clip-path="url(#SVGID_10_)" fill="#6DABD0" d="M69.271,131.41c-1.118-1.441-2.469-2.684-3.987-3.691
			c-0.811-0.539-2.723-1.602-3.108-0.014c-0.227,0.932,0.685,1.846,1.284,2.43c0.9,0.877,1.942,1.633,2.702,2.645
			c-0.94,0.299-1.924,0.357-2.741,1.008c-0.968,0.771-1.402,2.258-0.443,3.201c0.468,0.461,1.089,0.742,1.671,1.025
			c0.757,0.365,1.528,0.697,2.304,1.021c1.676,0.701,3.373,1.41,4.802,2.557c1.456,1.17,2.826,3.145,2.941,5.051
			c0.012,0.182-0.058,0.016,0.051-0.066c0.06,0.053,0.26-0.043,0.258-0.148c-0.029-2.83-0.538-5.523-1.694-8.113
			C72.237,135.912,70.886,133.492,69.271,131.41"/>
		<path clip-path="url(#SVGID_10_)" fill="#42578E" d="M65.407,105.076c0.617,1.28,1.263,2.531,1.947,3.781
			c0.659,1.201,1.317,2.394,1.811,3.677c0.608,1.578,1.244,3.135,1.887,4.699c0.668,1.627,1.265,3.285,1.742,4.977
			c0.935,3.305,1.628,6.705,1.972,10.121c0.175,1.738,0.253,3.486,0.206,5.232c-0.037,1.363-0.191,2.715-0.319,4.07
			c-0.134,1.414-0.229,2.842-0.111,4.26c0.099,1.184,0.286,2.592,1.206,3.438c0.18,0.166,0.435-0.041,0.33-0.254
			c-1.092-2.242-1.031-4.684-0.821-7.113c0.114-1.34,0.274-2.676,0.32-4.021c0.057-1.713-0.011-3.43-0.172-5.135
			c-0.317-3.354-0.985-6.668-1.853-9.92c-0.444-1.668-0.996-3.303-1.629-4.906c-0.636-1.609-1.37-3.174-1.985-4.791
			c-1.114-2.924-2.813-5.515-4.315-8.24C65.544,104.809,65.339,104.934,65.407,105.076"/>
		<path clip-path="url(#SVGID_10_)" fill="#42578E" d="M74.815,128.982c0.177-2.129,0.365-4.178,1.083-6.209
			c0.335-0.947,0.74-1.869,1.063-2.82c0.268-0.785,0.666-1.863,0.461-2.699c-0.023-0.092-0.159-0.088-0.185,0
			c-0.138,0.477-0.122,1-0.222,1.49c-0.096,0.477-0.225,0.943-0.372,1.406c-0.315,0.984-0.727,1.928-1.083,2.896
			c-0.689,1.869-1.043,3.943-0.893,5.936C74.677,129.078,74.808,129.078,74.815,128.982"/>
		<path clip-path="url(#SVGID_10_)" fill="#42578E" d="M62.478,116.748c0.846,2.041,3.386,2.158,5.236,2.617
			c1.322,0.326,2.297,1.207,2.998,2.352c0.767,1.252,1.285,2.723,1.711,4.119c0.005,0.016,0.028,0.01,0.025-0.006
			c-0.519-2.447-1.26-5.395-3.782-6.533c-2.021-0.912-4.686-0.453-5.979-2.639C62.624,116.552,62.427,116.623,62.478,116.748"/>
		<path clip-path="url(#SVGID_10_)" fill="#42578E" d="M73.479,128.66c0.101,0.137,0.193,0.277,0.297,0.41
			c0.052,0.066,0.104,0.129,0.168,0.182c0.066,0.055,0.145,0.121,0.235,0.119c0.038,0,0.064-0.041,0.044-0.076
			c-0.042-0.068-0.117-0.109-0.176-0.16c-0.061-0.055-0.123-0.107-0.181-0.162c-0.118-0.111-0.227-0.232-0.343-0.348
			C73.503,128.603,73.46,128.632,73.479,128.66"/>
		<path clip-path="url(#SVGID_10_)" fill="#42578E" d="M68.194,135.136c1.458,1.197,2.804,2.613,3.872,4.164
			c0.511,0.742,0.981,1.527,1.41,2.318c0.467,0.865,0.773,1.781,1.14,2.688c0.027,0.07,0.152,0.072,0.144-0.018
			c-0.202-1.92-1.419-3.566-2.393-5.164c-0.506-0.83-1.136-1.498-1.812-2.191c-0.699-0.715-1.41-1.391-2.229-1.967
			C68.227,134.896,68.1,135.058,68.194,135.136"/>
		<path clip-path="url(#SVGID_10_)" fill="#42578E" d="M79.804,132.876c-0.703,0.398-0.726,1.506-0.739,2.215
			c-0.026,1.361,0.311,2.639-0.286,3.934c-0.54,1.172-1.401,2.15-2.079,3.238c-0.634,1.018-1.26,2.318-1.246,3.543
			c0.001,0.072,0.11,0.111,0.143,0.039c0.256-0.557,0.348-1.188,0.53-1.771c0.206-0.654,0.493-1.25,0.865-1.826
			c0.651-1.01,1.452-1.93,1.98-3.016c0.558-1.146,0.476-2.279,0.438-3.52c-0.023-0.791-0.103-2.063,0.536-2.65
			C80.046,132.97,79.918,132.812,79.804,132.876"/>
		<path clip-path="url(#SVGID_10_)" fill="#FFFFFF" d="M75.108,145.933c-2.828-0.039-8.216-0.07-8.216-0.07l1.333,9.898
			c0.301,2.227,2.201,3.887,4.447,3.887h2.323h0.225h2.322c2.247,0,4.147-1.66,4.447-3.887l1.333-9.898
			C83.323,145.863,77.937,145.894,75.108,145.933"/>
		<polygon clip-path="url(#SVGID_10_)" fill="#F7F7F7" points="211.81,127.746 195.675,159.705 148.636,160.042 163.152,127.294 		
			"/>
		<path clip-path="url(#SVGID_10_)" fill="#DBDEE2" d="M117.416,159.843l0.009-2.559h30.451l14.011-30.721h48.699l1.224,1.182
			h-47.574l-14.559,32.072C149.677,159.818,117.416,159.759,117.416,159.843"/>
		<path clip-path="url(#SVGID_10_)" fill="#DBDEE2" d="M187.384,145.38c-0.532,1.596-3.416,2.826-6.442,2.75
			c-3.026-0.074-5.049-1.43-4.518-3.023s3.415-2.824,6.441-2.75C185.892,142.433,187.915,143.787,187.384,145.38"/>
		<path clip-path="url(#SVGID_10_)" fill="#FFFFFF" d="M149.677,160.021c-0.028,0-0.058-0.006-0.084-0.018
			c-0.103-0.047-0.148-0.168-0.102-0.27l14.612-32.193h47.706c0.113,0,0.204,0.092,0.204,0.205c0,0.111-0.091,0.203-0.204,0.203
			h-47.442l-14.505,31.953C149.828,159.978,149.754,160.021,149.677,160.021"/>
		<rect x="59.34" y="162.265" clip-path="url(#SVGID_10_)" fill="#586B9B" width="55.957" height="12.406"/>
		<rect x="114.977" y="162.265" clip-path="url(#SVGID_10_)" fill="#7989AD" width="100.68" height="12.406"/>
		<g clip-path="url(#SVGID_10_)">
			<g>
				<defs>
					<rect id="SVGID_15_" x="59.339" y="162.265" width="156.317" height="2.279"/>
				</defs>
				<clipPath id="SVGID_16_">
					<use xlink:href="#SVGID_15_"  overflow="visible"/>
				</clipPath>
				<polygon clip-path="url(#SVGID_16_)" fill="#BDC4D2" points="115.297,162.265 114.977,162.265 59.339,162.265 59.339,164.544 
					114.977,164.544 115.297,164.544 215.656,164.544 215.656,162.265 				"/>
			</g>
		</g>
		<rect x="56.639" y="159.818" clip-path="url(#SVGID_10_)" fill="#6E7FA7" width="61.106" height="3.037"/>
		<rect x="117.425" y="159.818" clip-path="url(#SVGID_10_)" fill="#9CA6C3" width="100.68" height="3.037"/>
		<path clip-path="url(#SVGID_10_)" fill="#FFFFFF" d="M101.169,94.723H81.415c-1.222,0-2.213-0.99-2.213-2.213v-9.862
			c0-1.222,0.991-2.214,2.213-2.214h19.754c1.223,0,2.214,0.992,2.214,2.214v9.862C103.383,93.732,102.392,94.723,101.169,94.723"/>
		<polygon clip-path="url(#SVGID_10_)" fill="#FFFFFF" points="109.013,87.578 101.593,84.447 101.593,90.709 		"/>
		<path clip-path="url(#SVGID_10_)" fill="#233A7A" d="M87.973,87.578c0,0.756-0.612,1.367-1.366,1.367
			c-0.755,0-1.367-0.611-1.367-1.367c0-0.754,0.612-1.366,1.367-1.366C87.36,86.212,87.973,86.824,87.973,87.578"/>
		<path clip-path="url(#SVGID_10_)" fill="#233A7A" d="M92.659,87.578c0,0.756-0.612,1.367-1.366,1.367
			c-0.755,0-1.367-0.611-1.367-1.367c0-0.754,0.612-1.366,1.367-1.366C92.047,86.212,92.659,86.824,92.659,87.578"/>
		<path clip-path="url(#SVGID_10_)" fill="#233A7A" d="M97.345,87.578c0,0.756-0.611,1.367-1.366,1.367s-1.366-0.611-1.366-1.367
			c0-0.754,0.611-1.366,1.366-1.366S97.345,86.824,97.345,87.578"/>
		<path clip-path="url(#SVGID_10_)" fill="#61A5CC" d="M201.738,50.097h-45.605c-2.929,0-5.303,2.374-5.303,5.304v21.635
			c0,2.928,2.374,5.303,5.303,5.303h4.088c0.115,1.961-0.166,4.879-1.804,8.608c5.27-2.431,8.303-6.079,9.888-8.608h33.434
			c2.929,0,5.303-2.375,5.303-5.303V55.4C207.041,52.471,204.667,50.097,201.738,50.097"/>
		<path clip-path="url(#SVGID_10_)" fill="#FFFFFF" d="M182.283,60.408h-22.619c-0.622,0-1.125-0.504-1.125-1.126
			s0.503-1.126,1.125-1.126h22.619c0.621,0,1.126,0.504,1.126,1.126S182.904,60.408,182.283,60.408"/>
		<path clip-path="url(#SVGID_10_)" fill="#D5E4EC" d="M198.503,66.963h-39.275c-0.38,0-0.689-0.309-0.689-0.689
			s0.31-0.689,0.689-0.689h39.275c0.38,0,0.688,0.309,0.688,0.689S198.883,66.963,198.503,66.963"/>
		<path clip-path="url(#SVGID_10_)" fill="#D5E4EC" d="M198.503,70.789h-39.275c-0.38,0-0.689-0.309-0.689-0.689
			s0.31-0.689,0.689-0.689h39.275c0.38,0,0.688,0.309,0.688,0.689S198.883,70.789,198.503,70.789"/>
		<path clip-path="url(#SVGID_10_)" fill="#D5E4EC" d="M189.936,74.869h-30.708c-0.38,0-0.688-0.31-0.688-0.689
			c0-0.381,0.309-0.689,0.688-0.689h30.708c0.381,0,0.688,0.309,0.688,0.689C190.624,74.56,190.316,74.869,189.936,74.869"/>
		<path clip-path="url(#SVGID_10_)" fill="#FFFFFF" d="M198.194,60.408h-10.79c-0.622,0-1.126-0.504-1.126-1.126
			s0.504-1.126,1.126-1.126h10.79c0.621,0,1.125,0.504,1.125,1.126S198.815,60.408,198.194,60.408"/>
		<path clip-path="url(#SVGID_10_)" fill="#FFFFFF" d="M170.998,110.162h-12.252c-0.451,0-0.815-0.365-0.815-0.816v-8.369
			c0-0.451,0.364-0.816,0.815-0.816h12.252c0.45,0,0.816,0.365,0.816,0.816v8.369C171.814,109.797,171.448,110.162,170.998,110.162"
			/>
		<path clip-path="url(#SVGID_10_)" fill="#6E7FA7" d="M164.957,106.656c-0.069,0-0.139-0.023-0.195-0.07l-6.668-5.508
			c-0.13-0.107-0.148-0.301-0.041-0.431c0.108-0.13,0.301-0.147,0.431-0.041l6.468,5.343l6.304-5.485
			c0.127-0.11,0.32-0.097,0.431,0.03c0.112,0.127,0.098,0.32-0.029,0.432l-6.499,5.654
			C165.101,106.631,165.028,106.656,164.957,106.656"/>
		<path clip-path="url(#SVGID_10_)" fill="#6E7FA7" d="M158.289,109.933c-0.076,0-0.152-0.027-0.211-0.084
			c-0.123-0.117-0.128-0.31-0.011-0.433l4.663-4.902c0.116-0.122,0.311-0.127,0.433-0.011c0.123,0.116,0.127,0.311,0.011,0.433
			l-4.663,4.902C158.45,109.902,158.369,109.933,158.289,109.933"/>
		<path clip-path="url(#SVGID_10_)" fill="#6E7FA7" d="M171.456,109.754c-0.079,0-0.158-0.029-0.217-0.09l-4.645-4.657
			c-0.119-0.12-0.119-0.313,0-0.433c0.12-0.119,0.313-0.119,0.433,0l4.645,4.658c0.119,0.119,0.119,0.313-0.001,0.433
			C171.611,109.725,171.533,109.754,171.456,109.754"/>
		<path clip-path="url(#SVGID_10_)" fill="#F75E42" d="M176.544,99.852c0,2.26-1.832,4.093-4.093,4.093s-4.094-1.833-4.094-4.093
			c0-2.262,1.833-4.094,4.094-4.094S176.544,97.59,176.544,99.852"/>
	</g>
	<g clip-path="url(#SVGID_2_)">
		<text transform="matrix(1 0 0 1 69.4697 385.3159)" fill="#FFFFFF" font-family="'Quicksand-Bold'" font-size="2.196">85</text>
	</g>
	<g clip-path="url(#SVGID_2_)">
		<defs>
			<rect id="SVGID_17_" x="28.161" y="10.828" width="203.969" height="203.968"/>
		</defs>
		<clipPath id="SVGID_18_">
			<use xlink:href="#SVGID_17_"  overflow="visible"/>
		</clipPath>
		<path clip-path="url(#SVGID_18_)" fill="#233A7A" d="M213.564,98.344H189.65c-0.901,0-1.632-0.73-1.632-1.631v-3.742
			c0-0.9,0.73-1.631,1.632-1.631h23.914c0.9,0,1.632,0.73,1.632,1.631v3.742C215.196,97.613,214.465,98.344,213.564,98.344"/>
		<path clip-path="url(#SVGID_18_)" fill="#FFFFFF" d="M191.377,96.679c-0.108,0-0.194-0.038-0.259-0.114
			c-0.065-0.077-0.094-0.173-0.086-0.287l0.103-0.908c0.008-0.021,0.005-0.037-0.011-0.045s-0.034-0.004-0.058,0.012l-0.746,0.539
			c-0.092,0.068-0.188,0.094-0.287,0.074c-0.1-0.019-0.18-0.078-0.241-0.178c-0.069-0.122-0.082-0.229-0.04-0.321
			c0.041-0.092,0.113-0.157,0.212-0.194l0.839-0.379c0.022-0.008,0.034-0.02,0.034-0.035s-0.012-0.027-0.034-0.035l-0.839-0.379
			c-0.107-0.045-0.176-0.117-0.206-0.217s-0.02-0.199,0.034-0.299c0.062-0.1,0.142-0.159,0.241-0.179
			c0.099-0.019,0.195,0.003,0.287,0.063l0.746,0.552c0.023,0.015,0.042,0.019,0.058,0.011s0.019-0.023,0.011-0.046l-0.103-0.907
			c-0.008-0.115,0.022-0.211,0.092-0.287s0.16-0.114,0.275-0.114c0.107,0,0.195,0.038,0.264,0.114
			c0.069,0.076,0.096,0.172,0.08,0.287l-0.103,0.907c-0.008,0.022-0.004,0.038,0.012,0.046c0.015,0.008,0.034,0.004,0.058-0.011
			l0.746-0.54c0.091-0.069,0.188-0.094,0.292-0.075c0.104,0.02,0.182,0.079,0.235,0.179c0.069,0.122,0.083,0.229,0.04,0.321
			c-0.042,0.092-0.112,0.157-0.212,0.194l-0.838,0.379c-0.023,0.008-0.034,0.02-0.034,0.035s0.011,0.027,0.034,0.035l0.838,0.379
			c0.107,0.045,0.178,0.118,0.212,0.217c0.034,0.101,0.021,0.199-0.04,0.299c-0.054,0.1-0.132,0.159-0.235,0.178
			c-0.104,0.02-0.201-0.002-0.292-0.063l-0.746-0.551c-0.023-0.016-0.043-0.02-0.058-0.012c-0.016,0.008-0.02,0.023-0.012,0.045
			l0.103,0.908c0.016,0.114-0.013,0.21-0.086,0.287C191.585,96.641,191.491,96.679,191.377,96.679"/>
		<path clip-path="url(#SVGID_18_)" fill="#FFFFFF" d="M196.322,96.679c-0.107,0-0.193-0.038-0.258-0.114
			c-0.065-0.077-0.094-0.173-0.087-0.287l0.104-0.908c0.008-0.021,0.004-0.037-0.011-0.045c-0.016-0.008-0.034-0.004-0.058,0.012
			l-0.746,0.539c-0.092,0.068-0.188,0.094-0.287,0.074c-0.1-0.019-0.18-0.078-0.241-0.178c-0.069-0.122-0.082-0.229-0.04-0.321
			s0.112-0.157,0.212-0.194l0.839-0.379c0.022-0.008,0.034-0.02,0.034-0.035s-0.012-0.027-0.034-0.035l-0.839-0.379
			c-0.107-0.045-0.176-0.117-0.207-0.217c-0.029-0.1-0.019-0.199,0.035-0.299c0.062-0.1,0.142-0.159,0.241-0.179
			c0.1-0.019,0.195,0.003,0.287,0.063l0.746,0.552c0.023,0.015,0.042,0.019,0.058,0.011c0.015-0.008,0.019-0.023,0.011-0.046
			l-0.104-0.907c-0.007-0.115,0.023-0.211,0.093-0.287c0.068-0.076,0.16-0.114,0.275-0.114c0.106,0,0.195,0.038,0.265,0.114
			c0.068,0.076,0.095,0.172,0.079,0.287l-0.103,0.907c-0.008,0.022-0.004,0.038,0.012,0.046c0.015,0.008,0.034,0.004,0.057-0.011
			l0.747-0.54c0.091-0.069,0.188-0.094,0.292-0.075c0.104,0.02,0.182,0.079,0.235,0.179c0.068,0.122,0.083,0.229,0.04,0.321
			c-0.042,0.092-0.112,0.157-0.212,0.194l-0.838,0.379c-0.023,0.008-0.034,0.02-0.034,0.035s0.011,0.027,0.034,0.035l0.838,0.379
			c0.106,0.045,0.179,0.118,0.212,0.217c0.035,0.101,0.021,0.199-0.04,0.299c-0.054,0.1-0.132,0.159-0.235,0.178
			c-0.104,0.02-0.201-0.002-0.292-0.063l-0.747-0.551c-0.022-0.016-0.042-0.02-0.057-0.012c-0.016,0.008-0.02,0.023-0.012,0.045
			l0.103,0.908c0.016,0.114-0.013,0.21-0.086,0.287C196.531,96.641,196.438,96.679,196.322,96.679"/>
		<path clip-path="url(#SVGID_18_)" fill="#FFFFFF" d="M201.269,96.679c-0.107,0-0.193-0.038-0.259-0.114
			c-0.064-0.077-0.094-0.173-0.086-0.287l0.104-0.908c0.008-0.021,0.004-0.037-0.011-0.045c-0.016-0.008-0.035-0.004-0.058,0.012
			l-0.747,0.539c-0.092,0.068-0.188,0.094-0.286,0.074c-0.1-0.019-0.181-0.078-0.241-0.178c-0.069-0.122-0.082-0.229-0.04-0.321
			s0.112-0.157,0.212-0.194l0.839-0.379c0.021-0.008,0.034-0.02,0.034-0.035s-0.013-0.027-0.034-0.035l-0.839-0.379
			c-0.107-0.045-0.177-0.117-0.207-0.217c-0.029-0.1-0.019-0.199,0.035-0.299c0.061-0.1,0.142-0.159,0.241-0.179
			c0.099-0.019,0.194,0.003,0.286,0.063l0.747,0.552c0.022,0.015,0.042,0.019,0.058,0.011c0.015-0.008,0.019-0.023,0.011-0.046
			l-0.104-0.907c-0.008-0.115,0.023-0.211,0.093-0.287c0.068-0.076,0.16-0.114,0.275-0.114c0.106,0,0.194,0.038,0.264,0.114
			s0.096,0.172,0.08,0.287l-0.104,0.907c-0.007,0.022-0.004,0.038,0.013,0.046c0.015,0.008,0.034,0.004,0.057-0.011l0.747-0.54
			c0.091-0.069,0.188-0.094,0.292-0.075c0.104,0.02,0.182,0.079,0.235,0.179c0.068,0.122,0.082,0.229,0.04,0.321
			s-0.113,0.157-0.212,0.194l-0.838,0.379c-0.023,0.008-0.035,0.02-0.035,0.035s0.012,0.027,0.035,0.035l0.838,0.379
			c0.106,0.045,0.178,0.118,0.212,0.217c0.034,0.101,0.021,0.199-0.04,0.299c-0.054,0.1-0.132,0.159-0.235,0.178
			c-0.104,0.02-0.201-0.002-0.292-0.063l-0.747-0.551c-0.022-0.016-0.042-0.02-0.057-0.012c-0.017,0.008-0.02,0.023-0.013,0.045
			l0.104,0.908c0.016,0.114-0.014,0.21-0.086,0.287C201.478,96.641,201.383,96.679,201.269,96.679"/>
		<path clip-path="url(#SVGID_18_)" fill="#FFFFFF" d="M206.215,96.679c-0.107,0-0.193-0.038-0.259-0.114
			c-0.064-0.077-0.094-0.173-0.086-0.287l0.104-0.908c0.008-0.021,0.004-0.037-0.012-0.045s-0.034-0.004-0.058,0.012l-0.746,0.539
			c-0.092,0.068-0.188,0.094-0.287,0.074c-0.099-0.019-0.18-0.078-0.241-0.178c-0.068-0.122-0.081-0.229-0.04-0.321
			c0.042-0.092,0.113-0.157,0.213-0.194l0.838-0.379c0.022-0.008,0.035-0.02,0.035-0.035s-0.013-0.027-0.035-0.035l-0.838-0.379
			c-0.107-0.045-0.177-0.117-0.207-0.217s-0.019-0.199,0.034-0.299c0.062-0.1,0.143-0.159,0.241-0.179
			c0.1-0.019,0.195,0.003,0.287,0.063l0.746,0.552c0.023,0.015,0.042,0.019,0.058,0.011s0.02-0.023,0.012-0.046l-0.104-0.907
			c-0.008-0.115,0.023-0.211,0.092-0.287c0.069-0.076,0.161-0.114,0.276-0.114c0.106,0,0.194,0.038,0.264,0.114
			s0.096,0.172,0.08,0.287l-0.104,0.907c-0.007,0.022-0.004,0.038,0.012,0.046s0.035,0.004,0.058-0.011l0.746-0.54
			c0.092-0.069,0.189-0.094,0.293-0.075c0.103,0.02,0.182,0.079,0.235,0.179c0.068,0.122,0.082,0.229,0.04,0.321
			s-0.113,0.157-0.213,0.194l-0.838,0.379c-0.022,0.008-0.034,0.02-0.034,0.035s0.012,0.027,0.034,0.035l0.838,0.379
			c0.107,0.045,0.179,0.118,0.213,0.217c0.034,0.101,0.021,0.199-0.04,0.299c-0.054,0.1-0.133,0.159-0.235,0.178
			c-0.104,0.02-0.201-0.002-0.293-0.063l-0.746-0.551c-0.022-0.016-0.042-0.02-0.058-0.012s-0.019,0.023-0.012,0.045l0.104,0.908
			c0.016,0.114-0.014,0.21-0.086,0.287C206.423,96.641,206.329,96.679,206.215,96.679"/>
		<path clip-path="url(#SVGID_18_)" fill="#68A9CF" d="M211.161,96.679c-0.107,0-0.193-0.038-0.259-0.114
			c-0.064-0.077-0.094-0.173-0.086-0.287l0.104-0.908c0.008-0.021,0.004-0.037-0.012-0.045s-0.034-0.004-0.058,0.012l-0.746,0.539
			c-0.092,0.068-0.188,0.094-0.287,0.074c-0.099-0.019-0.18-0.078-0.241-0.178c-0.068-0.122-0.081-0.229-0.04-0.321
			c0.042-0.092,0.113-0.157,0.213-0.194l0.838-0.379c0.022-0.008,0.035-0.02,0.035-0.035s-0.013-0.027-0.035-0.035l-0.838-0.379
			c-0.107-0.045-0.177-0.117-0.207-0.217s-0.02-0.199,0.034-0.299c0.062-0.1,0.143-0.159,0.241-0.179
			c0.1-0.019,0.195,0.003,0.287,0.063l0.746,0.552c0.023,0.015,0.042,0.019,0.058,0.011s0.02-0.023,0.012-0.046l-0.104-0.907
			c-0.008-0.115,0.023-0.211,0.092-0.287c0.069-0.076,0.16-0.114,0.276-0.114c0.106,0,0.194,0.038,0.264,0.114
			s0.096,0.172,0.08,0.287l-0.104,0.907c-0.008,0.022-0.004,0.038,0.012,0.046s0.034,0.004,0.058-0.011l0.746-0.54
			c0.091-0.069,0.189-0.094,0.292-0.075c0.104,0.02,0.183,0.079,0.236,0.179c0.068,0.122,0.082,0.229,0.04,0.321
			s-0.113,0.157-0.213,0.194l-0.838,0.379c-0.023,0.008-0.034,0.02-0.034,0.035s0.011,0.027,0.034,0.035l0.838,0.379
			c0.107,0.045,0.179,0.118,0.213,0.217c0.034,0.101,0.021,0.199-0.04,0.299c-0.054,0.1-0.133,0.159-0.236,0.178
			c-0.103,0.02-0.201-0.002-0.292-0.063l-0.746-0.551c-0.023-0.016-0.042-0.02-0.058-0.012s-0.02,0.023-0.012,0.045l0.104,0.908
			c0.016,0.114-0.014,0.21-0.086,0.287C211.369,96.641,211.275,96.679,211.161,96.679"/>
	</g>
</g>
</svg>
