<?xml version="1.0" encoding="utf-8"?>
<!-- Generator: Adobe Illustrator 15.0.0, SVG Export Plug-In . SVG Version: 6.00 Build 0)  -->
<!DOCTYPE svg PUBLIC "-//W3C//DTD SVG 1.1//EN" "http://www.w3.org/Graphics/SVG/1.1/DTD/svg11.dtd">
<svg version="1.1" id="Capa_1" xmlns="http://www.w3.org/2000/svg" xmlns:xlink="http://www.w3.org/1999/xlink" x="0px" y="0px"
	 width="255.852px" height="219.679px" viewBox="0 0 255.852 219.679" enable-background="new 0 0 255.852 219.679"
	 xml:space="preserve">
<rect fill="#214568" width="255.852" height="219.679"/>
<path fill="#4B9EC8" d="M122.133,35.676L122.133,35.676c-0.247,0-0.495-0.006-0.739-0.02l0.043-0.771
	c0.229,0.012,0.463,0.018,0.696,0.018l0,0c0.754,0,1.511-0.063,2.248-0.188l0.143,0.761
	C123.739,35.608,122.935,35.676,122.133,35.676z M118.302,35.153c-1.003-0.281-1.975-0.675-2.885-1.17l0.404-0.671
	c0.854,0.466,1.767,0.835,2.711,1.1L118.302,35.153z M127.525,34.613l-0.324-0.708c0.9-0.373,1.758-0.847,2.547-1.408l0.488,0.619
	C129.396,33.713,128.484,34.217,127.525,34.613z M112.895,32.212c-0.767-0.68-1.448-1.443-2.029-2.271l0.676-0.429
	c0.546,0.778,1.188,1.496,1.908,2.136L112.895,32.212z M132.512,31.067l-0.624-0.497c0.634-0.718,1.178-1.506,1.618-2.341
	l0.729,0.346C133.765,29.465,133.186,30.303,132.512,31.067z M109.44,27.287c-0.363-0.933-0.612-1.908-0.74-2.896l0.806-0.094
	c0.12,0.93,0.354,1.845,0.697,2.721L109.44,27.287z M135.305,25.773l-0.791-0.177c0.224-0.906,0.338-1.843,0.338-2.782h0.813
	C135.666,23.814,135.544,24.809,135.305,25.773z M134.852,22.65c-0.014-0.94-0.141-1.875-0.379-2.778l0.789-0.188
	c0.254,0.962,0.388,1.956,0.402,2.955L134.852,22.65z M109.487,21.495l-0.808-0.083c0.113-0.992,0.349-1.971,0.699-2.907
	l0.766,0.258C109.814,19.644,109.594,20.563,109.487,21.495z M133.43,17.253c-0.453-0.83-1.008-1.609-1.651-2.319l0.616-0.505
	c0.686,0.756,1.275,1.586,1.758,2.468L133.43,17.253z M111.448,16.25l-0.683-0.419c0.569-0.835,1.241-1.608,1.998-2.299l0.563,0.558
	C112.614,14.739,111.983,15.466,111.448,16.25z M129.611,13.034c-0.797-0.552-1.662-1.015-2.568-1.375l0.314-0.713
	c0.964,0.384,1.884,0.876,2.732,1.464L129.611,13.034z M115.673,12.396l-0.413-0.665c0.903-0.507,1.868-0.913,2.868-1.208
	l0.24,0.738C117.429,11.538,116.522,11.92,115.673,12.396z M124.21,10.884c-0.682-0.106-1.381-0.16-2.078-0.16c0,0-0.002,0-0.002,0
	c-0.288,0-0.579,0.01-0.866,0.027l-0.055-0.771c0.305-0.02,0.613-0.03,0.919-0.03c0.001,0,0.003,0,0.003,0
	c0.741,0,1.484,0.058,2.21,0.17L124.21,10.884z"/>
<path fill="#4B9EC8" d="M165.946,50.585L165.946,50.585c-0.247,0-0.494-0.006-0.739-0.019l0.044-0.772
	c0.23,0.012,0.463,0.018,0.695,0.018l0,0c0.754,0,1.512-0.064,2.247-0.188l0.144,0.761
	C167.552,50.518,166.749,50.585,165.946,50.585z M162.116,50.063c-1.004-0.281-1.975-0.674-2.885-1.17l0.404-0.67
	c0.854,0.465,1.767,0.836,2.711,1.1L162.116,50.063z M171.337,49.523l-0.323-0.708c0.9-0.373,1.758-0.846,2.547-1.407l0.487,0.618
	C173.209,48.624,172.297,49.127,171.337,49.523z M156.708,47.122c-0.767-0.68-1.449-1.444-2.029-2.271l0.677-0.429
	c0.546,0.779,1.188,1.497,1.907,2.136L156.708,47.122z M176.325,45.977l-0.623-0.497c0.633-0.718,1.178-1.505,1.619-2.341
	l0.727,0.346C177.579,44.375,176.999,45.213,176.325,45.977z M153.254,42.197c-0.364-0.933-0.614-1.907-0.741-2.896l0.807-0.093
	c0.12,0.929,0.354,1.845,0.696,2.721L153.254,42.197z M179.118,40.683l-0.791-0.177c0.225-0.907,0.339-1.842,0.339-2.782h0.813
	C179.478,38.724,179.357,39.719,179.118,40.683z M178.665,37.56c-0.013-0.939-0.141-1.874-0.379-2.778l0.79-0.187
	c0.252,0.961,0.388,1.956,0.401,2.955L178.665,37.56z M153.301,36.404l-0.809-0.083c0.112-0.992,0.348-1.969,0.698-2.906
	l0.767,0.258C153.627,34.553,153.408,35.472,153.301,36.404z M177.243,32.163c-0.453-0.829-1.007-1.609-1.65-2.32l0.616-0.503
	c0.685,0.755,1.275,1.585,1.757,2.468L177.243,32.163z M155.261,31.161l-0.683-0.42c0.568-0.834,1.24-1.607,1.997-2.297L157.139,29
	C156.428,29.648,155.796,30.375,155.261,31.161z M173.424,27.944c-0.797-0.553-1.662-1.015-2.568-1.376l0.315-0.713
	c0.964,0.384,1.884,0.876,2.733,1.464L173.424,27.944z M159.486,27.306l-0.413-0.666c0.904-0.507,1.868-0.913,2.868-1.207
	l0.24,0.738C161.242,26.449,160.334,26.83,159.486,27.306z M168.024,25.794c-0.966-0.151-1.967-0.195-2.945-0.133l-0.055-0.771
	c1.043-0.066,2.105-0.019,3.131,0.141L168.024,25.794z"/>
<path fill="#4B9EC8" d="M88.05,52.235c-1.038-0.002-2.08-0.083-3.098-0.238l0.128-0.763c0.977,0.149,1.976,0.225,2.972,0.228
	L88.05,52.235z M91.15,52.013l-0.125-0.764c0.982-0.145,1.958-0.363,2.901-0.652l0.25,0.736
	C93.192,51.634,92.174,51.863,91.15,52.013z M81.931,51.3c-0.983-0.306-1.949-0.691-2.871-1.142l0.372-0.687
	c0.884,0.432,1.809,0.801,2.751,1.095L81.931,51.3z M97.051,50.207l-0.368-0.689c0.883-0.427,1.739-0.924,2.543-1.478l0.477,0.625
	C98.864,49.244,97.972,49.763,97.051,50.207z M76.417,48.602c-0.834-0.582-1.627-1.231-2.355-1.929l0.578-0.544
	c0.699,0.67,1.459,1.293,2.259,1.851L76.417,48.602z M102.07,46.75l-0.575-0.548c0.704-0.667,1.357-1.39,1.941-2.151l0.657,0.456
	C103.483,45.3,102.803,46.055,102.07,46.75z M72.052,44.417c-0.606-0.798-1.149-1.648-1.614-2.525l0.726-0.347
	c0.447,0.84,0.967,1.655,1.547,2.42L72.052,44.417z M105.723,41.988L105,41.637c0.452-0.84,0.837-1.722,1.144-2.619l0.773,0.24
	C106.597,40.193,106.195,41.112,105.723,41.988z M69.261,39.157c-0.313-0.936-0.552-1.904-0.707-2.877l0.804-0.116
	c0.148,0.933,0.376,1.862,0.678,2.758L69.261,39.157z M107.641,36.384l-0.803-0.12c0.154-0.927,0.231-1.878,0.231-2.826h0.813
	C107.882,34.426,107.802,35.417,107.641,36.384z M69.142,33.337l-0.813-0.004c0.005-0.987,0.092-1.978,0.258-2.944l0.804,0.125
	C69.23,31.44,69.148,32.39,69.142,33.337z M106.87,30.813c-0.143-0.934-0.366-1.863-0.662-2.763l0.776-0.23
	c0.309,0.938,0.542,1.907,0.691,2.881L106.87,30.813z M70.101,27.762l-0.771-0.243c0.325-0.934,0.732-1.85,1.209-2.725l0.722,0.356
	C70.804,25.989,70.414,26.868,70.101,27.762z M105.096,25.423c-0.442-0.843-0.957-1.661-1.534-2.43l0.662-0.448
	c0.602,0.802,1.14,1.653,1.599,2.533L105.096,25.423z M72.839,22.745l-0.654-0.459c0.614-0.791,1.299-1.542,2.037-2.233l0.57,0.551
	C74.085,21.266,73.427,21.986,72.839,22.745z M101.648,20.821c-0.695-0.674-1.452-1.3-2.248-1.863l0.484-0.62
	c0.831,0.586,1.62,1.239,2.344,1.942L101.648,20.821z M77.073,18.778L76.6,18.15c0.841-0.574,1.737-1.088,2.661-1.528l0.364,0.691
	C78.738,17.735,77.879,18.228,77.073,18.778z M96.873,17.452c-0.88-0.437-1.803-0.81-2.743-1.109l0.258-0.733
	c0.98,0.312,1.944,0.702,2.863,1.158L96.873,17.452z M82.387,16.249l-0.245-0.737c0.986-0.296,2.005-0.519,3.029-0.664l0.12,0.765
	C84.309,15.75,83.332,15.965,82.387,16.249z M91.236,15.659c-0.975-0.153-1.975-0.236-2.97-0.243l0.005-0.773
	c1.039,0.008,2.081,0.093,3.098,0.254L91.236,15.659z"/>
<path fill="#4B9EC8" d="M115.631,74.181h-3.049v-0.772h3.049V74.181z M109.532,74.181h-3.049v-0.772h3.049V74.181z M103.434,74.181
	h-3.05v-0.772h3.05V74.181z M97.291,74.098c-1.046-0.118-2.073-0.365-3.051-0.733l0.3-0.719c0.912,0.344,1.87,0.574,2.846,0.685
	L97.291,74.098z M91.489,71.917c-0.847-0.592-1.613-1.285-2.275-2.061l0.63-0.487c0.619,0.726,1.335,1.373,2.126,1.926
	L91.489,71.917z M87.559,67.316c-0.435-0.91-0.744-1.872-0.919-2.858l0.802-0.129c0.163,0.921,0.452,1.818,0.857,2.668
	L87.559,67.316z M87.28,61.504h-0.813v-2.898h0.813V61.504z M87.28,55.708h-0.813V52.81h0.813V55.708z"/>
<path fill="#4B9EC8" d="M98.892,92.679l-0.479-0.625l2.16-1.497l0.479,0.625L98.892,92.679z M103.518,89.476l-0.479-0.625
	l2.464-1.707l0.479,0.624L103.518,89.476z M108.446,86.062l-0.48-0.625l1.839-1.273c0.206-0.141,0.411-0.288,0.611-0.435
	l0.496,0.612c-0.206,0.151-0.418,0.302-0.628,0.448L108.446,86.062z M113.259,82.433l-0.56-0.561c0.724-0.653,1.42-1.35,2.069-2.071
	l0.618,0.501C114.719,81.043,114.003,81.76,113.259,82.433z M117.269,77.975l-0.67-0.439c0.566-0.781,1.097-1.6,1.575-2.432
	l0.713,0.371C118.397,76.33,117.852,77.171,117.269,77.975z M120.227,72.828l-0.75-0.298c0.385-0.876,0.727-1.781,1.016-2.689
	l0.778,0.223C120.975,70.999,120.624,71.928,120.227,72.828z M122.009,67.211l-0.799-0.146c0.188-0.931,0.326-1.883,0.411-2.83
	l0.81,0.066C122.343,65.274,122.201,66.253,122.009,67.211z M122.539,61.373h-0.813v-2.898h0.813V61.373z M122.539,55.576h-0.813
	v-2.898h0.813V55.576z M122.539,49.78h-0.813v-2.898h0.813V49.78z M122.539,43.984h-0.813v-2.898h0.813V43.984z M122.539,38.187
	h-0.813v-2.898h0.813V38.187z"/>
<path fill="#4B9EC8" d="M182.059,85.424c-0.002,0-0.003,0-0.003,0v-0.773c0.242,0.004,0.489-0.007,0.733-0.021l0.051,0.771
	C182.582,85.417,182.319,85.424,182.059,85.424z M185.926,84.833L185.67,84.1c0.932-0.294,1.82-0.701,2.646-1.212l0.443,0.647
	C187.876,84.083,186.923,84.52,185.926,84.833z M191.154,81.6l-0.602-0.52c0.662-0.692,1.229-1.461,1.684-2.288l0.72,0.358
	C192.469,80.035,191.863,80.859,191.154,81.6z M194.044,76.346l-0.792-0.172c0.189-0.795,0.287-1.614,0.287-2.437v-0.354h0.813
	v0.354C194.352,74.618,194.249,75.496,194.044,76.346z M194.352,70.486h-0.813v-2.897h0.813V70.486z M194.352,64.69h-0.813v-2.898
	h0.813V64.69z M194.352,58.894h-0.813v-2.899h0.813V58.894z M194.352,53.097h-0.813v-2.897h0.813V53.097z"/>
<g>
	<g>
		<g>
			<path fill="#DD4E66" d="M188.685,100.12H88.724c-1.202,0-2.178,0.926-2.178,2.07v3.222h104.317v-3.222
				C190.864,101.046,189.889,100.12,188.685,100.12z"/>
			<path fill="#D22940" d="M108.905,105.412H90.66V92.914c0-4.769,4.105-8.67,9.123-8.67l0,0c5.018,0,9.123,3.901,9.123,8.67
				V105.412z"/>
			<path fill="#D22940" d="M128.763,105.412h-18.245V92.914c0-4.769,4.105-8.67,9.122-8.67l0,0c5.018,0,9.123,3.901,9.123,8.67
				V105.412z"/>
			<path fill="#B51B39" d="M101.709,84.44c-1.594,0.703-3.599,1.806-5.564,3.483c-4.285,3.656-3.743,17.489-3.743,17.489H90.66
				V92.914c0-4.769,4.105-8.67,9.123-8.67C100.443,84.244,101.087,84.312,101.709,84.44z"/>
			<path fill="#B51B39" d="M121.567,84.44c-1.595,0.703-3.6,1.806-5.565,3.483c-4.286,3.656-3.743,17.489-3.743,17.489h-1.741
				V92.914c0-4.769,4.105-8.67,9.122-8.67C120.301,84.244,120.946,84.312,121.567,84.44z"/>
			<path fill="#D22940" d="M148.488,92.914v12.498h-18.246V92.914c0-4.769,4.105-8.67,9.123-8.67c0.661,0,1.306,0.068,1.927,0.196
				c1.74,0.358,3.297,1.192,4.516,2.352C147.461,88.362,148.488,90.53,148.488,92.914z"/>
			<path fill="#D22940" d="M168.345,105.412H150.1V92.914c0-4.769,4.104-8.67,9.122-8.67l0,0c5.018,0,9.123,3.901,9.123,8.67
				V105.412z"/>
			<path fill="#D22940" d="M188.203,105.412h-18.245V92.914c0-4.769,4.104-8.67,9.122-8.67l0,0c5.017,0,9.123,3.901,9.123,8.67
				V105.412z"/>
			<path fill="#B51B39" d="M141.292,84.44c-1.596,0.703-3.6,1.806-5.564,3.483c-4.286,3.656-3.744,17.489-3.744,17.489h-1.741
				V92.914c0-4.769,4.105-8.67,9.123-8.67C140.026,84.244,140.67,84.312,141.292,84.44z"/>
			<path fill="#B51B39" d="M161.149,84.44c-1.595,0.703-3.6,1.806-5.564,3.483c-4.285,3.656-3.742,17.489-3.742,17.489H150.1V92.914
				c0-4.769,4.105-8.67,9.122-8.67C159.883,84.244,160.527,84.312,161.149,84.44z"/>
			<path fill="#B51B39" d="M181.007,84.44c-1.596,0.703-3.6,1.806-5.565,3.483c-4.285,3.656-3.742,17.489-3.742,17.489h-1.742
				V92.914c0-4.769,4.105-8.67,9.123-8.67C179.741,84.244,180.384,84.312,181.007,84.44z"/>
			<rect x="86.546" y="105.196" fill="#D22940" width="104.208" height="3.269"/>
		</g>
		<g>
			<path fill="#DD4E66" d="M178.504,109.265H78.72c-1.203,0-2.178,0.927-2.178,2.07v3.222h104.14v-3.222
				C180.682,110.191,179.708,109.265,178.504,109.265z"/>
			<path fill="#D22940" d="M97.867,102.06v12.497H79.621V102.06c0-4.769,4.106-8.671,9.123-8.671c0.662,0,1.306,0.068,1.927,0.197
				c1.739,0.358,3.297,1.193,4.516,2.352C96.84,97.507,97.867,99.675,97.867,102.06z"/>
			<path fill="#D22940" d="M117.723,114.556H99.479V102.06c0-4.769,4.104-8.671,9.122-8.671l0,0c5.018,0,9.122,3.902,9.122,8.671
				V114.556z"/>
			<path fill="#D22940" d="M137.581,114.556h-18.244V102.06c0-4.769,4.104-8.671,9.123-8.671l0,0c5.017,0,9.122,3.902,9.122,8.671
				V114.556z"/>
			<path fill="#B51B39" d="M90.671,93.585c-1.595,0.703-3.599,1.805-5.564,3.483c-4.287,3.657-3.744,17.488-3.744,17.488h-1.742
				V102.06c0-4.769,4.106-8.671,9.123-8.671C89.406,93.388,90.05,93.456,90.671,93.585z"/>
			<path fill="#B51B39" d="M110.528,93.585c-1.594,0.703-3.599,1.805-5.565,3.483c-4.285,3.657-3.743,17.488-3.743,17.488h-1.741
				V102.06c0-4.769,4.105-8.671,9.122-8.671C109.263,93.388,109.907,93.456,110.528,93.585z"/>
			<path fill="#B51B39" d="M130.385,93.585c-1.594,0.703-3.598,1.805-5.564,3.483c-4.285,3.657-3.742,17.488-3.742,17.488h-1.742
				V102.06c0-4.769,4.105-8.671,9.124-8.671C129.12,93.388,129.764,93.456,130.385,93.585z"/>
			<path fill="#D22940" d="M157.307,102.06v12.497h-18.246V102.06c0-4.769,4.105-8.671,9.123-8.671c0.66,0,1.305,0.068,1.927,0.197
				c1.739,0.358,3.298,1.193,4.517,2.352C156.28,97.507,157.307,99.675,157.307,102.06z"/>
			<path fill="#D22940" d="M177.164,114.556h-18.245V102.06c0-4.769,4.105-8.671,9.123-8.671l0,0c5.018,0,9.122,3.902,9.122,8.671
				V114.556z"/>
			<path fill="#B51B39" d="M150.111,93.585c-1.595,0.703-3.6,1.805-5.565,3.483c-4.285,3.657-3.742,17.488-3.742,17.488h-1.742
				V102.06c0-4.769,4.105-8.671,9.123-8.671C148.844,93.388,149.489,93.456,150.111,93.585z"/>
			<path fill="#B51B39" d="M169.967,93.585c-1.594,0.703-3.599,1.805-5.563,3.483c-4.286,3.657-3.743,17.488-3.743,17.488h-1.742
				V102.06c0-4.769,4.105-8.671,9.123-8.671C168.703,93.388,169.347,93.456,169.967,93.585z"/>
			<rect x="76.542" y="114.341" fill="#D22940" width="104.033" height="3.268"/>
		</g>
		<g>
			<path fill="#DD4E66" d="M190.903,115.681H73.846c-1.68,0-3.042,1.293-3.042,2.891V126h123.14v-7.428
				C193.945,116.974,192.583,115.681,190.903,115.681z"/>
			<path fill="#D22940" d="M92.129,113.502V126H73.884v-12.497c0-4.769,4.105-8.671,9.124-8.671c0.66,0,1.304,0.067,1.925,0.196
				c1.741,0.358,3.299,1.193,4.518,2.351C91.103,108.95,92.129,111.118,92.129,113.502z"/>
			<path fill="#D22940" d="M111.986,126H93.741v-12.497c0-4.769,4.105-8.671,9.123-8.671l0,0c5.018,0,9.122,3.902,9.122,8.671V126z"
				/>
			<path fill="#D22940" d="M131.844,126h-18.246v-12.497c0-4.769,4.106-8.671,9.124-8.671l0,0c5.018,0,9.123,3.902,9.123,8.671V126z
				"/>
			<path fill="#B51B39" d="M84.932,105.028c-1.594,0.703-3.598,1.805-5.564,3.483C75.083,112.167,75.626,126,75.626,126h-1.742
				v-12.497c0-4.769,4.105-8.671,9.124-8.671C83.667,104.832,84.311,104.899,84.932,105.028z"/>
			<path fill="#B51B39" d="M104.791,105.028c-1.595,0.703-3.599,1.805-5.565,3.483C94.94,112.167,95.483,126,95.483,126h-1.742
				v-12.497c0-4.769,4.105-8.671,9.123-8.671C103.525,104.832,104.169,104.899,104.791,105.028z"/>
			<path fill="#B51B39" d="M124.648,105.028c-1.594,0.703-3.599,1.805-5.564,3.483c-4.285,3.656-3.742,17.488-3.742,17.488h-1.742
				v-12.497c0-4.769,4.106-8.671,9.123-8.671C123.383,104.832,124.027,104.899,124.648,105.028z"/>
			<path fill="#D22940" d="M151.569,113.502V126h-18.244v-12.497c0-4.769,4.104-8.671,9.121-8.671c0.661,0,1.306,0.067,1.927,0.196
				c1.74,0.358,3.299,1.193,4.518,2.351C150.543,108.95,151.569,111.118,151.569,113.502z"/>
			<path fill="#D22940" d="M171.426,126h-18.245v-12.497c0-4.769,4.104-8.671,9.124-8.671l0,0c5.016,0,9.121,3.902,9.121,8.671V126z
				"/>
			<path fill="#D22940" d="M191.284,126h-18.246v-12.497c0-4.769,4.107-8.671,9.124-8.671l0,0c5.017,0,9.122,3.902,9.122,8.671V126z
				"/>
			<path fill="#B51B39" d="M144.373,105.028c-1.595,0.703-3.599,1.805-5.564,3.483c-4.285,3.656-3.742,17.488-3.742,17.488h-1.741
				v-12.497c0-4.769,4.104-8.671,9.121-8.671C143.107,104.832,143.751,104.899,144.373,105.028z"/>
			<path fill="#B51B39" d="M164.231,105.028c-1.596,0.703-3.6,1.805-5.564,3.483c-4.286,3.656-3.743,17.488-3.743,17.488h-1.742
				v-12.497c0-4.769,4.104-8.671,9.124-8.671C162.965,104.832,163.61,104.899,164.231,105.028z"/>
			<path fill="#B51B39" d="M184.088,105.028c-1.595,0.703-3.6,1.805-5.564,3.483c-4.286,3.656-3.743,17.488-3.743,17.488h-1.743
				v-12.497c0-4.769,4.107-8.671,9.124-8.671C182.823,104.832,183.466,104.899,184.088,105.028z"/>
			<rect x="70.805" y="125.784" fill="#D22940" width="123.032" height="3.269"/>
		</g>
		<rect x="66.254" y="125.468" fill="#66240F" width="131.762" height="43.54"/>
	</g>
	<g>
		<path fill="#C2E8E8" d="M161.304,82.184c0,0-5.573,18.161-4.733,22.753c0.842,4.592,7.723,16.214,7.723,16.214l1.312-9.625
			c0,0-3.36-5.99-3.151-7.188c0.211-1.199,1.559-9.456,1.559-9.456L161.304,82.184z"/>
		<path fill="#231F20" d="M164.901,174.236l-10.357,2.238c-0.852,0.186-1.457,0.906-1.457,1.736l0,0c0,0.984,0.838,1.78,1.874,1.78
			h14.701c1.168,0,2.052-1.005,1.843-2.098l-0.426-2.239c-0.162-0.848-0.939-1.463-1.844-1.463h-3.919
			C165.176,174.191,165.038,174.207,164.901,174.236z"/>
		<path fill="#2D2D2D" d="M179.258,175.849l-9.629,3.591c-0.931,0.347-1.159,1.417-0.569,2.499l0,0
			c0.642,1.179,2.007,1.91,3.052,1.73l11.013-1.902c0.651-0.113,1.13-1.051,1.015-2.029l-0.266-2.258
			c-0.111-0.955-0.643-1.691-1.271-1.691h-3.005C179.481,175.789,179.368,175.808,179.258,175.849z"/>
		<path fill="#14396F" d="M174.284,125.215c-0.149,0.841-0.303,1.687-0.454,2.528c-1.353,7.439-2.747,14.543-2.835,15.602
			c-0.07,0.841,0.914,32.472,0,32.51c-2.326,0.092-3.869,1.151-6.039,0.324c-1.045-0.398-2.186-0.841-3.025-1.574
			c-0.724-0.633-1.166-33.932-1.166-35.026c-0.006-2.166,3-13.819,3.337-21.99c0.06-1.366,0.074-5.44,0.509-6.759
			c0.012-0.041,0.025-0.082,0.041-0.124c0.439-1.265,2.191-1.105,2.645-0.193c0.664-0.273,1.347-0.516,2.043-0.729
			c0.997-0.304,1.658,0.437,1.701,1.21c0.171,0.204,0.27,0.476,0.256,0.815c-0.041,0.963,0.085,4.551,0.297,5.488
			c0.002,0.008,0.002,0.018,0.004,0.024c-0.005-0.507-0.021-1.017-0.052-1.528c-0.089-1.518,2.111-1.672,2.658-0.49
			c0.067,0.144,0.108,0.309,0.12,0.49c0.019,0.315,0.032,0.682,0.039,1.084c0.034,1.382,0.016,3.189-0.041,4.859
			c-0.047,1.365-0.119,2.638-0.215,3.509C174.168,125.277,174.227,125.263,174.284,125.215z"/>
		<path fill="#14396F" d="M174.931,121.771c-0.017,0.688-0.227,3.084-0.647,3.444c0.208-1.163,0.41-2.32,0.602-3.446
			c0.006-0.037,0.012-0.07,0.018-0.107C174.927,121.527,174.935,121.587,174.931,121.771z"/>
		<path fill="#5A3522" d="M164.258,63.844c0.447,1.457,1.754,2.517,2.1,4.003c0.211,0.911,1.682,0.523,1.471-0.386
			c-0.339-1.458-1.539-2.462-2.044-3.834c-0.136-0.373-0.166-0.742-0.133-1.109c1.579,2.336,5.019,2.084,7.583,1.649
			c0.944-0.161,1.88-0.372,2.84-0.417c0.354-0.017,0.726-0.028,1.074,0.044c-0.051,0.132-0.07,0.285-0.037,0.454
			c0.129,0.648,0.344,1.288,0.553,1.929c-0.434-0.015-0.889,0.244-0.9,0.776c-0.024,1.015,0.334,1.929,0.032,2.935
			c-0.296,0.986-0.815,1.89-1.345,2.777c-0.029,0.047-0.051,0.095-0.067,0.141c-0.081,0.219-0.559,0.464-0.702,0.755
			c-0.457-0.129-0.91-0.332-1.357-0.613c-0.821-0.518-1.585,0.738-0.77,1.252c2.217,1.396,4.813,1.261,6.996-0.121
			c0.197-0.125,0.303-0.292,0.334-0.468c0.283-0.562,0.117-1.601,0.181-2.206c1.138-2.47,1.897-4.824,1.75-7.435
			c-0.104-1.857-0.75-3.656-2.183-5.014c-1.408-1.334-3.411-2.148-5.406-1.986c-1.167,0.095-2.291,0.341-3.469,0.295
			c-0.532-0.021-1.063-0.068-1.592-0.104c-1.792-0.482-4.375-1.348-4.536,1.045c-0.042,0.638-0.003,1.314,0.12,1.974
			c-0.144,0.461-0.338,0.912-0.47,1.375C164.066,62.306,164.026,63.09,164.258,63.844z M175.347,62.365
			c0.004-0.001,0.007-0.003,0.011-0.004c0.04-0.021,0.076-0.043,0.108-0.066c0.056,0.016,0.11,0.03,0.165,0.044
			C175.536,62.347,175.442,62.356,175.347,62.365z M168.426,62.803c0.256,0.053,0.555-0.025,0.73-0.193
			c0.079-0.075,0.135-0.157,0.17-0.244c0.164-0.057,0.304-0.158,0.385-0.296c0.004,0.002,0.01,0.003,0.015,0.006
			c0.878,0.325,1.915,0.618,2.948,0.704c-0.381,0.06-0.766,0.112-1.154,0.147C170.553,63.015,169.403,63.098,168.426,62.803z
			 M167.643,62.452c0.029,0.003,0.057,0.006,0.086,0.007c0.065,0.002,0.131-0.006,0.192-0.022c0.053,0.057,0.106,0.113,0.157,0.172
			c0.059,0.068,0.133,0.118,0.214,0.152C168.064,62.683,167.846,62.581,167.643,62.452z"/>
		<path fill="#F0C185" d="M177.678,78.98c-0.025,0.94-0.322,1.732-1.127,2.152c-0.912,0.477-2.07,0.914-3.121,0.969
			c-1.689,0.092-4.481-0.291-4.469-2.169c0.002-0.225,0.002-1.056,0.014-2.062c0.01-0.837,0.026-1.796,0.061-2.631
			c0.047-1.132,0.122-2.034,0.25-2.088c0.637-0.272,1.518-0.151,1.982,0.328c0.137,0.016,0.269,0.046,0.395,0.092
			c0.245,0.087,0.467,0.232,0.641,0.438l0.027,0.001c0.179-0.072,0.373-0.112,0.57-0.125c0.355-0.319,0.867-0.459,1.351-0.396
			c0.464-0.204,1.039-0.227,1.485-0.022c-0.097-0.044,0.021-0.387,0.195-0.531c0.174,0.779,0.365,1.556,0.576,2.328
			C176.845,76.517,177.231,77.76,177.678,78.98z"/>
		<path fill="#E2A971" d="M176.508,75.264c-2.628,4.356-6.131,3.283-7.533,2.607c0.01-0.837,0.026-1.796,0.061-2.631
			c0.279-0.192,1.341-0.908,2.627-1.667c0.245,0.087,0.467,0.232,0.641,0.438l0.027,0.001c0.179-0.072,0.373-0.112,0.57-0.125
			c0.355-0.319,0.867-0.459,1.351-0.396c0.464-0.204,1.039-0.227,1.485-0.022c-0.097-0.044,0.021-0.387,0.195-0.531
			C176.106,73.715,176.297,74.492,176.508,75.264z"/>
		<path fill="#F0C185" d="M177.513,70.288c0.204-0.606,0.666-0.484,1.022-0.825c0.688-0.658,1.184-1.979,0.764-2.852
			c-0.337-0.699-1.027-1.211-1.869-1.051c-0.043,0.008-0.086,0.019-0.128,0.029c0.042-0.368,0.115-0.737,0.245-1.114
			c0.002-0.424-0.006-0.844-0.016-1.261c-0.094-0.183-0.189-0.366-0.301-0.542c-0.605-0.948-2.166-1.315-3.277-1.376
			c-2.783-0.155-5.717,1.248-8.346-0.139c-0.042,0.128-0.08,0.257-0.11,0.39c-0.302,2.254,0.349,4.665,0.647,6.868
			c0.078,0.58,0.131,1.162,0.188,1.738c0.096,0.549,0.176,1.101,0.211,1.657c0,0.002,0,0.005,0,0.008
			c0.182,1.047,0.49,2.055,1.128,2.984c0.121,0.434,0.295,0.847,0.515,1.183c0.66,1.002,1.941,1.073,3.061,1.07
			c1.074-0.002,2.21-0.039,3.016-0.807c0.77-0.732,1.475-1.711,2.07-2.576C177.043,72.639,177.118,71.459,177.513,70.288z"/>
		<path fill="#194B8E" d="M186.455,125.054c-0.008,0.316-0.033,0.635-0.081,0.951c-0.982,6.686-1.164,45.259-1.022,48.187
			c0.05,1.032,0.179,2.473-0.877,2.914c-2.113,0.883-8.882,0.247-8.856-0.444c0.438-11.127-1.384-43.857-1.467-48.756
			c-0.113-0.061-0.219-0.114-0.321-0.162c-0.978-0.454-1.521-0.375-1.655-1.643c-0.081-0.766-0.008-3.006,0.023-4.54
			c0.009-0.536,0.015-0.985,0.007-1.257c-0.192-0.939-0.3-1.904-0.345-2.866c-0.016-0.349-0.023-0.695-0.025-1.044
			c-0.004-1.295,1.515-1.657,2.368-1.09c0.067,0.144,0.108,0.309,0.12,0.49c0.019,0.315,0.032,0.682,0.039,1.084
			c1.184-0.242,2.018-0.385,2.018-0.385l7.629-1.866c0,0.247-0.002,0.42-0.002,0.457c-0.002,0.055,0,0.11,0,0.165
			c0.785,0.776,1.088,2.147,1.307,3.197C185.768,120.625,186.521,122.849,186.455,125.054z"/>
		<path fill="#14396F" d="M186.455,125.054l-0.12,0.756c0,0-3.652-1.922-4.184-4.477c-0.771,0.432-3.932,0.597-7.22,0.438
			c-0.015-0.001-0.03-0.001-0.046-0.002c-0.188-0.01-0.376-0.021-0.564-0.031c-0.716-0.043-1.432-0.102-2.123-0.177
			c-2.283-0.245-4.309-0.667-5.239-1.284c-1.485-0.984,1.809-2.08,4.901-2.839c0.891-0.218,1.765-0.407,2.502-0.56
			c1.184-0.242,2.018-0.385,2.018-0.385l7.629-1.866c0,0.247-0.002,0.42-0.002,0.457c-0.002,0.055,0,0.11,0,0.165
			c0.785,0.776,1.088,2.147,1.307,3.197C185.768,120.625,186.521,122.849,186.455,125.054z"/>
		<path fill="#C2E8E8" d="M168.11,78.889c0.14,0.042,0.277,0.093,0.412,0.162c0.272,0.134,0.399,0.342,0.42,0.559
			c0.487,0.639,1.516,1.359,3.674,1.417c3.936,0.105,5.063-2.046,5.063-2.046l0.093,0.053c0.169-0.101,0.386-0.137,0.636-0.065
			c1.758,0.505,3.722,0.659,5.482,1.297c0.029,0.011,0.057,0.021,0.086,0.032c0.455,0.112,0.906,0.247,1.358,0.393
			c0.981,0.318-0.8,13.416-0.74,14.118c0.176,2.039-0.532,4.675-0.296,6.709c0.264,2.301,0.01,4.62,0.338,6.913
			c0.07,0.497,0.139,0.996,0.162,1.497c0.259,0.923,0.349,6.001,0.072,6.962c-0.242,0.84-0.6,1.118-1.326,1.256
			c-0.814,0.154-6.905,1.055-9.695,1.3c-2.759,0.241-5.674,0.702-7.648-1.211c-1.139-1.102-1.688-1.226-2.089-2.72
			c-0.491-1.825,0.282-16.256,0.264-17.149c-0.036-1.733,0.045-3.627-0.258-5.393C164.012,88.561,161.071,78.889,168.11,78.889z"/>
		<path fill="#F0C185" d="M187.456,131.615c0.879,0.279,2.27,0.716,2.941-0.303c0.043-0.041,0.083-0.088,0.123-0.141
			c0.006-0.006,0.01-0.012,0.014-0.019c0.553-0.417,0.932-1.043,1.156-1.808c0.352-0.725,0.594-1.532,0.652-2.524
			c0.091-1.569,0.088-3.448-0.455-4.862c-0.381-0.998-1.169-0.898-1.634-0.303c-0.093-0.045-0.2-0.051-0.32,0.001
			c-0.341,0.147-0.68-0.009-1.021,0.243c-0.276,0.207-0.482,0.525-0.649,0.894c-0.431,0.944-0.558,2.013-0.565,3.115
			c0,0.159,0.031,0.29,0.078,0.398c-0.289,1-0.136,1.991,0.176,2.952c-0.194,0.197-0.301,0.576-0.219,0.896
			C187.062,129.957,186.782,131.399,187.456,131.615z M189.032,128.904c0.045-0.302,0.092-0.603,0.152-0.896
			c0.051-0.242,0.116-0.45,0.189-0.676c0.025-0.078,0.025-0.116,0.023-0.131c0.004,0.01,0.018,0.031,0.057,0.051
			c0.125,0.066,0.236,0.064,0.329,0.02c0,0.02,0.001,0.039,0.001,0.059c0.002,0.148-0.031,0.713-0.015,0.59
			c-0.001,0.02-0.007,0.041-0.011,0.063c-0.134,0.227-0.29,0.439-0.451,0.649C189.2,128.706,189.109,128.798,189.032,128.904z"/>
		<polygon fill="#C2E8E8" points="192.612,120.477 192.659,122.539 188.291,122.539 188.291,119.333 		"/>
		<path fill="#5A3522" d="M178.744,64.758c0,0-0.578,3.419-1.434,3.581c-0.854,0.161,0.525-3.6-0.079-5.666
			C176.625,60.607,178.744,64.758,178.744,64.758z"/>
		<path fill="#C2E8E8" d="M180.04,79.353c0,0-7.146,15.452-7.146,16.727c0,1.116,11.7-1.271,11.7-1.271l1.983,8.68l1.203,17.119
			c0.025,0.344,0.326,0.61,0.688,0.61h4.61c0,0,0.073-14.299-0.419-17.699c-0.492-3.4-1.423-21.752-5.364-22.828
			C183.354,79.616,180.04,79.353,180.04,79.353z"/>
		<path fill="#C2E8E8" d="M168.11,78.889c0,0-4.896,0.522-6.806,3.295c-1.911,2.774,2.708,12.698,2.708,12.698L170.439,96
			L168.11,78.889z"/>
		<polygon fill="#8CD2CD" points="171.139,81.027 170.019,119.674 171.118,119.734 172.196,81.027 		"/>
		<polygon fill="#231F20" points="171.53,89.738 167.733,78.92 167.925,78.858 171.586,89.285 178.32,78.919 178.493,79.02 		"/>
		<polygon fill="#8CD2CD" points="171.558,81.027 177.176,77.525 178.407,78.969 173.321,83.453 		"/>
		<polygon fill="#8CD2CD" points="171.558,81.027 170.188,83.177 167.829,78.889 168.707,77.871 		"/>
		<g>
			<path fill="#F79537" d="M171.668,88.788h-0.11h-0.11c-0.136,0-0.247,0.106-0.247,0.235v1.213h0.357h0.358v-1.213
				C171.917,88.894,171.805,88.788,171.668,88.788z"/>
			<path fill="#FFFFFF" d="M173.633,93.34h-4.149c-0.459,0-0.833-0.354-0.833-0.792v-2.101c0-0.437,0.374-0.792,0.833-0.792h4.149
				c0.459,0,0.832,0.355,0.832,0.792v2.101C174.465,92.985,174.092,93.34,173.633,93.34z"/>
			<g>
				<ellipse fill="#D6D6D6" cx="170.151" cy="91.103" rx="0.742" ry="0.706"/>
				<path fill="#D6D6D6" d="M170.151,91.818c-0.417,0-0.754,0.317-0.76,0.711h0.76h0.76
					C170.904,92.136,170.567,91.818,170.151,91.818z"/>
			</g>
			<rect x="171.581" y="90.543" fill="#D6D6D6" width="1.667" height="0.218"/>
			<rect x="171.581" y="91.023" fill="#D6D6D6" width="2.149" height="0.219"/>
			<rect x="171.581" y="91.737" fill="#D6D6D6" width="2.149" height="0.218"/>
			<rect x="171.581" y="92.211" fill="#D6D6D6" width="2.149" height="0.218"/>
		</g>
	</g>
	<g>
		<path fill="#F0C185" d="M137.352,122.566c0,0,0.904,5.259,0.904,5.725s-0.327,1.064-0.327,1.064l-0.577,1.665l0,0
			c-0.191,0.349-0.706,0.384-0.94,0.059c-0.394-0.54-0.864-1.324-0.923-2.026c-0.104-1.228-0.355-2.625-0.355-2.625l0.355,1.797
			c0,0-2.209-2.383,0-5.518C136.953,122.1,137.352,122.566,137.352,122.566z"/>
		<path fill="#231F20" d="M114.54,172.303c-0.11-0.416,0.04,1.119-0.288,1.089c-0.617-0.057-1.276-0.064-1.903,0.076
			c-0.138-0.526,0.137-1.977-0.346-1.583c-1.319,1.079-1.886,4.278-2.018,5.974c-0.139,1.787-0.192,3.885,1.298,4.871
			c2.427,1.604,3.783-2.456,3.871-4.449C115.211,176.955,115.482,175.888,114.54,172.303z"/>
		<path fill="#F0C185" d="M110.457,176.353c0.193-1.049,0.669-2.023,0.909-3.059c0.25-1.091,0.082-2.23,0.001-3.334
			c-0.18-2.457-0.486-4.904-0.625-7.365c-0.073-1.311-0.133-2.621-0.161-3.932c-0.104-4.979,1.141-9.736,2.047-14.613
			c1.306,0.193,2.624,0.34,3.941,0.43c1.271,0.09,2.551,0.126,3.821,0.012c-0.525,0.048-1.984,6.111-2.181,6.813
			c-0.654,2.332-1.095,4.738-1.558,7.113c-0.541,2.777-1.023,5.564-1.444,8.359c-0.319,2.117-0.72,4.229-0.594,6.373
			c0.104,1.759,0.688,4.591-1.113,5.819C111.514,180.327,110.159,177.972,110.457,176.353z"/>
		<path fill="#4C2A1B" d="M122.196,62.184c0.103-1.755-1.733-3.089-3.49-2.804c-2.423,0.395-3.26,3.187-3.043,5.185
			c0.127,1.154,0.541,2.257,0.736,3.392c0.115,0.663,0.605,1.868,0.342,2.534c-0.121,0.306-0.497,0.705-0.996,0.878
			c0.22,0.373,0.555,0.69,0.954,0.912c0.769,0.429,1.72,0.611,2.597,0.463c0.923-0.157,1.647-0.69,2.35-1.247
			c0.767-0.606,0.466-1.803,0.056-2.519c-0.609-1.066-1.529-1.657-1.904-2.86c-0.165-0.53-0.259-1.085-0.288-1.637
			c-0.013-0.236,0.219-1.366,0.116-1.499C120.279,63.826,122.113,63.557,122.196,62.184z"/>
		<path fill="#D6D6D6" d="M123.333,62.775c-0.104-0.164-0.218-0.322-0.36-0.459c-0.215-0.21-0.502-0.327-0.803-0.366
			c-0.323-0.041-0.597,0.018-0.892,0.158c-0.12,0.057-0.23,0.127-0.337,0.205c-0.427,0.308-0.79,0.599-0.868,1.152
			c-0.066,0.463,0.123,0.962,0.478,1.291c0.225,0.207,0.483,0.322,0.771,0.377c-0.022-0.002-0.044-0.005-0.066-0.009
			c0.003,0.001,0.005,0.001,0.007,0.002c0.12,0.035,0.239,0.049,0.359,0.045c0.002,0,0.004,0,0.006,0l-0.004,0
			c0.066-0.002,0.132-0.007,0.197-0.021c0.187-0.008,0.359-0.061,0.52-0.158c0.153-0.085,0.301-0.214,0.419-0.362
			c0.024-0.013,0.048-0.024,0.07-0.037c0.299-0.183,0.562-0.456,0.644-0.794C123.557,63.452,123.529,63.089,123.333,62.775z"/>
		<path fill="#5A3522" d="M130.955,64.237c-0.417-0.793-1.263-0.813-1.873-0.438c-0.158-0.191-0.356-0.366-0.604-0.521
			c-0.995-0.62-2.118-0.628-3.107-0.24c-0.213-0.345-0.595-0.593-1.148-0.589c-0.932,0.005-1.899,0.054-2.732,0.497
			c-0.893,0.475-1.551,1.329-1.991,2.189c-1.675,3.278-0.845,7.586,1.633,10.299c0.734,0.803,1.921,1.029,2.427-0.146
			c0.023,0.011,0.048,0.023,0.072,0.032c0.119,0.127,0.269,0.231,0.447,0.306c0.032,0.02,0.059,0.041,0.09,0.06
			c1.406,0.826,3.413-0.034,4.179-1.308c0.031-0.053,0.062-0.108,0.088-0.165c0.089-0.029,0.179-0.067,0.269-0.117
			c1.336-0.734,2.439-2.354,2.939-3.719C132.34,68.466,131.876,66,130.955,64.237z"/>
		<path fill="#F0C185" d="M130.522,93.235c0.02-1.337-0.231-10.171,1.008-11.287c0.435-0.389,1.371,0.774,1.635,1.123
			c0.81,1.076,1.031,2.38,1.377,3.727c0.885,3.464,1.078,7.006,1.197,10.606c0.14,4.276,0.791,8.644,1.253,12.938
			c0.269,2.493,0.347,5.009,0.359,7.521c0.005,1.336-0.01,2.672-0.021,4.008c-0.007,0.697,0.035,1.545-0.555,1.883
			c-0.977,0.563-1.232-0.774-1.41-1.582c-0.357-1.623-0.698-3.252-1.021-4.885c-0.733-3.715-1.497-7.475-1.823-11.279
			c-0.102-1.252-0.396-2.457-0.702-3.639c-0.633-2.436-1.163-5.23-1.289-7.813c-0.019-0.375-0.017-0.752-0.013-1.127
			C130.52,93.363,130.52,93.299,130.522,93.235z"/>
		<path fill="#231F20" d="M132.186,176.632c-1.258-1.449-4.863-0.893-6.503-0.64c-0.631,0.097-1.261,0.099-1.897,0.022
			c-0.259-0.031-1.585-0.174-1.596-0.531c-0.014-0.458-0.346-0.719-0.716-0.779c0.075-0.313-0.009-0.666-0.343-0.904
			c-0.024-0.018-0.05-0.036-0.074-0.055c-0.262-0.186,0.142-0.84-0.126-0.73c-0.842,0.344-1.425,2.401-1.603,3.063
			c-0.482,1.807,0.883,2.385,2.09,2.402c3.722,0.053,7.653,0.275,10.386-0.473C132.473,177.824,132.592,177.101,132.186,176.632z"/>
		<path fill="#F0C185" d="M120.535,172.291c0-0.043-0.002-0.086-0.006-0.129c-0.067-0.684-0.173-1.365-0.282-2.045
			c-0.512-3.184-0.853-6.402-0.852-9.625c0.002-3.371,0.863-6.281,1.388-9.566c0.18-1.119,0.206-2.189,0.053-3.233
			c0.113-0.558,0.227-1.114,0.339-1.672c2.504,0.191,5.017,0.253,7.539,0.267c-0.658,1.965-1.294,3.935-1.819,5.946
			c-1.499,3.368-2.125,6.927-2.52,10.552c-0.18,1.668-0.299,3.34-0.403,5.014c-0.054,0.894-0.12,1.787-0.144,2.682
			c-0.037,1.449-0.015,2.984,1.366,3.896c1.179,0.778,2.723,1.014,4.003,1.616c0.199,0.093-1.491,0.357-1.561,0.364
			c-1.926,0.172-4.843,0.655-6.707-0.305c-0.189-0.098-0.367-0.21-0.532-0.339C119.3,174.857,120.526,173.339,120.535,172.291z"/>
		<path fill="#231F20" d="M111.777,143.467c0.945-2.352,1.445-5.046,1.631-7.554c0.189-2.57-0.532-5.141-0.717-7.693
			c-0.208-2.836-0.048-5.816,0.282-8.644c0.169-1.435,2.061-6.831,3.359-7.378c0.516-0.215,1.074-0.28,1.571-0.152
			c0.055,0.015,0.107,0.031,0.161,0.049c0.118-0.088,0.241-0.171,0.375-0.248c1.231-0.711,2.848-0.549,4.153-0.124
			c0.735,0.24,1.49,0.56,2.137,1.003c0.25-0.214,0.531-0.395,0.846-0.527c0.572-0.239,1.195-0.291,1.731-0.104
			c0.118-0.088,0.242-0.172,0.374-0.248c1.231-0.711,2.848-0.549,4.154-0.123c0.804,0.262,1.632,0.621,2.317,1.132
			c0.133,1.179,0.325,2.352,0.545,3.52c0.582,3.104,0.562,6.244,0.065,9.343c-0.263,1.637-0.657,3.262-1.167,4.865
			c-1.589,5.002-3.243,10.416-3.416,15.675c-0.02,0.608-0.424,1.097-1.027,1.28c-4.129,1.267-8.667,0.684-12.8-0.23
			c-1.591-0.353-4.713-0.719-4.825-2.762C111.504,144.156,111.634,143.826,111.777,143.467z"/>
		<path fill="#F0C185" d="M120.538,81.459c0.006,0.557,0.42,0.897,0.823,0.88c0.797,1.088,2.454,1.056,3.627,0.511h0.006
			c0.799,0,1.583-0.632,1.399-1.329c-0.127-0.485-0.269-0.971-0.42-1.454c-0.072-0.228-0.146-0.56-0.223-0.938
			c-0.15-0.735-0.309-1.643-0.477-2.285c-0.051-0.2-0.104-0.375-0.159-0.509c-0.087-0.219-0.175,0.045-0.268,0.21
			c-0.059,0.11-0.12,0.178-0.182,0.036c-0.004-0.009-0.008-0.019-0.013-0.027c-0.292-0.652-0.916-1.108-1.708-0.901
			c-0.468,0.121-0.9,0.551-1.019,1.026c-0.302-0.01-0.605,0.192-0.728,0.669c-0.024,0.093-0.046,0.186-0.066,0.28
			c-0.007,0.036-0.015,0.073-0.023,0.109c-0.011,0.014-0.02,0.03-0.031,0.048c-0.082,0.143-0.13,0.334-0.126,0.57
			c0.003,0.116,0.002,0.233,0,0.351c0,0.004-0.001,0.012-0.003,0.021c-0.003,0.021-0.005,0.041-0.008,0.063
			c-0.02,0.151-0.037,0.303-0.057,0.454c-0.052,0.439-0.106,0.876-0.182,1.309c-0.003,0.009-0.003,0.016-0.003,0.021
			c-0.049,0.127-0.073,0.253-0.077,0.375c-0.016,0.071-0.031,0.145-0.049,0.218C120.547,81.271,120.538,81.369,120.538,81.459z"/>
		<path fill="#F0C185" d="M133.805,109.969c-0.402-1.141-0.951-2.229-1.36-3.368c-0.447-1.242-0.619-2.621-0.556-3.931
			c0.121-2.498,0.943-4.889,1.379-7.34c0.006-0.029,0.01-0.053,0.014-0.075c0-0.012,0.001-0.028,0.003-0.051
			c0.007-0.152,0.03-0.304,0.04-0.454c0.021-0.267,0.033-0.532,0.027-0.799c-0.004-0.302-0.032-0.603-0.06-0.904
			c-0.001-0.009-0.004-0.043-0.01-0.083c-0.015-0.088-0.038-0.229-0.044-0.266c-0.213-1.176-0.551-2.326-0.876-3.478
			c-0.7-2.486-1.183-4.922-0.833-7.478c-1.324-0.369-2.851-0.319-4.136-0.551c-0.816-0.147-1.5-0.262-2.246,0.172
			c-0.418,0.244-0.817,0.549-1.299,0.642c-0.866,0.166-1.367-0.374-2.078-0.682c-0.292-0.126-0.573-0.176-0.866-0.183
			c-0.648-0.014-1.367,0.61-1.932,0.872c-1.284,0.597-2.61,1.109-3.921,1.649c-0.707,0.291-1.082,0.657-1.15,1.397
			c-0.092,1.01,0.426,1.944,0.561,2.927c0.185,1.339,0.375,2.662,0.697,3.979c0.631,2.575,1.734,5.018,2.321,7.602
			c0.491,2.162,0.397,3.887-0.39,5.938c-0.516,1.341-1.031,2.682-1.547,4.022c-0.259,0.669-0.82,1.391-0.857,2.118
			c-0.078,1.519,3.241,1.968,4.353,2.28c2.509,0.705,5.11,1.3,7.722,1.5c1.598,0.123,3.237,0.139,4.802-0.234
			c0.791-0.188,1.942-0.553,2.749-1.143c-0.056-1.07-0.143-2.14-0.238-3.207C133.995,110.548,133.908,110.256,133.805,109.969z"/>
		<path fill="#4C2A1B" d="M130.678,63.801c-0.277,1.278-0.96,2.397-2.38,2.871c-1.266,0.423-2.919,0.079-4.033-0.565
			c-1.318-0.764-2.141-1.936-2.302-3.367c0.129-0.127,0.322-0.195,0.483-0.28c0.176-0.094,0.354-0.182,0.537-0.264
			c0.357-0.16,0.728-0.295,1.109-0.393c0.736-0.19,1.503-0.235,2.26-0.142C128.097,61.877,129.55,62.675,130.678,63.801z"/>
		<path fill="#E2A971" d="M126.17,81.459c-1.313,0.529-4.386-0.399-5.211-2.329c0.149-0.735,0.309-4.616,0.477-5.258
			c0.167-0.081,0.315,2.798,0.427,2.674c0.057-0.062,0.104-0.131,0.138-0.21l0.057,0.22l0.466,1.839l1.686-0.329l1.422-4.272
			c0.083,0.144,0.131,4.328,0.125,4.564c-0.002,0.116-0.001,0.233,0.002,0.351c0,0.004,0.001,0.012,0.002,0.021
			c0.003,0.021,0.006,0.041,0.009,0.063c0.02,0.151,0.037,0.303,0.055,0.454c0.053,0.439,0.106,0.876,0.184,1.309
			c0.001,0.009,0.001,0.016,0.002,0.021c0.049,0.127,0.073,0.253,0.077,0.375c0.018,0.071,0.031,0.145,0.05,0.218
			C126.161,81.271,126.17,81.369,126.17,81.459z"/>
		<path fill="#F0C185" d="M130.729,66.889c-0.245-0.231-0.559-0.431-0.955-0.589c-0.766-0.307-1.96,0.028-2.759-0.104
			c-1.368-0.225-3.292-0.742-4.392,0.315c-1.021,0.981-0.777,2.472-0.937,3.786c-0.033,0.276-0.084,0.546-0.143,0.815
			c-0.014-0.012-0.028-0.025-0.04-0.036c-0.307-0.257-0.672-0.4-1.083-0.388c-0.31,0.009-0.687,0.218-0.742,0.537
			c-0.183,1.046,0.387,1.981,1.21,2.647c0.007,0.006,0.014,0.01,0.021,0.017c-0.054,0.442-0.064,0.893,0.004,1.357
			c0.236,1.612,1.348,2.744,2.511,3.853c1.073,1.021,2.319,1.193,3.756,0.772c1.455-0.427,2.149-1.472,2.706-2.749
			c0.605-1.387,1.163-2.749,1.196-4.265C131.124,70.999,132.25,68.327,130.729,66.889z"/>
		<path fill="#E6E7E7" d="M117.482,99.567c0.493,2.162,0.399,3.887-0.39,5.938c-0.514,1.341-1.03,2.681-1.546,4.022
			c-0.257,0.669-0.822,1.391-0.859,2.118c-0.044,0.854,0.984,1.369,2.091,1.713c0.864,0.268,1.775,0.43,2.263,0.566
			c1.142,0.321,2.303,0.619,3.474,0.868c0.33,0.069,0.66,0.136,0.991,0.196c1.08,0.201,2.167,0.353,3.257,0.437
			c1.598,0.124,3.236,0.14,4.802-0.233c0.79-0.188,1.942-0.553,2.748-1.143c-0.039-0.771-0.098-1.542-0.161-2.313
			c-0.253-1.221-0.417-2.455-0.585-3.69c-0.025-0.17-0.048-0.341-0.07-0.512c-0.005-0.031-0.025-0.174-0.033-0.233
			c-0.046-0.298-0.09-0.597-0.141-0.895c-0.109-0.644-0.266-1.279-0.367-1.922c-0.266-1.69-0.174-3.425,0.192-5.095
			c0.077-0.347,0.155-0.732,0.255-1.115c0.119-0.472,0.275-0.938,0.502-1.326c0.003-0.004,0.006-0.008,0.008-0.014
			c0.013-0.022,0.026-0.044,0.041-0.065c0.344-0.548,0.84-0.941,1.065-1.59c0.448-1.292,0.14-2.614-0.399-3.898
			c0.592-0.151,1.146-0.682,1.073-1.285c-0.323-2.661-0.922-5.681-2.72-7.846c-0.152-0.186-0.314-0.363-0.486-0.537
			c-0.146-0.147-0.306-0.251-0.467-0.316c-0.44-0.18-0.91-0.078-1.271,0.177c-0.021-0.003-0.041-0.008-0.061-0.012
			c-0.059,0.075-0.118,0.147-0.178,0.22c-0.043,0.043-0.082,0.09-0.119,0.138c-1.195,1.378-2.819,2.376-4.767,2.74
			c-2.784,0.518-5.813,0.008-8.119-1.611c-0.115-0.08-0.22-0.166-0.32-0.255c-0.376,0.156-2.118,0.313-2.509,0.498
			c-1.104,0.525-1.952,1.565-2.674,2.481c-0.739,0.936-1.46,2.02-1.766,3.164c-0.819,3.063,3.915,4.551,5.658,6.398
			C116.918,96.418,117.17,98.193,117.482,99.567z"/>
		<path fill="#D6D6D6" d="M133.954,96.869c-0.015,0.021-0.028,0.042-0.041,0.065c-0.004,0.005-0.006,0.009-0.009,0.013
			c-0.227,0.388-0.382,0.854-0.501,1.326c-0.68,0.039-1.548-0.107-2.646-0.57C132.028,97.897,133.12,97.45,133.954,96.869z"/>
		<path fill="#D6D6D6" d="M119.32,98.532c0.558,2.469,0.674,6.544,0,8.139c-0.51,1.203-1.892,4.928-2.542,6.686
			c-1.107-0.344-2.135-0.859-2.092-1.712c0.038-0.727,0.602-1.449,0.859-2.118c0.516-1.341,1.032-2.682,1.546-4.022
			c0.789-2.05,0.882-3.775,0.391-5.938c-0.262-1.152-0.627-2.276-1.005-3.397c0.439-1.033,0.747-2.107,0.867-3.217
			c-0.022,0.362,0.161,4.39,1.977,4.623c1.843,0.236,3.092,0,3.092,0S121.021,98.899,119.32,98.532z"/>
		<path fill="#F0C185" d="M135.659,105.597c-0.238-0.489-0.309-0.411-0.9-0.654c-1.322-0.543-3.037-0.112-4.517-0.21
			c-1.214-0.081-3.166-0.449-4.356-0.59c-2.551-0.301-4.662-1.113-7.24-1.129c-2.014-0.012-2.476-5.239-3.047-7.966
			c-1.404-1.256-4.027-2.389-5.041-4.036c-0.002,0.003-0.006,0.007-0.009,0.01c0.025,0.048,0.05,0.097,0.076,0.145
			c-0.119,1.088-0.114,2.202,0.095,3.265c-0.095,0.161-0.134,0.363-0.076,0.599c0.62,2.523,0.96,4.774,1.993,7.09
			c1.677,3.761,2.108,3.841,3.979,4.467c2.129,0.713,4.666,0.441,7.028,0.403c0.494-0.007,0.979-0.017,1.451-0.021
			c1.986-0.019,3.972-0.079,5.955-0.179C132.155,106.735,136.365,107.041,135.659,105.597z"/>
		<polygon fill="#231F20" points="126.587,93.411 119.555,81.889 119.731,81.792 126.431,92.77 127.292,81.186 127.495,81.199 		"/>
		<g>
			<path fill="#F79537" d="M126.62,92.367h-0.11h-0.11c-0.137,0-0.247,0.105-0.247,0.234v1.213h0.357h0.357v-1.213
				C126.867,92.472,126.756,92.367,126.62,92.367z"/>
			<path fill="#FFFFFF" d="M128.583,96.918h-4.148c-0.459,0-0.833-0.354-0.833-0.792v-2.101c0-0.437,0.373-0.792,0.833-0.792h4.148
				c0.461,0,0.833,0.355,0.833,0.792v2.101C129.416,96.564,129.043,96.918,128.583,96.918z"/>
			<g>
				<ellipse fill="#D6D6D6" cx="125.101" cy="94.682" rx="0.744" ry="0.706"/>
				<path fill="#D6D6D6" d="M125.101,95.397c-0.416,0-0.753,0.317-0.761,0.711h0.761h0.761
					C125.855,95.714,125.517,95.397,125.101,95.397z"/>
			</g>
			<rect x="126.531" y="94.122" fill="#D6D6D6" width="1.667" height="0.218"/>
			<rect x="126.531" y="94.602" fill="#D6D6D6" width="2.15" height="0.219"/>
			<rect x="126.531" y="95.316" fill="#D6D6D6" width="2.15" height="0.219"/>
			<rect x="126.531" y="95.79" fill="#D6D6D6" width="2.15" height="0.218"/>
		</g>
		<g>
			<polygon fill="#FFFFFF" points="144.501,118.57 151.035,99.75 138.25,95.09 131.616,113.626 			"/>
			<polygon fill="#D1D3D3" points="147.188,100.084 140.797,97.83 140.657,98.445 147.014,100.708 			"/>
			<polygon fill="#D1D3D3" points="148.567,102.412 138.575,98.745 138.417,99.354 148.36,103.023 			"/>
			<polygon fill="#D1D3D3" points="148.079,103.695 138.087,100.028 137.929,100.636 147.872,104.306 			"/>
			<polygon fill="#D1D3D3" points="147.589,104.978 137.598,101.31 137.441,101.918 147.383,105.589 			"/>
			<polygon fill="#D1D3D3" points="147.102,106.261 137.11,102.593 136.953,103.202 146.895,106.872 			"/>
			<polygon fill="#D1D3D3" points="146.614,107.543 136.623,103.876 136.464,104.484 146.407,108.154 			"/>
			<polygon fill="#D1D3D3" points="146.125,108.826 136.133,105.159 135.977,105.768 145.919,109.438 			"/>
			<polygon fill="#D1D3D3" points="145.636,110.109 135.645,106.441 135.489,107.05 145.43,110.72 			"/>
		</g>
		<path fill="#F0C185" d="M140.514,105.113c0.074-0.226-0.125-0.48-0.551-0.548c-0.447-0.07-0.881-0.1-1.308-0.103
			c-0.099-0.115-0.265-0.212-0.478-0.25c-1.443-0.26-2.799,0.189-4.17,0.268c0.197-0.203,0.605-0.405,0.85-0.593
			c0.492-0.38,0.555-0.931-0.078-0.698c-0.826,0.304-2.896,0.625-3.754,0.896c-0.592,0.187-1.228,0.403-1.514,0.777
			c-0.193,0.251-0.089,0.473,0.283,0.638c0.05,0.021,0.101,0.042,0.15,0.063c-0.435,0.137-0.675,0.475-0.197,0.714
			c0.673,0.335,1.25,0.771,2.013,1.039c0.772,0.271,1.542,0.596,2.386,0.514c1.145-0.113,2.307-0.153,3.46-0.229
			c0.931-0.063,1.579-0.643,2.416-0.863c0.556-0.146,0.471-0.646-0.005-0.808c0.155-0.059,0.311-0.119,0.459-0.187
			C140.812,105.59,140.765,105.294,140.514,105.113z"/>
	</g>
</g>
<g>
	<g>
		<path fill="#214568" d="M173.192,44.635h-13.776v-12.08c0-0.792,0.676-1.434,1.51-1.434h10.758c0.833,0,1.509,0.643,1.509,1.434
			V44.635z"/>
		<path fill="#4B9EC8" d="M173.598,45.021h-14.59V32.555c0-1.004,0.859-1.821,1.917-1.821h10.758c1.056,0,1.915,0.816,1.915,1.821
			V45.021z M159.823,44.249h12.962V32.555c0-0.578-0.493-1.048-1.102-1.048h-10.758c-0.608,0-1.103,0.47-1.103,1.048V44.249z"/>
	</g>
	<g>
		<path fill="#214568" d="M159.416,34.372h13.776H159.416z"/>
		<rect x="159.416" y="33.986" fill="#4B9EC8" width="13.776" height="0.772"/>
	</g>
	<g>
		<path fill="#214568" d="M161.247,29.105v1.925V29.105z"/>
		<rect x="160.84" y="29.105" fill="#4B9EC8" width="0.813" height="1.925"/>
	</g>
	<g>
		<path fill="#214568" d="M171.438,29.105v1.925V29.105z"/>
		<rect x="171.032" y="29.105" fill="#4B9EC8" width="0.813" height="1.925"/>
	</g>
	<g>
		<path fill="#214568" d="M159.416,37.552h13.776H159.416z"/>
		<rect x="159.416" y="37.166" fill="#4B9EC8" width="13.776" height="0.772"/>
	</g>
	<g>
		<path fill="#214568" d="M159.416,41.009h13.776H159.416z"/>
		<rect x="159.416" y="40.623" fill="#4B9EC8" width="13.776" height="0.772"/>
	</g>
	<g>
		<path fill="#214568" d="M163.897,34.372v10.263V34.372z"/>
		<rect x="163.491" y="34.372" fill="#4B9EC8" width="0.813" height="10.263"/>
	</g>
	<g>
		<path fill="#214568" d="M168.704,34.372v10.263V34.372z"/>
		<rect x="168.297" y="34.372" fill="#4B9EC8" width="0.813" height="10.263"/>
	</g>
	<g>
		<rect x="163.897" y="37.552" fill="#214568" width="4.807" height="3.457"/>
		<path fill="#4B9EC8" d="M169.111,41.395h-5.62v-4.229h5.62V41.395z M164.303,40.623h3.994v-2.684h-3.994V40.623z"/>
	</g>
	<g>
		<polygon fill="#214568" points="167.094,35.438 161.516,40.743 158.887,38.244 157.42,39.636 160.051,42.135 161.66,43.663 
			163.124,42.271 168.704,36.967 		"/>
		<path fill="#4B9EC8" d="M161.66,44.209l-4.813-4.574l2.041-1.938l2.629,2.498l5.578-5.304l2.186,2.075L161.66,44.209z
			 M157.998,39.636l3.662,3.481l6.47-6.149l-1.035-0.982l-5.578,5.303l-2.629-2.499L157.998,39.636z"/>
	</g>
</g>
<g>
	<g>
		<path fill="#214568" d="M131.76,15.946h-0.287h-0.285c-0.357,0-0.645,0.274-0.645,0.612v3.157h0.93h0.932v-3.157
			C132.405,16.22,132.116,15.946,131.76,15.946z"/>
		<path fill="#4B9EC8" d="M132.811,20.102h-2.674v-3.544c0-0.551,0.471-0.999,1.051-0.999h0.572c0.58,0,1.051,0.448,1.051,0.999
			V20.102z M130.95,19.329h1.048v-2.771c0-0.125-0.106-0.226-0.237-0.226h-0.572c-0.132,0-0.238,0.101-0.238,0.226V19.329z"/>
	</g>
	<g>
		<path fill="#214568" d="M136.875,27.8h-10.804c-1.198,0-2.169-0.923-2.169-2.062v-5.472c0-1.138,0.971-2.061,2.169-2.061h10.804
			c1.198,0,2.17,0.923,2.17,2.061v5.472C139.045,26.877,138.074,27.8,136.875,27.8z"/>
		<path fill="#4B9EC8" d="M136.875,28.187h-10.804c-1.421,0-2.576-1.099-2.576-2.448v-5.472c0-1.35,1.155-2.448,2.576-2.448h10.804
			c1.42,0,2.576,1.098,2.576,2.448v5.472C139.452,27.087,138.295,28.187,136.875,28.187z M126.072,18.592
			c-0.972,0-1.763,0.751-1.763,1.675v5.472c0,0.924,0.792,1.675,1.763,1.675h10.804c0.973,0,1.762-0.751,1.762-1.675v-5.472
			c0-0.923-0.789-1.675-1.762-1.675H126.072z"/>
	</g>
	<g>
		<g>
			<ellipse fill="#214568" cx="128.112" cy="21.879" rx="1.936" ry="1.84"/>
			<path fill="#4B9EC8" d="M128.112,24.105c-1.292,0-2.342-0.999-2.342-2.226c0-1.228,1.049-2.226,2.342-2.226
				c1.291,0,2.342,0.998,2.342,2.226C130.454,23.106,129.403,24.105,128.112,24.105z M128.112,20.426
				c-0.843,0-1.529,0.652-1.529,1.453c0,0.801,0.686,1.454,1.529,1.454c0.843,0,1.529-0.653,1.529-1.454
				C129.641,21.078,128.955,20.426,128.112,20.426z"/>
		</g>
		<g>
			<path fill="#214568" d="M128.112,23.74c-1.084,0-1.964,0.827-1.981,1.853h1.981h1.98C130.075,24.567,129.196,23.74,128.112,23.74
				z"/>
			<path fill="#4B9EC8" d="M130.504,25.979h-4.787l0.007-0.392c0.021-1.231,1.091-2.233,2.387-2.233s2.366,1.001,2.387,2.233
				L130.504,25.979z M126.6,25.207h3.023c-0.191-0.622-0.8-1.081-1.511-1.081C127.399,24.126,126.791,24.585,126.6,25.207z"/>
		</g>
	</g>
	<g>
		<path fill="#214568" d="M132.459,20.71h3.729H132.459z"/>
		<rect x="132.459" y="20.324" fill="#4B9EC8" width="3.729" height="0.772"/>
	</g>
	<g>
		<path fill="#214568" d="M132.459,21.96h4.808H132.459z"/>
		<rect x="132.459" y="21.574" fill="#4B9EC8" width="4.808" height="0.772"/>
	</g>
	<g>
		<path fill="#214568" d="M132.459,23.819h4.808H132.459z"/>
		<rect x="132.459" y="23.433" fill="#4B9EC8" width="4.808" height="0.773"/>
	</g>
	<g>
		<path fill="#214568" d="M132.459,25.052h4.808H132.459z"/>
		<rect x="132.459" y="24.667" fill="#4B9EC8" width="4.808" height="0.772"/>
	</g>
</g>
<g>
	<g>
		<path fill="#214568" d="M96.312,25.463H78.816c-1.456,0-2.636,1.123-2.636,2.506v11.551c0,1.384,1.18,2.506,2.636,2.506h8.747l0,0
			h8.747c0.045,0,0.091-0.002,0.136-0.004c1.393-0.067,2.501-1.162,2.501-2.502V27.97C98.948,26.586,97.768,25.463,96.312,25.463z"
			/>
		<path fill="#4B9EC8" d="M96.311,42.412H78.816c-1.677,0-3.042-1.297-3.042-2.892V27.97c0-1.594,1.365-2.892,3.042-2.892h17.495
			c1.678,0,3.044,1.298,3.044,2.892v11.551c0,1.542-1.27,2.81-2.888,2.888C96.416,42.411,96.363,42.412,96.311,42.412z
			 M78.816,25.85c-1.229,0-2.229,0.951-2.229,2.12v11.551c0,1.168,1,2.119,2.229,2.119h17.494c0.039,0,0.077,0,0.115-0.002
			c1.186-0.057,2.115-0.987,2.115-2.116V27.97c0-1.168-1-2.12-2.229-2.12H78.816z"/>
	</g>
	<g>
		<rect x="84.923" y="23.348" fill="#214568" width="0.348" height="2.412"/>
		<rect x="84.516" y="22.962" fill="#4B9EC8" width="1.162" height="3.185"/>
	</g>
	<g>
		<rect x="89.723" y="23.348" fill="#214568" width="0.349" height="2.412"/>
		<rect x="89.318" y="22.962" fill="#4B9EC8" width="1.161" height="3.185"/>
	</g>
	<g>
		<path fill="#214568" d="M96.312,25.463h-8.774h-8.721c-1.456,0-2.636,1.123-2.636,2.506v1.117
			c2.099,2.563,5.629,5.115,11.357,5.123v0c0.01,0,0.018,0,0.027,0c5.535,0,9.136-2.375,11.383-4.844V27.97
			C98.948,26.586,97.768,25.463,96.312,25.463z"/>
		<path fill="#4B9EC8" d="M87.565,34.596h-0.021c-6.096-0.009-9.718-2.872-11.685-5.271l-0.085-0.105v-1.25
			c0-1.594,1.365-2.892,3.042-2.892h17.495c1.678,0,3.044,1.298,3.044,2.892v1.54l-0.1,0.109
			C96.292,32.875,92.249,34.596,87.565,34.596z M76.588,28.954c2.69,3.225,6.374,4.863,10.951,4.869l0.026,0.001
			c4.453,0,8.145-1.548,10.976-4.603V27.97c0-1.168-1-2.12-2.229-2.12H78.816c-1.229,0-2.229,0.951-2.229,2.12V28.954z"/>
	</g>
	<path fill="#2174AF" d="M88.53,32.683h-1.931c-0.48,0-0.871,0.371-0.871,0.827v1.399c0,0.457,0.39,0.827,0.871,0.827h1.931
		c0.481,0,0.87-0.371,0.87-0.827V33.51C89.4,33.054,89.011,32.683,88.53,32.683z M88.753,34.909c0,0.118-0.1,0.213-0.224,0.213
		h-1.931c-0.124,0-0.225-0.095-0.225-0.213V33.51c0-0.117,0.101-0.213,0.225-0.213h1.931c0.124,0,0.224,0.096,0.224,0.213V34.909z"
		/>
	<g>
		<path fill="#214568" d="M90.237,22.97h-2.699h-2.698c-0.344,0-0.622,0.265-0.622,0.591s0.278,0.591,0.622,0.591h2.698h2.699
			c0.344,0,0.623-0.265,0.623-0.591S90.581,22.97,90.237,22.97z"/>
		<path fill="#4B9EC8" d="M90.237,24.539h-5.397c-0.567,0-1.029-0.438-1.029-0.978c0-0.539,0.461-0.978,1.029-0.978h5.397
			c0.567,0,1.028,0.438,1.028,0.978C91.265,24.101,90.804,24.539,90.237,24.539z M84.839,23.356c-0.118,0-0.216,0.092-0.216,0.205
			c0,0.113,0.098,0.205,0.216,0.205h5.397c0.119,0,0.215-0.092,0.215-0.205c0-0.113-0.097-0.205-0.215-0.205H84.839z"/>
	</g>
</g>
</svg>
