<?xml version="1.0" encoding="utf-8"?>
<!-- Generator: Adobe Illustrator 15.0.0, SVG Export Plug-In . SVG Version: 6.00 Build 0)  -->
<!DOCTYPE svg PUBLIC "-//W3C//DTD SVG 1.1//EN" "http://www.w3.org/Graphics/SVG/1.1/DTD/svg11.dtd">
<svg version="1.1" id="Capa_1" xmlns="http://www.w3.org/2000/svg" xmlns:xlink="http://www.w3.org/1999/xlink" x="0px" y="0px"
	 width="164.044px" height="219.039px" viewBox="0 0 164.044 219.039" enable-background="new 0 0 164.044 219.039"
	 xml:space="preserve">
<rect fill="#E9E2CE" width="164.044" height="219.039"/>
<path fill="#9E8A66" d="M119.14,49.801c-0.804,0-1.607-0.067-2.391-0.199l0.144-0.761c0.962,0.163,1.965,0.22,2.941,0.171
	l0.044,0.771C119.636,49.795,119.386,49.801,119.14,49.801z M122.97,49.279l-0.23-0.742c0.943-0.264,1.855-0.634,2.711-1.099
	l0.404,0.671C124.944,48.604,123.974,48.998,122.97,49.279z M113.746,48.739c-0.958-0.396-1.87-0.899-2.709-1.497l0.487-0.619
	c0.789,0.562,1.646,1.035,2.547,1.407L113.746,48.739z M128.378,46.338l-0.557-0.564c0.722-0.639,1.363-1.357,1.908-2.137
	l0.678,0.43C129.825,44.894,129.144,45.658,128.378,46.338z M108.76,45.193c-0.673-0.764-1.253-1.604-1.722-2.492l0.727-0.346
	c0.441,0.835,0.985,1.623,1.618,2.342L108.76,45.193z M131.831,41.414l-0.762-0.27c0.342-0.877,0.576-1.792,0.695-2.723l0.808,0.095
	C132.444,39.506,132.196,40.48,131.831,41.414z M105.966,39.9c-0.238-0.967-0.36-1.961-0.36-2.961h0.815
	c0,0.94,0.113,1.877,0.338,2.783L105.966,39.9z M106.421,36.776l-0.813-0.011c0.014-1,0.148-1.993,0.402-2.955l0.788,0.188
	C106.561,34.901,106.435,35.836,106.421,36.776z M131.784,35.62c-0.105-0.933-0.327-1.851-0.656-2.731l0.768-0.258
	c0.35,0.937,0.584,1.916,0.697,2.906L131.784,35.62z M107.842,31.379l-0.722-0.355c0.481-0.883,1.072-1.714,1.757-2.469l0.616,0.504
	C108.851,29.77,108.294,30.55,107.842,31.379z M129.823,30.377c-0.534-0.785-1.165-1.513-1.877-2.16l0.563-0.559
	c0.756,0.69,1.429,1.463,1.998,2.299L129.823,30.377z M111.659,27.16l-0.477-0.626c0.848-0.587,1.768-1.079,2.732-1.464l0.314,0.713
	C113.321,26.145,112.458,26.607,111.659,27.16z M125.599,26.522c-0.85-0.478-1.756-0.858-2.694-1.135l0.241-0.738
	c0.998,0.294,1.964,0.7,2.867,1.208L125.599,26.522z M117.062,25.011l-0.131-0.763c1.025-0.16,2.091-0.209,3.13-0.143l-0.054,0.771
	C119.028,24.815,118.026,24.859,117.062,25.011z"/>
<path fill="#9E8A66" d="M72.89,37.326c-0.802,0-1.606-0.068-2.39-0.2l0.142-0.761c0.964,0.162,1.966,0.221,2.944,0.17l0.043,0.771
	C73.385,37.318,73.137,37.326,72.89,37.326z M76.719,36.803l-0.229-0.74c0.944-0.265,1.855-0.635,2.712-1.101l0.403,0.671
	C78.694,36.129,77.724,36.522,76.719,36.803z M67.498,36.264c-0.959-0.396-1.871-0.9-2.711-1.497l0.487-0.619
	c0.788,0.562,1.646,1.035,2.547,1.407L67.498,36.264z M82.129,33.863l-0.557-0.565c0.721-0.64,1.362-1.358,1.908-2.136l0.676,0.429
	C83.576,32.418,82.895,33.183,82.129,33.863z M62.511,32.717c-0.674-0.764-1.254-1.602-1.724-2.49l0.729-0.348
	c0.44,0.836,0.985,1.623,1.619,2.342L62.511,32.717z M85.582,28.938l-0.762-0.269c0.342-0.876,0.575-1.792,0.694-2.723l0.808,0.095
	C86.194,27.03,85.945,28.005,85.582,28.938z M59.717,27.424c-0.238-0.965-0.359-1.96-0.359-2.961h0.813
	c0,0.941,0.114,1.877,0.339,2.783L59.717,27.424z M60.172,24.301l-0.813-0.011c0.014-0.999,0.148-1.993,0.401-2.954l0.789,0.186
	C60.311,22.426,60.184,23.36,60.172,24.301z M85.535,23.145c-0.107-0.932-0.327-1.852-0.656-2.73l0.766-0.26
	c0.352,0.938,0.586,1.915,0.699,2.907L85.535,23.145z M61.592,18.903l-0.721-0.356c0.481-0.883,1.072-1.713,1.756-2.467l0.617,0.504
	C62.6,17.294,62.045,18.074,61.592,18.903z M83.574,17.901c-0.535-0.785-1.166-1.513-1.877-2.161l0.563-0.557
	c0.756,0.689,1.429,1.462,1.997,2.297L83.574,17.901z M65.411,14.684l-0.479-0.625c0.848-0.586,1.767-1.079,2.731-1.463l0.314,0.713
	C67.072,13.669,66.209,14.131,65.411,14.684z M79.35,14.047c-0.849-0.477-1.756-0.857-2.695-1.135l0.24-0.738
	c1,0.295,1.965,0.699,2.868,1.208L79.35,14.047z M70.813,12.535l-0.133-0.764c1.025-0.16,2.092-0.207,3.132-0.141l-0.055,0.771
	C72.779,12.339,71.775,12.385,70.813,12.535z"/>
<path fill="#9E8A66" d="M104.437,82.806h-3.049v-0.772h3.049V82.806z M98.339,82.806h-3.051v-0.772h3.051V82.806z M92.239,82.806
	H89.19v-0.772h3.049V82.806z M86.039,82.547c-1.055-0.332-1.963-0.961-2.625-1.814l0.655-0.459c0.562,0.725,1.333,1.258,2.227,1.541
	L86.039,82.547z M82.377,77.807c-0.001-0.029-0.001-0.059-0.001-0.088v-2.816h0.813v2.816c0,0.024,0,0.051,0.001,0.074
	L82.377,77.807z M83.189,72.004h-0.813v-2.898h0.813V72.004z M83.189,66.208h-0.813V63.31h0.813V66.208z M83.189,60.411h-0.813
	v-0.815c0-0.647-0.147-1.27-0.437-1.848l0.734-0.333c0.342,0.685,0.516,1.418,0.516,2.181V60.411z M80.06,55.833
	c-0.675-0.362-1.443-0.552-2.223-0.552c-0.187,0-0.374-0.01-0.56-0.028l0.085-0.769c0.157,0.016,0.315,0.023,0.475,0.023
	c0.918,0,1.825,0.227,2.621,0.651L80.06,55.833z M74.303,54.016c-0.838-0.702-1.418-1.615-1.676-2.644l0.791-0.179
	c0.219,0.871,0.711,1.646,1.422,2.242L74.303,54.016z M73.297,48.395h-0.813v-2.898h0.813V48.395z M73.297,42.599h-0.813v-2.897
	h0.813V42.599z"/>
<path fill="#9E8A66" d="M119.547,87.091h-0.814v-2.897h0.814V87.091z M119.547,81.295h-0.814v-2.898h0.814V81.295z M119.547,75.498
	h-0.814v-2.897h0.814V75.498z M119.547,69.702h-0.814v-2.897h0.814V69.702z M119.547,63.905h-0.814v-2.898h0.814V63.905z
	 M119.547,58.109h-0.814v-2.898h0.814V58.109z M119.547,52.313h-0.814v-2.897h0.814V52.313z"/>
<g>
	<g>
		<g>
			<path fill="#FFFFFF" d="M59.52,61.049v-5.396V61.049z"/>
			<path fill="#231F20" d="M59.52,61.435c-0.225,0-0.407-0.173-0.407-0.386v-5.396c0-0.214,0.183-0.387,0.407-0.387
				s0.408,0.173,0.408,0.387v5.396C59.928,61.262,59.744,61.435,59.52,61.435z"/>
		</g>
		<g>
			<path fill="#FFFFFF" d="M57.418,133.775v45.129V133.775z"/>
			<path fill="#231F20" d="M57.418,179.291c-0.225,0-0.406-0.172-0.406-0.387v-45.129c0-0.215,0.182-0.387,0.406-0.387
				s0.407,0.172,0.407,0.387v45.129C57.825,179.119,57.643,179.291,57.418,179.291z"/>
		</g>
		<g>
			<path fill="#FFFFFF" d="M45.207,133.791l-9.525,39.787L45.207,133.791z"/>
			<path fill="#231F20" d="M35.682,173.966c-0.029,0-0.059-0.002-0.091-0.01c-0.219-0.047-0.355-0.256-0.306-0.463l9.525-39.791
				c0.049-0.207,0.268-0.338,0.486-0.289c0.219,0.045,0.355,0.252,0.306,0.461l-9.524,39.791
				C36.035,173.843,35.867,173.966,35.682,173.966z"/>
		</g>
		<g>
			<path fill="#FFFFFF" d="M69.561,133.791l9.524,39.787L69.561,133.791z"/>
			<path fill="#231F20" d="M79.085,173.966c-0.186,0-0.354-0.123-0.396-0.301l-9.525-39.791c-0.05-0.209,0.088-0.416,0.307-0.461
				c0.218-0.049,0.437,0.082,0.486,0.289l9.525,39.791c0.049,0.207-0.087,0.416-0.307,0.463
				C79.146,173.964,79.115,173.966,79.085,173.966z"/>
		</g>
		<rect x="30.388" y="61.049" fill="#FFFFFF" width="53.618" height="78.833"/>
		<rect x="26.542" y="139.882" fill="#194B8E" width="62.108" height="5.574"/>
		<g>
			<path fill="#D22940" d="M57.838,68.627c3.639,0,7.026,1.028,9.855,2.797l-9.855,13.661l2.196,17.569c0.46-0.053,0.46-0.053,0,0
				c-0.72,0.084-1.452,0.127-2.196,0.127c-9.923,0-17.969-7.646-17.969-17.078C39.869,76.272,47.915,68.627,57.838,68.627z"/>
		</g>
		<path fill="#6EC0C3" d="M75.807,85.703c0,3.911-1.385,7.515-3.714,10.394L57.838,85.085l9.855-13.661
			c1.027,0.643,1.984,1.382,2.85,2.205c2.254,2.145,3.914,4.854,4.718,7.889C75.619,82.857,75.807,84.26,75.807,85.703z"/>
		<path fill="#F79537" d="M72.227,95.93c-0.045,0.057-0.088,0.112-0.134,0.167c-2.86,3.546-7.154,5.991-12.059,6.558l-2.196-17.569
			L72.227,95.93z"/>
		<rect x="47.039" y="109.483" fill="#D1D3D3" width="20.654" height="2.473"/>
		<rect x="39.869" y="115.316" fill="#D1D3D3" width="34.992" height="2.475"/>
		<rect x="39.869" y="119.509" fill="#D1D3D3" width="34.992" height="2.475"/>
		<rect x="39.869" y="123.703" fill="#D1D3D3" width="34.992" height="2.475"/>
		<rect x="39.869" y="127.896" fill="#D1D3D3" width="34.992" height="2.475"/>
		<rect x="39.869" y="132.087" fill="#D1D3D3" width="34.992" height="2.473"/>
		<path fill="#F1F2F1" d="M84.006,61.08l-10.547,0.052c0.893,0.184,8.746,2.073,8.746,17.086c0,12.024,1.801,61.665,1.801,61.665
			V61.08z"/>
		<path fill="#C9C9C9" d="M78.568,61.134l0.33-0.002C78.693,61.088,78.568,61.134,78.568,61.134z"/>
	</g>
	<g>
		<path fill="#4C2A1B" d="M126.694,171.423c0.058-0.014,0.12-0.021,0.184-0.027c0.34-0.193,1.285-0.041,1.756,0.168
			c0.514,0.033,1.093,0.143,1.523,0.281c1.434,0.455,2.392,1.27,3.072,1.895c1.112,1.023,1.945,2.299,3.131,3.688
			c0.449,0.527,0.988,1.217,0.969,1.951c-0.025,0.926-0.896,1.551-2.018,1.807c-1.969,0.451-3.805-0.402-5.184-1.465
			c-1.531-1.182-3.021-2.367-4.007-3.566c-0.378-0.459-2.341-1.6-2.704-2.055C122.577,173.052,124.854,168.578,126.694,171.423z"/>
		<path fill="#4C2A1B" d="M116.79,171.865c-0.055-0.018-0.113-0.029-0.174-0.039c-0.337-0.273-1.213-0.047-1.629,0.256
			c-0.484,0.053-1.018,0.213-1.406,0.414c-1.284,0.66-2.016,1.787-2.511,2.627c-0.779,1.322-1.207,2.879-1.89,4.486
			c-0.248,0.586-0.523,1.33-0.307,2.068c0.265,0.891,1.122,1.418,2.07,1.58c1.615,0.277,2.891-0.594,3.817-1.656
			c1.069-1.225,2.147-2.504,2.864-3.832c0.283-0.525,1.863-1.908,2.162-2.461C120.499,173.992,118.356,167.511,116.79,171.865z"/>
		<path fill="#843817" d="M130.035,68.021c-0.046,0.018-0.093,0.039-0.142,0.065c-2.106,1.184-4.479,1.913-6.942,1.464
			c-1.378-0.251-2.685-0.787-4.015-1.066c-0.028-0.065-0.059-0.132-0.087-0.197c-2.823-0.274-3.577-3.418-3.707-5.709
			c-0.074-1.322-0.015-2.717,0.473-3.968c0.733-1.88,2.222-2.911,4.169-3.558c0.975-0.324,2.029-0.537,3.066-0.498
			c1.022,0.039,2.031,0.207,3.055,0.247c1.845,0.071,3.332,0.829,4.459,2.212c1.318,1.613,0.995,3.395,0.832,5.287
			C131.026,64.278,130.763,66.175,130.035,68.021z"/>
		<path fill="#F0C185" d="M119.046,78.612c0.01-0.082,0.018-0.163,0.027-0.245c0.309-0.753,0.57-1.518,0.738-2.303
			c0.02-0.076,0.033-0.152,0.048-0.229c0.168-0.885,0.252-1.774,0.272-2.668c0.18-0.094,0.476-0.033,0.49,0.201
			c0.008,0.129,0.008,0.254,0.002,0.382c0.434-0.197,0.992-0.177,1.443,0.022c0.467-0.062,0.967,0.074,1.313,0.386
			c0.191,0.013,0.38,0.052,0.553,0.121l0.027-0.001c0.258-0.302,0.621-0.471,1.006-0.516c0.467-0.48,1.367-0.591,1.992-0.291
			c0.01,0.291,0.037,0.582,0.084,0.877c0.063,0.396,0.137,0.806,0.239,1.213c0,0,0,0,0.001,0c0.215,0.875,0.547,1.745,1.101,2.488
			c0.048,0.204,0.084,0.412,0.101,0.623c0.002,0.012,0,0.023-0.002,0.035c0.485,0.467,0.641,1.211-0.018,1.783
			c-0.471,0.409-1.066,0.584-1.694,0.646c-0.229,0.426-0.707,0.684-1.244,0.743c-2.137,0.243-5.067,0.362-6.699-1.226
			C118.166,80.012,118.353,79.076,119.046,78.612z"/>
		<path fill="#E2A971" d="M119.812,76.064c1.038,0.215,2.386,0.578,3.814,0.498c1.639-0.092,2.826-0.641,3.655-1
			c-0.103-0.407-0.177-0.816-0.239-1.213c-0.047-0.295-0.074-0.586-0.084-0.877c-0.625-0.3-1.525-0.189-1.992,0.291
			c-0.385,0.045-0.748,0.214-1.006,0.516l-0.027,0.001c-0.173-0.069-0.361-0.108-0.553-0.121c-0.346-0.312-0.846-0.447-1.313-0.386
			c-0.451-0.199-1.01-0.22-1.443-0.022c0.006-0.128,0.006-0.253-0.002-0.382c-0.015-0.234-0.311-0.295-0.49-0.201
			c-0.021,0.894-0.104,1.783-0.272,2.668C119.845,75.912,119.831,75.988,119.812,76.064z"/>
		<path fill="#F0C185" d="M118.616,71.384c-0.371-0.95-0.68-1.972-0.795-2.82c-0.039-0.288-0.069-0.573-0.084-0.856
			c-0.072-1.355-0.33-5.4-0.305-6.109c0.053-1.455,0.595-2.307,1.408-2.77c0.883-0.504,2.086-0.544,3.328-0.4
			c1.778,0.206,3.707-0.475,5.411,0.254c1.808,0.773,2.279,2.451,2.21,4.197c-0.034,0.855-0.143,1.729-0.291,2.574
			c-0.164,0.924,0.035,1.83-0.029,2.75c-0.053,0.734-1.354,4.713-2.199,5.738c-1.132,1.371-3.008,1.492-4.712,1.445
			c-1.546-0.043-2.591-1.164-3.225-2.398C119.091,72.515,118.843,71.963,118.616,71.384z"/>
		<path fill="#F0C185" d="M128.692,68.03c-0.041-0.046-0.068-0.106-0.076-0.181c-0.006-0.061-0.008-0.12-0.011-0.179
			c-0.062-0.087-0.089-0.199-0.044-0.321c0.02-0.049,0.036-0.098,0.055-0.148c0.039-0.463,0.17-0.918,0.403-1.328
			c-0.233-0.014-0.452-0.223-0.3-0.465c0.262-0.42,0.767-1.135,1.386-0.838c0.592,0.281,0.489,1.143,0.421,1.643
			c-0.128,0.948-0.398,2.555-1.744,2.414C128.43,68.59,128.449,68.18,128.692,68.03z"/>
		<path fill="#F0C185" d="M117.132,64.896c0.102-0.106,0.224-0.179,0.369-0.188c0.418-0.027,0.652,0.443,0.785,0.85
			c0.078,0.24-0.044,0.419-0.201,0.474c0.15,0.562,0.239,1.167,0.316,1.427c0.064,0.211-0.048,0.399-0.191,0.475
			c-0.015,0.021-0.032,0.038-0.049,0.055c0.076,0.126,0.155,0.251,0.236,0.371c0.23,0.346-0.21,0.802-0.475,0.494
			c-0.475-0.549-0.939-1.349-1.101-2.176c-0.014-0.047-0.028-0.093-0.041-0.139C116.649,66.03,116.61,65.111,117.132,64.896z"/>
		<path fill="#FFFFFF" d="M113.268,92.005c-0.001-0.045-0.003-0.088-0.009-0.13c1.047-1.902,0.316-3.63,0.307-5.951
			c-0.008-1.918-0.293-3.942-0.979-5.742c-0.6-1.578,3.604-2.248,6.653-2.521c0.197,0.512,0.474,0.992,0.847,1.424
			c1.159,0.02,2.322,0.225,3.479,0.283c1.115,0.057,2.846,0.156,3.613-0.813c0.23-0.291,0.565-0.375,0.871-0.324
			c0.157-0.205,0.305-0.417,0.439-0.637c3.557,0.256,7.168,0.945,6.958,2.718c-0.062,0.503-0.604,1.196-0.79,1.688
			c-0.305,0.812-0.547,1.641-0.689,2.493c-0.227,1.347-0.408,2.669-0.182,4.021c0.301,1.805,0.539,3.585,1.275,5.269
			c-0.041,0.113-0.068,0.231-0.084,0.353c-0.523,3.848-1.051,7.713-0.884,11.602c0.12,2.774,0.45,5.564,0.474,8.347
			c-0.164,0.082-0.344,0.162-0.546,0.242c-0.108,0.043-0.218,0.086-0.325,0.127c-4.871,1.871-10.169,2.617-15.369,2.164
			c-1.936-0.168-3.967-0.555-5.459-1.775c-0.084-0.07-0.169-0.143-0.25-0.219c-0.115-0.107-0.221-0.213-0.317-0.318
			C113.417,106.935,113.397,99.436,113.268,92.005z"/>
		<path fill="#194B8E" d="M111.876,137.597c-0.422-5.326-0.842-10.619-0.578-16.01c0.055-1.154,0.01-2.371-0.018-3.6
			c-0.031-1.5-0.032-3.016,0.221-4.439c0.932,0.184,1.873,0.289,2.813,0.426c0.909,0.135,1.807,0.328,2.715,0.475
			c1.93,0.307,3.881,0.523,5.836,0.623c3.867,0.191,7.822-0.059,11.557-1.078c0.016-0.004,0.028-0.01,0.042-0.016
			c0.036,0.09,0.069,0.184,0.096,0.285c0.38,1.383-0.015,2.828,0.023,4.227c0.056,1.982,0.169,3.961,0.278,5.939
			c0.158,2.801-0.116,5.604-0.162,8.41c-0.075,4.766-1.076,8.082-1.637,12.814c-0.508,4.291,0.158,10.162,0.034,14.523
			c-0.067,2.281-0.118,4.529-0.312,6.795c-0.147,1.732,0.354,3.736-1.348,4.922c-0.984,0.686-2.285,0.857-3.498,0.713
			c-1.51-0.178-3.865-0.615-4.393-2.193c-0.203-0.605-0.225-1.275-0.262-1.904c-0.447-7.465,0.508-15.125,0.846-22.59
			c-0.959-9.848,0.084-14.645-0.022-22.572c0,0.156-1.595,0.152-1.765,0.156c-0.864,2.32-0.407,5.586-0.51,8.043
			c0,4.785-0.869,9.303-1.305,14.016c-0.146,1.57,0.027,3.113,0.281,4.664c0.246,1.516,0.492,3.025,0.539,4.563
			c0.045,1.541-0.01,3.084-0.094,4.625c-0.146,2.658-0.301,5.311-0.395,7.971c-0.11,3.125-1.617,7.072-5.834,6.074
			c-2.725-0.646-3.111-3.055-3.174-5.35c-0.196-7.426-1.27-15.441,0.634-22.73c-0.126-0.537-0.132-1.074-0.167-1.658
			C112.196,141.669,112.034,139.63,111.876,137.597z"/>
		<path fill="#14396F" d="M129.212,112.701c0.902,1.176,2.039,2.586,2.039,2.586s0.887,2.543,3.331,3.203
			c-0.151-0.039-0.05-2.799-0.031-3.084c0.062-0.91,0.101-1.914-0.823-2.463c-0.711-0.436-1.797-0.432-3.385-0.311
			C129.964,112.662,129.588,112.681,129.212,112.701z"/>
		<path fill="#14396F" d="M111.28,117.988c2.527-0.617,3.438-3.234,3.438-3.234s0.422-0.523,0.957-1.201
			c-0.292-0.025-0.578-0.072-0.858-0.146c0.003-0.041,0.008-0.082,0.013-0.125c0.043-0.555-0.519-1.027-1.003-1.012
			c-0.004,0-0.008,0-0.01,0c0-0.08-0.012-0.16-0.037-0.232c-0.643,0.025-1.147,0.133-1.54,0.375
			c-0.269,0.162-0.482,0.389-0.651,0.691C111.247,114.656,111.245,116.33,111.28,117.988z"/>
		<polygon fill="#14396F" points="125.708,116.255 124.132,120.841 124.132,115.132 		"/>
		<path fill="#AA3229" d="M123.661,79.41l1.258,1.278c0,0-0.74,1.998-1.258,1.998c-0.52,0-1.228-1.953-1.228-1.953L123.661,79.41z"
			/>
		<path fill="#14396F" d="M132.596,115.066c0,0-7.995,2.639-19.124,0.207c1.547-0.904,1.547-0.904,1.547-0.904s8.336,0.867,16.879,0
			C132.105,114.935,132.596,115.066,132.596,115.066z"/>
		<path fill="#D22940" d="M124.303,82.025l1.126,7.095v11.675l-1.551,1.638c0,0-1.904-1.376-1.904-1.509c0-0.132,0-11.76,0-11.76
			l1.061-7.141L124.303,82.025z"/>
		<path fill="#194B8E" d="M124.919,91.473c0,0.786,0.318,15.477,0.383,22.724c0.008,0.863,0.785,1.539,1.692,1.473
			c2.018-0.154,3.833-1.156,5.833-1.473c0.586-0.094,1.796-0.785,2.381-0.885c-1.561-7.64-0.445-13.993-0.279-17.229
			c0.075-1.486,0.133-2.302,0.133-2.302l1.246-14.371c0,0-1.848-1.164-5.729-1.607C130.579,77.803,124.919,90.407,124.919,91.473z"
			/>
		<path fill="#F0C185" d="M88.196,98.854c-0.478-0.418-0.554-1.052-0.22-1.629c-0.398-0.355-0.668-0.83-0.262-1.326
			c0.434-0.529,1.315-0.61,1.905-0.885c0.15-0.071,0.288-0.07,0.403-0.027c0.563-0.188,1.166-0.285,1.842-0.255
			c0.434,0.021,0.887,0.054,1.345,0.109c0.943,0.116,1.832,0.521,2.51,1.172c0.43,0.413,0.889,0.789,1.379,1.128
			c-0.05,0.379-0.264,0.744-0.573,1c0.027,0.127,0.013,0.27-0.06,0.423c-0.203,0.434-0.109,0.903-0.416,1.325
			c-0.249,0.342-0.596,0.578-0.982,0.754c-0.996,0.455-2.058,0.494-3.132,0.367c-0.156-0.018-0.277-0.074-0.375-0.15
			c-0.756,0.193-1.463,0.062-2.137-0.23c-0.096-0.01-0.191-0.025-0.285-0.053C88.328,100.332,87.938,99.516,88.196,98.854z"/>
		<path fill="#194B8E" d="M113.867,88.604c-0.05-0.014-0.097-0.03-0.145-0.051c-0.134,0.141-0.288,0.383-0.464,0.814
			c0.018,0.477-0.039,0.959-0.143,1.436c0.305,0.157,0.518,0.471,0.412,0.881c-0.617,2.439-1.463,4.816-2.28,7.201
			c-0.384,1.113-0.791,2.228-1.034,3.379c-0.114,0.542-0.758,1.089-0.825,1.637c-0.013,0.22-0.024,0.438-0.035,0.658
			c-0.239-0.094-0.485-0.182-0.737-0.259c-1.554-0.777-2.669-1.133-4.465-1.067c-0.053,0-0.105,0-0.158,0.001
			c0.456-1.956-0.301-1.231-0.149-3.194c0.071-0.928,1.312-4.521,1.384-5.447c0.176-2.214,0.85-4.373,1.579-6.453
			c0.518-1.479,1.144-4.676,2.509-6.762c0.748-1.463,1.958-2.76,3.823-2.686c0.709,0.029,0.954,0.728,0.731,1.192
			c0.518,0.44,0.754,1.142,0.92,1.827c0.457,1.893,1.548,4.024,0.809,5.978C115.343,88.367,114.638,88.811,113.867,88.604z"/>
		<path fill="#194B8E" d="M110.899,112.562c0.615,0.4,2.061,1.24,2.88,1.496c2.472,0.775,5.799,1.795,7.653,1.834
			c0.893,0.02,1.62-0.674,1.602-1.52c-0.172-7.187-0.732-21.716-0.732-22.5c0-1.066-5.675-14.07-5.675-14.07
			c-3.882,0.443-5.728,1.607-5.728,1.607l1.246,14.371c0,0,0.069,0.721,0.131,2.039C112.419,98.875,113.005,105.85,110.899,112.562z
			"/>
		<path fill="#1963AA" d="M129.798,77.803c0,0-4.879,8.277-4.879,13.67c0,1.596,0.14,5.697,0.14,5.697s0.82-5.743,2.3-8.627
			c1.127-2.197,6.709-10.25,6.709-10.25S131.544,77.375,129.798,77.803z"/>
		<path fill="#1963AA" d="M117.276,77.803c0,0,5.018,8.277,5.018,13.67c0,1.596,0.14,5.697,0.14,5.697s-1.24-5.743-2.719-8.627
			c-1.128-2.197-6.71-10.25-6.71-10.25S115.528,77.375,117.276,77.803z"/>
		<polygon fill="#E5E5E5" points="127.73,76.679 123.593,79.41 125.312,82.42 128.903,77.561 		"/>
		<polygon fill="#E5E5E5" points="119.522,76.679 123.661,79.41 121.938,82.42 118.349,77.561 		"/>
		<path fill="#F0C185" d="M138.02,130.337c1.026,0.281,2.651,0.721,3.436-0.305c0.05-0.043,0.098-0.088,0.146-0.143
			c0.005-0.006,0.01-0.012,0.016-0.018c0.645-0.42,1.088-1.051,1.35-1.822c0.411-0.729,0.693-1.541,0.762-2.545
			c0.107-1.578,0.103-3.473-0.529-4.895c-0.447-1.006-1.368-0.906-1.91-0.307c-0.107-0.045-0.233-0.051-0.373,0.002
			c-0.398,0.148-0.795-0.01-1.191,0.246c-0.324,0.207-0.564,0.527-0.76,0.898c-0.502,0.951-0.651,2.029-0.66,3.139
			c-0.001,0.16,0.035,0.293,0.09,0.4c-0.338,1.008-0.156,2.006,0.205,2.973c-0.227,0.201-0.352,0.58-0.256,0.904
			C137.562,128.667,137.233,130.121,138.02,130.337z M139.862,127.605c0.052-0.305,0.105-0.605,0.178-0.9
			c0.059-0.244,0.135-0.455,0.221-0.682c0.029-0.078,0.029-0.117,0.025-0.133c0.006,0.012,0.021,0.031,0.068,0.051
			c0.145,0.066,0.274,0.066,0.384,0.021c0,0.018,0.001,0.039,0.001,0.057c0.002,0.15-0.037,0.721-0.017,0.596
			c-0.003,0.021-0.008,0.041-0.012,0.061c-0.158,0.232-0.341,0.445-0.528,0.656C140.057,127.408,139.952,127.5,139.862,127.605z"/>
		<path fill="#194B8E" d="M134.555,78.705c1.592,0.146,2.655,1.34,3.335,2.672c1.365,2.086,1.992,5.283,2.511,6.762
			c0.729,2.08,1.403,4.239,1.579,6.453c0.07,0.927,0.051,1.857,0.123,2.784c0.257,3.335,1.531,6.596,1.865,9.997
			c0.033,4.443,0.091,8.884,0.108,13.33c-0.907,0.189-1.818,0.264-2.747,0.105c-0.936-0.162-1.853-0.408-2.778-0.607
			c-0.159-3.199-0.405-6.385-0.679-9.574c-0.174-0.848-0.313-1.696-0.381-2.548c-0.11-1.392-0.152-2.786-0.234-4.179
			c-0.067-0.548-0.15-1.095-0.265-1.637c-0.243-1.151-0.651-2.266-1.032-3.379c-0.627-1.824-1.268-3.643-1.813-5.489
			C134.194,88.496,134.425,83.602,134.555,78.705z"/>
		<path fill="#843817" d="M117.121,58.59c0.064-0.004,0.13-0.002,0.194-0.002c-0.148-0.311-0.09-0.646,0.091-0.906
			c0.002-0.031,0.002-0.061,0.003-0.09c0.098-1.299,2.145-1.365,2.24-0.176c0.078-0.021,0.163-0.033,0.255-0.033
			c1.511-0.016,2.967,0.306,4.462,0.459c1.184,0.119,2.396,0.205,3.548,0.508c0.509-0.276,1.249-0.172,1.419,0.524
			c0.051,0.209,0.069,0.406,0.066,0.595c0.134,0.121,0.24,0.285,0.297,0.502c0.035,0.135,0.057,0.261,0.072,0.386
			c0.104,0.104,0.205,0.212,0.305,0.321c0.013,0.014,0.025,0.027,0.038,0.043c0.458,0.499-1.878,1.814-2.149,1.925
			c-1.305,0.536-2.748,0.771-4.166,0.665c-1.258-0.093-2.492-0.453-3.595-1.037c-0.989-0.525-1.853-1.617-3.08-1.553
			C115.681,60.794,115.685,58.664,117.121,58.59z"/>
		<path fill="#194B8E" d="M112.276,95.82c0,0-1.607,11.023-5.811,10.824c-4.201-0.2-11.687-4.848-11.687-4.848l1.202-5.756
			l7.445,3.028L112.276,95.82z"/>
		<path fill="#E2A971" d="M94.364,98.157c0.021-0.19-0.001-0.382-0.063-0.563c-0.172-0.507-0.577-1.437-1.136-1.056
			c-0.75,0.514-2.57,3.513-2.57,3.513l2.389,0.032c0.585-0.104,1.284-1.063,1.349-1.64L94.364,98.157z"/>
		<path fill="#F0C185" d="M91.588,93.951c0.601,0.025,1.248,0.077,1.81,0.298c0.59,0.231,1.033,0.69,1.498,1.095
			c0.555,0.479-0.154,1.365-0.71,0.885c-0.642-0.557-1.088-0.988-1.969-1.094c-0.297-0.037-0.618-0.09-0.918-0.068
			c-0.063,0.004-0.14,0.002-0.208,0.014c0,0.008,0.001,0.016,0.001,0.025c0.041,0.119,0.092,0.233,0.152,0.344
			c0.322,0.653-0.751,1.066-1.07,0.415C89.577,94.652,90.303,93.896,91.588,93.951z"/>
		<polygon fill="#843817" points="64.165,72.838 64.032,73.481 112.693,114.921 113.38,113.679 		"/>
		<path fill="#F0C185" d="M88.245,95.74c0.93-0.195,1.926-0.557,2.87-0.649c0.526-0.053,1.227,0.157,1.325,0.748
			c0.019,0.114,0.013,0.218-0.013,0.313c0.516-0.055,1.146-0.043,1.416,0.439c0.321,0.572-0.129,1.158-0.676,1.358
			c0.295,0.149,0.539,0.37,0.598,0.678c0.265,1.351-2.924,1.339-3.654,1.485c-0.727,0.146-0.971-0.953-0.244-1.099
			c0.073-0.015,0.146-0.026,0.219-0.04c-0.244-0.016-0.483-0.061-0.727-0.143c-0.545-0.183-0.5-0.954,0.057-1.084
			c0.119-0.026,0.24-0.052,0.36-0.075c-0.299-0.019-0.596-0.084-0.888-0.22c-0.268-0.125-0.4-0.381-0.378-0.618
			c-0.008,0.003-0.015,0.004-0.022,0.005C87.764,96.992,87.52,95.895,88.245,95.74z"/>
	</g>
	<g>
		<path fill="#9E8A66" d="M70.783,31.682h-3.96v-6.065h3.96V31.682z M67.636,30.909h2.335v-4.521h-2.335V30.909z"/>
		<path fill="#9E8A66" d="M75.178,31.682h-3.961v-8.448h3.961V31.682z M72.031,30.909h2.334v-6.903h-2.334V30.909z"/>
		<path fill="#9E8A66" d="M79.64,31.682h-3.962V21.166h3.962V31.682z M76.491,30.909h2.335v-8.97h-2.335V30.909z"/>
		<polygon fill="#9E8A66" points="66.352,25.393 65.941,24.727 76.708,18.725 77.119,19.393 		"/>
		<path fill="#9E8A66" d="M77.444,20.512l-1.757-2.506l5.35-1.243L77.444,20.512z M77.008,18.494l0.535,0.766l1.1-1.146
			L77.008,18.494z"/>
	</g>
</g>
<g>
	<g>
		<polygon fill="#E9E2CE" points="119.87,34.891 124.032,45.756 120.815,44.342 117.509,35.708 		"/>
		<path fill="#9E8A66" d="M124.748,46.498l-4.257-1.873l-3.504-9.148l3.127-1.081L124.748,46.498z M121.14,44.059l2.176,0.957
			l-3.688-9.629l-1.598,0.553L121.14,44.059z"/>
	</g>
	<g>
		<polygon fill="#E9E2CE" points="118.407,34.891 114.247,45.756 117.464,44.342 120.771,35.708 		"/>
		<path fill="#9E8A66" d="M113.532,46.498l4.633-12.103l3.127,1.081l-3.504,9.148L113.532,46.498z M118.651,35.387l-3.688,9.629
			l2.176-0.957l3.109-8.119L118.651,35.387z"/>
	</g>
	<g>
		<path fill="#E9E2CE" d="M118.185,28.185L118.185,28.185c-0.814-0.856-2.307-0.269-2.244,0.883l0,0
			c0.039,0.725-0.59,1.321-1.353,1.284l0,0c-1.21-0.059-1.829,1.359-0.93,2.133l0,0c0.567,0.486,0.567,1.332,0,1.816l0,0
			c-0.899,0.773-0.28,2.191,0.93,2.133l0,0c0.763-0.037,1.392,0.561,1.353,1.285l0,0c-0.063,1.15,1.43,1.738,2.244,0.884l0,0
			c0.511-0.539,1.399-0.539,1.911,0l0,0c0.813,0.854,2.304,0.267,2.243-0.884l0,0c-0.039-0.725,0.59-1.322,1.354-1.285l0,0
			c1.209,0.059,1.828-1.359,0.928-2.133l0,0c-0.566-0.484-0.566-1.33,0-1.816l0,0c0.9-0.773,0.281-2.191-0.928-2.133l0,0
			c-0.764,0.037-1.393-0.56-1.354-1.284l0,0c0.061-1.151-1.431-1.739-2.243-0.883l0,0C119.584,28.723,118.695,28.723,118.185,28.185
			z"/>
		<path fill="#9E8A66" d="M121.044,39.396c-0.467,0-0.919-0.188-1.25-0.536c-0.169-0.178-0.4-0.276-0.654-0.276
			c-0.253,0-0.485,0.099-0.654,0.276c-0.487,0.513-1.236,0.673-1.906,0.409c-0.673-0.264-1.083-0.88-1.045-1.57
			c0.014-0.24-0.078-0.467-0.258-0.636c-0.178-0.17-0.414-0.257-0.668-0.244c-0.723,0.034-1.374-0.354-1.652-0.993
			c-0.279-0.637-0.109-1.349,0.43-1.812c0.188-0.16,0.291-0.382,0.291-0.622c0-0.239-0.103-0.461-0.291-0.621
			c-0.539-0.464-0.709-1.174-0.43-1.813c0.278-0.639,0.927-1.025,1.652-0.992c0.253,0.01,0.49-0.075,0.668-0.244
			c0.18-0.171,0.271-0.396,0.258-0.637c-0.038-0.689,0.372-1.306,1.045-1.569c0.67-0.265,1.419-0.104,1.906,0.408l0,0
			c0.169,0.179,0.401,0.276,0.654,0.276c0.254,0,0.485-0.098,0.654-0.276c0.487-0.513,1.235-0.673,1.906-0.408
			c0.672,0.264,1.081,0.88,1.045,1.569c-0.014,0.24,0.078,0.466,0.257,0.637c0.179,0.169,0.417,0.256,0.669,0.244
			c0.727-0.035,1.373,0.354,1.651,0.992c0.279,0.639,0.109,1.349-0.429,1.813c-0.188,0.16-0.291,0.382-0.291,0.621
			c0,0.24,0.103,0.462,0.291,0.622c0.538,0.463,0.708,1.175,0.429,1.812c-0.278,0.639-0.925,1.027-1.651,0.993
			c-0.252-0.013-0.49,0.074-0.669,0.244c-0.179,0.169-0.271,0.396-0.257,0.636c0.036,0.69-0.373,1.307-1.045,1.57
			C121.486,39.354,121.264,39.396,121.044,39.396z M119.14,37.812c0.479,0,0.938,0.194,1.258,0.531
			c0.308,0.323,0.715,0.323,0.992,0.213c0.278-0.108,0.566-0.382,0.543-0.817c-0.024-0.455,0.156-0.898,0.494-1.221
			c0.339-0.322,0.808-0.492,1.285-0.47c0.458,0.024,0.744-0.251,0.859-0.517c0.116-0.264,0.117-0.65-0.223-0.943
			c-0.355-0.305-0.56-0.74-0.56-1.195s0.204-0.891,0.56-1.195c0.34-0.292,0.339-0.68,0.223-0.943
			c-0.115-0.264-0.396-0.538-0.859-0.516c-0.477,0.022-0.946-0.148-1.285-0.471c-0.338-0.32-0.519-0.767-0.494-1.221
			c0.023-0.436-0.265-0.707-0.543-0.816c-0.277-0.109-0.685-0.111-0.992,0.213c-0.32,0.338-0.779,0.531-1.258,0.531
			s-0.937-0.193-1.258-0.531c-0.308-0.324-0.715-0.322-0.992-0.213c-0.278,0.109-0.567,0.381-0.543,0.816
			c0.023,0.454-0.156,0.9-0.494,1.221c-0.339,0.322-0.808,0.492-1.286,0.471c-0.456-0.022-0.743,0.252-0.86,0.516
			c-0.113,0.264-0.115,0.651,0.226,0.943c0.354,0.305,0.559,0.74,0.559,1.195s-0.204,0.891-0.559,1.195
			c-0.341,0.293-0.339,0.68-0.226,0.943c0.116,0.266,0.398,0.539,0.86,0.517c0.481-0.021,0.947,0.147,1.286,0.47
			c0.338,0.322,0.518,0.766,0.494,1.221c-0.024,0.436,0.265,0.709,0.543,0.817c0.277,0.108,0.685,0.11,0.992-0.213
			C118.203,38.006,118.661,37.812,119.14,37.812z"/>
	</g>
</g>
</svg>
