<?xml version="1.0" encoding="utf-8"?>
<!-- Generator: Adobe Illustrator 15.0.0, SVG Export Plug-In . SVG Version: 6.00 Build 0)  -->
<!DOCTYPE svg PUBLIC "-//W3C//DTD SVG 1.1//EN" "http://www.w3.org/Graphics/SVG/1.1/DTD/svg11.dtd">
<svg version="1.1" id="Capa_1" xmlns="http://www.w3.org/2000/svg" xmlns:xlink="http://www.w3.org/1999/xlink" x="0px" y="0px"
	 width="215.361px" height="217.757px" viewBox="0 0 215.361 217.757" enable-background="new 0 0 215.361 217.757"
	 xml:space="preserve">
<rect fill="#CFDBE2" width="215.361" height="217.757"/>
<g>
	<defs>
		<rect id="SVGID_1_" x="13.487" y="0.145" width="189.125" height="191.259"/>
	</defs>
	<clipPath id="SVGID_2_">
		<use xlink:href="#SVGID_1_"  overflow="visible"/>
	</clipPath>
	<g clip-path="url(#SVGID_2_)">
		<defs>
			<rect id="SVGID_3_" x="13.487" y="0.145" width="189.125" height="191.259"/>
		</defs>
		<clipPath id="SVGID_4_">
			<use xlink:href="#SVGID_3_"  overflow="visible"/>
		</clipPath>
		<g opacity="0.5" clip-path="url(#SVGID_4_)">
			<g>
				<defs>
					<rect id="SVGID_5_" x="22.281" y="18.428" width="173.322" height="123.4"/>
				</defs>
				<clipPath id="SVGID_6_">
					<use xlink:href="#SVGID_5_"  overflow="visible"/>
				</clipPath>
				<g opacity="0.5" clip-path="url(#SVGID_6_)">
					<g>
						<defs>
							<rect id="SVGID_7_" x="24.121" y="35.605" width="169.131" height="106.223"/>
						</defs>
						<clipPath id="SVGID_8_">
							<use xlink:href="#SVGID_7_"  overflow="visible"/>
						</clipPath>
						<path clip-path="url(#SVGID_8_)" fill="#99B8D6" d="M114.18,62.867c-7.523-1.301-14.651-4.891-20.803-10.33
							C84.188,44.41,64.959,30.58,46.615,37.468C21.316,46.97,21.202,74.455,27.792,89.386c6.591,14.93,53.323,58.652,113.91,51.697
							c54.216-6.227,64.781-77.486,35.866-90.381C152.489,39.517,143.934,68.015,114.18,62.867"/>
					</g>
				</g>
				<path clip-path="url(#SVGID_6_)" fill="#99B8D6" d="M187.967,61.636c-0.003-19.939-14.017-41.79-31.455-43.109
					c-0.307-0.021-0.617-0.043-0.928-0.061c-25.003-1.38-26.908,34.75-49.53,38.824c-22.619,4.074-39.894-16.496-66.962-3.076
					C14.781,66.269,8.196,134.003,79.623,136.72C136.771,138.892,187.974,121.126,187.967,61.636"/>
				<path clip-path="url(#SVGID_6_)" fill="#99B8D6" d="M50.453,134.636c1.232,2.205,0.463,5.004-1.718,6.25
					s-4.948,0.471-6.181-1.734c-1.232-2.207-0.465-5.006,1.717-6.252S49.219,132.429,50.453,134.636"/>
				<path clip-path="url(#SVGID_6_)" fill="#99B8D6" d="M68.191,30.762c0,2.18-1.746,3.945-3.9,3.945
					c-2.153,0-3.899-1.765-3.899-3.945c0-2.178,1.746-3.943,3.899-3.943C66.445,26.818,68.191,28.584,68.191,30.762"/>
				<g opacity="0.5" clip-path="url(#SVGID_6_)">
					<g>
						<defs>
							<rect id="SVGID_9_" x="169.352" y="131.376" width="7.802" height="7.891"/>
						</defs>
						<clipPath id="SVGID_10_">
							<use xlink:href="#SVGID_9_"  overflow="visible"/>
						</clipPath>
						<path clip-path="url(#SVGID_10_)" fill="#99B8D6" d="M177.074,134.533c0.431,2.133-0.932,4.217-3.041,4.654
							c-2.111,0.436-4.171-0.941-4.603-3.076s0.93-4.219,3.041-4.654C174.582,131.021,176.643,132.398,177.074,134.533"/>
					</g>
				</g>
				<g opacity="0.5" clip-path="url(#SVGID_6_)">
					<g>
						<defs>
							<rect id="SVGID_11_" x="190.902" y="51.498" width="4.701" height="4.754"/>
						</defs>
						<clipPath id="SVGID_12_">
							<use xlink:href="#SVGID_11_"  overflow="visible"/>
						</clipPath>
						<path clip-path="url(#SVGID_12_)" fill="#99B8D6" d="M195.604,53.875c0,1.314-1.053,2.377-2.353,2.377
							c-1.298,0-2.35-1.063-2.35-2.377c0-1.313,1.052-2.377,2.35-2.377C194.552,51.498,195.604,52.562,195.604,53.875"/>
					</g>
				</g>
				<path clip-path="url(#SVGID_6_)" fill="#99B8D6" d="M57.021,27.905c1.916,2.545-0.928,5.421-3.444,3.483
					C51.659,28.844,54.506,25.967,57.021,27.905"/>
				<g opacity="0.5" clip-path="url(#SVGID_6_)">
					<g>
						<defs>
							<rect id="SVGID_13_" x="34.072" y="129.927" width="4.703" height="4.756"/>
						</defs>
						<clipPath id="SVGID_14_">
							<use xlink:href="#SVGID_13_"  overflow="visible"/>
						</clipPath>
						<path clip-path="url(#SVGID_14_)" fill="#99B8D6" d="M38.47,131.134c0.639,1.145,0.241,2.594-0.889,3.24
							c-1.131,0.646-2.565,0.242-3.204-0.898c-0.639-1.145-0.239-2.594,0.891-3.242C36.396,129.589,37.832,129.992,38.47,131.134"/>
					</g>
				</g>
				<path clip-path="url(#SVGID_6_)" fill="#99B8D6" d="M183.237,130.875c0.26,1.287-0.561,2.543-1.833,2.807
					c-1.271,0.262-2.514-0.568-2.773-1.855c-0.26-1.285,0.56-2.541,1.832-2.805S182.977,129.587,183.237,130.875"/>
			</g>
		</g>
		<path clip-path="url(#SVGID_4_)" fill="#99B8D6" d="M95.125,36.205c-0.101,0-0.202-0.018-0.303-0.055l-3.893-1.412H77.896
			c-1.16,0-2.104-0.956-2.104-2.128v-7.297c0-1.174,0.944-2.129,2.104-2.129h14.471c1.16,0,2.104,0.955,2.104,2.129v5.838
			l1.471,3.839c0.128,0.33,0.054,0.691-0.19,0.943C95.581,36.109,95.357,36.205,95.125,36.205 M77.896,23.948
			c-0.743,0-1.348,0.612-1.348,1.364v7.297c0,0.751,0.604,1.364,1.348,1.364h13.166l4.016,1.458c0.066,0.023,0.11-0.01,0.132-0.031
			c0.022-0.021,0.053-0.068,0.027-0.133l-1.521-3.974v-5.98c0-0.752-0.604-1.364-1.349-1.364H77.896z"/>
		<path clip-path="url(#SVGID_4_)" fill="#99B8D6" d="M88.799,30.814c-0.898,0-1.628-0.738-1.628-1.646s0.729-1.646,1.628-1.646
			c0.897,0,1.628,0.738,1.628,1.646S89.696,30.814,88.799,30.814 M88.799,28.287c-0.48,0-0.871,0.395-0.871,0.881
			s0.391,0.882,0.871,0.882s0.871-0.396,0.871-0.882S89.279,28.287,88.799,28.287"/>
		<path clip-path="url(#SVGID_4_)" fill="#99B8D6" d="M84.844,30.814c-0.898,0-1.63-0.738-1.63-1.646s0.731-1.646,1.63-1.646
			c0.896,0,1.627,0.738,1.627,1.646S85.74,30.814,84.844,30.814 M84.844,28.287c-0.48,0-0.873,0.395-0.873,0.881
			s0.393,0.882,0.873,0.882s0.871-0.396,0.871-0.882S85.324,28.287,84.844,28.287"/>
		<path clip-path="url(#SVGID_4_)" fill="#99B8D6" d="M80.887,30.814c-0.896,0-1.627-0.738-1.627-1.646s0.73-1.646,1.627-1.646
			c0.898,0,1.629,0.738,1.629,1.646S81.785,30.814,80.887,30.814 M80.887,28.287c-0.48,0-0.871,0.395-0.871,0.881
			s0.391,0.882,0.871,0.882c0.481,0,0.873-0.396,0.873-0.882S81.368,28.287,80.887,28.287"/>
		<g opacity="0.5" clip-path="url(#SVGID_4_)">
			<g>
				<defs>
					<rect id="SVGID_15_" x="61.734" y="137.871" width="94.507" height="7.912"/>
				</defs>
				<clipPath id="SVGID_16_">
					<use xlink:href="#SVGID_15_"  overflow="visible"/>
				</clipPath>
				<path clip-path="url(#SVGID_16_)" fill="#99B8D6" d="M156.241,141.828c0,2.184-21.157,3.955-47.253,3.955
					c-26.099,0-47.254-1.771-47.254-3.955c0-2.186,21.155-3.957,47.254-3.957C135.084,137.871,156.241,139.642,156.241,141.828"/>
			</g>
		</g>
		<path clip-path="url(#SVGID_4_)" d="M184.389,45.343v76.166c0,2.42-1.942,4.383-4.335,4.383H38.928
			c-2.393,0-4.333-1.963-4.333-4.383V45.343c0-2.422,1.94-4.383,4.333-4.383h141.126C182.446,40.96,184.389,42.921,184.389,45.343"
			/>
		<path clip-path="url(#SVGID_4_)" fill="#FFFFFF" d="M184.389,111.302v10.207c0,2.42-1.942,4.383-4.335,4.383H38.928
			c-2.393,0-4.333-1.963-4.333-4.383v-10.207H184.389z"/>
		<g opacity="0.5" clip-path="url(#SVGID_4_)">
			<g>
				<defs>
					<rect id="SVGID_17_" x="99.221" y="116.544" width="20.541" height="4.105"/>
				</defs>
				<clipPath id="SVGID_18_">
					<use xlink:href="#SVGID_17_"  overflow="visible"/>
				</clipPath>
				<path clip-path="url(#SVGID_18_)" fill="#99B8D6" d="M117.763,120.65H101.22c-1.1,0-1.999-0.91-1.999-2.023v-0.061
					c0-1.111,0.899-2.021,1.999-2.021h16.543c1.101,0,1.999,0.91,1.999,2.021v0.061C119.762,119.74,118.863,120.65,117.763,120.65"
					/>
			</g>
		</g>
		<path clip-path="url(#SVGID_4_)" fill="#1E8DBE" d="M179.097,48.001v63.305H39.887V48.001c0-0.934,0.75-1.689,1.673-1.689h135.862
			C178.346,46.312,179.097,47.068,179.097,48.001"/>
		<g opacity="0.5" clip-path="url(#SVGID_4_)">
			<g>
				<defs>
					<rect id="SVGID_19_" x="172.34" y="80.871" width="6.757" height="24.455"/>
				</defs>
				<clipPath id="SVGID_20_">
					<use xlink:href="#SVGID_19_"  overflow="visible"/>
				</clipPath>
				<path clip-path="url(#SVGID_20_)" fill="#1C51A1" d="M179.097,80.871v24.455h-5.935c-0.454,0-0.822-0.371-0.822-0.832V81.703
					c0-0.459,0.368-0.832,0.822-0.832H179.097z"/>
			</g>
		</g>
		<rect x="39.851" y="105.591" clip-path="url(#SVGID_4_)" fill="#1C51A1" width="139.234" height="5.711"/>
		<path clip-path="url(#SVGID_4_)" fill="#FFFFFF" d="M179.097,48.001v5.873H39.887v-5.873c0-0.934,0.748-1.689,1.673-1.689h135.862
			C178.346,46.312,179.097,47.068,179.097,48.001"/>
		<path clip-path="url(#SVGID_4_)" fill="#CFDBE2" d="M156.602,51.667H54.47c-0.375,0-0.681-0.324-0.681-0.721V49.24
			c0-0.396,0.306-0.721,0.681-0.721h102.132c0.373,0,0.679,0.324,0.679,0.721v1.707C157.28,51.343,156.975,51.667,156.602,51.667"/>
		<polygon clip-path="url(#SVGID_4_)" fill="#CFDBE2" points="45.765,48.468 43.59,50.265 45.765,51.718 		"/>
		<polygon clip-path="url(#SVGID_4_)" fill="#CFDBE2" points="47.552,48.468 49.728,50.265 47.552,51.718 		"/>
		<path clip-path="url(#SVGID_4_)" fill="#1C51A1" d="M169.594,50.093c0,0.869-0.696,1.574-1.555,1.574
			c-0.859,0-1.557-0.705-1.557-1.574s0.697-1.574,1.557-1.574C168.897,48.519,169.594,49.224,169.594,50.093"/>
		<path clip-path="url(#SVGID_4_)" fill="#F6605B" d="M164.882,50.093c0,0.869-0.695,1.574-1.555,1.574
			c-0.86,0-1.557-0.705-1.557-1.574s0.696-1.574,1.557-1.574C164.187,48.519,164.882,49.224,164.882,50.093"/>
		<path clip-path="url(#SVGID_4_)" d="M174.306,50.093c0,0.869-0.696,1.574-1.556,1.574s-1.555-0.705-1.555-1.574
			s0.695-1.574,1.555-1.574S174.306,49.224,174.306,50.093"/>
	</g>
	<g clip-path="url(#SVGID_2_)">
		<defs>
			<rect id="SVGID_21_" x="39.887" y="28.967" width="139.21" height="82.341"/>
		</defs>
		<clipPath id="SVGID_22_">
			<use xlink:href="#SVGID_21_"  overflow="visible"/>
		</clipPath>
		<path clip-path="url(#SVGID_22_)" fill="#FFFFFF" d="M140.049,110.177c-6.053,0-10.157-1.637-12.508-4.975
			c-5.635-8-11.404-26.262-12.043-28.318c-1.018-3.271,0.779-6.758,4.016-7.787c3.233-1.029,6.682,0.789,7.699,4.061
			c1.529,4.912,6.211,18.541,9.978,24.316c0.606,0.17,2.258,0.471,5.706,0.129c2.707-0.268,4.962-0.787,4.984-0.793
			c3.305-0.775,6.604,1.305,7.37,4.646c0.767,3.34-1.289,6.678-4.592,7.453c-0.159,0.037-3.943,0.916-8.191,1.188
			C141.629,110.15,140.824,110.177,140.049,110.177"/>
		<path clip-path="url(#SVGID_22_)" fill="#FFFFFF" d="M129.861,131.003c-2.891,2.73-7.208,5.002-12.231,6.449
			c-3.848,1.111-8.11,1.74-12.465,1.721c-5.727-0.02-11.616-1.15-16.93-3.768c-1.604-4.436-3.367-20.262-3.841-24.99
			c-0.096-0.941-0.171-1.885-0.232-2.828c-0.296-4.537-0.232-9.107-0.015-13.891c0.011-0.258,0.023-0.52,0.036-0.781
			c0.192-3.934,0.478-8.014,0.747-12.344c0.533-8.574,3.364-13.855,8.278-14.648c2.288-0.365,4.095-1.016,5.429-1.654
			c0.162-0.078,0.317-0.154,0.466-0.232c1.587-0.816,2.483-1.553,2.483-1.553h10.967c0.943,1.393,2.133,2.268,3.413,2.885
			c0.141,0.068,0.284,0.133,0.428,0.199c3.893,1.697,8.433,1.357,9.367,6.107c0.589,2.979-1.669,9.111-1.433,21.541
			c0.018,0.914,0.049,1.857,0.095,2.84c0.044,0.916,0.102,1.865,0.174,2.848c0.065,0.912,0.146,1.855,0.243,2.824
			c0.083,0.85,0.177,1.719,0.283,2.611c0.109,0.916,0.23,1.852,0.369,2.814C126.224,112.32,128.181,124.361,129.861,131.003"/>
		<path clip-path="url(#SVGID_22_)" fill="#CFDBE2" d="M97.77,64.115c0,0-3.03,0.59-4.221,1.752l1.502,7.135l3.597,2.033
			l-3.099,0.889l1.083,15.064l5.038,4.094l-1.427-25.574C100.243,69.507,99.702,66.738,97.77,64.115"/>
		<path clip-path="url(#SVGID_22_)" fill="#CFDBE2" d="M116.676,65.378c0,0,2.638,0.289,3.872,1.4l-1.233,5.537l-2.455,2.611
			l2.06,0.93l-0.295,15.014l-3.366,4.363l-1.149-23.238C114.108,71.996,115.397,67.871,116.676,65.378"/>
		<path clip-path="url(#SVGID_22_)" fill="#FFFFFF" d="M132.325,139.851c-0.253-0.91-0.503-1.828-0.75-2.754
			c-0.055-0.193-0.105-0.387-0.156-0.58c-0.124-0.465-0.247-0.934-0.37-1.4c-0.05-0.193-0.101-0.389-0.149-0.582
			c-1.535-5.955-2.929-12.166-3.978-18.309l-9.292,21.227c0,0,0.034,0.883,0.1,2.398H132.325z"/>
		<path clip-path="url(#SVGID_22_)" fill="#CFDBE2" d="M119.635,139.851c-1.412-23.334-2.328-47.523-2.343-47.914
			c-0.006-0.164-0.146-0.293-0.307-0.287c-0.163,0.006-0.292,0.145-0.284,0.311c0.014,0.391,0.929,24.555,2.341,47.891H119.635z"/>
		<path clip-path="url(#SVGID_22_)" fill="#CFDBE2" d="M120.979,176.609c-0.16,0-0.293-0.131-0.295-0.295
			c-0.002-0.166,0.129-0.301,0.291-0.303c0.127-0.002,12.722-0.227,21.583-4.58c0.146-0.072,0.324-0.01,0.396,0.139
			c0.07,0.148,0.01,0.328-0.137,0.4c-8.982,4.412-21.707,4.637-21.834,4.639H120.979z"/>
		<path clip-path="url(#SVGID_22_)" fill="#2AABCD" d="M117.63,137.453c-3.848,1.111-8.11,1.74-12.465,1.721
			c-0.024-0.043-0.037-0.066-0.037-0.066s-2.337-23.596-2.709-32.213c-0.372-8.578-2.668-36.605-2.688-36.85l0,0
			c0.172-0.188,0.343-0.367,0.512-0.537c0.839,1.422,1.838,2.852,2.885,3.793l4.644-6.375c0.066-0.094,0.173-0.148,0.287-0.145
			c0.112,0,0.22,0.057,0.285,0.15l4.33,6.219c0.231-0.422,0.594-1.088,1.032-1.902c0.265,0.453,0.402,0.744,0.402,0.744v0.004
			L117.63,137.453z"/>
		<path clip-path="url(#SVGID_22_)" fill="#CFDBE2" d="M125.293,98.767c-0.342-6.535-0.347-14.375-0.347-14.475
			c0-0.197-0.159-0.359-0.353-0.359c-0.196,0-0.354,0.162-0.354,0.359c0,0.1,0.005,7.92,0.346,14.475H125.293z"/>
		<path clip-path="url(#SVGID_22_)" fill="#1058A5" d="M111.313,127.867c-0.04,0.461-0.439,0.803-0.896,0.762
			c-0.455-0.039-0.792-0.443-0.753-0.904c0.039-0.459,0.438-0.801,0.896-0.762C111.015,127.001,111.352,127.408,111.313,127.867"/>
		<path clip-path="url(#SVGID_22_)" fill="#1058A5" d="M111.699,132.556c0.083,0.619-0.486,1.104-1.077,0.918
			c-0.297-0.094-0.52-0.363-0.562-0.676c-0.081-0.619,0.488-1.104,1.077-0.918C111.435,131.976,111.659,132.244,111.699,132.556"/>
		<path clip-path="url(#SVGID_22_)" d="M119.056,35.486c0,0,1.422,1.723,1.25,3.604c0,0,0.844,2.061,0.455,3.752
			c-0.388,1.691-1.411,3.844-1.411,3.844s-0.802-8.207-2.604-8.762c-1.803-0.555-3.96-2.105-3.96-2.105
			S113.919,33.691,119.056,35.486"/>
		<path clip-path="url(#SVGID_22_)" d="M120.609,36.55c0,0,2.711,2.223,0,4.447C117.898,43.22,120.609,36.55,120.609,36.55"/>
		<path clip-path="url(#SVGID_22_)" d="M99.192,40.808c0,0-0.783,1.939,0.034,2.986c0.816,1.047-0.273,2.582,0.846,3.611
			c1.12,1.031,3.078,0.602,3.078,0.602s1.28-10.094,2.252-10.977C105.402,37.031,102.077,36.794,99.192,40.808"/>
		<path clip-path="url(#SVGID_22_)" d="M100.42,40.738c0,0-1.319-3.855-0.66-5.336c0.66-1.483,2.712-1.558,2.712-1.558
			s0.953-3.854,5.496-3.705c4.545,0.149,12.752,2.668,15.464,0.593c0,0,0.88,7.19-2.858,7.559
			C116.836,38.662,104.41,35.769,100.42,40.738"/>
		<path clip-path="url(#SVGID_22_)" fill="#434C56" d="M103.497,35.31c-0.009,0-0.021,0-0.029-0.002
			c-0.071-0.018-0.114-0.09-0.098-0.16c0.009-0.035,0.839-3.345,3.964-3.623c1.761-0.155,3.725,0.158,5.623,0.46
			c2.198,0.35,4.47,0.712,6.458,0.358c0.07-0.014,0.14,0.034,0.151,0.107c0.013,0.071-0.034,0.141-0.106,0.153
			c-2.03,0.362-4.325-0.003-6.544-0.357c-1.883-0.299-3.83-0.609-5.559-0.456c-2.936,0.259-3.724,3.386-3.731,3.419
			C103.61,35.271,103.557,35.31,103.497,35.31"/>
		<path clip-path="url(#SVGID_22_)" fill="#F6B88C" d="M113.171,60.08l-0.224,2.916c-0.358,0.25-0.766,0.389-1.076,0.643
			c-5.691,4.633-10.357-1.541-10.357-1.541l0.778-10.115l9.582,7.131L113.171,60.08z"/>
		<path clip-path="url(#SVGID_22_)" d="M113.179,59.996l-0.231,3c-0.358,0.25-0.719,0.463-1.076,0.643
			c-4.134-2.041-6.89-6.813-6.89-6.813l6.893,2.287L113.179,59.996z"/>
		<path clip-path="url(#SVGID_22_)" fill="#F9896A" d="M117.771,47.435c0,0,1.788-1.83,2.564,0.201
			c0.774,2.031-0.242,5.936-2.685,5.092L117.771,47.435z"/>
		<path clip-path="url(#SVGID_22_)" fill="#F6B88C" d="M118.989,54.435c0,0-0.455,6.033-6.656,5.531
			c-6.164-0.496-9.989-5.725-10.19-5.967c-0.003-0.004-0.006-0.006-0.006-0.006l0.031-1.273l0.154-6.607l0.083-3.531
			c0,0-0.3-6.393,5.738-7.08c4.413-0.502,8.433,0.549,10.314,3.004c0.062,0.08,0.119,0.16,0.174,0.242
			c0.585,0.857,0.923,1.873,0.943,3.043l-0.294,6.33l-0.071,1.553L118.989,54.435z"/>
		<path clip-path="url(#SVGID_22_)" d="M114.044,49.228c-0.063,0-0.127-0.027-0.17-0.082c-0.076-0.096-0.062-0.234,0.032-0.311
			l1.237-1.01l-1.018-1.086c-0.037-0.041-0.058-0.092-0.062-0.145l-0.097-2.498c-0.005-0.121,0.089-0.225,0.211-0.23
			c0.118-0.004,0.222,0.09,0.227,0.213l0.094,2.416l1.124,1.199c0.042,0.045,0.064,0.105,0.061,0.166
			c-0.005,0.063-0.034,0.119-0.081,0.158l-1.421,1.16C114.142,49.212,114.092,49.228,114.044,49.228"/>
		<path clip-path="url(#SVGID_22_)" d="M113.065,42.472c-0.244-0.385-0.625-0.658-1.059-0.783c-0.698-0.201-1.979-0.436-3.082,0.102
			c-1.61,0.787-0.774,2.027,1.037,1.986c1.813-0.039,2.68-0.066,3.146-0.551C113.311,43.015,113.226,42.728,113.065,42.472"/>
		<path clip-path="url(#SVGID_22_)" d="M115.179,42.617c0.233-0.471,0.703-0.59,1.152-0.648c0.719-0.094,2.02-0.129,3.03,0.568
			c1.475,1.021,0.467,2.121-1.319,1.807s-2.397-0.236-2.785-0.785C115.087,43.318,115.045,42.886,115.179,42.617"/>
		<path clip-path="url(#SVGID_22_)" fill="#F9896A" d="M111.133,48.261c-0.034,0.439-0.956,0.725-2.061,0.639
			c-1.102-0.088-1.969-0.514-1.936-0.953c0.035-0.439,0.955-0.725,2.06-0.639C110.3,47.396,111.165,47.822,111.133,48.261"/>
		<path clip-path="url(#SVGID_22_)" fill="#F9896A" d="M119.21,49.673c-0.154,0.004-0.316-0.002-0.482-0.016
			c-1.103-0.086-1.97-0.512-1.935-0.951c0.033-0.439,0.955-0.725,2.058-0.639c0.149,0.012,0.294,0.029,0.432,0.053L119.21,49.673z"
			/>
		<path clip-path="url(#SVGID_22_)" d="M104.892,45.859c0,0,1.548,3.961,3.552,3.422c2.005-0.537,4.354-0.426,6.13,0.482
			c0,0,3.045-1.713,4.812-0.393c1.185,0.883,0.146,9.422-4.157,10.488c-4.305,1.066-9.92-0.832-11.177-4.943
			c-1.255-4.113-1.057-7.572-1.057-7.572L104.892,45.859z"/>
		<path clip-path="url(#SVGID_22_)" fill="#434C56" d="M114.235,54.359c-0.026-0.1-0.124-0.168-0.226-0.15
			c-0.872,0.145-1.632-0.148-1.682-0.17c-0.105-0.043-0.226,0.01-0.268,0.115c-0.041,0.107,0.009,0.227,0.113,0.27
			c0.055,0.021,0.904,0.355,1.89,0.195C114.186,54.599,114.268,54.48,114.235,54.359"/>
		<path clip-path="url(#SVGID_22_)" fill="#FFFFFF" d="M110.335,50.843c0,0,3.756,0.469,6.099,0.383c0,0-0.424,2.461-3.049,2.391
			C110.92,53.55,110.335,50.843,110.335,50.843"/>
		<path clip-path="url(#SVGID_22_)" d="M118.632,38.748c-0.946-0.424-1.675-0.154-3.241,0.398c-2.269,0.803-4.65-0.266-6.73-1.557
			c-2.081-1.289-3.5,0.166-2.841,1.246c0.66,1.08,0.517,1.9-0.401,3.141c-0.919,1.236,1.4,2.031,0.013,2.949
			c-0.583,0.389-0.599,1.033-0.424,1.65c0.193,0.674-0.427,1.299-1.096,1.115c-0.691-0.234-1.589-1.578-1.589-1.578l0.084-3.531
			c0,0-0.301-6.393,5.737-7.08c4.413-0.502,8.433,0.549,10.314,3.004C118.52,38.585,118.576,38.666,118.632,38.748"/>
		<path clip-path="url(#SVGID_22_)" fill="#434C56" d="M117.081,37.523c-2.713,0-5.559-0.654-5.734-0.695
			c-0.071-0.018-0.115-0.088-0.099-0.16c0.017-0.07,0.086-0.115,0.158-0.1c0.063,0.016,6.392,1.471,9.146,0.086
			c1.818-0.916,1.941-3.382,1.942-3.407c0.004-0.074,0.065-0.13,0.137-0.128c0.072,0.004,0.128,0.064,0.125,0.139
			c-0.004,0.107-0.132,2.65-2.087,3.632C119.729,37.363,118.422,37.523,117.081,37.523"/>
		<path clip-path="url(#SVGID_22_)" d="M110.848,46.181c-0.047,0.604-0.354,1.07-0.688,1.045c-0.333-0.025-0.566-0.537-0.52-1.139
			c0.046-0.604,0.354-1.072,0.688-1.045C110.66,45.068,110.893,45.578,110.848,46.181"/>
		<path clip-path="url(#SVGID_22_)" d="M116.846,46.56c-0.045,0.605-0.354,1.072-0.688,1.045c-0.333-0.025-0.566-0.535-0.521-1.139
			c0.047-0.602,0.354-1.07,0.688-1.045C116.66,45.449,116.894,45.958,116.846,46.56"/>
		<path clip-path="url(#SVGID_22_)" d="M104.273,51.705c-0.033,0.066-0.961,1.844-2.131,2.295l-0.005-0.006l0.031-1.273
			C102.169,52.72,103.16,52.628,104.273,51.705"/>
		<path clip-path="url(#SVGID_22_)" fill="#F6B88C" d="M103.502,47.431c0,0-2.134-3.428-4.078-1.02
			c-1.6,1.984,0.701,7.664,3.694,6.016L103.502,47.431z"/>
		<path clip-path="url(#SVGID_22_)" d="M102.868,51.427c-0.124-0.01-0.224-0.113-0.228-0.24c-0.076-2.473-2.042-3.488-2.125-3.529
			c-0.121-0.063-0.172-0.211-0.11-0.334c0.06-0.123,0.206-0.174,0.328-0.113c0.095,0.047,2.313,1.182,2.398,3.961
			c0.006,0.137-0.102,0.252-0.237,0.256C102.886,51.427,102.877,51.427,102.868,51.427"/>
		<path clip-path="url(#SVGID_22_)" d="M100.693,49.742c-0.071-0.006-0.14-0.043-0.183-0.107c-0.078-0.111-0.051-0.266,0.062-0.346
			c0.104-0.072,1.038-0.703,1.761-0.455c0.127,0.045,0.197,0.186,0.152,0.316c-0.042,0.129-0.184,0.199-0.312,0.156
			c-0.414-0.145-1.095,0.234-1.322,0.393C100.804,49.732,100.748,49.746,100.693,49.742"/>
		<path clip-path="url(#SVGID_22_)" fill="#2AABCD" d="M101.657,60.234c0,0-3.22,0.869-4.113,4.641
			c1.702,2.939,1.992,6.008,5.584,8.428c2.661-2.846,5.507-5.723,4.935-8.055C108.063,65.248,104.02,63.916,101.657,60.234"/>
		<path clip-path="url(#SVGID_22_)" fill="#2AABCD" d="M113.207,61.527c0,0,2.669,0.631,3.799,4.395
			c-1.018,2.787-2.298,5.084-4.282,7.502l-4.521-5.928l0.007-2.248C108.209,65.248,110.846,65.21,113.207,61.527"/>
		<polygon clip-path="url(#SVGID_22_)" points="115.258,113 113.47,117.642 113.47,117.644 112.666,119.73 110.398,125.625 
			109.196,123.392 108.769,122.603 107.804,120.814 107.38,120.023 106.414,118.234 105.988,117.445 105.023,115.656 
			105.023,115.654 104.597,114.867 103.69,113.183 103.705,113 103.813,111.648 104.057,108.583 104.162,107.23 104.406,104.166 
			104.513,102.812 104.758,99.748 104.864,98.396 105.107,95.332 105.216,93.978 105.457,90.914 105.565,89.56 105.81,86.498 
			105.915,85.144 106.161,82.08 106.268,80.728 106.51,77.664 106.618,76.31 106.869,73.142 109.177,73.001 109.256,73.525 
			109.42,74.593 109.787,77.013 109.947,78.08 110.316,80.5 110.479,81.568 110.846,83.988 111.011,85.054 111.377,87.474 
			111.54,88.542 111.908,90.962 112.069,92.031 112.438,94.451 112.601,95.517 112.968,97.937 113.131,99.005 113.498,101.425 
			113.661,102.494 114.029,104.912 114.19,105.98 114.56,108.4 114.721,109.468 115.089,111.888 115.251,112.957 		"/>
		<polygon clip-path="url(#SVGID_22_)" points="104.979,71.007 108.063,75.642 111.017,71.007 108.063,67.138 		"/>
		<path clip-path="url(#SVGID_22_)" fill="#1E8DBE" d="M117.168,66.082c-1.042,2.121-2.226,4.361-3.06,5.914
			c-0.643,1.193-1.081,1.982-1.091,2c-0.061,0.105-0.169,0.176-0.29,0.182c-0.12,0.008-0.235-0.049-0.306-0.152l-4.373-6.275
			l-4.575,6.283c-0.057,0.078-0.144,0.129-0.238,0.143c-0.015,0.002-0.03,0.002-0.046,0.002c-0.08,0-0.158-0.025-0.221-0.078
			c-1.188-0.957-2.307-2.504-3.237-4.055l0,0c-1.461-2.434-2.456-4.871-2.523-5.033c-0.074-0.184,0.013-0.393,0.192-0.469
			c0.183-0.074,0.388,0.014,0.463,0.197c0.016,0.039,0.977,2.393,2.38,4.768c0.84,1.422,1.838,2.852,2.885,3.793l4.644-6.375
			c0.066-0.094,0.173-0.148,0.287-0.145c0.112,0,0.22,0.057,0.285,0.15l4.33,6.219c0.231-0.422,0.594-1.088,1.032-1.902
			c0.81-1.518,1.879-3.551,2.829-5.484c0.087-0.178,0.299-0.248,0.474-0.16C117.185,65.691,117.255,65.906,117.168,66.082"/>
		<path clip-path="url(#SVGID_22_)" fill="#1E8DBE" d="M108.055,67.494c-0.195,0-0.354-0.158-0.354-0.355v-1.598
			c0-0.197,0.158-0.357,0.354-0.357s0.354,0.16,0.354,0.357v1.598C108.409,67.335,108.25,67.494,108.055,67.494"/>
		<path clip-path="url(#SVGID_22_)" fill="#FFFFFF" d="M105.312,139.851l-3.838-47.482l-17.078,18.047
			c0,0,0.992,15.994,1.146,29.436H105.312z"/>
		<path clip-path="url(#SVGID_22_)" fill="#CFDBE2" d="M102.269,179.33c-8.023,0-18.657-1.336-19.23-1.408
			c-0.162-0.021-0.277-0.17-0.257-0.334c0.02-0.164,0.168-0.281,0.33-0.26c0.181,0.023,18.07,2.268,25.029,1.02
			c0.161-0.029,0.314,0.078,0.343,0.242c0.029,0.162-0.079,0.316-0.24,0.346C106.67,179.218,104.577,179.33,102.269,179.33"/>
		<path clip-path="url(#SVGID_22_)" fill="#CFDBE2" d="M104.163,139.851c-1.55-19.365-4.019-47.529-4.052-47.918
			c-0.015-0.164-0.16-0.287-0.321-0.271c-0.163,0.014-0.283,0.16-0.269,0.324c0.033,0.389,2.498,28.51,4.048,47.865H104.163z"/>
		<path clip-path="url(#SVGID_22_)" fill="#F6B88C" d="M122.687,88.96c0,0,0.992-3.422,3.555-4.291
			c2.563-0.867,3.965-0.83,4.916-0.211s1.293,1.955,1.064,2.713C131.993,87.927,122.687,88.96,122.687,88.96"/>
		<path clip-path="url(#SVGID_22_)" fill="#FFFFFF" d="M126.936,92.06c-1.407-3.119-5.05-4.494-8.134-3.072l-0.112,0.053
			l-0.83,0.383l-0.872,0.395c-0.586,0.262-1.175,0.52-1.765,0.775c-1.183,0.512-2.374,1.008-3.565,1.492
			c-2.385,0.961-4.783,1.869-7.171,2.676c-1.194,0.404-2.386,0.783-3.567,1.127c-1.183,0.346-2.354,0.654-3.5,0.91
			c-0.286,0.068-0.567,0.123-0.853,0.184c-0.277,0.053-0.561,0.113-0.834,0.158c-0.552,0.102-1.084,0.176-1.597,0.234
			c-0.37,0.047-0.723,0.072-1.051,0.088c0.023-0.801,0.095-1.709,0.196-2.633c0.131-1.178,0.309-2.4,0.515-3.637
			c0.254-1.518,0.55-3.057,0.875-4.604c-1.062-6.229-1.22-12.586-2.187-18.832c-3.528-0.908-7.126,1.232-8.049,4.801l-0.273,1.055
			l-0.255,1.021l-0.492,2.035c-0.32,1.357-0.626,2.719-0.919,4.086c-0.582,2.738-1.116,5.498-1.551,8.354
			c-0.215,1.428-0.405,2.877-0.549,4.385c-0.035,0.379-0.072,0.75-0.097,1.143c-0.026,0.391-0.06,0.768-0.075,1.174
			c-0.016,0.404-0.039,0.793-0.041,1.221l-0.007,0.627c-0.003,0.104-0.001,0.213,0.001,0.326l0.009,0.332l0.02,0.666l0.05,0.719
			l0.026,0.359c0.01,0.121,0.029,0.264,0.045,0.395l0.106,0.797c0.053,0.295,0.119,0.609,0.184,0.91l0.019,0.078l0.033,0.152
			l0.025,0.113l0.04,0.137c0.051,0.184,0.106,0.367,0.165,0.547c0.057,0.184,0.119,0.365,0.182,0.547l0.023,0.066
			c0.008,0.021,0.023,0.057,0.034,0.084l0.074,0.176c0.051,0.117,0.103,0.232,0.155,0.348c0.054,0.115,0.108,0.23,0.164,0.346
			l0.085,0.17l0.098,0.17c0.133,0.227,0.271,0.449,0.414,0.668c0.14,0.223,0.303,0.424,0.466,0.629
			c0.163,0.201,0.333,0.406,0.509,0.588c0.175,0.18,0.356,0.355,0.541,0.525c0.093,0.084,0.187,0.174,0.279,0.246l0.278,0.221
			c0.187,0.145,0.379,0.283,0.571,0.418c0.184,0.117,0.369,0.232,0.559,0.342c0.389,0.234,0.731,0.387,1.1,0.555
			c0.187,0.088,0.348,0.146,0.521,0.211c0.05,0.02,0.1,0.037,0.15,0.055c0.119,0.045,0.241,0.088,0.363,0.129
			c0.323,0.102,0.642,0.189,0.961,0.271c0.298,0.064,0.601,0.131,0.896,0.184c0.278,0.043,0.561,0.086,0.838,0.121
			c1.086,0.125,2.043,0.129,2.949,0.098c0.903-0.037,1.76-0.113,2.567-0.223c0.811-0.107,1.599-0.234,2.357-0.385
			c0.763-0.146,1.504-0.311,2.231-0.486c1.455-0.35,2.859-0.746,4.234-1.172c1.377-0.422,2.724-0.875,4.053-1.348
			c2.659-0.945,5.247-1.969,7.803-3.047c1.276-0.541,2.545-1.094,3.807-1.664c0.632-0.285,1.262-0.572,1.893-0.867l0.948-0.445
			l0.982-0.473C127.006,98.792,128.329,95.15,126.936,92.06"/>
		<path clip-path="url(#SVGID_22_)" fill="#CFDBE2" d="M87.103,109.552c-0.051-0.018-0.101-0.035-0.15-0.055
			c-0.173-0.064-0.334-0.123-0.521-0.211c-0.368-0.168-0.711-0.32-1.1-0.555c-0.189-0.109-0.375-0.225-0.559-0.342
			c-0.192-0.135-0.385-0.273-0.571-0.418l-0.278-0.221c-0.093-0.072-0.187-0.162-0.279-0.246c-0.185-0.17-0.366-0.346-0.541-0.525
			c-0.176-0.182-0.346-0.387-0.509-0.588c-0.163-0.205-0.326-0.406-0.466-0.629c-0.144-0.219-0.281-0.441-0.414-0.668l-0.097-0.17
			l-0.086-0.17c-0.056-0.115-0.11-0.23-0.164-0.346c-0.053-0.115-0.104-0.23-0.155-0.348l-0.074-0.176
			c-0.011-0.027-0.026-0.063-0.034-0.084l-0.023-0.068c-0.063-0.18-0.125-0.361-0.182-0.545c-0.059-0.18-0.114-0.363-0.165-0.547
			l-0.04-0.137l-0.025-0.113l-0.033-0.152c1.131-0.143,2.74,0.014,4.479,1.313C87.194,105.103,87.305,107.783,87.103,109.552"/>
		<path clip-path="url(#SVGID_22_)" fill="#CFDBE2" d="M116.136,99.914c-0.139,0-0.265-0.096-0.3-0.236
			c-0.042-0.168,0.06-0.338,0.226-0.379c0.029-0.008,3.084-0.793,5.98-2.805c0.139-0.096,0.332-0.061,0.428,0.082
			c0.097,0.143,0.063,0.336-0.079,0.434c-2.992,2.078-6.051,2.863-6.181,2.895C116.185,99.912,116.16,99.914,116.136,99.914"/>
		<path clip-path="url(#SVGID_22_)" fill="#CFDBE2" d="M118.449,91.927c0,0.383-0.308,0.693-0.686,0.693
			c-0.38,0-0.687-0.311-0.687-0.693c0-0.385,0.307-0.695,0.687-0.695C118.142,91.232,118.449,91.542,118.449,91.927"/>
		<path clip-path="url(#SVGID_22_)" fill="#CFDBE2" d="M87.84,101.394c-0.09,0-0.18-0.033-0.251-0.098
			c-0.149-0.141-0.159-0.379-0.019-0.529c0.108-0.119,2.713-2.939,5.421-3.666c0.195-0.053,0.399,0.066,0.452,0.266
			s-0.065,0.404-0.263,0.457c-2.498,0.67-5.044,3.424-5.068,3.451C88.039,101.355,87.94,101.394,87.84,101.394"/>
		<path clip-path="url(#SVGID_22_)" fill="#CFDBE2" d="M92.833,97.912c-0.065,0-0.132-0.018-0.191-0.055
			c-0.867-0.529-2.544-0.957-2.561-0.963c-0.198-0.051-0.319-0.254-0.269-0.453c0.049-0.201,0.25-0.322,0.448-0.271
			c0.073,0.018,1.801,0.459,2.763,1.047c0.175,0.107,0.231,0.338,0.127,0.514C93.081,97.847,92.959,97.912,92.833,97.912"/>
		<path clip-path="url(#SVGID_22_)" fill="#CFDBE2" d="M93.085,97.837c-0.204,0-0.37-0.168-0.37-0.375
			c0-5.777,1.921-14.201,1.942-14.287c0.045-0.201,0.244-0.326,0.443-0.279s0.323,0.248,0.277,0.449
			c-0.02,0.084-1.923,8.426-1.923,14.117C93.455,97.669,93.289,97.837,93.085,97.837"/>
		<path clip-path="url(#SVGID_22_)" fill="#CFDBE2" d="M92.595,111.332c-0.403,0-0.804-0.016-1.201-0.049
			c-5.1-0.428-6.8-1.953-6.869-2.018c-0.151-0.139-0.161-0.377-0.023-0.529c0.137-0.15,0.37-0.162,0.521-0.023
			c0.027,0.023,1.647,1.424,6.432,1.824c4.882,0.408,10.497-2.08,10.553-2.104c0.188-0.084,0.406,0,0.488,0.189
			s-0.001,0.41-0.188,0.494C102.088,109.214,97.308,111.332,92.595,111.332"/>
		<path clip-path="url(#SVGID_22_)" fill="#F6605B" d="M135.063,94.322c-0.271-0.029-0.528-0.184-0.679-0.439l-8.001-13.508
			c-0.257-0.432-0.117-0.99,0.31-1.25c0.428-0.258,0.98-0.117,1.238,0.314l7.999,13.506c0.256,0.434,0.117,0.992-0.31,1.252
			C135.447,94.302,135.251,94.341,135.063,94.322"/>
		<path clip-path="url(#SVGID_22_)" fill="#F6B88C" d="M131.419,96.75c-2.458,0.273-3.869,0.209-7.218,1.035
			c-3.346,0.824-6.744-5.521-3.765-8.588c0,0,0.933-1.58,1.936-2.381s6.192-2.381,7.714-2.326c1.291,0.045,3.218,0.002,4.039,0.59
			c2.064,1.48-1.346,2.635-1.346,2.635s1.443,0.027,1.651,1.217c0.21,1.188-0.61,1.381-0.61,1.381s0.553,0.318,0.973,1.148
			c0.418,0.828-0.55,1.623-0.55,1.623s1.111,0.533,0.851,1.48C134.668,96.105,131.419,96.75,131.419,96.75"/>
		<path clip-path="url(#SVGID_22_)" fill="#F9896A" d="M130.399,88.371c-0.082,0-0.15-0.064-0.155-0.148
			c-0.003-0.086,0.063-0.158,0.146-0.162c0.013-0.002,1.205-0.063,2.334-0.492c0.079-0.029,0.169,0.012,0.198,0.092
			c0.03,0.082-0.01,0.172-0.091,0.201c-1.176,0.447-2.376,0.508-2.426,0.51C130.403,88.371,130.401,88.371,130.399,88.371"/>
		<path clip-path="url(#SVGID_22_)" fill="#F9896A" d="M131.589,91.023c-0.08,0-0.147-0.063-0.154-0.145
			c-0.007-0.086,0.058-0.16,0.143-0.166c0.008-0.002,0.798-0.064,1.927-0.494c0.08-0.029,0.169,0.012,0.199,0.092
			c0.031,0.08-0.011,0.17-0.091,0.201c-1.174,0.445-1.979,0.51-2.012,0.512C131.597,91.023,131.592,91.023,131.589,91.023"/>
		<path clip-path="url(#SVGID_22_)" fill="#F9896A" d="M132.024,93.822h-0.006c-0.085-0.002-0.153-0.072-0.153-0.158
			s0.069-0.154,0.155-0.154h0.001c0.026,0,0.95-0.006,1.887-0.512c0.076-0.039,0.17-0.012,0.21,0.066
			c0.04,0.074,0.012,0.17-0.064,0.209C133.063,93.808,132.113,93.822,132.024,93.822"/>
		<path clip-path="url(#SVGID_22_)" fill="#434C56" d="M146.94,114.332l13.868-30.154c0.234-0.508,0.015-0.918-0.49-0.916
			l-21.011,0.107c-0.505,0.002-1.104,0.416-1.34,0.926l-13.866,30.154c-0.235,0.508-0.016,0.92,0.489,0.916l21.012-0.107
			C146.106,115.255,146.707,114.839,146.94,114.332"/>
		<path clip-path="url(#SVGID_22_)" d="M149.473,114.332l13.869-30.154c0.233-0.508,0.014-0.918-0.49-0.916l-21.012,0.107
			c-0.505,0.002-1.104,0.416-1.34,0.926l-13.867,30.154c-0.234,0.508-0.014,0.92,0.489,0.916l21.013-0.107
			C148.639,115.255,149.239,114.839,149.473,114.332"/>
		<path clip-path="url(#SVGID_22_)" fill="#F6B88C" d="M158.401,94.919l0.54-1.234c0,0,1.035,2.365-0.164,4.426
			c-1.198,2.064-2.309,4.793-2.887,6.08c-0.579,1.289-1.252,4.182-2.253,4.688c-0.999,0.506-1.999,0.172-3.544-0.789
			c-1.544-0.965-1.021-1.947,0.03-2.086c1.169-0.154,2.729,0.018,2.729,0.018s-0.498-0.369-2.515-1.33
			c-2.126-1.012-1.213-2.219-0.018-2.279c1.659-0.082,4.326,0.369,4.326,0.369s-2.286-0.996-3.768-1.629
			c-1.48-0.631-0.269-2.254,2.256-1.615c2.526,0.637,2.591,0.254,2.591,0.254s-0.57-0.504-2.403-1.193
			c-1.833-0.688-2.513-2.039-1.27-2.299c1.229-0.258,5.012,1.039,5.012,1.039l0.564-1.029
			C157.927,95.896,158.189,95.382,158.401,94.919"/>
		<path clip-path="url(#SVGID_22_)" fill="#434C56" d="M148.693,99.253c-0.711,1.563-2.54,2.828-4.084,2.828
			c-1.545,0-2.219-1.266-1.509-2.828c0.711-1.563,2.54-2.828,4.085-2.828S149.405,97.691,148.693,99.253"/>
		<path clip-path="url(#SVGID_22_)" d="M101.223,90.675c0,2.24-1.794,4.057-4.01,4.057c-2.215,0-4.01-1.816-4.01-4.057
			c0-2.238,1.795-4.055,4.01-4.055C99.429,86.621,101.223,88.437,101.223,90.675"/>
		<path clip-path="url(#SVGID_22_)" fill="#434C56" d="M99.393,90.675c0,1.219-0.977,2.205-2.18,2.205
			c-1.204,0-2.179-0.986-2.179-2.205c0-1.217,0.975-2.203,2.179-2.203C98.416,88.472,99.393,89.458,99.393,90.675"/>
		<path clip-path="url(#SVGID_22_)" d="M118.303,81.187c-2.16,0-3.918,1.775-3.918,3.961v5.613c0,0.057,0.011,0.109,0.028,0.162
			c0.283-0.115,0.566-0.225,0.85-0.338c0.008-0.002,0.014-0.004,0.02-0.006c0.018-0.008,0.035-0.016,0.051-0.023v-5.408
			c0-1.654,1.332-3.002,2.97-3.002c1.637,0,2.969,1.348,2.969,3.002v2.793c0.31-0.324,0.616-0.648,0.949-0.947v-1.846
			C122.221,82.962,120.464,81.187,118.303,81.187"/>
		<path clip-path="url(#SVGID_22_)" fill="#434C56" d="M114.859,89.66c-0.603,0-1.091,0.492-1.091,1.102
			c0,0.141,0.029,0.275,0.078,0.398c0.466-0.203,0.942-0.385,1.416-0.574c0.009-0.004,0.017-0.004,0.023-0.006
			c0.105-0.053,0.209-0.102,0.313-0.154c0.024-0.014,0.05-0.018,0.073-0.018c0.06-0.035,0.117-0.068,0.176-0.104
			C115.678,89.923,115.3,89.66,114.859,89.66"/>
		<path clip-path="url(#SVGID_22_)" d="M101.709,59.697c-1.844,0.576-3.343,1.516-4.264,2.738c-1.984,2.635-2.837,7.6-2.535,14.762
			c0.225,5.279,1.025,9.869,1.032,9.914c0.043,0.232,0.241,0.393,0.463,0.393c0.028,0,0.057-0.002,0.085-0.008
			c0.256-0.045,0.428-0.293,0.38-0.553c-0.031-0.178-3.118-18.033,1.324-23.93c0.762-1.012,1.988-1.805,3.511-2.322
			C101.71,60.359,101.715,60.029,101.709,59.697"/>
		<path clip-path="url(#SVGID_22_)" d="M119.507,75.011c-0.067-4.945-0.885-8.672-2.426-11.074
			c-0.885-1.377-2.257-2.539-3.985-3.381c0.024,0.365-0.068,0.613-0.059,0.98c1.341,0.734,2.539,1.805,3.254,2.92
			c3.463,5.393,1.943,16.996,1.928,17.113c-0.035,0.26,0.145,0.5,0.402,0.535c0.257,0.035,0.495-0.146,0.53-0.408
			C119.154,81.667,119.556,78.664,119.507,75.011"/>
	</g>
	<g clip-path="url(#SVGID_2_)">
		<defs>
			<rect id="SVGID_23_" x="13.487" y="0.145" width="189.125" height="191.259"/>
		</defs>
		<clipPath id="SVGID_24_">
			<use xlink:href="#SVGID_23_"  overflow="visible"/>
		</clipPath>
		<path clip-path="url(#SVGID_24_)" fill="#CFDBE2" d="M119.138,102.511c-0.077,0.191-0.296,0.273-0.479,0.186
			c-2.083-1.014-3.501-3.348-4.114-6.783c-0.375-2.105-0.349-4.025-0.318-4.805c0.009-0.199,0.18-0.35,0.376-0.336h0.003
			c0.188,0.016,0.33,0.176,0.323,0.365c-0.063,1.658-0.087,8.922,4.032,10.92c0.168,0.082,0.245,0.277,0.179,0.451L119.138,102.511z
			"/>
		<path clip-path="url(#SVGID_24_)" fill="#FFFFFF" d="M140.65,142.783H78.648v-0.719c0-3.363,2.696-6.09,6.023-6.09h49.955
			c3.327,0,6.023,2.727,6.023,6.09V142.783z"/>
		<rect x="98.237" y="125.892" clip-path="url(#SVGID_24_)" fill="#FFFFFF" width="22.476" height="10.082"/>
		<g opacity="0.5" clip-path="url(#SVGID_24_)">
			<g>
				<defs>
					<rect id="SVGID_25_" x="98.237" y="125.892" width="22.476" height="6.49"/>
				</defs>
				<clipPath id="SVGID_26_">
					<use xlink:href="#SVGID_25_"  overflow="visible"/>
				</clipPath>
				<polygon clip-path="url(#SVGID_26_)" fill="#99B8D6" points="120.713,128.365 98.237,132.382 98.237,125.892 120.713,125.892 
									"/>
			</g>
		</g>
		<path clip-path="url(#SVGID_24_)" fill="#2AABCD" d="M48.553,102.568l-3.542-6.203c-0.058-0.102-0.058-0.227,0-0.328l3.542-6.203
			c0.058-0.102,0.165-0.164,0.281-0.164h7.082c0.115,0,0.223,0.063,0.282,0.164l3.54,6.203c0.059,0.102,0.059,0.227,0,0.328
			l-3.54,6.203c-0.06,0.102-0.167,0.164-0.282,0.164h-7.082C48.718,102.732,48.61,102.669,48.553,102.568"/>
		<path clip-path="url(#SVGID_24_)" fill="#FFFFFF" d="M56.437,94.751c-0.038-0.232-0.237-0.344-0.396-0.396
			c0.049-0.043,0.076-0.09,0.093-0.129c0.158,0.102,0.418,0.354,0.672,0.969c0.01,0.023,0.019,0.049,0.027,0.074
			c0.004,0.006,0.006,0.014,0.008,0.02c-0.04-0.002-0.079-0.018-0.118-0.043C56.585,95.16,56.47,94.962,56.437,94.751"/>
		<path clip-path="url(#SVGID_24_)" fill="#FFFFFF" d="M47.802,96.822L47.802,96.822c0,0.143,0.012,0.289,0.034,0.439
			c0.014,0.086,0.029,0.17,0.048,0.246c0.005,0.02,0.01,0.039,0.017,0.059c-0.007-0.02-0.012-0.039-0.017-0.061
			c0.486,0.088,0.789-0.277,0.804-0.293c0.024-0.031,0.07-0.037,0.102-0.012s0.037,0.074,0.011,0.105
			c-0.014,0.018-0.297,0.361-0.768,0.361c-0.034,0-0.069-0.002-0.104-0.006c-0.008-0.021-0.016-0.043-0.021-0.066
			c0.006,0.023,0.014,0.045,0.021,0.066c0.025,0.084,0.056,0.16,0.09,0.229c0.021,0.047,0.045,0.092,0.069,0.133
			c0.265,0.443,0.664,0.578,0.981,0.605c0.028,0.045,0.435,0.719,1.087,0.938c0.017,0.006,0.032,0.012,0.049,0.016
			c0.024-0.025,0.037-0.055,0.055-0.096c0.022-0.049,0.05-0.109,0.105-0.193c0.167-0.24,0.487-0.365,0.836-0.322
			c0.148,0.018,0.242-0.096,0.335-0.207c0.057-0.066,0.104-0.125,0.163-0.154c0.074-0.033,0.17-0.016,0.27,0.004
			c0.145,0.025,0.242,0.037,0.274-0.027c0.118-0.236,0.467-0.209,0.481-0.207c0.041,0.002,0.07,0.039,0.067,0.08
			c-0.003,0.025-0.019,0.047-0.04,0.059c-0.011,0.006-0.025,0.01-0.039,0.008c-0.003,0-0.266-0.018-0.339,0.129
			c-0.085,0.166-0.285,0.131-0.43,0.104c-0.068-0.012-0.153-0.027-0.183-0.012c-0.03,0.012-0.072,0.064-0.113,0.113
			c-0.1,0.119-0.237,0.285-0.466,0.26c-0.23-0.029-0.535,0.023-0.696,0.26c-0.05,0.07-0.071,0.123-0.092,0.168
			c-0.013,0.027-0.024,0.053-0.037,0.074c0.54,0.117,0.806-0.104,0.806-0.104s0.226,0.08,0.436-0.014
			c0.19-0.086,0.167-0.369,0.16-0.424l1.267,0.287h0.001h-0.001c0.015-0.012,0.034-0.018,0.052-0.018
			c0.512,0.029,0.854-0.246,1.018-0.582c-0.049-0.066-0.221-0.25-0.7-0.344c-0.039-0.008-0.066-0.047-0.059-0.086
			c0.009-0.041,0.047-0.066,0.086-0.059c0.417,0.08,0.63,0.229,0.733,0.334c0.018-0.055,0.032-0.109,0.04-0.166
			c0.065-0.428-0.267-0.701-0.282-0.715c-0.032-0.025-0.038-0.072-0.013-0.104c0.025-0.033,0.071-0.037,0.105-0.012
			c0.016,0.012,0.414,0.338,0.333,0.854c-0.015,0.109-0.048,0.217-0.093,0.316c0,0.002,0,0.002,0,0.002
			c-0.001,0-0.002,0.002-0.002,0.004c-0.001,0.002-0.001,0.004-0.003,0.006c-0.068,0.148-0.163,0.283-0.278,0.393
			c-0.104,0.096-0.221,0.172-0.351,0.223l0,0c-0.185,0.008-0.344-0.006-0.45-0.023c0.106,0.018,0.266,0.031,0.45,0.023
			c0.134-0.008,0.279-0.027,0.427-0.066c0.148-0.041,0.296-0.104,0.435-0.197c0.427-0.287,0.513-0.928,0.365-1.24
			c-0.026-0.004-0.05-0.021-0.06-0.049c-0.002-0.006-0.204-0.588-0.563-0.621c-0.146-0.014-0.268,0.027-0.383,0.064
			c-0.192,0.066-0.391,0.131-0.637-0.082c-0.118-0.102-0.213-0.213-0.304-0.32c-0.175-0.205-0.327-0.385-0.597-0.447
			c-0.032,0.016-0.066,0.027-0.106,0.033c-0.087,0.014-0.182,0.027-0.277,0.027c-0.14,0-0.28-0.027-0.391-0.115
			c-0.116-0.094-0.184-0.244-0.199-0.447c-0.01-0.127-0.014-0.238-0.019-0.336c-0.01-0.297-0.02-0.42-0.122-0.48
			c-0.034-0.021-0.047-0.066-0.025-0.102c0.021-0.035,0.065-0.047,0.1-0.025c0.177,0.104,0.183,0.291,0.195,0.602
			c0.003,0.098,0.008,0.207,0.019,0.332c0.012,0.162,0.058,0.273,0.144,0.342c0.137,0.109,0.367,0.088,0.553,0.057
			c0.013-0.002,0.025-0.006,0.037-0.01c0.015-0.021,0.039-0.035,0.065-0.033c0.19-0.137,0.189-0.531,0.189-0.537
			c-0.003-0.041,0.03-0.074,0.071-0.076c0.038,0,0.073,0.031,0.074,0.074c0,0.018,0.003,0.373-0.167,0.582
			c0.249,0.092,0.404,0.273,0.566,0.465c0.088,0.102,0.18,0.209,0.288,0.303c0.184,0.16,0.313,0.115,0.495,0.055
			c0.126-0.041,0.267-0.088,0.442-0.072c0.438,0.041,0.664,0.652,0.687,0.717h-0.144l0,0h0.282c0.641,0,1.189-0.316,1.527-0.785
			c-0.119,0.037-0.266,0.068-0.413,0.068c-0.064,0-0.129-0.006-0.19-0.02c-0.23-0.051-0.31-0.23-0.379-0.389
			c-0.037-0.084-0.071-0.16-0.123-0.217c-0.028-0.027-0.061-0.049-0.103-0.064c-0.079-0.029-0.205-0.057-0.338-0.086
			c-0.4-0.09-0.897-0.201-0.997-0.479c-0.013-0.037,0.006-0.08,0.044-0.096c0.039-0.014,0.081,0.008,0.094,0.045
			c0.072,0.201,0.565,0.311,0.891,0.385c0.143,0.031,0.267,0.059,0.355,0.09c0.06,0.021,0.108,0.053,0.147,0.092
			c0.075,0.037,0.208,0.025,0.304-0.031c0.06-0.037,0.135-0.105,0.135-0.225c0-0.107,0.032-0.195,0.099-0.258
			c0.111-0.109,0.274-0.102,0.281-0.102c0.042,0.002,0.071,0.037,0.069,0.078s-0.036,0.072-0.076,0.07
			c-0.001,0-0.063-0.002-0.12,0.025c0.339,0.127,0.476,0.52,0.483,0.537c0.011,0.037-0.009,0.08-0.047,0.092
			c-0.008,0.004-0.015,0.006-0.022,0.006c-0.03,0-0.058-0.02-0.068-0.051c-0.001-0.004-0.135-0.383-0.445-0.465
			c-0.004,0.021-0.007,0.041-0.007,0.066c0,0.146-0.073,0.271-0.208,0.352c-0.078,0.047-0.172,0.072-0.26,0.074h0.001
			c0.017,0.035,0.031,0.066,0.045,0.102c0.063,0.143,0.119,0.268,0.276,0.303c0.258,0.057,0.568-0.053,0.701-0.107h0.001
			c0.223-0.406,0.301-0.896,0.173-1.387c-0.011-0.037-0.021-0.074-0.034-0.111c0.013,0.037,0.023,0.074,0.033,0.111
			c-0.079,0.008-0.16-0.014-0.239-0.063c-0.173-0.109-0.31-0.344-0.351-0.596c-0.039-0.244-0.374-0.307-0.45-0.316h-0.002
			c-0.015,0.004-0.031,0.008-0.049,0.012c-0.125,0.027-0.237,0.012-0.335-0.004c-0.016-0.002-0.03-0.004-0.044-0.006
			c0.166,0.08,0.351,0.207,0.392,0.387c0.034,0.154,0,0.297-0.095,0.395c-0.086,0.09-0.213,0.129-0.334,0.104
			c-0.103-0.02-0.288-0.045-0.393,0.025c-0.039,0.027-0.063,0.066-0.074,0.119c-0.005,0.035-0.037,0.061-0.07,0.061
			c-0.005,0-0.01,0-0.015-0.002c-0.039-0.008-0.065-0.047-0.058-0.086c0.018-0.094,0.063-0.166,0.136-0.215
			c0.141-0.096,0.352-0.078,0.504-0.047c0.07,0.016,0.147-0.008,0.198-0.063c0.06-0.061,0.081-0.154,0.057-0.26
			c-0.041-0.186-0.378-0.322-0.538-0.371c-0.032,0.023-0.066,0.055-0.102,0.096c-0.015,0.018-0.035,0.025-0.057,0.025
			c-0.017,0-0.033-0.004-0.048-0.018c-0.03-0.025-0.033-0.072-0.008-0.104c0.055-0.064,0.108-0.109,0.16-0.141
			c0.001,0,0.001-0.002,0.003-0.002s0.005-0.002,0.008-0.004c0,0,0.001-0.002,0.003-0.002c0,0,0,0,0.001,0
			c0.095-0.051,0.188-0.059,0.273-0.053c-0.038-0.109-0.135-0.289-0.377-0.391c-0.378-0.16-0.589-0.15-0.589-0.15
			c-0.041,0.002-0.076-0.029-0.079-0.07s0.028-0.074,0.068-0.078c0.011,0,0.241-0.014,0.657,0.162
			c0.014,0.006,0.026,0.012,0.039,0.018l0,0c0.08-0.297-0.139-0.508-0.223-0.576c0.118,0.057,0.225,0.113,0.322,0.172
			c0.063,0.135,0.092,0.299,0.03,0.48l0,0c0.212,0.152,0.286,0.355,0.309,0.453c0.082,0.012,0.159,0.02,0.245,0
			c0.168-0.037,0.222-0.115,0.238-0.164c-0.011-0.002-0.017-0.004-0.017-0.004s-0.2-0.396-0.806-0.764v-0.002
			c-0.098-0.059-0.204-0.115-0.322-0.172c-0.197-0.092-0.425-0.178-0.686-0.248c0.033,0.068,0.055,0.143,0.035,0.201
			c-0.014,0.043-0.049,0.072-0.093,0.084c-0.048,0.014-0.116,0.01-0.209,0.006c-0.221-0.012-0.553-0.027-0.688,0.186
			c-0.014,0.023-0.036,0.035-0.063,0.035c-0.013,0-0.025-0.004-0.039-0.012c-0.032-0.021-0.044-0.066-0.022-0.102
			c0.181-0.287,0.58-0.268,0.819-0.256c0.06,0.004,0.124,0.006,0.154,0.002c-0.004-0.037-0.047-0.121-0.098-0.193
			c0.069,0.016,0.138,0.031,0.202,0.049l0,0c-0.064-0.018-0.133-0.033-0.202-0.049c-0.006-0.002-0.011-0.004-0.018-0.004
			c-0.721-0.16-1.371-0.156-1.868-0.105c-0.025,0.105-0.034,0.23,0.002,0.27l0.004,0.004c0.089,0.092,0.12,0.121,0.458,0.129
			c0.096,0.002,0.165,0.027,0.212,0.082c0.081,0.088,0.07,0.223,0.061,0.355c-0.009,0.109-0.019,0.223,0.025,0.295
			c0.033,0.059,0.073,0.082,0.126,0.074c0.079-0.014,0.184-0.113,0.216-0.26c0.071-0.322,0.508-0.318,0.527-0.318
			c0.041,0,0.072,0.035,0.072,0.074c-0.001,0.041-0.033,0.074-0.074,0.074c0,0-0.001,0-0.002,0c-0.017,0-0.336,0.002-0.381,0.203
			c-0.042,0.191-0.185,0.348-0.336,0.373c-0.015,0.002-0.03,0.004-0.043,0.004c-0.093,0-0.177-0.053-0.231-0.148
			c-0.067-0.113-0.057-0.258-0.047-0.383c0.008-0.1,0.016-0.203-0.021-0.244c-0.019-0.021-0.055-0.033-0.106-0.033
			c-0.383-0.008-0.445-0.055-0.56-0.172l-0.005-0.006c-0.082-0.084-0.073-0.24-0.053-0.354c0.043-0.006,0.087-0.012,0.133-0.016
			c-0.046,0.004-0.09,0.01-0.133,0.016c-0.255,0.031-0.46,0.076-0.601,0.111c0.157,0.074,0.347,0.215,0.309,0.447
			c-0.016,0.094-0.031,0.199-0.02,0.23c0.005,0.012,0.048,0.025,0.098,0.043l0.022,0.008c0.011,0.002,0.023,0.006,0.038,0.01
			c0.244,0.08,0.995,0.32,0.864,0.766c-0.03,0.104-0.06,0.184-0.083,0.246c-0.018,0.049-0.037,0.102-0.04,0.125
			c0.009,0.006,0.029,0.012,0.077,0.021c0.076,0.016,0.34,0.078,0.561,0.273c0.242,0.217,0.354,0.525,0.324,0.896
			c-0.002,0.039-0.035,0.068-0.072,0.068c-0.003,0-0.004-0.002-0.007-0.002c-0.04-0.002-0.071-0.039-0.067-0.078
			c0.065-0.811-0.625-0.984-0.766-1.012c-0.075-0.014-0.146-0.033-0.18-0.092c-0.036-0.066-0.01-0.137,0.033-0.252
			c0.022-0.061,0.05-0.139,0.079-0.238c0.061-0.201-0.198-0.396-0.769-0.58c-0.016-0.004-0.026-0.01-0.038-0.012l-0.021-0.008
			c-0.088-0.029-0.157-0.051-0.188-0.129c-0.026-0.063-0.02-0.143,0.009-0.311c0.039-0.238-0.377-0.344-0.385-0.346
			c-0.012-0.002-0.021-0.008-0.029-0.014l0,0c-0.083,0.002-0.305,0.016-0.58,0.088c-0.277,0.074-0.606,0.209-0.907,0.453
			c0.123-0.002,0.318-0.021,0.54-0.1c0.279-0.096,0.467-0.139,0.598-0.068c0.073,0.039,0.124,0.113,0.153,0.225
			c0.011,0.039-0.014,0.078-0.051,0.09c-0.04,0.01-0.08-0.014-0.09-0.053c-0.024-0.092-0.059-0.119-0.082-0.131
			c-0.083-0.045-0.253-0.002-0.479,0.078c-0.261,0.09-0.485,0.107-0.617,0.107c-0.078,0-0.124-0.006-0.129-0.006
			c-0.001,0-0.001,0-0.001,0l0,0c-0.137,0.137-0.262,0.299-0.367,0.494l0,0c0.132-0.055,0.327-0.104,0.497-0.021
			c0.132,0.064,0.161,0.174,0.185,0.262c0.002,0.01,0.004,0.02,0.008,0.027c0.137-0.174,0.464-0.484,1.024-0.428
			c0.655,0.066,1.299,1.055,1.465,1.326c0.028-0.027,0.059-0.055,0.093-0.074c0.201-0.123,0.414-0.057,0.423-0.053
			c0.04,0.012,0.061,0.055,0.049,0.094c-0.013,0.039-0.055,0.061-0.092,0.047c-0.002,0-0.159-0.049-0.304,0.039
			c-0.116,0.07-0.192,0.213-0.228,0.422c-0.007,0.035-0.039,0.061-0.074,0.061c-0.004,0-0.008,0-0.012,0
			c-0.04-0.008-0.066-0.047-0.059-0.086c0.021-0.127,0.057-0.234,0.107-0.322c-0.084-0.141-0.754-1.242-1.383-1.307
			c-0.541-0.053-0.833,0.281-0.926,0.414c0.032,0.018,0.079,0.029,0.146,0.037c0.162,0.014,0.269,0.059,0.336,0.139
			c0.11,0.137,0.092,0.352,0.063,0.674c-0.004,0.031-0.006,0.063-0.008,0.098c-0.02,0.213,0.032,0.42,0.084,0.621
			c0.016,0.066,0.032,0.133,0.045,0.197c0.022,0.055,0.283,0.699,0.788,0.865c0.234,0.078,0.444,0.102,0.629,0.123
			c0.267,0.031,0.497,0.059,0.704,0.221c0.031,0.025,0.037,0.072,0.013,0.105c-0.014,0.018-0.036,0.027-0.058,0.027
			c-0.017,0-0.032-0.006-0.045-0.016c-0.177-0.139-0.375-0.16-0.631-0.189c-0.192-0.023-0.41-0.049-0.657-0.129
			c-0.087-0.029-0.166-0.068-0.237-0.115c-0.026,0.066-0.053,0.172-0.034,0.283c0.177,0.168,0.597,0.256,0.602,0.256
			c0.039,0.01,0.064,0.049,0.058,0.088c-0.008,0.035-0.037,0.061-0.071,0.061c-0.006,0-0.011-0.002-0.016-0.002
			c-0.02-0.004-0.495-0.104-0.693-0.314c-0.051-0.055-0.226-0.025-0.394,0.002c-0.168,0.029-0.357,0.059-0.542,0.041
			c-0.031,0.125-0.116,0.373-0.295,0.447c-0.009,0.004-0.018,0.006-0.028,0.006c-0.028,0-0.055-0.018-0.067-0.047
			c-0.015-0.037,0.003-0.08,0.04-0.096c0.104-0.043,0.174-0.223,0.206-0.338c-0.098-0.025-0.191-0.07-0.275-0.145
			c-0.029-0.027-0.034-0.074-0.007-0.105s0.073-0.035,0.104-0.008c0.081,0.072,0.177,0.111,0.278,0.129c0.001,0,0.002,0,0.004,0.002
			c0,0,0.001,0,0.003,0c0.177,0.029,0.374-0.004,0.556-0.033c0.147-0.023,0.281-0.045,0.385-0.027
			c0.003-0.123,0.039-0.229,0.065-0.291c-0.16-0.133-0.28-0.297-0.366-0.439c-0.018,0.09-0.061,0.174-0.139,0.246
			c-0.1,0.092-0.243,0.141-0.405,0.141c-0.118,0-0.244-0.025-0.369-0.076c-0.228-0.09-0.478-0.281-0.495-0.545l-0.004-0.057
			c-0.014-0.205-0.024-0.369-0.065-0.398c-0.016-0.012-0.05-0.008-0.077-0.004c-0.039,0.01-0.078-0.016-0.087-0.057
			c-0.007-0.041,0.019-0.08,0.057-0.088c0.054-0.01,0.133-0.02,0.195,0.029c0.094,0.072,0.105,0.217,0.124,0.508l0.005,0.055
			c0.01,0.162,0.168,0.326,0.401,0.42c0.247,0.098,0.49,0.084,0.621-0.037c0.153-0.143,0.113-0.344,0.033-0.66
			c-0.05-0.203-0.109-0.432-0.088-0.67c0.004-0.033,0.006-0.066,0.008-0.098c0.028-0.285,0.046-0.477-0.029-0.564
			c-0.039-0.049-0.113-0.076-0.236-0.088c-0.145-0.014-0.229-0.059-0.281-0.117h-0.001c-0.001-0.002-0.001-0.004-0.002-0.004
			c-0.002-0.002-0.002-0.004-0.004-0.004c0-0.002,0-0.002-0.001-0.002c-0.046-0.057-0.063-0.123-0.078-0.178
			c-0.022-0.084-0.037-0.135-0.105-0.168c-0.206-0.1-0.503,0.088-0.506,0.09c-0.018,0.012-0.038,0.014-0.059,0.01
			c-0.131,0.119-0.534,0.516-0.821,1.117c-0.017,0.031-0.033,0.066-0.047,0.102c0.014-0.035,0.03-0.07,0.047-0.104
			c0.004,0.01,0.007,0.02,0.008,0.029c0,0.004,0.035,0.373,0.212,0.373c0.003,0,0.005,0,0.009,0
			c0.086-0.006,0.114-0.135,0.147-0.332c0.027-0.162,0.055-0.328,0.149-0.436c0.268-0.311,0.634-0.379,1.056-0.197
			c0.039,0.016,0.057,0.059,0.04,0.096c-0.016,0.039-0.059,0.057-0.095,0.039c-0.365-0.154-0.664-0.102-0.892,0.16
			c0.143-0.049,0.279-0.018,0.396,0.094c0.063,0.061,0.102,0.156,0.142,0.254c0.083,0.203,0.149,0.338,0.313,0.34
			c0.06,0,0.099-0.016,0.124-0.049c0.06-0.08,0.027-0.26,0.011-0.316c-0.011-0.039,0.011-0.08,0.049-0.092
			c0.04-0.012,0.081,0.012,0.092,0.051c0.01,0.029,0.082,0.291-0.035,0.447c-0.036,0.049-0.106,0.107-0.236,0.107
			c-0.002,0-0.004-0.002-0.006-0.002c-0.272-0.002-0.374-0.248-0.446-0.43c-0.036-0.084-0.067-0.164-0.108-0.203
			c-0.042-0.039-0.165-0.158-0.382,0.018c-0.01,0.047-0.018,0.096-0.026,0.143c-0.034,0.209-0.074,0.443-0.283,0.457
			c-0.006,0-0.013,0-0.02,0c-0.175,0-0.273-0.154-0.321-0.314c-0.027,0.072-0.052,0.145-0.075,0.221l0,0
			c-0.063,0.209-0.108,0.434-0.123,0.674c-0.001,0.02-0.003,0.039-0.004,0.061c0.001-0.021,0.003-0.041,0.004-0.061
			c0.104,0.1,0.246,0.129,0.386,0.129c0.252,0,0.499-0.102,0.502-0.104c0.038-0.016,0.081,0.004,0.097,0.041s-0.002,0.08-0.04,0.098
			c-0.017,0.006-0.275,0.113-0.557,0.113C48.063,96.919,47.924,96.896,47.802,96.822 M53.407,94.734
			c-0.021-0.035-0.011-0.08,0.023-0.102c0.035-0.021,0.08-0.01,0.103,0.025c0,0,0.074,0.121,0.178,0.137
			c0.049,0.008,0.098-0.01,0.15-0.055c0.159-0.137,0.123-0.67,0.064-0.975c-0.007-0.041,0.02-0.08,0.059-0.088
			c0.038-0.008,0.077,0.018,0.084,0.059c0.02,0.09,0.164,0.881-0.11,1.117c-0.001,0.002-0.005,0.002-0.006,0.002
			c0.093,0.076,0.243,0.172,0.367,0.156c0.155-0.02,0.278-0.275,0.313-0.375c0.015-0.037,0.056-0.057,0.095-0.043
			c0.038,0.014,0.058,0.055,0.044,0.094c-0.017,0.045-0.163,0.438-0.435,0.473c-0.016,0.002-0.029,0.002-0.045,0.002
			c-0.203,0-0.399-0.158-0.478-0.229c-0.027,0.008-0.054,0.012-0.08,0.012c-0.015,0-0.031,0-0.047-0.004
			C53.517,94.914,53.411,94.742,53.407,94.734 M50.06,97.869c0.279-0.063,0.514,0.035,0.783,0.15c0.167,0.07,0.339,0.143,0.55,0.191
			c0.509,0.113,0.958-0.361,0.962-0.367c0.027-0.029,0.074-0.031,0.104-0.004c0.029,0.029,0.031,0.076,0.004,0.105
			c-0.02,0.02-0.406,0.432-0.907,0.432c-0.062,0-0.128-0.006-0.194-0.021c-0.226-0.051-0.414-0.131-0.581-0.203
			c-0.203,0-0.356,0.176-0.36,0.178c-0.014,0.018-0.033,0.027-0.055,0.027c-0.018,0-0.034-0.006-0.049-0.018
			c-0.029-0.027-0.033-0.074-0.007-0.105c0.005-0.008,0.094-0.109,0.236-0.176c-0.154-0.055-0.298-0.08-0.453-0.043
			c-0.041,0.008-0.08-0.018-0.088-0.057C49.996,97.917,50.021,97.878,50.06,97.869 M48.833,98.07
			c0.159,0.002,0.212-0.279,0.212-0.283c0.009-0.041,0.046-0.068,0.085-0.061c0.04,0.006,0.067,0.045,0.06,0.086
			c-0.02,0.111-0.079,0.271-0.191,0.354c0.119,0.053,0.24,0.061,0.425,0.01c0.037-0.012,0.077,0.012,0.089,0.051
			c0.011,0.041-0.013,0.082-0.052,0.092c-0.099,0.027-0.185,0.041-0.26,0.041c-0.166,0-0.291-0.061-0.429-0.152h-0.001
			c-0.051-0.035-0.104-0.074-0.162-0.115l-0.004-0.004c-0.217-0.158-0.458-0.086-0.517-0.064c-0.024-0.041-0.048-0.086-0.069-0.131
			c0.025-0.012,0.363-0.15,0.672,0.076l0.004,0.002C48.745,98.007,48.791,98.041,48.833,98.07"/>
		<path clip-path="url(#SVGID_24_)" fill="#1C51A1" d="M78.699,93.16H63.12c-0.167,0-0.304-0.137-0.304-0.307
			c0-0.168,0.137-0.305,0.304-0.305h15.579c0.168,0,0.302,0.137,0.302,0.305C79.001,93.023,78.867,93.16,78.699,93.16"/>
		<path clip-path="url(#SVGID_24_)" fill="#1C51A1" d="M78.699,95.421H63.12c-0.167,0-0.304-0.137-0.304-0.307
			c0-0.168,0.137-0.307,0.304-0.307h15.579c0.168,0,0.302,0.139,0.302,0.307C79.001,95.285,78.867,95.421,78.699,95.421"/>
		<path clip-path="url(#SVGID_24_)" fill="#1C51A1" d="M78.699,97.628H63.12c-0.167,0-0.304-0.137-0.304-0.305
			c0-0.17,0.137-0.307,0.304-0.307h15.579c0.168,0,0.302,0.137,0.302,0.307C79.001,97.492,78.867,97.628,78.699,97.628"/>
		<path clip-path="url(#SVGID_24_)" fill="#1C51A1" d="M78.699,99.892H63.12c-0.167,0-0.304-0.139-0.304-0.307
			c0-0.17,0.137-0.307,0.304-0.307h15.579c0.168,0,0.302,0.137,0.302,0.307C79.001,99.753,78.867,99.892,78.699,99.892"/>
		<path clip-path="url(#SVGID_24_)" fill="#1C51A1" d="M77.06,76.513H61.952c-0.17,0-0.304-0.137-0.304-0.307
			c0-0.168,0.134-0.305,0.304-0.305H77.06c0.167,0,0.303,0.137,0.303,0.305C77.362,76.376,77.227,76.513,77.06,76.513"/>
		<path clip-path="url(#SVGID_24_)" fill="#1C51A1" d="M77.06,78.775H61.952c-0.17,0-0.304-0.137-0.304-0.305
			c0-0.17,0.134-0.307,0.304-0.307H77.06c0.167,0,0.303,0.137,0.303,0.307C77.362,78.638,77.227,78.775,77.06,78.775"/>
		<path clip-path="url(#SVGID_24_)" fill="#1C51A1" d="M77.06,80.984H61.952c-0.17,0-0.304-0.139-0.304-0.307
			c0-0.17,0.134-0.307,0.304-0.307H77.06c0.167,0,0.303,0.137,0.303,0.307C77.362,80.845,77.227,80.984,77.06,80.984"/>
		<path clip-path="url(#SVGID_24_)" fill="#1C51A1" d="M77.06,83.246H61.952c-0.17,0-0.304-0.137-0.304-0.307
			s0.134-0.307,0.304-0.307H77.06c0.167,0,0.303,0.137,0.303,0.307S77.227,83.246,77.06,83.246"/>
		<path clip-path="url(#SVGID_24_)" fill="#2AABCD" d="M59.893,79.63c0,3.939-3.157,7.131-7.052,7.131
			c-3.896,0-7.052-3.191-7.052-7.131c0-3.938,3.156-7.133,7.052-7.133C56.735,72.498,59.893,75.693,59.893,79.63"/>
		<path clip-path="url(#SVGID_24_)" fill="#1C51A1" d="M56.594,78.203l-1.337,2.475l-4.592-2.537l1.337-2.475
			c0.693-1.283,2.282-1.754,3.55-1.053c0.634,0.35,1.068,0.926,1.257,1.574C56.997,76.837,56.94,77.56,56.594,78.203"/>
		<path clip-path="url(#SVGID_24_)" fill="#FFFFFF" d="M50.425,78.583l4.593,2.537l-1.336,2.475
			c-0.693,1.283-2.281,1.754-3.551,1.055c-1.269-0.701-1.734-2.309-1.043-3.592L50.425,78.583z"/>
		<path clip-path="url(#SVGID_24_)" fill="#1C51A1" d="M77.295,60.669H61.716c-0.167,0-0.303-0.137-0.303-0.305
			c0-0.17,0.136-0.307,0.303-0.307h15.579c0.168,0,0.302,0.137,0.302,0.307C77.597,60.533,77.463,60.669,77.295,60.669"/>
		<path clip-path="url(#SVGID_24_)" fill="#1C51A1" d="M77.295,62.931H61.716c-0.167,0-0.303-0.137-0.303-0.305
			c0-0.17,0.136-0.307,0.303-0.307h15.579c0.168,0,0.302,0.137,0.302,0.307C77.597,62.794,77.463,62.931,77.295,62.931"/>
		<path clip-path="url(#SVGID_24_)" fill="#1C51A1" d="M77.295,65.14H61.716c-0.167,0-0.303-0.139-0.303-0.307
			c0-0.17,0.136-0.307,0.303-0.307h15.579c0.168,0,0.302,0.137,0.302,0.307C77.597,65.001,77.463,65.14,77.295,65.14"/>
		<path clip-path="url(#SVGID_24_)" fill="#1C51A1" d="M77.295,67.402H61.716c-0.167,0-0.303-0.137-0.303-0.307
			s0.136-0.307,0.303-0.307h15.579c0.168,0,0.302,0.137,0.302,0.307S77.463,67.402,77.295,67.402"/>
		<path clip-path="url(#SVGID_24_)" fill="#2AABCD" d="M59.775,63.708c0,3.938-3.157,7.131-7.052,7.131
			c-3.896,0-7.053-3.193-7.053-7.131c0-3.939,3.157-7.133,7.053-7.133C56.618,56.576,59.775,59.769,59.775,63.708"/>
		<path clip-path="url(#SVGID_24_)" fill="#FFFFFF" d="M55.098,59.708H50.35c-0.089,0-0.161-0.072-0.161-0.162
			c0-0.092,0.072-0.162,0.161-0.162h4.748c0.089,0,0.161,0.07,0.161,0.162C55.259,59.636,55.187,59.708,55.098,59.708"/>
		<path clip-path="url(#SVGID_24_)" fill="#FFFFFF" d="M55.098,61.076H50.35c-0.089,0-0.161-0.074-0.161-0.164
			s0.072-0.162,0.161-0.162h4.748c0.089,0,0.161,0.072,0.161,0.162S55.187,61.076,55.098,61.076"/>
		<path clip-path="url(#SVGID_24_)" fill="#FFFFFF" d="M55.098,62.441H50.35c-0.089,0-0.161-0.072-0.161-0.162
			s0.072-0.164,0.161-0.164h4.748c0.089,0,0.161,0.074,0.161,0.164S55.187,62.441,55.098,62.441"/>
		<path clip-path="url(#SVGID_24_)" fill="#FFFFFF" d="M55.098,65.173H50.35c-0.089,0-0.161-0.072-0.161-0.162
			c0-0.092,0.072-0.164,0.161-0.164h4.748c0.089,0,0.161,0.072,0.161,0.164C55.259,65.101,55.187,65.173,55.098,65.173"/>
		<path clip-path="url(#SVGID_24_)" fill="#FFFFFF" d="M55.098,66.539H50.35c-0.089,0-0.161-0.072-0.161-0.162
			s0.072-0.164,0.161-0.164h4.748c0.089,0,0.161,0.074,0.161,0.164S55.187,66.539,55.098,66.539"/>
		<path clip-path="url(#SVGID_24_)" fill="#FFFFFF" d="M55.098,67.904H50.35c-0.089,0-0.161-0.072-0.161-0.162
			s0.072-0.162,0.161-0.162h4.748c0.089,0,0.161,0.072,0.161,0.162S55.187,67.904,55.098,67.904"/>
		<path clip-path="url(#SVGID_24_)" fill="#1C51A1" d="M51.317,62.703c-0.301,0.113-0.546,0.246-0.729,0.365
			c-0.152-0.119-0.293-0.256-0.421-0.406c-1.19-1.41-0.845-3.705-0.831-3.803c0.03-0.191,0.208-0.322,0.398-0.293
			c0.188,0.031,0.319,0.211,0.289,0.402c0,0.008-0.047,0.318-0.047,0.762c0,0.709,0.118,1.762,0.721,2.475
			C50.872,62.41,51.078,62.576,51.317,62.703"/>
		<path clip-path="url(#SVGID_24_)" fill="#1C51A1" d="M56.13,68.07c-0.022,0.178-0.171,0.309-0.344,0.309
			c-0.016,0-0.029-0.002-0.045-0.004c-0.19-0.025-0.325-0.199-0.302-0.393c0.003-0.023,0.268-2.258-0.799-3.479
			c-0.156-0.18-0.336-0.33-0.539-0.449c0.248-0.076,0.505-0.182,0.75-0.324c0.111,0.094,0.215,0.197,0.312,0.309
			C56.438,65.503,56.145,67.966,56.13,68.07"/>
		<path clip-path="url(#SVGID_24_)" fill="#1C51A1" d="M49.661,68.378c-0.173,0-0.321-0.131-0.345-0.309
			c-0.014-0.104-0.307-2.568,0.967-4.031c0.599-0.686,1.435-1.037,2.484-1.037c0.869,0,1.536-0.268,1.983-0.799
			c0.984-1.164,0.677-3.213,0.673-3.234c-0.029-0.191,0.101-0.371,0.29-0.402c0.189-0.029,0.368,0.102,0.397,0.293
			c0.016,0.098,0.359,2.393-0.831,3.803c-0.585,0.693-1.432,1.047-2.513,1.047c-0.841,0-1.499,0.268-1.961,0.795
			c-1.064,1.221-0.801,3.455-0.799,3.479c0.023,0.193-0.111,0.369-0.302,0.393C49.69,68.376,49.677,68.378,49.661,68.378"/>
		<path clip-path="url(#SVGID_24_)" fill="#99B8D6" d="M170.002,95.162h0.257v-7.77h-0.257c-0.396,0-0.723,0.328-0.723,0.729v6.313
			C169.279,94.833,169.605,95.162,170.002,95.162"/>
		<path clip-path="url(#SVGID_24_)" fill="#2AABCD" d="M145.991,76.207c0,1.84-1.475,3.33-3.293,3.33
			c-1.817,0-3.292-1.49-3.292-3.33c0-1.838,1.475-3.328,3.292-3.328C144.517,72.878,145.991,74.369,145.991,76.207"/>
		<path clip-path="url(#SVGID_24_)" fill="#FFFFFF" d="M141.859,78.044c-0.065,0-0.13-0.025-0.178-0.068l-0.885-0.797
			c-0.109-0.1-0.12-0.27-0.021-0.381s0.268-0.123,0.378-0.021l0.677,0.607l2.386-2.916c0.094-0.115,0.263-0.131,0.377-0.035
			c0.113,0.096,0.129,0.266,0.035,0.381l-2.563,3.131c-0.045,0.059-0.111,0.092-0.186,0.098
			C141.872,78.044,141.866,78.044,141.859,78.044"/>
		<path clip-path="url(#SVGID_24_)" fill="#2AABCD" d="M154.246,76.207c0,1.84-1.474,3.33-3.293,3.33
			c-1.816,0-3.291-1.49-3.291-3.33c0-1.838,1.475-3.328,3.291-3.328C152.772,72.878,154.246,74.369,154.246,76.207"/>
		<path clip-path="url(#SVGID_24_)" fill="#FFFFFF" d="M150.114,78.044c-0.065,0-0.128-0.025-0.178-0.068l-0.883-0.797
			c-0.11-0.1-0.12-0.27-0.022-0.381c0.099-0.111,0.268-0.123,0.378-0.021l0.677,0.607l2.385-2.916
			c0.096-0.115,0.264-0.131,0.377-0.035c0.115,0.096,0.13,0.266,0.036,0.381l-2.563,3.131c-0.047,0.059-0.113,0.092-0.187,0.098
			C150.128,78.044,150.121,78.044,150.114,78.044"/>
		<path clip-path="url(#SVGID_24_)" fill="#2AABCD" d="M162.621,76.207c0,1.84-1.476,3.33-3.292,3.33
			c-1.819,0-3.292-1.49-3.292-3.33c0-1.838,1.473-3.328,3.292-3.328C161.146,72.878,162.621,74.369,162.621,76.207"/>
		<path clip-path="url(#SVGID_24_)" fill="#FFFFFF" d="M160.847,74.468c0.094-0.113,0.263-0.131,0.375-0.035
			c0.114,0.096,0.13,0.266,0.036,0.381l-2.563,3.131c-0.046,0.057-0.113,0.094-0.186,0.098c-0.007,0.002-0.014,0.002-0.021,0.002
			c-0.065,0-0.129-0.025-0.178-0.068l-0.884-0.797c-0.111-0.098-0.121-0.27-0.022-0.381s0.268-0.123,0.378-0.021l0.676,0.607"/>
		<path clip-path="url(#SVGID_24_)" fill="#F6605B" d="M142.704,61.281c-0.242,3.172-4.65,6.814-6.374,8.088
			c-0.395,0.291-0.928,0.291-1.322,0c-1.723-1.273-6.133-4.916-6.374-8.088c-0.299-3.936,4.53-6.049,7.036-1.85
			C138.174,55.232,143.003,57.345,142.704,61.281"/>
		<path clip-path="url(#SVGID_24_)" fill="#EFECE6" d="M141.643,62.324c-0.012,0.066-0.073,0.113-0.14,0.113h-1.28
			c-0.061,0-0.115-0.037-0.138-0.096l-0.063-0.162l-0.331-0.848l-0.265,0.678c-0.02,0.053-0.069,0.086-0.124,0.086h-0.776
			c-0.054,0-0.104-0.033-0.124-0.084l-0.246-0.633l-0.921,2.357c-0.019,0.051-0.068,0.084-0.123,0.084
			c-0.056,0-0.104-0.033-0.125-0.084l-0.47-1.203l-1.369,3.512c-0.02,0.051-0.069,0.086-0.124,0.086
			c-0.056,0-0.104-0.035-0.125-0.086l-1.472-3.771h-0.561c-0.054,0-0.105-0.035-0.125-0.086l-0.291-0.746l-0.356,0.91
			c-0.021,0.051-0.068,0.086-0.123,0.086h-2.137c-0.067,0-0.128-0.047-0.138-0.113c-0.012-0.086,0.052-0.158,0.133-0.158h2.05
			l0.446-1.143c0.021-0.053,0.069-0.086,0.125-0.086c0.055,0,0.104,0.033,0.123,0.086l0.384,0.98h0.562
			c0.055,0,0.104,0.031,0.124,0.084l1.381,3.539l1.37-3.51c0.02-0.053,0.069-0.086,0.123-0.086c0.056,0,0.106,0.033,0.126,0.086
			l0.469,1.201l0.92-2.357c0.02-0.051,0.068-0.084,0.124-0.084c0.055,0,0.104,0.033,0.125,0.084l0.337,0.865h0.593l0.356-0.912
			c0.02-0.051,0.068-0.084,0.124-0.084c0.055,0,0.104,0.033,0.125,0.084l0.488,1.252h1.206
			C141.592,62.166,141.656,62.24,141.643,62.324"/>
		<path clip-path="url(#SVGID_24_)" fill="#1C51A1" d="M162.291,59.566h-15.579c-0.167,0-0.304-0.137-0.304-0.307
			c0-0.168,0.137-0.305,0.304-0.305h15.579c0.165,0,0.302,0.137,0.302,0.305C162.593,59.429,162.456,59.566,162.291,59.566"/>
		<path clip-path="url(#SVGID_24_)" fill="#1C51A1" d="M162.291,61.828h-15.579c-0.167,0-0.304-0.137-0.304-0.307
			c0-0.168,0.137-0.307,0.304-0.307h15.579c0.165,0,0.302,0.139,0.302,0.307C162.593,61.691,162.456,61.828,162.291,61.828"/>
		<path clip-path="url(#SVGID_24_)" fill="#1C51A1" d="M162.291,64.035h-15.579c-0.167,0-0.304-0.137-0.304-0.305
			c0-0.17,0.137-0.307,0.304-0.307h15.579c0.165,0,0.302,0.137,0.302,0.307C162.593,63.898,162.456,64.035,162.291,64.035"/>
		<path clip-path="url(#SVGID_24_)" fill="#1C51A1" d="M162.291,66.298h-15.579c-0.167,0-0.304-0.139-0.304-0.307
			c0-0.17,0.137-0.307,0.304-0.307h15.579c0.165,0,0.302,0.137,0.302,0.307C162.593,66.16,162.456,66.298,162.291,66.298"/>
		<path clip-path="url(#SVGID_24_)" fill="#FFFFFF" d="M172.341,67.798c-0.064-0.01-0.12-0.047-0.159-0.1l-1.19-1.68
			c-0.005-0.006-0.018-0.008-0.024-0.002l-0.999,0.725c-0.07,0.053-0.16,0.061-0.238,0.027s-0.133-0.105-0.145-0.191l-0.603-4.27
			c-0.013-0.09,0.025-0.18,0.099-0.232c0.074-0.055,0.17-0.063,0.253-0.021l3.808,1.938c0.075,0.039,0.126,0.115,0.133,0.201
			s-0.03,0.168-0.101,0.219l-1,0.729c-0.005,0.002-0.007,0.006-0.007,0.01c-0.001,0.002,0,0.008,0.003,0.012l1.192,1.68
			c0.037,0.053,0.054,0.117,0.043,0.184c-0.011,0.063-0.044,0.121-0.099,0.16l-0.784,0.57c-0.049,0.035-0.104,0.051-0.164,0.045
			C172.353,67.798,172.348,67.798,172.341,67.798"/>
		<g opacity="0.5" clip-path="url(#SVGID_24_)">
			<g>
				<defs>
					<rect id="SVGID_27_" x="165.068" y="153.49" width="24.839" height="20.191"/>
				</defs>
				<clipPath id="SVGID_28_">
					<use xlink:href="#SVGID_27_"  overflow="visible"/>
				</clipPath>
				<path clip-path="url(#SVGID_28_)" fill="#99B8D6" d="M165.823,156.775c2.349-4.115,9.478-4.402,15.921-0.643
					c6.442,3.762,9.76,10.148,7.409,14.264c-2.351,4.117-9.478,4.404-15.92,0.641C166.791,167.277,163.473,160.89,165.823,156.775"
					/>
			</g>
		</g>
		<path clip-path="url(#SVGID_24_)" fill="#FFFFFF" d="M189.018,166.666h-0.006c-0.04,0.201-0.108,0.385-0.208,0.545
			c0,0,0,0.004-0.003,0.004c-2.439,3.994-15.456,1.713-16.905-1.818c-0.125-0.307-0.251-0.592-0.369-0.854
			c-1.805-3.924-2.954-2.832-6.124-5.49c-0.139-0.115-0.264-0.236-0.369-0.357c-0.014-0.018-0.028-0.029-0.042-0.047
			c-1.784-2.057,0.411-4.678,0.411-4.678c0.135-0.107,0.268-0.211,0.401-0.309v-0.004c1.06-0.775,2.159-1.303,3.28-1.617
			c0.511-0.148,1.031-0.246,1.55-0.305C179.916,150.669,189.869,162.607,189.018,166.666"/>
		<path clip-path="url(#SVGID_24_)" fill="#99B8D6" d="M188.801,167.214c-2.622,4.896-15.456,1.713-16.905-1.818
			c-0.125-0.307-0.251-0.592-0.369-0.854c-1.818-3.906-3.053-2.721-6.124-5.49c-0.135-0.121-0.257-0.238-0.369-0.357
			c-0.014-0.018-0.028-0.029-0.042-0.047c-1.784-2.057,0.411-4.678,0.411-4.678c0.135-0.107,0.268-0.211,0.401-0.309
			c-0.261,0.76-0.508,2.475,1.552,4.143c0.482,0.393,1.034,0.684,1.602,0.939c0.452,0.197,1.356,0.891,2.971,3.168
			c2.587,3.641,5.226,5.393,8.216,5.697C185.532,168.162,188.663,167.298,188.801,167.214"/>
		<path clip-path="url(#SVGID_24_)" fill="#99B8D6" d="M174.771,154.929c-3.32-2.785-5.687-2.889-5.687-2.889
			c0.511-0.148,1.031-0.246,1.55-0.305C173.281,152.642,174.738,154.82,174.771,154.929"/>
		<g opacity="0.5" clip-path="url(#SVGID_24_)">
			<g>
				<defs>
					<rect id="SVGID_29_" x="36.486" y="148.669" width="136.094" height="29.279"/>
				</defs>
				<clipPath id="SVGID_30_">
					<use xlink:href="#SVGID_29_"  overflow="visible"/>
				</clipPath>
				<path clip-path="url(#SVGID_30_)" fill="#99B8D6" d="M37.744,177.949h133.577c0.989,0,1.59-1.1,1.063-1.947l-16.657-26.738
					c-0.229-0.369-0.632-0.594-1.062-0.594H54.402c-0.434,0-0.834,0.225-1.064,0.594l-16.656,26.738
					C36.154,176.849,36.755,177.949,37.744,177.949"/>
			</g>
		</g>
		<polygon clip-path="url(#SVGID_24_)" fill="#FFFFFF" points="40.105,168.917 169.267,168.917 156.689,148.669 52.684,148.669 		
			"/>
		<path clip-path="url(#SVGID_24_)" fill="#99B8D6" d="M44.161,173.503h121.05c2.24,0,4.056-1.836,4.056-4.102v-0.484H40.105v0.484
			C40.105,171.667,41.922,173.503,44.161,173.503"/>
		<path clip-path="url(#SVGID_24_)" fill="#99B8D6" d="M150.056,152.244h5.657c0.28,0,0.466-0.293,0.348-0.551l-0.6-1.301
			c-0.063-0.135-0.198-0.223-0.347-0.223h-5.528c-0.266,0-0.451,0.268-0.359,0.52l0.47,1.301
			C149.751,152.144,149.894,152.244,150.056,152.244"/>
		<path clip-path="url(#SVGID_24_)" fill="#99B8D6" d="M148.73,151.712l-0.518-1.301c-0.058-0.146-0.197-0.242-0.354-0.242h-5.546
			c-0.256,0-0.44,0.25-0.367,0.498l0.388,1.301c0.049,0.164,0.199,0.275,0.367,0.275h5.677
			C148.646,152.244,148.832,151.966,148.73,151.712"/>
		<path clip-path="url(#SVGID_24_)" fill="#99B8D6" d="M141.398,151.734l-0.435-1.301c-0.052-0.158-0.198-0.264-0.362-0.264h-5.561
			c-0.247,0-0.43,0.232-0.373,0.477l0.306,1.301c0.041,0.176,0.195,0.297,0.373,0.297h5.689
			C141.299,152.244,141.483,151.984,141.398,151.734"/>
		<path clip-path="url(#SVGID_24_)" fill="#99B8D6" d="M134.041,151.755l-0.353-1.301c-0.045-0.168-0.197-0.285-0.37-0.285h-5.572
			c-0.238,0-0.418,0.217-0.376,0.453l0.222,1.301c0.031,0.186,0.191,0.32,0.378,0.32h5.703
			C133.925,152.244,134.108,152.001,134.041,151.755"/>
		<path clip-path="url(#SVGID_24_)" fill="#99B8D6" d="M126.69,151.746l-0.26-1.248c-0.039-0.191-0.207-0.328-0.4-0.328h-5.531
			c-0.243,0-0.434,0.215-0.407,0.459l0.135,1.248c0.023,0.209,0.197,0.367,0.408,0.367h5.654
			C126.549,152.244,126.743,152.003,126.69,151.746"/>
		<path clip-path="url(#SVGID_24_)" fill="#99B8D6" d="M119.346,151.771l-0.181-1.248c-0.03-0.203-0.203-0.354-0.406-0.354h-5.537
			c-0.233,0-0.42,0.195-0.408,0.432l0.056,1.248c0.01,0.221,0.191,0.395,0.409,0.395h5.662
			C119.189,152.244,119.381,152.019,119.346,151.771"/>
		<path clip-path="url(#SVGID_24_)" fill="#99B8D6" d="M112.023,151.869l-0.113-1.381c-0.016-0.18-0.163-0.318-0.342-0.318h-5.669
			c-0.187,0-0.339,0.15-0.342,0.34l-0.025,1.383c-0.003,0.193,0.15,0.352,0.344,0.352h5.805
			C111.88,152.244,112.038,152.072,112.023,151.869"/>
		<path clip-path="url(#SVGID_24_)" fill="#99B8D6" d="M104.732,151.892l-0.025-1.383c-0.004-0.189-0.157-0.34-0.344-0.34h-5.666
			c-0.18,0-0.328,0.139-0.343,0.318l-0.113,1.381c-0.017,0.203,0.142,0.375,0.342,0.375h5.806
			C104.58,152.244,104.734,152.085,104.732,151.892"/>
		<path clip-path="url(#SVGID_24_)" fill="#99B8D6" d="M97.392,151.914l0.063-1.381c0.009-0.199-0.147-0.363-0.343-0.363h-5.665
			c-0.169,0-0.314,0.127-0.339,0.297l-0.2,1.383c-0.03,0.207,0.131,0.395,0.339,0.395h5.803
			C97.232,152.244,97.384,152.099,97.392,151.914"/>
		<path clip-path="url(#SVGID_24_)" fill="#99B8D6" d="M90.03,151.935l0.149-1.383c0.022-0.203-0.137-0.383-0.342-0.383H84.18
			c-0.162,0-0.303,0.115-0.336,0.275l-0.287,1.381c-0.045,0.217,0.117,0.418,0.335,0.418h5.799
			C89.864,152.244,90.012,152.111,90.03,151.935"/>
		<path clip-path="url(#SVGID_24_)" fill="#99B8D6" d="M82.666,151.957l0.236-1.381c0.036-0.213-0.126-0.406-0.338-0.406h-5.65
			c-0.155,0-0.29,0.104-0.332,0.256l-0.374,1.381c-0.06,0.221,0.104,0.438,0.331,0.438h5.789
			C82.494,152.244,82.637,152.123,82.666,151.957"/>
		<path clip-path="url(#SVGID_24_)" fill="#99B8D6" d="M75.281,151.984l0.328-1.396c0.05-0.213-0.109-0.418-0.327-0.418h-5.654
			c-0.145,0-0.271,0.092-0.318,0.23l-0.466,1.396c-0.074,0.219,0.087,0.447,0.317,0.447h5.795
			C75.11,152.244,75.246,152.136,75.281,151.984"/>
		<path clip-path="url(#SVGID_24_)" fill="#99B8D6" d="M67.92,152.003l0.416-1.396c0.065-0.219-0.097-0.438-0.321-0.438h-5.642
			c-0.136,0-0.261,0.084-0.311,0.213l-0.557,1.395c-0.088,0.225,0.075,0.467,0.313,0.467h5.78
			C67.748,152.244,67.877,152.146,67.92,152.003"/>
		<path clip-path="url(#SVGID_24_)" fill="#99B8D6" d="M60.24,152.244h-5.765c-0.245,0-0.408-0.258-0.304-0.482l0.644-1.396
			c0.056-0.119,0.173-0.195,0.305-0.195h5.625c0.233,0,0.396,0.234,0.315,0.455l-0.503,1.396
			C60.509,152.156,60.383,152.244,60.24,152.244"/>
		<path clip-path="url(#SVGID_24_)" fill="#99B8D6" d="M151.41,156.125h5.897c0.281,0,0.466-0.295,0.35-0.551l-0.637-1.377
			c-0.063-0.139-0.198-0.225-0.348-0.225h-5.759c-0.268,0-0.452,0.268-0.36,0.521l0.498,1.375
			C151.106,156.021,151.249,156.125,151.41,156.125"/>
		<path clip-path="url(#SVGID_24_)" fill="#99B8D6" d="M150.055,155.591l-0.547-1.377c-0.06-0.146-0.199-0.242-0.356-0.242h-5.778
			c-0.256,0-0.44,0.25-0.366,0.498l0.41,1.379c0.049,0.164,0.198,0.275,0.367,0.275h5.916
			C149.972,156.125,150.157,155.845,150.055,155.591"/>
		<path clip-path="url(#SVGID_24_)" fill="#99B8D6" d="M142.451,155.613l-0.46-1.377c-0.053-0.158-0.198-0.264-0.362-0.264h-5.793
			c-0.247,0-0.43,0.234-0.372,0.477l0.322,1.377c0.04,0.176,0.195,0.299,0.373,0.299h5.93
			C142.352,156.125,142.536,155.865,142.451,155.613"/>
		<path clip-path="url(#SVGID_24_)" fill="#99B8D6" d="M134.822,155.634l-0.373-1.377c-0.046-0.168-0.197-0.285-0.369-0.285h-5.807
			c-0.236,0-0.417,0.217-0.377,0.453l0.236,1.377c0.032,0.186,0.191,0.322,0.378,0.322h5.943
			C134.705,156.125,134.89,155.88,134.822,155.634"/>
		<path clip-path="url(#SVGID_24_)" fill="#99B8D6" d="M127.199,155.625l-0.275-1.322c-0.039-0.193-0.206-0.33-0.4-0.33h-5.764
			c-0.244,0-0.433,0.215-0.406,0.459l0.143,1.324c0.023,0.211,0.198,0.369,0.407,0.369h5.896
			C127.059,156.125,127.253,155.882,127.199,155.625"/>
		<path clip-path="url(#SVGID_24_)" fill="#99B8D6" d="M119.583,155.65l-0.191-1.324c-0.029-0.203-0.202-0.354-0.405-0.354h-5.771
			c-0.232,0-0.419,0.195-0.408,0.434l0.061,1.322c0.01,0.223,0.19,0.396,0.408,0.396h5.901
			C119.428,156.125,119.619,155.9,119.583,155.65"/>
		<path clip-path="url(#SVGID_24_)" fill="#99B8D6" d="M111.989,155.748l-0.118-1.457c-0.016-0.18-0.164-0.318-0.342-0.318h-5.899
			c-0.188,0-0.34,0.15-0.344,0.34l-0.026,1.459c-0.004,0.195,0.15,0.354,0.343,0.354h6.045
			C111.849,156.125,112.007,155.951,111.989,155.748"/>
		<path clip-path="url(#SVGID_24_)" fill="#99B8D6" d="M104.43,155.771l-0.025-1.459c-0.004-0.189-0.156-0.34-0.345-0.34H98.16
			c-0.178,0-0.326,0.139-0.341,0.318l-0.12,1.457c-0.016,0.203,0.144,0.377,0.342,0.377h6.047
			C104.279,156.125,104.434,155.966,104.43,155.771"/>
		<path clip-path="url(#SVGID_24_)" fill="#99B8D6" d="M96.819,155.792l0.066-1.457c0.009-0.199-0.146-0.363-0.343-0.363h-5.896
			c-0.17,0-0.315,0.125-0.341,0.295l-0.21,1.461c-0.03,0.207,0.13,0.396,0.34,0.396h6.041
			C96.66,156.125,96.813,155.978,96.819,155.792"/>
		<path clip-path="url(#SVGID_24_)" fill="#99B8D6" d="M89.188,155.814l0.158-1.457c0.021-0.205-0.138-0.385-0.341-0.385h-5.893
			c-0.162,0-0.302,0.115-0.336,0.275l-0.303,1.459c-0.045,0.215,0.118,0.418,0.336,0.418h6.037
			C89.021,156.125,89.169,155.992,89.188,155.814"/>
		<path clip-path="url(#SVGID_24_)" fill="#99B8D6" d="M81.551,155.835l0.25-1.457c0.037-0.213-0.123-0.406-0.339-0.406h-5.881
			c-0.155,0-0.291,0.104-0.332,0.254l-0.395,1.459c-0.061,0.221,0.104,0.439,0.33,0.439h6.028
			C81.381,156.125,81.523,156.003,81.551,155.835"/>
		<path clip-path="url(#SVGID_24_)" fill="#99B8D6" d="M73.896,155.863l0.345-1.473c0.05-0.213-0.11-0.418-0.327-0.418h-5.886
			c-0.146,0-0.272,0.094-0.318,0.23l-0.494,1.473c-0.073,0.221,0.09,0.449,0.318,0.449h6.033
			C73.724,156.125,73.858,156.015,73.896,155.863"/>
		<path clip-path="url(#SVGID_24_)" fill="#99B8D6" d="M66.263,155.882l0.438-1.473c0.065-0.219-0.097-0.438-0.321-0.438h-5.874
			c-0.137,0-0.26,0.084-0.311,0.213l-0.586,1.473c-0.089,0.223,0.072,0.467,0.312,0.467h6.02
			C66.09,156.125,66.22,156.027,66.263,155.882"/>
		<path clip-path="url(#SVGID_24_)" fill="#99B8D6" d="M58.313,156.125h-6.006c-0.246,0-0.409-0.26-0.304-0.484l0.678-1.473
			c0.056-0.119,0.174-0.195,0.305-0.195h5.858c0.233,0,0.396,0.234,0.315,0.455l-0.532,1.473
			C58.579,156.035,58.454,156.125,58.313,156.125"/>
		<path clip-path="url(#SVGID_24_)" fill="#99B8D6" d="M152.626,159.935h6.101c0.28,0,0.464-0.295,0.347-0.551l-0.665-1.441
			c-0.062-0.139-0.197-0.225-0.347-0.225h-5.957c-0.265,0-0.45,0.268-0.358,0.52l0.519,1.441
			C152.321,159.833,152.464,159.935,152.626,159.935"/>
		<path clip-path="url(#SVGID_24_)" fill="#99B8D6" d="M151.244,159.402l-0.574-1.439c-0.059-0.148-0.199-0.244-0.355-0.244h-5.975
			c-0.256,0-0.44,0.25-0.366,0.498l0.43,1.441c0.049,0.164,0.196,0.277,0.367,0.277h6.118
			C151.158,159.935,151.344,159.658,151.244,159.402"/>
		<path clip-path="url(#SVGID_24_)" fill="#99B8D6" d="M143.411,159.423l-0.481-1.441c-0.052-0.158-0.198-0.264-0.364-0.264h-5.988
			c-0.247,0-0.431,0.232-0.373,0.477l0.34,1.441c0.039,0.176,0.193,0.299,0.372,0.299h6.133
			C143.311,159.935,143.496,159.673,143.411,159.423"/>
		<path clip-path="url(#SVGID_24_)" fill="#99B8D6" d="M135.551,159.445l-0.389-1.441c-0.046-0.168-0.198-0.285-0.369-0.285h-6.002
			c-0.238,0-0.418,0.217-0.379,0.453l0.248,1.441c0.032,0.186,0.191,0.322,0.378,0.322h6.146
			C135.436,159.935,135.618,159.691,135.551,159.445"/>
		<path clip-path="url(#SVGID_24_)" fill="#99B8D6" d="M127.699,159.435l-0.288-1.387c-0.04-0.191-0.206-0.33-0.399-0.33h-5.961
			c-0.243,0-0.433,0.215-0.406,0.459l0.148,1.389c0.025,0.209,0.2,0.369,0.408,0.369h6.098
			C127.56,159.935,127.754,159.693,127.699,159.435"/>
		<path clip-path="url(#SVGID_24_)" fill="#99B8D6" d="M119.854,159.46l-0.201-1.389c-0.029-0.203-0.201-0.354-0.405-0.354h-5.967
			c-0.232,0-0.419,0.197-0.408,0.432l0.062,1.389c0.012,0.221,0.192,0.396,0.41,0.396h6.104
			C119.7,159.935,119.891,159.71,119.854,159.46"/>
		<path clip-path="url(#SVGID_24_)" fill="#99B8D6" d="M112.032,159.56l-0.124-1.523c-0.015-0.18-0.164-0.318-0.342-0.318h-6.097
			c-0.187,0-0.339,0.152-0.343,0.34l-0.027,1.523c-0.003,0.193,0.15,0.354,0.343,0.354h6.248
			C111.892,159.935,112.049,159.761,112.032,159.56"/>
		<path clip-path="url(#SVGID_24_)" fill="#99B8D6" d="M104.245,159.582l-0.026-1.523c-0.005-0.188-0.156-0.34-0.343-0.34h-6.098
			c-0.179,0-0.326,0.139-0.342,0.318l-0.123,1.523c-0.017,0.201,0.142,0.375,0.343,0.375h6.248
			C104.095,159.935,104.249,159.775,104.245,159.582"/>
		<path clip-path="url(#SVGID_24_)" fill="#99B8D6" d="M96.405,159.603l0.069-1.523c0.009-0.195-0.146-0.361-0.344-0.361h-6.092
			c-0.171,0-0.314,0.127-0.34,0.297l-0.221,1.521c-0.03,0.209,0.131,0.398,0.34,0.398h6.245
			C96.247,159.935,96.397,159.789,96.405,159.603"/>
		<path clip-path="url(#SVGID_24_)" fill="#99B8D6" d="M88.544,159.625l0.165-1.521c0.021-0.205-0.136-0.385-0.342-0.385H82.28
			c-0.162,0-0.302,0.113-0.336,0.275l-0.317,1.523c-0.043,0.215,0.119,0.418,0.337,0.418h6.24
			C88.379,159.935,88.525,159.8,88.544,159.625"/>
		<path clip-path="url(#SVGID_24_)" fill="#99B8D6" d="M80.68,159.646l0.261-1.521c0.036-0.213-0.126-0.406-0.338-0.406h-6.08
			c-0.154,0-0.289,0.104-0.331,0.254l-0.412,1.523c-0.06,0.221,0.104,0.439,0.33,0.439h6.23
			C80.509,159.935,80.65,159.814,80.68,159.646"/>
		<path clip-path="url(#SVGID_24_)" fill="#99B8D6" d="M72.794,159.673l0.359-1.537c0.05-0.213-0.109-0.418-0.326-0.418h-6.083
			c-0.145,0-0.271,0.094-0.318,0.23l-0.513,1.537c-0.074,0.221,0.088,0.449,0.316,0.449h6.237
			C72.622,159.935,72.757,159.826,72.794,159.673"/>
		<path clip-path="url(#SVGID_24_)" fill="#99B8D6" d="M64.932,159.693l0.457-1.537c0.065-0.219-0.096-0.438-0.321-0.438h-6.069
			c-0.137,0-0.261,0.084-0.312,0.213l-0.612,1.537c-0.088,0.223,0.075,0.467,0.313,0.467h6.224
			C64.759,159.935,64.888,159.835,64.932,159.693"/>
		<path clip-path="url(#SVGID_24_)" fill="#99B8D6" d="M56.753,159.935h-6.208c-0.246,0-0.408-0.258-0.305-0.484l0.709-1.537
			c0.055-0.119,0.173-0.195,0.303-0.195h6.056c0.232,0,0.395,0.234,0.315,0.455l-0.555,1.537
			C57.021,159.845,56.894,159.935,56.753,159.935"/>
		<path clip-path="url(#SVGID_24_)" fill="#99B8D6" d="M154.316,163.822h6.345c0.279,0,0.464-0.293,0.347-0.551l-0.7-1.52
			c-0.063-0.137-0.198-0.223-0.347-0.223h-6.193c-0.266,0-0.451,0.268-0.359,0.52l0.548,1.52
			C154.012,163.72,154.154,163.822,154.316,163.822"/>
		<path clip-path="url(#SVGID_24_)" fill="#99B8D6" d="M152.903,163.291l-0.604-1.52c-0.059-0.146-0.2-0.242-0.356-0.242h-6.209
			c-0.256,0-0.439,0.252-0.366,0.498l0.452,1.52c0.05,0.164,0.198,0.275,0.366,0.275h6.362
			C152.82,163.822,153.004,163.544,152.903,163.291"/>
		<path clip-path="url(#SVGID_24_)" fill="#99B8D6" d="M144.798,163.31l-0.508-1.518c-0.054-0.158-0.199-0.264-0.363-0.264h-6.224
			c-0.247,0-0.43,0.232-0.373,0.477l0.356,1.52c0.042,0.174,0.195,0.297,0.372,0.297h6.375
			C144.697,163.822,144.881,163.562,144.798,163.31"/>
		<path clip-path="url(#SVGID_24_)" fill="#99B8D6" d="M136.663,163.332l-0.411-1.518c-0.047-0.168-0.198-0.285-0.37-0.285h-6.236
			c-0.236,0-0.417,0.217-0.377,0.453l0.261,1.52c0.03,0.186,0.19,0.32,0.376,0.32h6.389
			C136.547,163.822,136.73,163.58,136.663,163.332"/>
		<path clip-path="url(#SVGID_24_)" fill="#99B8D6" d="M128.537,163.324l-0.305-1.467c-0.039-0.191-0.206-0.328-0.4-0.328h-6.195
			c-0.242,0-0.433,0.213-0.406,0.459l0.158,1.465c0.022,0.211,0.198,0.369,0.406,0.369h6.341
			C128.396,163.822,128.591,163.58,128.537,163.324"/>
		<path clip-path="url(#SVGID_24_)" fill="#99B8D6" d="M89.203,161.882c0.031-0.203,0.202-0.354,0.406-0.354h6.629h1.006h6.983
			h0.954h6.983h7.635c0.203,0,0.376,0.15,0.406,0.354l0.211,1.465c0.038,0.25-0.155,0.475-0.404,0.475h-7.661h-7.212h-0.869h-7.214
			h-0.922h-6.738c-0.249,0-0.44-0.225-0.405-0.475L89.203,161.882z"/>
		<path clip-path="url(#SVGID_24_)" fill="#99B8D6" d="M88.014,163.519l0.174-1.613c0.022-0.201-0.133-0.377-0.333-0.377h-6.337
			c-0.158,0-0.295,0.111-0.328,0.27l-0.336,1.613c-0.044,0.213,0.115,0.41,0.328,0.41h6.498
			C87.852,163.822,87.995,163.691,88.014,163.519"/>
		<path clip-path="url(#SVGID_24_)" fill="#99B8D6" d="M79.874,163.541l0.276-1.615c0.036-0.207-0.122-0.396-0.33-0.396h-6.329
			c-0.151,0-0.283,0.102-0.323,0.25l-0.438,1.613c-0.059,0.217,0.103,0.43,0.324,0.43h6.49
			C79.706,163.822,79.847,163.705,79.874,163.541"/>
		<path clip-path="url(#SVGID_24_)" fill="#99B8D6" d="M71.715,163.56l0.378-1.613c0.05-0.213-0.11-0.418-0.326-0.418h-6.317
			c-0.145,0-0.273,0.094-0.318,0.23l-0.54,1.615c-0.074,0.219,0.088,0.447,0.317,0.447h6.48
			C71.543,163.822,71.678,163.714,71.715,163.56"/>
		<path clip-path="url(#SVGID_24_)" fill="#99B8D6" d="M63.578,163.58l0.48-1.613c0.065-0.219-0.096-0.438-0.321-0.438h-6.304
			c-0.137,0-0.262,0.084-0.313,0.213l-0.642,1.613c-0.088,0.225,0.073,0.467,0.312,0.467h6.468
			C63.406,163.822,63.537,163.724,63.578,163.58"/>
		<path clip-path="url(#SVGID_24_)" fill="#99B8D6" d="M55.126,163.822h-6.45c-0.246,0-0.409-0.258-0.305-0.482l0.742-1.615
			c0.057-0.119,0.177-0.195,0.305-0.195h6.291c0.231,0,0.395,0.234,0.314,0.455l-0.583,1.615
			C55.393,163.732,55.268,163.822,55.126,163.822"/>
	</g>
</g>
</svg>
