<?xml version="1.0" encoding="utf-8"?>
<!-- Generator: Adobe Illustrator 15.0.0, SVG Export Plug-In . SVG Version: 6.00 Build 0)  -->
<!DOCTYPE svg PUBLIC "-//W3C//DTD SVG 1.1//EN" "http://www.w3.org/Graphics/SVG/1.1/DTD/svg11.dtd">
<svg version="1.1" id="Capa_1" xmlns="http://www.w3.org/2000/svg" xmlns:xlink="http://www.w3.org/1999/xlink" x="0px" y="0px"
	 width="194.166px" height="218.305px" viewBox="0 0 194.166 218.305" enable-background="new 0 0 194.166 218.305"
	 xml:space="preserve">
<rect y="0.109" fill="#F79537" width="193.516" height="218.604"/>
<path fill="#C6201E" d="M157.299,81.694c-0.247,0-0.495-0.008-0.739-0.02l0.044-0.771c0.977,0.051,1.98-0.008,2.943-0.171
	l0.142,0.762C158.905,81.627,158.102,81.694,157.299,81.694z M153.469,81.171c-1.004-0.281-1.975-0.674-2.885-1.17l0.403-0.67
	c0.855,0.465,1.768,0.836,2.712,1.1L153.469,81.171z M162.691,80.632l-0.325-0.709c0.901-0.373,1.759-0.846,2.548-1.407l0.486,0.619
	C164.561,79.731,163.65,80.235,162.691,80.632z M148.061,78.23c-0.766-0.681-1.449-1.444-2.029-2.271l0.677-0.429
	c0.546,0.777,1.188,1.496,1.907,2.137L148.061,78.23z M167.678,77.085l-0.623-0.496c0.634-0.718,1.179-1.506,1.619-2.342
	l0.727,0.348C168.931,75.483,168.352,76.321,167.678,77.085z M144.607,73.305c-0.365-0.932-0.614-1.907-0.741-2.896l0.807-0.094
	c0.12,0.93,0.354,1.846,0.696,2.721L144.607,73.305z M170.471,71.792l-0.791-0.178c0.225-0.906,0.34-1.843,0.34-2.783h0.813
	C170.832,69.831,170.711,70.827,170.471,71.792z M170.018,68.669c-0.014-0.94-0.141-1.875-0.378-2.778l0.789-0.188
	c0.251,0.961,0.388,1.956,0.402,2.954L170.018,68.669z M144.654,67.513l-0.809-0.083c0.113-0.991,0.348-1.97,0.698-2.907
	l0.766,0.259C144.98,65.661,144.76,66.581,144.654,67.513z M168.597,63.271c-0.453-0.83-1.009-1.61-1.651-2.321l0.615-0.503
	c0.684,0.756,1.275,1.587,1.757,2.468L168.597,63.271z M146.613,62.269l-0.682-0.42c0.568-0.834,1.24-1.607,1.998-2.298l0.563,0.558
	C147.781,60.758,147.148,61.483,146.613,62.269z M164.777,59.052c-0.798-0.552-1.662-1.016-2.568-1.375l0.314-0.713
	c0.965,0.384,1.883,0.875,2.732,1.464L164.777,59.052z M150.839,58.415l-0.413-0.666c0.903-0.506,1.867-0.914,2.867-1.207
	l0.24,0.738C152.594,57.557,151.688,57.938,150.839,58.415z M159.376,56.903c-0.964-0.151-1.966-0.195-2.946-0.133l-0.053-0.771
	c1.04-0.066,2.105-0.019,3.131,0.142L159.376,56.903z"/>
<path fill="#C6201E" d="M134.346,45.554c-0.246,0-0.494-0.006-0.739-0.019l0.044-0.772c0.979,0.051,1.98-0.007,2.943-0.17
	l0.143,0.762C135.953,45.486,135.147,45.554,134.346,45.554z M130.518,45.031c-1.006-0.281-1.977-0.675-2.887-1.17l0.404-0.671
	c0.855,0.466,1.768,0.836,2.711,1.099L130.518,45.031z M139.738,44.491l-0.324-0.708c0.9-0.373,1.758-0.847,2.547-1.408l0.488,0.619
	C141.609,43.591,140.697,44.095,139.738,44.491z M125.107,42.091c-0.766-0.68-1.448-1.444-2.029-2.272l0.678-0.427
	c0.546,0.776,1.188,1.495,1.908,2.135L125.107,42.091z M144.727,40.945l-0.624-0.497c0.633-0.717,1.177-1.506,1.618-2.341
	l0.728,0.347C145.979,39.343,145.398,40.181,144.727,40.945z M121.654,37.165c-0.364-0.932-0.613-1.906-0.74-2.896l0.807-0.094
	c0.12,0.931,0.354,1.846,0.695,2.721L121.654,37.165z M147.52,35.651l-0.793-0.177c0.226-0.907,0.339-1.843,0.339-2.783h0.814
	C147.88,33.691,147.758,34.688,147.52,35.651z M147.064,32.528c-0.014-0.939-0.14-1.874-0.378-2.777l0.79-0.188
	c0.252,0.962,0.387,1.955,0.4,2.954L147.064,32.528z M121.701,31.372l-0.809-0.082c0.113-0.992,0.348-1.971,0.699-2.907l0.766,0.259
	C122.029,29.522,121.807,30.44,121.701,31.372z M145.645,27.132c-0.454-0.83-1.009-1.61-1.652-2.32l0.616-0.504
	c0.685,0.755,1.276,1.586,1.757,2.467L145.645,27.132z M123.662,26.129l-0.683-0.421c0.568-0.834,1.241-1.607,1.997-2.297
	l0.563,0.557C124.828,24.617,124.197,25.344,123.662,26.129z M141.825,22.911c-0.798-0.552-1.661-1.015-2.569-1.375l0.315-0.713
	c0.964,0.384,1.884,0.877,2.732,1.465L141.825,22.911z M127.887,22.274l-0.414-0.665c0.903-0.507,1.869-0.913,2.867-1.207
	l0.241,0.737C129.643,21.417,128.736,21.798,127.887,22.274z M136.424,20.763c-0.963-0.15-1.965-0.196-2.945-0.133l-0.055-0.771
	c1.043-0.067,2.107-0.02,3.131,0.14L136.424,20.763z"/>
<path fill="#C6201E" d="M59.018,47.765c-1.039-0.002-2.081-0.082-3.099-0.237l0.129-0.763c0.976,0.148,1.976,0.225,2.972,0.228
	L59.018,47.765z M62.117,47.544l-0.124-0.764c0.981-0.145,1.958-0.364,2.901-0.652l0.248,0.735
	C64.158,47.164,63.141,47.394,62.117,47.544z M52.896,46.831c-0.982-0.307-1.947-0.691-2.869-1.143l0.373-0.688
	c0.883,0.432,1.809,0.801,2.75,1.096L52.896,46.831z M68.019,45.737l-0.368-0.689c0.883-0.426,1.738-0.924,2.542-1.479l0.478,0.627
	C69.832,44.773,68.939,45.291,68.019,45.737z M47.384,44.132c-0.835-0.582-1.627-1.23-2.355-1.93l0.577-0.544
	c0.699,0.67,1.459,1.292,2.26,1.851L47.384,44.132z M73.036,42.28l-0.574-0.549c0.704-0.665,1.356-1.389,1.941-2.151l0.657,0.456
	C74.45,40.83,73.77,41.585,73.036,42.28z M43.019,39.948c-0.606-0.8-1.148-1.648-1.613-2.525l0.726-0.348
	c0.446,0.84,0.967,1.654,1.548,2.422L43.019,39.948z M76.69,37.519l-0.724-0.352c0.451-0.841,0.838-1.722,1.144-2.618l0.774,0.239
	C77.564,35.724,77.162,36.642,76.69,37.519z M40.229,34.688c-0.314-0.937-0.553-1.905-0.707-2.878l0.804-0.115
	c0.147,0.934,0.376,1.861,0.677,2.758L40.229,34.688z M78.609,31.914l-0.805-0.12c0.154-0.928,0.232-1.879,0.232-2.826h0.813
	C78.851,29.955,78.77,30.946,78.609,31.914z M40.109,28.868l-0.813-0.006c0.006-0.986,0.092-1.977,0.258-2.943l0.804,0.125
	C40.199,26.97,40.115,27.921,40.109,28.868z M77.837,26.343c-0.144-0.934-0.365-1.863-0.661-2.762l0.775-0.23
	c0.309,0.938,0.541,1.906,0.69,2.881L77.837,26.343z M41.068,23.292l-0.771-0.243c0.326-0.933,0.732-1.851,1.21-2.724l0.722,0.355
	C41.771,21.519,41.381,22.397,41.068,23.292z M76.063,20.952c-0.44-0.844-0.957-1.66-1.532-2.43l0.661-0.447
	c0.602,0.802,1.139,1.654,1.6,2.533L76.063,20.952z M43.807,18.274l-0.654-0.459c0.614-0.791,1.299-1.541,2.036-2.232l0.571,0.551
	C45.053,16.796,44.395,17.517,43.807,18.274z M72.615,16.352c-0.694-0.675-1.451-1.301-2.248-1.862l0.485-0.621
	c0.83,0.586,1.618,1.24,2.343,1.941L72.615,16.352z M48.04,14.308l-0.474-0.628c0.842-0.573,1.736-1.087,2.66-1.527l0.365,0.691
	C49.705,13.266,48.847,13.758,48.04,14.308z M67.84,12.983c-0.879-0.438-1.803-0.811-2.744-1.11l0.26-0.733
	c0.979,0.313,1.943,0.702,2.861,1.158L67.84,12.983z M53.354,11.778l-0.244-0.736c0.985-0.296,2.005-0.52,3.029-0.664l0.119,0.764
	C55.275,11.28,54.299,11.495,53.354,11.778z M62.203,11.188c-0.975-0.153-1.975-0.234-2.971-0.242l0.008-0.773
	c1.037,0.008,2.079,0.094,3.096,0.254L62.203,11.188z"/>
<path fill="#C6201E" d="M69.676,102.644c-0.569,0-1.143-0.039-1.705-0.113l0.113-0.766c0.524,0.07,1.061,0.105,1.592,0.105
	c0.002,0,0.002,0,0.003,0v0.773C69.678,102.644,69.678,102.644,69.676,102.644z M64.939,101.731
	c-0.967-0.391-1.879-0.899-2.71-1.516l0.499-0.609c0.776,0.574,1.627,1.049,2.528,1.413L64.939,101.731z M60.018,98.092
	c-0.639-0.798-1.166-1.671-1.566-2.595l0.752-0.293c0.373,0.861,0.865,1.675,1.461,2.419L60.018,98.092z M57.643,92.607
	c-0.066-0.494-0.101-0.997-0.101-1.499v-1.445h0.813v1.445c0,0.469,0.031,0.938,0.095,1.398L57.643,92.607z M58.355,86.766h-0.813
	v-2.897h0.813V86.766z M58.355,80.97h-0.813v-2.898h0.813V80.97z M58.355,75.173h-0.813v-2.897h0.813V75.173z M58.355,69.377h-0.813
	v-2.897h0.813V69.377z M58.355,63.58h-0.813v-2.898h0.813V63.58z M58.355,57.784h-0.813v-2.898h0.813V57.784z M58.355,51.987h-0.813
	V49.09h0.813V51.987z"/>
<path fill="#C6201E" d="M122.616,80.534h-2.075v-0.773h2.075c0.313,0,0.628-0.012,0.938-0.036l0.066,0.771
	C123.289,80.521,122.952,80.534,122.616,80.534z M117.492,80.534h-3.051v-0.773h3.051V80.534z M111.393,80.534H109.6v-0.773h1.793
	V80.534z M126.697,79.866l-0.273-0.729c0.922-0.313,1.801-0.74,2.609-1.27l0.462,0.637C128.627,79.072,127.686,79.53,126.697,79.866
	z M131.832,76.505l-0.617-0.504c0.642-0.709,1.182-1.495,1.607-2.334l0.732,0.336C133.098,74.902,132.52,75.743,131.832,76.505z
	 M134.539,71.162l-0.799-0.144c0.132-0.66,0.199-1.34,0.199-2.018v-0.796h0.814v0.796C134.754,69.727,134.681,70.454,134.539,71.162
	z M134.754,65.307h-0.814v-2.897h0.814V65.307z M134.754,59.511h-0.814v-2.898h0.814V59.511z M134.754,53.714h-0.814v-2.898h0.814
	V53.714z M134.754,47.918h-0.814v-2.897h0.814V47.918z"/>
<path fill="#C6201E" d="M145.57,118.554c0,0-0.001,0-0.002,0h-1.404v-0.773h1.404c0.001,0,0.002,0,0.002,0
	c0.529,0,1.061-0.035,1.58-0.105l0.113,0.767C146.706,118.515,146.138,118.554,145.57,118.554z M141.114,118.554h-3.049v-0.773
	h3.049V118.554z M135.016,118.554h-3.049v-0.773h3.049V118.554z M150.295,117.645l-0.316-0.712c0.902-0.361,1.754-0.838,2.531-1.41
	l0.498,0.611C152.175,116.747,151.264,117.256,150.295,117.645z M155.222,114.01l-0.646-0.469c0.596-0.743,1.088-1.557,1.463-2.417
	l0.752,0.293C156.391,112.341,155.861,113.214,155.222,114.01z M157.602,108.528l-0.806-0.101c0.063-0.464,0.097-0.938,0.097-1.411
	v-1.432h0.813v1.432C157.705,107.522,157.67,108.031,157.602,108.528z M157.705,102.688h-0.813v-2.898h0.813V102.688z
	 M157.705,96.891h-0.813v-2.898h0.813V96.891z M157.705,91.094h-0.813v-2.897h0.813V91.094z M157.705,85.298h-0.813v-2.898h0.813
	V85.298z"/>
<g>
	<g>
		<path fill="#F0C185" d="M136.986,97.581c-0.09,0.499-0.271,0.736-0.102,1.287c0.154,0.505,0.379,1.01,0.661,1.5
			c0.552,0.959,1.374,1.994,2.562,2.59c0.051,0.024,0.105,0.041,0.158,0.051c-0.047,0.096-0.094,0.192-0.141,0.29
			c-0.166,0.349,0.322,0.869,0.838,0.765c1.24-0.253,3.945-1.766,2.578-3.145c-0.114-0.117-0.252-0.188-0.389-0.225
			c-0.187-0.18-0.373-0.361-0.545-0.541c-0.027-0.029-0.049-0.057-0.067-0.086c-0.083-0.131-0.175-0.258-0.271-0.378
			c-0.133-0.183-0.295-0.37-0.49-0.569c-0.514-0.521-1.063-1.045-1.621-1.543c-0.107-0.096-0.23-0.191-0.357-0.289
			c-0.045-0.033-0.084-0.072-0.115-0.113c-0.023-0.032-0.055-0.064-0.097-0.098c-0.056-0.043-0.117-0.082-0.182-0.118
			c-0.046-0.026-0.091-0.056-0.128-0.089c-0.152-0.137-0.287-0.279-0.371-0.434c-0.229-0.41-0.992-0.289-0.764,0.121
			c0.018,0.029,0.036,0.056,0.055,0.082c-0.27-0.008-0.525,0.021-0.729,0.09C137.01,96.885,137.051,97.224,136.986,97.581z
			 M140.128,100.876c0.152,0.102,0.308,0.199,0.468,0.295c0.055,0.033,0.104,0.07,0.145,0.113c0.106,0.114,0.209,0.234,0.309,0.355
			c-0.176,0.25-0.332,0.51-0.477,0.775c-0.211-0.296-0.525-0.667-0.608-0.92c-0.071-0.221,0.192-0.4,0.164-0.617V100.876z"/>
		<path fill="#F0C185" d="M138.377,96.665c-0.973-1.98-2.847-3.752-4.415-5.314c-1.517-1.509-3.144-2.902-4.864-4.199
			c-1.561-1.179-1.531-2.9-2.056-4.635c-0.695-2.297-1.595-4.539-2.683-6.694c-0.281,1.307-1.375,2.38-2.792,2.753
			c-0.438,0.115-0.88,0.133-1.308,0.073c0.649,2.045,1.64,3.837,2.666,5.664c0.815,1.452,1.541,2.976,2.389,4.401
			c0.966,1.625,2.671,2.884,4.28,4.029c0.335,0.24,0.667,0.475,0.986,0.707c1.344,0.975,2.714,1.916,4.109,2.824
			c0.778,0.508,3.402,2.849,3.866,1.357C138.713,97.125,138.615,97.151,138.377,96.665z"/>
		<path fill="#F15238" d="M121.882,71.401c-0.685-3.283-3.261-6.753-3.225-9.896c0.028-2.562-0.109-5.112-2.038-6.947
			c-2.051-1.95-5.17-3.029-7.76-3.067c-2.393-0.037-4.441,0.875-6.023,2.784c-1.453,1.752-2.467,4.198-2.266,6.686
			c0.105,1.308,0.641,2.518,1.254,3.646c0.211,0.391,0.434,0.777,0.636,1.171c-0.019,0.124-0.024,0.253-0.014,0.386
			c0.147,1.951,0.587,3.861,0.959,5.78c0.325,1.68,0.386,3.503,1.115,5.072c1.205,2.595,3.67,3.854,6.165,3.949
			c1.677,0.063,3.281-0.279,4.824-0.913c1.438-0.592,2.781-1.412,4.23-1.976c0.365-0.143,0.68-0.284,0.949-0.432l-0.758-2.987
			l1.344,2.599c0.839-0.692,1-1.635,0.916-3.456C122.155,72.989,122.047,72.189,121.882,71.401z"/>
		<path fill="#F0C185" d="M101.095,108.921c-0.052-0.189-0.163-0.393-0.313-0.582c0.032-0.005,0.064-0.006,0.098-0.012
			c0.463-0.084,0.158-0.709-0.305-0.627c-0.173,0.031-0.361,0.021-0.557-0.007c-0.049-0.007-0.096-0.022-0.142-0.038
			c-0.065-0.025-0.13-0.047-0.196-0.061c-0.049-0.012-0.092-0.016-0.132-0.012c-0.05,0.002-0.103-0.004-0.153-0.015
			c-0.149-0.034-0.295-0.065-0.432-0.085c-0.71-0.104-1.434-0.186-2.143-0.242c-0.268-0.021-0.508-0.025-0.73-0.01
			c-0.152,0.002-0.305,0.014-0.459,0.031c-0.034,0.005-0.068,0.006-0.105,0.004c-0.242-0.016-0.491-0.042-0.74-0.068
			c-0.104-0.077-0.234-0.132-0.394-0.146c-1.538,1.539-1.689,2.725-1.241,3.776c0.187,0.438,0.877,0.478,1.079,0.144
			c0.056-0.092,0.111-0.184,0.166-0.277c0.036,0.034,0.078,0.063,0.127,0.084c1.124,0.502,2.419,0.473,3.509,0.29
			c0.557-0.091,1.096-0.233,1.598-0.427c0.547-0.213,0.648-0.486,1.014-0.854C100.905,109.524,101.209,109.35,101.095,108.921z
			 M96.238,109.504c-0.195,0.11-0.205,0.411-0.426,0.493c-0.254,0.093-0.729,0.09-1.086,0.115c0.144-0.266,0.276-0.535,0.391-0.814
			c0.154-0.002,0.307,0,0.458,0.008c0.058,0.004,0.116,0.017,0.173,0.037c0.162,0.059,0.327,0.111,0.493,0.16
			C96.24,109.503,96.239,109.504,96.238,109.504z"/>
		<path fill="#F0C185" d="M113.306,163.904c-0.007-1.285-0.114-2.557-0.554-3.811c-0.258-0.645-0.627-0.988-1.152-0.597
			c0.074-0.056-0.665-0.654-0.908-0.556c-0.428,0.174-0.679,1.262-0.842,1.734c-0.469,1.343-0.811,2.763-1.02,4.216
			c-0.211,0.77-0.178,1.668-0.28,2.387c-0.062,0.438-0.079,0.944,0.239,1.308c0.097,0.11,0.206,0.185,0.32,0.224
			c0.18,0.57,0.714,0.843,1.283,0.591c0.18,0.162,0.4,0.26,0.684,0.209c0.271-0.047,0.479-0.23,0.67-0.422
			c0.16,0.102,0.334,0.163,0.551,0.122c0.33-0.062,0.586-0.352,0.706-0.632c0.313-0.729,0.237-1.524,0.253-2.295
			C113.273,165.553,113.311,164.727,113.306,163.904z"/>
		<path fill="#F0C185" d="M125.264,166.125c0.009-0.176,0.008-0.349-0.004-0.52c-0.102-1.551-0.355-3.084-0.752-4.555
			c-0.134-0.49-0.311-1.604-0.725-1.83c-0.236-0.126-1.013,0.38-0.942,0.444c-0.496-0.455-0.888-0.157-1.187,0.452
			c-0.525,1.07-0.771,3.099-0.811,3.726c-0.015,0.219-0.023,0.446-0.028,0.676c-0.036,0.587,0.007,1.177,0.044,1.771
			c0.037,0.613-0.01,1.222,0.016,1.835c0.016,0.384,0.043,0.88,0.383,1.145c0.275,0.215,0.559,0.171,0.81,0.028
			c0.149,0.221,0.331,0.396,0.692,0.416c0.236,0.014,0.422-0.053,0.566-0.164c0.232-0.021,0.45-0.117,0.65-0.273
			c0.264-0.116,0.499-0.342,0.645-0.618c0.43-0.092,0.66-0.589,0.712-1.083C125.383,167.101,125.357,166.605,125.264,166.125z"/>
		<path fill="#F0C185" d="M126.23,129.575c0.025-0.389,0.068-0.771,0.123-1.152c-0.627-0.077-1.254-0.173-1.877-0.275
			c-0.926-0.148-1.848-0.324-2.775-0.469c-0.232-0.038-0.465-0.076-0.699-0.109c-0.035-0.006-0.107-0.019-0.182-0.027
			c-0.077-0.008-0.152-0.019-0.188-0.022c-0.214-0.022-0.427-0.045-0.64-0.066c-0.154-0.015-0.309-0.026-0.462-0.042
			c0.095,4.045,0.218,8.088,0.39,12.124c0.146,3.438,0.328,6.862,0.344,10.313c0.004,1.216,0.183,2.414,0.393,3.607
			c0.21,1.989,0.469,3.97,0.649,5.967c-0.006,0.133,0.005,0.253,0.032,0.363c0.039,0.467,0.076,0.934,0.105,1.401
			c0.039,0.612,0.685,0.998,1.246,0.973c0.646-0.027,1.077-0.52,1.197-1.12c0.043-0.215,0.085-0.431,0.126-0.646
			c0.2-0.178,0.35-0.432,0.398-0.761c0.729-4.993,1.843-9.944,2.316-14.964c0.245-2.594,0.293-5.191,0.112-7.777
			C126.67,134.466,126.063,132.018,126.23,129.575z"/>
		<path fill="#F0C185" d="M114.796,127.033c-1.901-0.168-3.901-0.355-5.829-0.769c0.219,1.094,0.375,2.197,0.4,3.319
			c0.055,2.446-0.662,4.894-0.943,7.319c-0.3,2.588-0.371,5.188-0.246,7.789c0.244,5.027,1.129,9.991,1.631,14.995
			c0.032,0.332,0.17,0.586,0.361,0.766c0.033,0.217,0.064,0.433,0.097,0.648c0.093,0.6,0.501,1.1,1.144,1.131
			c0.561,0.029,1.223-0.349,1.29-0.965c0.05-0.468,0.108-0.933,0.169-1.399c0.032-0.111,0.05-0.232,0.049-0.363
			c0.272-1.998,0.621-3.978,0.922-5.968c0.266-1.192,0.498-2.39,0.559-3.61c0.172-3.452,0.51-6.879,0.814-10.319
			c0.365-4.15,0.678-8.306,0.965-12.462C115.717,127.11,115.256,127.075,114.796,127.033z"/>
		<path fill="#F0C185" d="M109.85,72.911c1.26,0.697,3.625,0.578,4.276-0.959c0.462-0.08,0.827-0.635,0.495-1.309
			c-0.035-0.066-0.066-0.135-0.099-0.202c-0.032-0.116-0.087-0.235-0.164-0.35c-0.181-0.412-0.338-0.835-0.495-1.259
			c-0.063-0.17-0.127-0.341-0.192-0.511c-0.03-0.114-0.059-0.229-0.083-0.343c-0.057-0.259-0.166-0.445-0.299-0.57
			c-0.018-0.033-0.033-0.068-0.049-0.102c-0.042-0.088-0.086-0.174-0.131-0.26c-0.484-0.912-1.439-0.507-1.438,0.32
			c-0.152,0.132-0.263,0.342-0.278,0.639c-0.003,0.05-0.005,0.102-0.004,0.15c-0.001,0.222,0.024,0.447,0.069,0.672
			c-0.002,0.002-0.005,0.002-0.006,0.004c-0.008,0.004-0.014,0.009-0.021,0.016c-0.309-0.123-0.655-0.031-0.83,0.279
			c-0.121-0.021-0.24-0.01-0.35,0.033c-0.035-0.043-0.069-0.079-0.107-0.111c-0.045-0.098-0.098-0.18-0.155-0.248
			c-0.472-0.563-1.26-0.146-1.268,0.584c-0.005,0.154,0.028,0.322,0.106,0.499c0.089,0.2,0.163,0.405,0.227,0.615
			c0.027,0.171,0.055,0.343,0.082,0.515v0.002c0.049,0.309,0.098,0.616,0.163,0.924C109.313,72.313,109.482,72.706,109.85,72.911z"
			/>
		<path fill="#E2A971" d="M108.828,69.885c0.089,0.2,0.163,0.405,0.227,0.615c0.027,0.171,0.055,0.343,0.082,0.515v0.002
			c0,0,2.43,2.689,5.222-0.925c-0.064-0.17-0.622-1.6-0.688-1.77c-0.03-0.114-0.059-0.229-0.083-0.343
			c-0.057-0.259-0.166-0.445-0.299-0.57c-0.018-0.033-0.033-0.068-0.049-0.102l-1.851,0.85l-1.4,0.645l-1.268,0.584
			C108.717,69.54,108.75,69.708,108.828,69.885z"/>
		<path fill="#F0C185" d="M102.689,58.353c0.191-0.273,0.456-0.529,0.812-0.761c0.685-0.448,1.929-0.351,2.686-0.634
			c1.294-0.482,3.071-1.36,4.374-0.535c1.211,0.767,1.291,2.276,1.727,3.535c0.092,0.263,0.198,0.52,0.314,0.771
			c0.01-0.015,0.021-0.03,0.031-0.043c0.245-0.311,0.572-0.521,0.979-0.59c0.306-0.049,0.72,0.084,0.842,0.385
			c0.403,0.99,0.042,2.018-0.622,2.829c-0.007,0.007-0.012,0.013-0.018,0.021c0.146,0.424,0.252,0.863,0.285,1.332
			c0.111,1.627-0.738,2.951-1.644,4.262c-0.835,1.209-2.021,1.617-3.521,1.481c-1.52-0.14-2.42-1.03-3.24-2.176
			c-0.889-1.244-1.726-2.474-2.081-3.955C103.179,62.46,101.503,60.056,102.689,58.353z"/>
		<path fill="#F0C185" d="M102.329,95.798c0.303-0.797,0.207-3.749,0.038-4.467c1.295-0.053,2.643,1.953,3.637,1.129
			c0.063-0.055,0.122-0.109,0.18-0.165c0.094,0.983,0.189,1.97,0.229,2.945c0.076,1.862-0.68,3.784-1.414,5.563
			c-0.154,0.372-0.307,0.736-0.451,1.094c-0.605,1.501-1.251,2.986-1.936,4.455c-0.383,0.821-1.322,4.121-2.541,3.084
			c-0.413-0.352-0.314-0.379-0.381-0.911c-0.266-2.17,0.349-4.614,0.821-6.727C100.967,99.759,101.582,97.759,102.329,95.798z"/>
		<path fill="#F0C185" d="M105.297,78.247c-0.249-1.208-0.618-2.388-1.193-3.535c0.455-0.295,0.963-0.536,1.479-0.758
			c0.247-0.104,0.494-0.205,0.74-0.305c0.539-0.219,1.068-0.433,1.543-0.68c0.729-0.38,1.342-0.691,2.194-0.496
			c0.479,0.107,0.958,0.28,1.447,0.228c0.88-0.096,1.18-0.759,1.757-1.26c0.237-0.208,0.487-0.337,0.765-0.431
			c0.613-0.203,1.503,0.178,2.124,0.262c0.8,0.107,1.604,0.185,2.407,0.254c0.015,0.002,0.028,0.002,0.043,0.004
			c0.308,0.027,0.616,0.053,0.923,0.08c0.301,0.025,0.601,0.051,0.899,0.078c0.13,0.011,0.252,0.028,0.364,0.051
			c0.561,0.11,0.932,0.371,1.186,0.941c0.112,0.25,0.181,0.508,0.224,0.771c-0.067,0.067-0.128,0.146-0.174,0.233
			c-0.347,0.679-0.454,1.353-0.471,2.046c0.044,0.11,0.068,0.234,0.065,0.371c-0.004,0.607-0.025,1.222,0.047,1.824
			c0.05,0.413-0.078,0.787-0.396,1.017c-0.108,0.078-0.239,0.139-0.394,0.18c-0.408,0.109-0.822,0.184-1.236,0.242
			c-0.592,0.082-1.187,0.131-1.787,0.182c-0.146,0.014-0.294,0.027-0.438,0.044c-0.267,0.029-0.53,0.065-0.793,0.104
			c-0.007,0.118-0.052,0.242-0.149,0.366c-1.551,1.979-4.283,2.812-6.578,1.438c-0.144-0.087-0.238-0.191-0.295-0.306
			c-0.27,0.046-0.541,0.089-0.813,0.126c-0.227,0.321-0.625,0.517-1.131,0.353c-0.821-0.268-1.593-0.93-2.031-1.719
			c-0.255-0.455-0.397-0.952-0.375-1.439C105.254,78.416,105.27,78.327,105.297,78.247z"/>
		<path fill="#1963AA" d="M129.569,117.001c0.191-1.831,0.603-17.52-1.794-15.971c-0.036-0.073-0.071-0.148-0.109-0.222
			c-0.287-0.562-0.593-1.11-0.875-1.674c-0.032-0.062-0.062-0.122-0.092-0.185c-0.165-0.338-0.658-1.984-0.969-2.113
			c-0.316-0.131-0.658-0.216-1.031-0.242c-0.094-0.02-0.188-0.022-0.279-0.014c-0.865-0.019-1.775,0.146-2.634,0.254
			c-2.456,0.301-4.954,0.059-7.417,0.32c-0.579,0.063-1.152,0.115-1.686,0.282c-0.455-0.664-1.756-0.74-2.049,0.254
			c-0.027,0.092-0.059,0.18-0.092,0.269c-0.754,2-1.232,3.544-1.859,5.556c-0.893,2.866-0.797,6.419-0.83,9.386
			c-0.049,4.203-0.388,8.244,0.424,12.369c0.355,1.813,0.613,3.711,0.352,5.551c-0.275,1.953-1.458,3.255-2.022,5.072
			c-1.289,4.162,18.255,5.141,20.409,2.188c0.547-0.747,0.635-1.733,0.623-2.62c-0.037-2.965-0.361-6.248,0.106-9.322
			c0.468-3.07,1.497-6.035,1.823-9.135C129.569,117.005,129.569,117.003,129.569,117.001z"/>
		<path fill="#FFFFFF" d="M125.592,94.507c-1.101-1.752-2.527-3.606-2.813-5.51c-0.109-0.736-0.064-1.459,0.031-2.18
			c0.047-0.341,0.102-0.684,0.158-1.027c0.145,0.205,0.294,0.408,0.441,0.611c0.887,1.21,1.705,2.559,2.359,3.91
			c0.1,0.208,1.541-0.219,2.422-0.566c0.262-0.102,0.559-0.219,0.844-0.386c0.795-0.468,1.043-1.461,0.596-2.24
			c-0.521-0.909-1.119-1.802-1.553-2.731c-0.975-2.104-1.563-4.273-2.271-6.462c-0.662-2.042-1.504-4.339-3.218-5.818
			c-1.909-1.649-4.466-1.069-6.796-1.327c-0.027-0.003-0.051-0.001-0.076-0.002c-0.121-0.351-0.219-0.715-0.404-1.037
			c-0.156-0.273-0.438-0.461-0.748-0.529c-1.824,1.241-3.99,2.148-6.124,1.531c-0.265,0.248-0.377,0.612-0.325,1.004
			c0.047,0.354,0.047,0.717,0.058,1.078c-1.327,0.179-2.698,0.706-3.765,1.347c-1.526,0.916-2.027,2.431-2.309,4.049
			c-0.275,1.592-0.266,3.202-0.358,4.807c-0.131,2.235,0.391,4.482,0.116,6.705c-0.127,1.031-0.18,2.042,0.582,2.874
			c0.67,0.729,1.603,1.217,2.41,1.787c0.638,0.453,1.396-0.013,1.664-0.584c0.442-0.938,0.668-1.939,0.799-2.963
			c0.059-0.459,0.1-0.924,0.134-1.39c0.213,0.216,0.417,0.435,0.603,0.667c0.29,0.373,0.529,0.787,0.656,1.293
			c0.373,1.487,0.043,3.056-0.033,4.561c-0.118,2.361-0.532,5.313,0.055,7.638c0.048,0.19,0.109,0.345,0.188,0.438
			c0.061,0.071,0.124,0.14,0.19,0.206c1.012,0.992,2.537,1.004,3.893,1.042c4.188,0.116,8.826,0.25,12.565-1.851
			c1.323-0.743,2.693-1.766,2.726-3.357c0.026-1.363-1.43-3.301-2.061-4.498C126.039,95.237,125.823,94.874,125.592,94.507z"/>
		<path fill="#194B8E" d="M120.578,170.005c-0.719-1.447-0.43-3.523,0.15-4.861c0.38,0.945,0.446,2.173,1.67,2.516
			c1.021,0.286,2.057-0.214,2.501-1.122c0.201-0.408,0.278-0.86,0.278-1.309c0.001-0.393-0.025-0.785-0.062-1.169
			c0.628,0.96,0.706,2.176,0.667,3.274c-0.033,1.018-0.063,2.259-0.555,3.183c-0.752,1.412-2.609,1.426-3.824,0.502
			C121.045,170.746,120.773,170.396,120.578,170.005z"/>
		<path fill="#194B8E" d="M113.443,170.005c0.72-1.447,0.431-3.523-0.15-4.861c-0.38,0.945-0.445,2.173-1.67,2.516
			c-1.021,0.286-2.057-0.214-2.5-1.122c-0.202-0.408-0.278-0.86-0.278-1.309c-0.001-0.393,0.024-0.785,0.062-1.169
			c-0.627,0.96-0.705,2.176-0.668,3.274c0.035,1.018,0.063,2.259,0.555,3.183c0.753,1.412,2.609,1.426,3.824,0.502
			C112.977,170.746,113.248,170.396,113.443,170.005z"/>
		<path fill="#E5E5E5" d="M108.892,89.525c-0.418,0.11-0.682,0.338-0.843,0.599c-0.186-0.232-0.39-0.451-0.603-0.667
			c-0.034,0.466-0.075,0.931-0.134,1.39c-1.029-1.475-3.154-4.98-1.77-7.082C104.784,88.063,108.892,89.525,108.892,89.525z"/>
		<path fill="#E5E5E5" d="M120.899,87.521c0,0,1.081-0.851,2.069-1.731c-0.057,0.344-0.111,0.687-0.158,1.027
			C121.95,87.298,120.899,87.521,120.899,87.521z"/>
		<path fill="#E5E5E5" d="M123.852,85.79c-0.08,0.228-0.238,0.432-0.441,0.611c-0.147-0.203-0.297-0.406-0.441-0.611
			c0.967-0.861-1.111-4.977-1.196-5.146C121.865,80.789,124.273,84.621,123.852,85.79z"/>
	</g>
	<polygon fill="#231F20" points="118.203,127.919 127.825,127.919 129.828,118.957 120.395,118.957 	"/>
	<polygon fill="#2D2D2D" points="114.155,127.919 126.089,127.919 126.663,126.688 114.84,126.716 	"/>
	<polygon fill="#231F20" points="126.663,126.688 129.255,126.688 129.255,127.84 126.089,127.84 	"/>
	<polygon fill="#2D2D2D" points="105.792,121.905 142.55,124.903 142.55,94.337 105.792,97.335 	"/>
	<polygon fill="#FFFFFF" points="140.201,122.479 140.201,96.739 107.47,99.048 107.47,120.022 	"/>
	<polygon fill="#231F20" points="142.55,94.337 144.172,97.123 144.172,123.23 142.55,124.903 	"/>
	<polygon fill="#231F20" points="73.699,95.48 69.329,95.077 66.488,90.977 66.744,90.816 69.504,94.802 73.729,95.191 	"/>
	<ellipse fill="#231F20" cx="73.353" cy="95.429" rx="1.128" ry="1.073"/>
	<g>
		<path fill="#FFFFFF" d="M83.959,142.806l7.004,33.016L83.959,142.806z"/>
		<path fill="#231F20" d="M90.963,176.208c-0.191,0-0.359-0.126-0.399-0.31l-7.003-33.015c-0.045-0.21,0.098-0.412,0.318-0.456
			c0.219-0.042,0.434,0.094,0.479,0.302l7.004,33.016c0.044,0.208-0.099,0.414-0.318,0.454
			C91.016,176.207,90.988,176.208,90.963,176.208z"/>
	</g>
	<g>
		<path fill="#FFFFFF" d="M59.994,142.806l-7.004,33.016L59.994,142.806z"/>
		<path fill="#231F20" d="M52.991,176.208c-0.026,0-0.054-0.001-0.081-0.009c-0.22-0.04-0.363-0.246-0.318-0.454l7.004-33.016
			c0.045-0.208,0.26-0.344,0.479-0.302c0.22,0.044,0.363,0.246,0.318,0.456l-7.004,33.015
			C53.35,176.082,53.181,176.208,52.991,176.208z"/>
	</g>
	<polygon fill="#66240F" points="82.344,141.052 60.518,141.052 54.914,145.214 82.344,145.214 	"/>
	<path fill="#843817" d="M63.051,149.532h19.293v-4.318h-27.43l0,0C56.656,147.897,59.734,149.532,63.051,149.532z"/>
	<path fill="#843817" d="M54.914,145.214l-3.116-32.074c-0.347-1.875,0.854-3.695,2.782-4.217l8.32-3.012
		c2.521-0.684,5.021,1.139,4.983,3.629l-0.468,30.289L54.914,145.214z"/>
	<g>
		<path fill="#66240F" d="M102.037,168.587l9.559,1.868c0.787,0.154,1.359,0.806,1.375,1.569l0,0
			c0.021,0.903-0.734,1.652-1.686,1.67l-13.506,0.269c-1.073,0.021-1.906-0.887-1.736-1.895l0.348-2.066
			c0.132-0.781,0.832-1.36,1.664-1.378l3.6-0.068C101.783,168.551,101.912,168.563,102.037,168.587z"/>
		<path fill="#843817" d="M96.477,172.604l9.25,2.076c0.895,0.2,1.248,1.147,0.861,2.204l0,0c-0.424,1.15-1.564,1.984-2.539,1.951
			l-10.278-0.368c-0.608-0.022-1.173-0.817-1.202-1.721l-0.067-2.087c-0.028-0.883,0.353-1.62,0.924-1.696l2.733-0.372
			C96.266,172.577,96.371,172.581,96.477,172.604z"/>
		<path fill="#F0C185" d="M108.09,128.241c0.059-0.792,0.145-2.045-0.969-2.471c-0.049-0.029-0.102-0.059-0.161-0.086
			c-0.007-0.002-0.013-0.005-0.021-0.007c-0.52-0.413-1.196-0.642-1.968-0.723c-0.763-0.194-1.578-0.282-2.525-0.187
			c-1.495,0.153-3.263,0.434-4.466,1.105c-0.849,0.473-0.572,1.133,0.096,1.443c-0.021,0.085-0.001,0.178,0.075,0.271
			c0.218,0.271,0.149,0.584,0.466,0.839c0.259,0.206,0.606,0.335,0.99,0.425c0.989,0.228,2.023,0.178,3.061,0.021
			c0.151-0.021,0.268-0.067,0.357-0.125c1.008,0.1,1.902-0.178,2.733-0.584c0.231,0.138,0.612,0.172,0.895,0.053
			C106.621,128.823,108.044,128.849,108.09,128.241z M105.174,127.294c-0.294,0.006-0.588,0.011-0.879,0.002
			c-0.237-0.009-0.449-0.034-0.678-0.063c-0.08-0.009-0.115-0.003-0.129,0c0.01-0.005,0.025-0.021,0.035-0.058
			c0.031-0.116,0.006-0.21-0.059-0.283c0.018-0.003,0.037-0.006,0.055-0.01c0.139-0.023,0.678-0.076,0.559-0.074
			c0.02-0.002,0.039,0,0.06-0.002c0.245,0.083,0.481,0.185,0.717,0.293C104.949,127.181,105.057,127.243,105.174,127.294z"/>
		<polygon fill="#C2E8E8" points="97.792,124.688 99.432,124.942 98.762,128.693 96.781,128.261 		"/>
		<path fill="#231F20" d="M85.794,146.323c-0.585-2.616-16.524-3.939-16.935-6.005c-0.127-0.647,0.084-1.306,0.69-1.618
			c-0.276-2.061-0.432-4.129-0.364-6.232c0.049-1.555,2.6-1.627,2.551-0.062c-0.016,0.472-0.018,0.94-0.011,1.405
			c0.001-0.007,0.003-0.016,0.005-0.022c0.171-0.866,0.262-1.72,0.203-2.603c-0.022-0.311,0.063-0.564,0.215-0.753
			c0.02-0.712,0.607-1.408,1.532-1.151c0.646,0.181,1.276,0.389,1.894,0.625c0.395-0.848,2-1.033,2.436,0.117
			c0.016,0.037,0.028,0.076,0.04,0.113c0.431,1.201,0.48,2.496,0.568,3.752c4.745,3.634,13.832,3.371,14.149,5.975
			C93.83,148.563,88.388,145.937,85.794,146.323z"/>
		<path fill="#231F20" d="M86.747,145.65c2.264-1.643,4.394-3.554,6.021-5.786c2.821,7.22,10.481,27.559,10.223,28.234
			c-0.357,0.936-1.09,1.754-1.766,2.502c-1.4,1.548-3.13,1.307-5.068,2.164c-0.654,0.29-8.02-20.219-10.362-26.441
			C86.114,146.101,86.434,145.878,86.747,145.65z"/>
		<path fill="#F0C185" d="M67.961,100.53c0.046,0.863,0.338,1.585,1.088,1.953c0.85,0.416,1.924,0.792,2.891,0.818
			c1.555,0.048,4.109-0.365,4.052-2.09c-0.007-0.207-0.027-0.97-0.063-1.895c-0.029-0.769-0.069-1.648-0.12-2.414
			c-0.071-1.04-0.163-1.867-0.281-1.913c-0.592-0.235-1.398-0.104-1.814,0.345c-0.124,0.019-0.244,0.051-0.359,0.094
			c-0.223,0.086-0.422,0.225-0.576,0.416l-0.027,0.002c-0.165-0.063-0.344-0.094-0.525-0.102c-0.335-0.286-0.809-0.402-1.25-0.334
			c-0.433-0.178-0.96-0.186-1.367,0.012c0.089-0.043-0.027-0.354-0.191-0.484c-0.14,0.719-0.297,1.438-0.471,2.151
			C68.666,98.248,68.342,99.4,67.961,100.53z"/>
		<path fill="#E2A971" d="M68.945,97.09c2.521,3.944,5.711,2.881,6.983,2.228c-0.029-0.769-0.069-1.648-0.12-2.414
			c-0.262-0.17-1.254-0.806-2.455-1.475c-0.223,0.086-0.422,0.225-0.576,0.416l-0.027,0.002c-0.165-0.063-0.344-0.094-0.525-0.102
			c-0.335-0.286-0.809-0.402-1.25-0.334c-0.433-0.178-0.96-0.186-1.367,0.012c0.089-0.043-0.027-0.354-0.191-0.484
			C69.276,95.657,69.119,96.376,68.945,97.09z"/>
		<path fill="#2D2D2D" d="M76.933,151.549c0.407-0.146,0.814-0.296,1.218-0.45c2.588-0.994,5.101-2.199,7.482-3.601
			c4.799,9.646,10.346,20.613,13.238,25.455c0.33,0.554-4.909,3.795-7.023,3.924c-1.059,0.066-1.596-1.157-2.016-2.022
			C89.157,173.471,82.906,162.073,76.933,151.549z"/>
		<path fill="#2D2D2D" d="M74.043,137.135c-0.102,1.289,2.954,3.118,1.886,3.739c0.007,0.717,9.731,4.687,9.704,6.624
			c-0.785,4.051-7.802,3.825-8.7,4.051c-16.713-4.427-15.673-8.95-15.87-10.074c-0.4-2.301,0.373-4.667,0.789-6.967
			c0.176-0.97,0.422-2.235,1.121-2.966c-0.001-0.051-0.001-0.102-0.004-0.15c-0.007-0.151-0.015-0.301-0.025-0.449
			c-0.022-0.33,0.07-0.599,0.229-0.8c0.021-0.753,0.646-1.489,1.622-1.218c2.447,0.682,4.712,1.735,6.703,3.225
			c0.214-1.414,2.648-1.397,2.685,0.174c0.028,1.198-0.033,2.418-0.242,3.601C73.936,136.88,74.119,136.184,74.043,137.135z"/>
		<path fill="#231F20" d="M61.028,138.851c0,0,13.16,3.041,17.722-0.624c2.221-1.784-8.74-5.712-8.74-5.712l-8.158,1.993
			L61.028,138.851z"/>
		<path fill="#C2E8E8" d="M76.748,100.233c-0.127,0.042-0.252,0.094-0.377,0.158c-0.245,0.13-0.355,0.324-0.369,0.523
			c-0.433,0.598-1.359,1.282-3.34,1.385c-3.613,0.184-4.701-1.77-4.701-1.77l-0.084,0.051c-0.158-0.088-0.357-0.115-0.585-0.045
			c-1.603,0.504-3.403,0.688-5.005,1.312c-0.026,0.011-0.053,0.022-0.078,0.033c-0.416,0.112-0.828,0.247-1.238,0.391
			c-0.893,0.315,2.363,12.826,2.326,13.474c-0.111,1.877-0.311,3.752-0.476,5.625c-0.187,2.121-0.282,4.255-0.526,6.366
			c-0.054,0.46-0.104,0.921-0.114,1.382c-0.214,0.853-0.236,3.074,0.04,3.949c0.243,0.765,0.671,0.191,1.239,0.758
			c0.526,0.527,6.378,1.184,8.948,1.346c2.539,0.16,5.229,0.52,6.996-1.281c1.019-1.037,1.777-1.17,2.109-2.551
			c0.404-1.688-0.851-12.476-0.855-13.297c-0.01-1.592-0.131-3.33,0.104-4.96C80.75,109.027,83.215,100.078,76.748,100.233z"/>
		<path fill="#2D2D2D" d="M65.801,100.925c0,0,6.945,14.035,6.977,15.207c0.027,1.025,1.418,15.729,1.764,19.375
			c0.041,0.434-0.326,3.251-0.785,3.232c-2.594-0.086-11.004,0.057-12.663-1.275c0.442-6.773,0.905-22.24,0.905-22.24
			s-4.552-12.408-2.828-12.908C63.953,100.926,65.801,100.925,65.801,100.925z"/>
		<path fill="#231F20" d="M72.267,114.27l-4.975-13.733l-3.339,0.39c-0.254,0.062-0.384,0.331-0.266,0.554l9.363,17.664
			l-0.285-2.761C72.759,115.652,72.588,114.933,72.267,114.27z"/>
		<path fill="#2D2D2D" d="M76.748,100.233c0,0,4.51,0.371,6.332,2.877c1.824,2.506,4.588,18.359,4.588,18.359l10.684,2.354
			l-0.697,5.85c0,0-13.707-1.893-14.769-3.082c-1.062-1.188-1.981-7.91-1.981-7.91l1.054,17.583c0,0-5.03,3.181-5.675,1.974
			c-0.645-1.209-1.254-22.232-1.254-22.232L76.748,100.233z"/>
		<path fill="#231F20" d="M75.095,118.441l-0.081-3.019l1.734-15.189c0,0,2.136,0.008,3.523,0.585
			C78.865,105.972,75.095,118.441,75.095,118.441z"/>
		<polygon fill="#6EC0C3" points="73.633,102.275 68.386,99.183 67.292,100.536 72.074,104.541 		"/>
		<polygon fill="#6EC0C3" points="73.633,102.275 74.944,104.22 76.748,100.233 76.174,99.312 		"/>
		<g>
			<g>
				<path fill="#843817" d="M65.708,79.962c1.251-1.051,3.02-1.777,4.428-0.563c0.672,0.579-0.299,1.548-0.969,0.969
					c-0.562-0.482-1.3-0.313-1.93,0.106c0.312,0.1,0.559,0.379,0.456,0.771c-0.254,0.962-0.771,1.836-0.91,2.83
					c-0.059,0.414-0.413,0.549-0.747,0.48c0.143,0.653,0.341,1.297,0.494,1.887c0.354,1.354,0.735,2.824,1.499,4.028
					c0.266,0.417,0.548,0.826,0.811,1.246c0.174,0.276,0.484,0.67,0.451,1.013c-0.079,0.814-1.382,0.885-1.408,0.128
					c0.002,0.005,0.004-0.005-0.001-0.024c0-0.023,0.001-0.045,0.003-0.068c-0.003,0.03-0.004,0.051-0.004,0.066
					c-0.002-0.014-0.008-0.03-0.02-0.049c-0.055-0.104-0.119-0.205-0.182-0.305c-0.17-0.273-0.35-0.541-0.525-0.811
					c-0.305-0.463-0.593-0.916-0.814-1.422c-0.85-1.926-1.373-4.002-1.752-6.055C64.314,82.702,64.443,81.028,65.708,79.962z"/>
				<path fill="#843817" d="M67.883,92.857c0-0.003-0.001-0.007-0.002-0.017C67.881,92.847,67.883,92.852,67.883,92.857z"/>
			</g>
			<polygon fill="#843817" points="67.881,92.841 67.881,92.831 67.882,92.833 			"/>
		</g>
		<path fill="#F0C185" d="M67.686,91.715c-0.227-0.615-0.695-0.479-1.069-0.819c-0.722-0.654-1.264-1.993-0.858-2.896
			c0.325-0.724,1.018-1.265,1.883-1.122c0.045,0.007,0.088,0.017,0.132,0.028c-0.054-0.377-0.14-0.752-0.282-1.134
			c-0.014-0.435-0.018-0.864-0.019-1.29c0.092-0.189,0.184-0.381,0.293-0.561c0.593-0.985,2.179-1.399,3.314-1.49
			c2.841-0.227,5.88,1.135,8.53-0.348c0.047,0.129,0.089,0.261,0.125,0.395c0.368,2.299-0.23,4.781-0.476,7.041
			c-0.064,0.595-0.101,1.189-0.144,1.781c-0.083,0.565-0.15,1.131-0.172,1.701c0,0.003,0,0.004,0,0.008
			c-0.156,1.075-0.443,2.113-1.07,3.08c-0.111,0.445-0.279,0.873-0.495,1.22c-0.646,1.042-1.956,1.147-3.1,1.173
			c-1.099,0.023-2.261,0.014-3.106-0.752c-0.807-0.73-1.555-1.713-2.188-2.583C68.229,94.107,68.119,92.903,67.686,91.715z"/>
		<polygon fill="#231F20" points="76.933,141.646 74.084,145.214 67.416,139.829 75.929,140.874 		"/>
		<path fill="#843817" d="M66.855,84.112c0.133-0.315,0.424-0.586,0.743-0.679c0.639-0.183,1.161,0.183,1.403,0.714
			c0.696,1.52-0.059,2.693-0.678,3.964c-0.373,0.764,0,1.096,0.141,1.793c0.049,0.239-0.193,1.495-0.794,0.804
			c-0.382-0.441-0.759-0.965-0.927-1.465c-0.408-1.209-1.957-5.334-1.957-5.334L66.855,84.112z"/>
		<polygon fill="#6EC0C3" points="73.633,102.275 75.19,135.311 74.541,135.507 73.051,102.664 		"/>
		<path fill="#F0C185" d="M75.511,142.352c0.013-0.703,0.403-1.419,1.132-1.503c1.584-0.186,3.466,0.139,5.006,0.484
			c0.541,0.122,1.425,0.014,1.836,0.198c1.208,0.274,1.924,1.017,2.743,1.674c0.968,0.773,0.956,1.63,1.437,2.532
			c0.084,0.115,0.157,0.233,0.217,0.357c0.152,0.317-0.347,0.57-0.756,0.532c0.01,0.002-0.17,0.219-0.191,0.233
			c-0.182,0.124-0.156,0.094-0.427,0.115c-0.438,0.037-1.013-0.103-1.405-0.217c0.768,0.221-0.328,1.146-0.941,0.533
			c-1.068-1.068-2.67-0.842-4.045-1.321c-1.168-0.408-3.842-1.661-4.426-2.796C75.564,142.932,75.506,142.643,75.511,142.352z"/>
		<polygon fill="#C2E8E8" points="76.851,139.754 78.203,140.673 75.852,143.751 74.277,142.532 		"/>
		<path fill="#2D2D2D" d="M58.766,102.571c0,0-3.117,4.823,0.014,24.912c0.362,2.32,15.342,16.406,15.342,16.406l4.094-5.15
			l-12.596-13.117l-2.643-12.715L58.766,102.571z"/>
		<polygon fill="#231F20" points="62.977,112.907 66.662,125.622 74.121,134.51 65.619,126.257 		"/>
		<path fill="#843817" d="M82.949,79.37c-1.039-0.055-2.059-0.217-3.066-0.43c-1.243-1.844-3.199-3.228-5.574-3.354
			c-1.58-0.084-3.293,0.345-4.224,1.438c-0.849,0.003-1.685,0.1-2.47,0.336c-3.363,1.017-5.043,4.661-4.637,7.819
			c0.248,1.937,1.234,3.624,2.916,4.759c0.787,0.532,1.692-0.484,1.266-1.202c-0.316-0.531-0.699-1.206-1.035-1.941
			c0.389-0.013,0.777-0.228,0.893-0.627c0.021-0.075,0.043-0.15,0.064-0.225c0.417-0.041,0.779-0.318,0.726-0.835
			c-0.014-0.129-0.021-0.255-0.02-0.384c0.003-0.184,0.003-0.101,0.021-0.192c0.006-0.027,0.039-0.13,0.055-0.181
			c-0.004,0.038,0.143-0.202,0.091-0.153c0.243-0.281,0.499-0.387,0.837-0.49c1.171-0.359,2.425-0.348,3.673-0.343
			c2.808,0.015,5.911,0.454,8.637-0.368c1.3-0.393,2.427-1.197,2.74-2.515C83.979,79.903,83.566,79.403,82.949,79.37z M81.17,81.094
			c0.006-0.048,0.009-0.097,0.008-0.147c0.067,0.012,0.134,0.021,0.201,0.03C81.309,81.021,81.238,81.06,81.17,81.094z"/>
	</g>
	<rect x="79.227" y="127.84" fill="#843817" width="73.49" height="5.269"/>
	<rect x="83.014" y="132.769" fill="#66240F" width="65.916" height="3.434"/>
	<polygon fill="#843817" points="148.62,176.064 152.011,176.064 144.247,136.202 138.27,136.202 	"/>
	<polygon fill="#843817" points="83.297,176.064 79.906,176.064 87.67,136.202 93.648,136.202 	"/>
	<g>
		<polygon fill="#6EC0C3" points="93.442,61.446 88.516,57.995 93.658,56.212 		"/>
		<path fill="#6EC0C3" d="M96.547,51.29c0.566,3.963-2.355,7.612-6.527,8.15c-4.17,0.535-8.009-2.241-8.574-6.205
			c-0.566-3.963,2.357-7.611,6.527-8.15C92.143,44.55,95.98,47.327,96.547,51.29z"/>
		<g>
			<path fill="#FFFFFF" d="M88.057,53.561l-0.066-0.475c-0.053-0.361-0.018-0.675,0.102-0.944c0.119-0.268,0.359-0.545,0.721-0.832
				c0.287-0.229,0.489-0.426,0.604-0.596c0.116-0.168,0.16-0.351,0.132-0.545c-0.021-0.154-0.112-0.268-0.271-0.34
				c-0.162-0.07-0.359-0.092-0.596-0.061c-0.585,0.074-1.24,0.361-1.967,0.854l-1.021-1.397c0.891-0.646,1.859-1.038,2.909-1.174
				c0.864-0.111,1.567-0.018,2.111,0.279c0.544,0.298,0.859,0.758,0.948,1.379c0.063,0.445,0.009,0.846-0.164,1.199
				c-0.172,0.355-0.478,0.708-0.916,1.061c-0.371,0.303-0.6,0.52-0.686,0.648s-0.118,0.272-0.096,0.432l0.04,0.28L88.057,53.561z
				 M88.084,55.525c-0.049-0.338,0.018-0.612,0.199-0.825c0.18-0.209,0.473-0.341,0.875-0.394c0.387-0.049,0.697,0.005,0.932,0.164
				s0.375,0.407,0.422,0.741c0.048,0.335-0.021,0.609-0.211,0.82c-0.188,0.213-0.469,0.342-0.841,0.39
				c-0.384,0.05-0.697-0.003-0.94-0.157C88.277,56.11,88.131,55.864,88.084,55.525z"/>
		</g>
	</g>
	<g>
		<polygon fill="#D22940" points="110.36,115.665 109.842,115.358 118.063,102.767 125.258,109.983 127.687,105.621 
			132.037,111.567 134.66,106.58 135.207,106.84 132.123,112.699 127.758,106.733 125.399,110.968 118.164,103.712 		"/>
		<polygon fill="#F8C20F" points="119.221,111.759 113.807,105.358 110.707,110.087 110.189,109.78 113.744,104.357 
			119.211,110.822 126.344,102.033 131.941,104.279 134.152,102.548 134.539,102.995 132.045,104.949 126.54,102.741 		"/>
		<path fill="#231F20" d="M136.789,119.53c-0.01,0-0.021,0-0.033-0.002l-26.705-2.088c-0.211-0.017-0.373-0.185-0.373-0.385v-11.707
			c0-0.215,0.182-0.387,0.405-0.387c0.226,0,0.407,0.172,0.407,0.387v11.351l26.332,2.06c0.224,0.018,0.391,0.203,0.371,0.417
			C137.178,119.378,136.999,119.53,136.789,119.53z"/>
	</g>
</g>
<g>
	<path fill="#C6201E" d="M165.353,74.808l-3.991-0.803c-0.39,0.197-0.803,0.354-1.234,0.463c-2.559,0.639-5.261-0.533-6.425-2.787
		l0.731-0.341c0.992,1.925,3.301,2.927,5.486,2.38c0.412-0.104,0.807-0.258,1.173-0.458l0.136-0.073l2.755,0.553l-1.048-2.304
		l0.079-0.158c0.479-0.964,0.587-2.061,0.302-3.092c-0.467-1.689-1.878-2.95-3.68-3.292l0.158-0.758
		c2.109,0.4,3.761,1.877,4.31,3.852c0.317,1.15,0.219,2.371-0.278,3.459L165.353,74.808z"/>
	<path fill="#C6201E" d="M148.432,72.155l1.526-3.357c-0.497-1.088-0.596-2.309-0.278-3.459c0.783-2.827,3.84-4.522,6.815-3.777l0,0
		c2.976,0.742,4.759,3.648,3.976,6.476c-0.379,1.37-1.297,2.517-2.584,3.231c-1.286,0.713-2.789,0.908-4.23,0.549
		c-0.43-0.108-0.845-0.265-1.233-0.464L148.432,72.155z M152.556,70.537l0.135,0.073c0.366,0.201,0.762,0.356,1.174,0.459
		c2.54,0.635,5.151-0.813,5.819-3.229c0.67-2.416-0.854-4.898-3.396-5.533l0,0c-2.541-0.636-5.152,0.813-5.82,3.229
		c-0.285,1.031-0.179,2.131,0.303,3.092l0.078,0.158l-1.047,2.305L152.556,70.537z"/>
	<g>
		<path fill="#EC4136" d="M154.59,67.013V66.79c0-0.168,0.035-0.313,0.109-0.429c0.071-0.116,0.201-0.229,0.387-0.341
			c0.146-0.088,0.252-0.168,0.316-0.238s0.098-0.152,0.098-0.244c0-0.072-0.035-0.129-0.104-0.171
			c-0.069-0.042-0.16-0.063-0.27-0.063c-0.275,0-0.596,0.092-0.962,0.277l-0.38-0.705c0.453-0.245,0.925-0.368,1.417-0.368
			c0.405,0,0.724,0.085,0.954,0.253c0.23,0.171,0.346,0.4,0.346,0.693c0,0.209-0.051,0.39-0.154,0.543
			c-0.102,0.152-0.267,0.297-0.491,0.434c-0.191,0.117-0.31,0.203-0.358,0.258c-0.049,0.054-0.072,0.118-0.072,0.191v0.133H154.59z
			 M154.473,67.919c0-0.158,0.049-0.281,0.146-0.367s0.24-0.13,0.429-0.13c0.182,0,0.32,0.044,0.418,0.131s0.146,0.21,0.146,0.366
			c0,0.158-0.05,0.279-0.152,0.365c-0.1,0.087-0.237,0.131-0.412,0.131c-0.18,0-0.32-0.044-0.422-0.129
			C154.523,68.2,154.473,68.079,154.473,67.919z"/>
	</g>
</g>
<g>
	<g>
		<path fill="#F79537" d="M69.219,30.837L69.219,30.837c-0.193,1.16-0.912,2.18-1.968,2.791l-7.175,4.156
			c-0.629,0.363-1.447,0.176-1.831-0.422l0,0c-0.383-0.598-0.184-1.377,0.444-1.74l3.773-2.186l-5.211,3.018
			c-0.602,0.349-1.385,0.167-1.752-0.402l0,0c-0.365-0.573-0.176-1.318,0.426-1.666l5.561-3.221l-5.521,3.197
			c-0.623,0.361-1.436,0.175-1.815-0.418l0,0c-0.379-0.592-0.183-1.365,0.44-1.725l5.521-3.199l-4.24,2.457
			c-0.563,0.326-1.299,0.156-1.643-0.38l0,0c-0.344-0.536-0.164-1.235,0.399-1.562l5.901-3.418c0.367-0.211,0.768-0.365,1.189-0.454
			l1.782-0.374c1.758-0.371,3.569,0.363,4.506,1.824l0.649,1.013C69.176,28.938,69.375,29.899,69.219,30.837z"/>
		<path fill="#C6201E" d="M59.386,38.354c-0.588,0-1.161-0.281-1.487-0.791c-0.177-0.275-0.258-0.582-0.254-0.884l-0.182,0.104
			c-0.791,0.459-1.828,0.221-2.31-0.533c-0.233-0.363-0.304-0.793-0.198-1.207c0.011-0.046,0.025-0.09,0.04-0.133
			c-0.042-0.006-0.083-0.016-0.124-0.023c-0.449-0.104-0.828-0.368-1.068-0.742c-0.24-0.375-0.313-0.816-0.203-1.242
			c0.107-0.426,0.385-0.785,0.779-1.014l0.09-0.053c-0.238-0.127-0.441-0.31-0.586-0.538c-0.461-0.717-0.221-1.655,0.533-2.092
			l5.9-3.418c0.406-0.235,0.85-0.404,1.314-0.502l1.781-0.375c1.928-0.405,3.914,0.399,4.942,2.003l0.648,1.01
			c0.569,0.889,0.789,1.944,0.618,2.973l-0.402-0.061l0.402,0.061c-0.213,1.273-1,2.391-2.159,3.061l-7.175,4.156
			C60.006,38.277,59.693,38.354,59.386,38.354z M58.895,35.956c-0.208,0.123-0.354,0.313-0.412,0.54
			c-0.057,0.228-0.018,0.464,0.109,0.665c0.266,0.414,0.836,0.545,1.271,0.293l7.176-4.154c0.955-0.555,1.603-1.473,1.778-2.523
			c0.142-0.846-0.04-1.717-0.509-2.449l-0.648-1.012c-0.847-1.319-2.482-1.982-4.072-1.648l-1.781,0.374
			c-0.378,0.079-0.737,0.218-1.066,0.408l-5.901,3.417c-0.371,0.215-0.489,0.678-0.263,1.031c0.109,0.17,0.283,0.291,0.488,0.338
			c0.203,0.047,0.416,0.016,0.596-0.088l4.24-2.456l0.423,0.66l-5.522,3.197c-0.207,0.12-0.354,0.312-0.411,0.537
			c-0.059,0.226-0.021,0.46,0.107,0.657c0.126,0.198,0.327,0.338,0.564,0.393s0.483,0.018,0.691-0.104l5.521-3.197l0.423,0.66
			l-5.561,3.221c-0.197,0.115-0.337,0.295-0.391,0.51c-0.057,0.214-0.02,0.436,0.102,0.624c0.249,0.39,0.785,0.513,1.193,0.276
			l1.428-0.828c0.002-0.002,0.006-0.004,0.01-0.006l3.771-2.185l0.424,0.659L58.895,35.956z"/>
	</g>
	<g>
		<path fill="#F79537" d="M49.113,30.837L49.113,30.837c0.193,1.16,0.913,2.18,1.969,2.791l7.176,4.156
			c0.627,0.363,1.447,0.176,1.83-0.422l0,0c0.382-0.598,0.184-1.377-0.445-1.74l-3.772-2.186l5.21,3.018
			c0.602,0.349,1.386,0.167,1.752-0.402l0,0c0.367-0.573,0.176-1.318-0.425-1.666l-5.561-3.221l5.521,3.197
			c0.623,0.361,1.436,0.175,1.816-0.418l0,0c0.379-0.592,0.182-1.365-0.441-1.725l-5.521-3.199l4.239,2.457
			c0.564,0.326,1.299,0.156,1.643-0.38l0,0c0.344-0.536,0.164-1.235-0.398-1.562l-5.902-3.418c-0.366-0.211-0.768-0.365-1.188-0.454
			l-1.783-0.374c-1.758-0.371-3.57,0.363-4.507,1.824l-0.648,1.013C49.156,28.938,48.957,29.899,49.113,30.837z"/>
		<path fill="#C6201E" d="M58.947,38.354c-0.309,0-0.621-0.077-0.902-0.24l-7.175-4.156c-1.159-0.67-1.946-1.787-2.159-3.061
			c-0.17-1.028,0.049-2.084,0.619-2.973l0.648-1.01c1.027-1.604,3.014-2.408,4.941-2.003l1.783,0.375
			c0.464,0.098,0.905,0.267,1.313,0.502l5.9,3.418c0.754,0.437,0.994,1.375,0.535,2.092c-0.146,0.229-0.349,0.411-0.588,0.538
			l0.091,0.053c0.395,0.229,0.671,0.588,0.78,1.014c0.107,0.426,0.035,0.867-0.204,1.242c-0.272,0.423-0.714,0.689-1.193,0.765
			c0.016,0.043,0.028,0.088,0.04,0.134c0.106,0.414,0.036,0.844-0.197,1.207c-0.483,0.754-1.52,0.992-2.311,0.533l-0.182-0.104
			c0.006,0.302-0.076,0.608-0.254,0.884C60.107,38.073,59.533,38.354,58.947,38.354z M53.922,25.581
			c-1.309,0-2.549,0.643-3.249,1.734l-0.649,1.012c-0.469,0.732-0.649,1.604-0.509,2.449c0.176,1.051,0.823,1.969,1.778,2.523
			l7.176,4.154c0.436,0.252,1.006,0.121,1.271-0.294c0.127-0.2,0.167-0.437,0.109-0.664c-0.059-0.227-0.204-0.417-0.411-0.54
			l-3.78-2.189l0.424-0.659l3.772,2.185c0.003,0.002,0.007,0.004,0.009,0.006l1.43,0.828c0.408,0.236,0.943,0.111,1.191-0.276
			c0.121-0.188,0.157-0.41,0.102-0.624c-0.054-0.213-0.192-0.395-0.391-0.51l-5.561-3.221l0.424-0.66l5.521,3.197
			c0.431,0.25,0.994,0.12,1.257-0.289c0.127-0.197,0.165-0.432,0.107-0.657c-0.057-0.226-0.204-0.417-0.413-0.537l-5.521-3.197
			l0.423-0.66l4.239,2.456c0.18,0.104,0.393,0.135,0.598,0.088c0.204-0.047,0.377-0.168,0.486-0.338
			c0.227-0.354,0.109-0.816-0.263-1.031l-5.901-3.417c-0.329-0.19-0.688-0.329-1.064-0.408l-1.783-0.374
			C54.471,25.608,54.194,25.581,53.922,25.581z"/>
	</g>
	<g>
		<path fill="#F79537" d="M64.863,25.219l-6.767-0.481c-0.888-0.078-1.773,0.16-2.485,0.666l-0.937,0.667
			c-0.553,0.393-0.513,1.19,0.075,1.533l0,0c0.259,0.149,0.576,0.177,0.859,0.073l1.911-0.701c0.155-0.057,0.321-0.075,0.483-0.054
			l3.235,0.423L64.863,25.219z"/>
		<path fill="#C6201E" d="M55.26,28.124c-0.252,0-0.504-0.063-0.723-0.191c-0.391-0.227-0.637-0.623-0.658-1.059
			c-0.021-0.437,0.184-0.853,0.551-1.113l0.938-0.666c0.795-0.564,1.777-0.828,2.767-0.742l6.761,0.48l-0.061,0.771l-6.768-0.481
			c-0.796-0.07-1.578,0.143-2.213,0.593l-0.936,0.665c-0.153,0.108-0.236,0.275-0.227,0.457c0.008,0.183,0.107,0.342,0.271,0.436
			c0.149,0.088,0.337,0.104,0.501,0.045l1.912-0.703c0.217-0.078,0.453-0.105,0.686-0.074l3.234,0.422l-0.111,0.766l-3.234-0.424
			c-0.095-0.012-0.192,0-0.282,0.033l-1.911,0.701C55.596,28.097,55.428,28.124,55.26,28.124z"/>
	</g>
	<g>
		<polygon fill="#F79537" points="48.238,32.997 43.765,31.056 48.218,21.786 52.691,23.726 		"/>
		<path fill="#C6201E" d="M48.439,33.509l-5.214-2.262l4.792-9.974l5.213,2.262L48.439,33.509z M44.303,30.864l3.734,1.621
			l4.115-8.568l-3.732-1.621L44.303,30.864z"/>
	</g>
	<g>
		<polygon fill="#F79537" points="70.006,32.997 74.479,31.056 70.025,21.786 65.552,23.726 		"/>
		<path fill="#C6201E" d="M69.805,33.509l-4.791-9.974l5.213-2.262l4.792,9.974L69.805,33.509z M66.091,23.917l4.116,8.568
			l3.734-1.621l-4.117-8.568L66.091,23.917z"/>
	</g>
</g>
<g>
	<g>
		<ellipse fill="#F79537" cx="133.68" cy="29.573" rx="4.045" ry="3.844"/>
		<path fill="#C6201E" d="M133.681,33.805c-2.454,0-4.451-1.897-4.451-4.231c0-2.332,1.997-4.231,4.451-4.231
			s4.451,1.899,4.451,4.231C138.132,31.907,136.135,33.805,133.681,33.805z M133.681,26.114c-2.007,0-3.638,1.553-3.638,3.459
			s1.631,3.459,3.638,3.459s3.638-1.553,3.638-3.459S135.688,26.114,133.681,26.114z"/>
	</g>
	<g>
		<path fill="#F79537" d="M138.859,39.762h-10.357v-1.448c0-2.719,2.318-4.922,5.179-4.922l0,0c2.86,0,5.179,2.203,5.179,4.922
			V39.762z"/>
		<path fill="#C6201E" d="M139.266,40.149h-11.17v-1.836c0-2.928,2.506-5.309,5.585-5.309s5.585,2.381,5.585,5.309V40.149z
			 M128.908,39.376h9.545v-1.063c0-2.502-2.143-4.535-4.772-4.535c-2.632,0-4.772,2.033-4.772,4.535V39.376z"/>
	</g>
	<g>
		<ellipse fill="#F79537" cx="136.987" cy="33.144" rx="2.628" ry="2.496"/>
		<path fill="#C6201E" d="M136.987,36.027c-1.673,0-3.035-1.295-3.035-2.884c0-1.591,1.362-2.886,3.035-2.886
			s3.034,1.295,3.034,2.886C140.021,34.732,138.66,36.027,136.987,36.027z M136.987,31.032c-1.226,0-2.222,0.947-2.222,2.111
			s0.996,2.111,2.222,2.111s2.222-0.947,2.222-2.111S138.213,31.032,136.987,31.032z"/>
	</g>
	<g>
		<path fill="#F79537" d="M140.352,39.762h-6.729v-0.94c0-1.768,1.506-3.198,3.364-3.198l0,0c1.858,0,3.364,1.431,3.364,3.198
			V39.762z"/>
		<path fill="#C6201E" d="M140.758,40.149h-7.541v-1.328c0-1.977,1.691-3.584,3.771-3.584s3.771,1.607,3.771,3.584V40.149z
			 M134.029,39.376h5.916v-0.555c0-1.551-1.328-2.813-2.958-2.813c-1.632,0-2.958,1.262-2.958,2.813V39.376z"/>
	</g>
</g>
</svg>
