<?xml version="1.0" encoding="utf-8"?>
<!-- Generator: Adobe Illustrator 15.0.0, SVG Export Plug-In . SVG Version: 6.00 Build 0)  -->
<!DOCTYPE svg PUBLIC "-//W3C//DTD SVG 1.1//EN" "http://www.w3.org/Graphics/SVG/1.1/DTD/svg11.dtd">
<svg version="1.1" id="Capa_1" xmlns="http://www.w3.org/2000/svg" xmlns:xlink="http://www.w3.org/1999/xlink" x="0px" y="0px"
	 width="237.886px" height="217.362px" viewBox="0 0 237.886 217.362" enable-background="new 0 0 237.886 217.362"
	 xml:space="preserve">
<rect y="0.739" fill="#D9E3E6" width="238.886" height="217.885"/>
<g>
	<g>
		<path opacity="0.29" fill="#231F20" d="M25.894,174.954c-1.162,0.689-1.165,2.365-0.01,3.063c1.572,0.941,3.549,0.938,5.118-0.01
			l66.172-39.977c1.001-0.604,0.96-2.066-0.072-2.614c-1.45-0.771-3.21-0.731-4.624,0.106L25.894,174.954z"/>
		<g>
			<g>
				<g enable-background="new    ">
					<g enable-background="new    ">
						<defs>
							<path id="SVGID_1_" enable-background="new    " d="M39.717,172.204l-0.008,1.568c-0.002,0.865-0.575,1.734-1.717,2.4
								c-2.298,1.336-6.034,1.336-8.349,0c-1.165-0.672-1.747-1.557-1.746-2.438l0.01-1.566c-0.002,0.883,0.58,1.764,1.742,2.436
								c2.316,1.334,6.053,1.334,8.351,0C39.145,173.94,39.714,173.075,39.717,172.204z"/>
						</defs>
						<clipPath id="SVGID_2_">
							<use xlink:href="#SVGID_1_"  overflow="visible"/>
						</clipPath>
						<g clip-path="url(#SVGID_2_)">
							<path fill="#2C3E50" d="M39.717,172.204l-0.008,1.568c-0.002,0.865-0.575,1.734-1.717,2.4c-2.298,1.336-6.034,1.336-8.349,0
								c-1.165-0.672-1.747-1.557-1.746-2.438l0.01-1.566c-0.002,0.883,0.58,1.764,1.742,2.436c2.316,1.334,6.053,1.334,8.351,0
								C39.145,173.94,39.714,173.075,39.717,172.204L39.717,172.204z"/>
						</g>
					</g>
					<g>
						<path fill="#23313E" d="M37.973,169.768c2.315,1.336,2.327,3.5,0.027,4.836c-2.298,1.334-6.034,1.334-8.351,0
							c-2.313-1.336-2.323-3.5-0.027-4.836C31.923,168.432,35.659,168.432,37.973,169.768z"/>
					</g>
				</g>
			</g>
			<g>
				<g enable-background="new    ">
					<g enable-background="new    ">
						<defs>
							<path id="SVGID_3_" enable-background="new    " d="M95.015,139.322l-0.008,1.563c-0.004,0.87-0.575,1.742-1.716,2.404
								c-2.298,1.334-6.035,1.334-8.352,0c-1.165-0.674-1.746-1.555-1.742-2.434l0.006-1.568c-0.002,0.881,0.582,1.761,1.746,2.434
								c2.313,1.336,6.05,1.336,8.349,0C94.44,141.057,95.012,140.192,95.015,139.322z"/>
						</defs>
						<clipPath id="SVGID_4_">
							<use xlink:href="#SVGID_3_"  overflow="visible"/>
						</clipPath>
						<g clip-path="url(#SVGID_4_)">
							<path fill="#2C3E50" d="M95.015,139.322l-0.008,1.563c-0.004,0.87-0.575,1.742-1.716,2.404c-2.298,1.334-6.035,1.334-8.352,0
								c-1.165-0.674-1.746-1.555-1.742-2.434l0.006-1.568c-0.002,0.881,0.582,1.761,1.746,2.434c2.313,1.336,6.05,1.336,8.349,0
								C94.44,141.057,95.012,140.192,95.015,139.322L95.015,139.322z"/>
						</g>
					</g>
					<g>
						<path fill="#23313E" d="M93.271,136.885c2.316,1.336,2.326,3.5,0.027,4.836s-6.036,1.336-8.349,0
							c-2.315-1.336-2.326-3.5-0.028-4.836S90.956,135.549,93.271,136.885z"/>
					</g>
				</g>
			</g>
			<g>
				<g>
					<g enable-background="new    ">
						<g enable-background="new    ">
							<defs>
								<path id="SVGID_5_" enable-background="new    " d="M35.999,113.911l-0.053,57.566c-0.001,0.32-0.21,0.643-0.629,0.885
									c-0.84,0.488-2.21,0.488-3.056,0c-0.428-0.248-0.639-0.572-0.639-0.895l0.053-57.568c0,0.322,0.213,0.645,0.639,0.893
									c0.846,0.486,2.214,0.488,3.055,0C35.789,114.548,35.999,114.23,35.999,113.911z"/>
							</defs>
							<clipPath id="SVGID_6_">
								<use xlink:href="#SVGID_5_"  overflow="visible"/>
							</clipPath>
							<g clip-path="url(#SVGID_6_)" enable-background="new    ">
								<path fill="#2C3E50" d="M35.999,113.911l-0.053,57.566c-0.001,0.32-0.21,0.643-0.629,0.885c-0.84,0.488-2.21,0.488-3.056,0
									c-0.428-0.248-0.639-0.572-0.639-0.895l0.053-57.568c0,0.322,0.213,0.645,0.639,0.893c0.846,0.486,2.214,0.488,3.055,0
									C35.789,114.548,35.999,114.23,35.999,113.911L35.999,113.911z"/>
							</g>
						</g>
						<g>
							<path fill="#263545" d="M35.364,131.084c0.845,0.49,0.85,1.283,0.005,1.771c-0.841,0.486-2.209,0.486-3.055,0
								c-0.848-0.488-0.853-1.281-0.013-1.771C33.145,130.596,34.515,130.596,35.364,131.084z"/>
						</g>
					</g>
				</g>
				<g>
					<g enable-background="new    ">
						<g enable-background="new    ">
							<defs>
								<path id="SVGID_7_" enable-background="new    " d="M91.256,81.229l-0.057,57.565c-0.001,0.323-0.208,0.642-0.63,0.884
									c-0.839,0.49-2.207,0.49-3.053,0c-0.429-0.248-0.641-0.569-0.641-0.895l0.053-57.565c-0.003,0.321,0.212,0.646,0.641,0.894
									c0.844,0.487,2.214,0.487,3.056,0C91.045,81.868,91.253,81.547,91.256,81.229z"/>
							</defs>
							<clipPath id="SVGID_8_">
								<use xlink:href="#SVGID_7_"  overflow="visible"/>
							</clipPath>
							<g clip-path="url(#SVGID_8_)" enable-background="new    ">
								<path fill="#2C3E50" d="M91.256,81.229l-0.057,57.565c-0.001,0.323-0.208,0.642-0.63,0.884c-0.839,0.49-2.207,0.49-3.053,0
									c-0.429-0.248-0.641-0.569-0.641-0.895l0.053-57.565c-0.003,0.321,0.212,0.646,0.641,0.894c0.844,0.487,2.214,0.487,3.056,0
									C91.045,81.868,91.253,81.547,91.256,81.229L91.256,81.229z"/>
							</g>
						</g>
						<g>
							<path fill="#263545" d="M90.618,98.403c0.844,0.488,0.849,1.283,0.007,1.771c-0.842,0.489-2.212,0.489-3.056,0
								c-0.848-0.488-0.853-1.283-0.012-1.771C88.4,97.913,89.768,97.913,90.618,98.403z"/>
						</g>
					</g>
				</g>
				<g enable-background="new    ">
					<g enable-background="new    ">
						<defs>
							<path id="SVGID_9_" enable-background="new    " d="M93.925,95.763l1.899,1.104c-0.216-0.123-0.515-0.107-0.842,0.082
								l-1.9-1.102C93.41,95.658,93.708,95.64,93.925,95.763z"/>
						</defs>
						<clipPath id="SVGID_10_">
							<use xlink:href="#SVGID_9_"  overflow="visible"/>
						</clipPath>
						<g clip-path="url(#SVGID_10_)" enable-background="new    ">
							<path fill="#2C3E50" d="M94.982,96.95l-1.9-1.102c0.328-0.19,0.626-0.208,0.843-0.085l1.899,1.104
								C95.608,96.745,95.31,96.76,94.982,96.95L94.982,96.95z"/>
						</g>
					</g>
					<g>
						<polygon fill="#263545" points="29.45,134.785 27.551,133.682 93.082,95.848 94.982,96.95 						"/>
					</g>
					<g enable-background="new    ">
						<defs>
							<path id="SVGID_11_" enable-background="new    " d="M28.615,137.588l-1.901-1.104c-0.209-0.125-0.342-0.388-0.342-0.76
								c-0.005-0.752,0.523-1.666,1.179-2.043l1.899,1.103c-0.654,0.38-1.182,1.293-1.179,2.041
								C28.273,137.202,28.403,137.463,28.615,137.588z"/>
						</defs>
						<clipPath id="SVGID_12_">
							<use xlink:href="#SVGID_11_"  overflow="visible"/>
						</clipPath>
						<g clip-path="url(#SVGID_12_)" enable-background="new    ">
							<path fill="#2C3E50" d="M28.615,137.588l-1.901-1.104c-0.209-0.125-0.342-0.388-0.342-0.76
								c-0.005-0.752,0.523-1.666,1.179-2.043l1.899,1.103c-0.654,0.38-1.182,1.293-1.179,2.041
								C28.273,137.202,28.403,137.463,28.615,137.588L28.615,137.588z"/>
						</g>
					</g>
					<g>
						<path fill="#23313E" d="M94.982,96.95c0.651-0.377,1.183-0.074,1.187,0.676c0.002,0.754-0.525,1.666-1.181,2.045
							l-65.529,37.833c-0.655,0.38-1.184,0.078-1.188-0.678c-0.003-0.748,0.524-1.661,1.179-2.041L94.982,96.95z"/>
					</g>
				</g>
				<g>
					<g enable-background="new    ">
						<g enable-background="new    ">
							<defs>
								<path id="SVGID_13_" enable-background="new    " d="M69.986,93.42l-0.948-0.552c0.358,0.207,0.857,0.177,1.406-0.14
									c1.097-0.634,1.984-2.166,1.981-3.426c0-0.225-0.029-0.424-0.083-0.6l0.948,0.554c0.056,0.171,0.083,0.374,0.084,0.598
									c0.003,1.261-0.886,2.796-1.982,3.425C70.845,93.599,70.347,93.629,69.986,93.42z"/>
							</defs>
							<clipPath id="SVGID_14_">
								<use xlink:href="#SVGID_13_"  overflow="visible"/>
							</clipPath>
							<g clip-path="url(#SVGID_14_)" enable-background="new    ">
								<path fill="#F2D541" d="M69.986,93.42l-0.948-0.552c0.358,0.207,0.857,0.177,1.406-0.14
									c1.097-0.634,1.984-2.166,1.981-3.426c0-0.225-0.029-0.424-0.083-0.6l0.948,0.554c0.056,0.171,0.083,0.374,0.084,0.598
									c0.003,1.261-0.886,2.796-1.982,3.425C70.845,93.599,70.347,93.629,69.986,93.42L69.986,93.42z"/>
							</g>
						</g>
						<g>
							<polygon fill="#993228" points="71.506,92.557 70.556,92.006 70.618,92.03 71.567,92.581 							"/>
						</g>
						<g>
							<polygon fill="#A9372C" points="71.458,92.647 70.509,92.094 70.556,92.006 71.506,92.557 							"/>
						</g>
						<g>
							<polygon fill="#A9382D" points="71.567,92.581 70.618,92.03 72.145,89.221 73.095,89.775 							"/>
						</g>
						<g>
							<polygon fill="#993228" points="73.027,89.747 72.075,89.194 72.145,89.221 73.095,89.775 							"/>
						</g>
						<g>
							<polygon fill="#A9372C" points="73.027,89.747 72.075,89.194 72.343,88.704 73.291,89.257 							"/>
						</g>
						<g>
							<polygon fill="#B33B2F" points="71.458,92.647 71.071,92.385 71.506,92.557 							"/>
						</g>
						<g>
							<polygon fill="#74261F" points="71.458,92.647 70.509,92.094 70.12,91.833 71.071,92.385 							"/>
						</g>
						<g>
							<polygon fill="#993228" points="71.071,92.385 70.12,91.833 70.556,92.006 71.506,92.557 							"/>
						</g>
						<g enable-background="new    ">
							<defs>
								<path id="SVGID_15_" enable-background="new    " d="M83.188,68.864c1.092-0.631,1.975-2.166,1.972-3.422
									c0.317,0.184,0.635,0.367,0.951,0.553c0.002,1.254-0.881,2.789-1.974,3.42C83.854,69.249,83.473,69.028,83.188,68.864z"/>
							</defs>
							<clipPath id="SVGID_16_">
								<use xlink:href="#SVGID_15_"  overflow="visible"/>
							</clipPath>
							<g clip-path="url(#SVGID_16_)" enable-background="new    ">
								<path fill="#F2D541" d="M84.138,69.415l-0.949-0.551c1.092-0.631,1.975-2.166,1.972-3.422
									c-0.002-0.627-0.224-1.067-0.579-1.275l0.95,0.551c0.356,0.208,0.577,0.649,0.58,1.277
									C86.113,67.249,85.23,68.784,84.138,69.415L84.138,69.415z"/>
							</g>
						</g>
						<g enable-background="new    ">
							<defs>
								<path id="SVGID_17_" enable-background="new    " d="M83.045,68.939c0.049-0.021,0.095-0.048,0.144-0.075l0.949,0.551
									c-0.049,0.028-0.095,0.054-0.144,0.078C83.709,69.327,83.329,69.104,83.045,68.939z"/>
							</defs>
							<clipPath id="SVGID_18_">
								<use xlink:href="#SVGID_17_"  overflow="visible"/>
							</clipPath>
							<g clip-path="url(#SVGID_18_)" enable-background="new    ">
								<path fill="#F2D541" d="M83.994,69.493l-0.949-0.554c0.049-0.021,0.095-0.048,0.144-0.075l0.949,0.551
									C84.089,69.443,84.043,69.468,83.994,69.493L83.994,69.493z"/>
							</g>
						</g>
						<g>
							<polygon fill="#B19B2D" points="73.291,89.257 72.343,88.704 83.045,68.939 83.994,69.493 							"/>
						</g>
						<g>
							<polygon fill="#A9372D" points="83.994,69.493 83.045,68.939 84.1,66.989 85.05,67.542 							"/>
						</g>
						<g enable-background="new    ">
							<defs>
								<path id="SVGID_19_" enable-background="new    " d="M85.16,65.442c-0.002-0.627-0.224-1.067-0.579-1.275l0.95,0.551
									c0.356,0.208,0.577,0.649,0.58,1.277C85.795,65.809,85.478,65.625,85.16,65.442z"/>
							</defs>
							<clipPath id="SVGID_20_">
								<use xlink:href="#SVGID_19_"  overflow="visible"/>
							</clipPath>
							<g clip-path="url(#SVGID_20_)" enable-background="new    ">
								<path fill="#F2D541" d="M84.138,69.415l-0.949-0.551c1.092-0.631,1.975-2.166,1.972-3.422
									c-0.002-0.627-0.224-1.067-0.579-1.275l0.95,0.551c0.356,0.208,0.577,0.649,0.58,1.277
									C86.113,67.249,85.23,68.784,84.138,69.415L84.138,69.415z"/>
							</g>
						</g>
						<g>
							<polygon fill="#993228" points="71.298,89.065 70.347,88.512 72.075,89.194 73.027,89.747 							"/>
						</g>
						<g>
							<polygon fill="#A9372D" points="71.298,89.065 70.347,88.512 70.573,88.096 71.522,88.646 							"/>
						</g>
						<g enable-background="new    ">
							<defs>
								<path id="SVGID_21_" enable-background="new    " d="M69.986,93.42l-0.948-0.552c-0.355-0.208-0.578-0.649-0.579-1.275
									c0-0.133,0.01-0.269,0.029-0.405l0.948,0.551c-0.018,0.139-0.027,0.273-0.027,0.404
									C69.411,92.772,69.632,93.213,69.986,93.42z"/>
							</defs>
							<clipPath id="SVGID_22_">
								<use xlink:href="#SVGID_21_"  overflow="visible"/>
							</clipPath>
							<g clip-path="url(#SVGID_22_)" enable-background="new    ">
								<path fill="#E74B3D" d="M69.986,93.42l-0.948-0.552c-0.355-0.208-0.578-0.649-0.579-1.275c0-0.133,0.01-0.269,0.029-0.405
									l0.948,0.551c-0.018,0.139-0.027,0.273-0.027,0.404C69.411,92.772,69.632,93.213,69.986,93.42L69.986,93.42z"/>
							</g>
						</g>
						<g>
							<path fill="#E14139" d="M73.291,89.257c0.056,0.171,0.083,0.374,0.084,0.598c0.003,1.261-0.886,2.796-1.982,3.425
								c-1.091,0.632-1.979,0.125-1.983-1.137c0-0.131,0.01-0.266,0.027-0.404l1.635,0.646l0.387,0.262l0.048-0.09l0.062,0.023
								l1.527-2.806l-0.067-0.028L73.291,89.257z"/>
						</g>
						<g>
							<polygon fill="#993228" points="69.437,91.739 68.488,91.188 70.12,91.833 71.071,92.385 							"/>
						</g>
						<g>
							<polygon fill="#993228" points="71.033,88.96 70.082,88.408 70.347,88.512 71.298,89.065 							"/>
						</g>
						<g>
							<path fill="#E14139" d="M71.522,88.646l-0.225,0.419l-0.265-0.104c0.112-0.091,0.228-0.168,0.347-0.237
								C71.428,88.696,71.476,88.67,71.522,88.646z"/>
						</g>
						<g enable-background="new    ">
							<defs>
								<path id="SVGID_23_" enable-background="new    " d="M71.033,88.96l-0.951-0.553c0.112-0.087,0.23-0.169,0.35-0.237
									c0.048-0.026,0.096-0.054,0.142-0.074l0.949,0.55c-0.047,0.024-0.095,0.05-0.143,0.077
									C71.261,88.792,71.146,88.87,71.033,88.96z"/>
							</defs>
							<clipPath id="SVGID_24_">
								<use xlink:href="#SVGID_23_"  overflow="visible"/>
							</clipPath>
							<g clip-path="url(#SVGID_24_)" enable-background="new    ">
								<path fill="#E74B3D" d="M71.033,88.96l-0.951-0.553c0.112-0.087,0.23-0.169,0.35-0.237c0.048-0.026,0.096-0.054,0.142-0.074
									l0.949,0.55c-0.047,0.024-0.095,0.05-0.143,0.077C71.261,88.792,71.146,88.87,71.033,88.96L71.033,88.96z"/>
							</g>
						</g>
						<g>
							<polygon fill="#A9372D" points="71.522,88.646 70.573,88.096 81.275,68.331 82.229,68.883 							"/>
						</g>
						<g>
							<polygon fill="#74261F" points="85.05,67.542 84.1,66.989 82.568,65.947 83.518,66.5 							"/>
						</g>
						<g>
							<polygon fill="#E14139" points="83.518,66.5 85.05,67.542 83.994,69.493 73.291,89.257 73.027,89.747 71.298,89.065 
								71.522,88.646 82.229,68.883 							"/>
						</g>
						<g>
							<polygon fill="#A9372D" points="82.229,68.883 81.275,68.331 82.568,65.947 83.518,66.5 							"/>
						</g>
						<g enable-background="new    ">
							<defs>
								<path id="SVGID_25_" enable-background="new    " d="M84.581,64.167c0.315,0.186,0.633,0.369,0.95,0.551
									c-0.36-0.207-0.857-0.178-1.406,0.141l-0.949-0.553C83.726,63.987,84.223,63.959,84.581,64.167z"/>
							</defs>
							<clipPath id="SVGID_26_">
								<use xlink:href="#SVGID_25_"  overflow="visible"/>
							</clipPath>
							<g clip-path="url(#SVGID_26_)" enable-background="new    ">
								<path fill="#E74B3D" d="M84.125,64.858l-0.949-0.553c0.55-0.318,1.047-0.346,1.405-0.139l0.95,0.551
									C85.171,64.51,84.674,64.54,84.125,64.858L84.125,64.858z"/>
							</g>
						</g>
						<g>
							<path fill="#E14139" d="M84.125,64.858c1.091-0.633,1.981-0.127,1.986,1.137c0.002,1.254-0.881,2.789-1.974,3.42
								c-0.049,0.028-0.095,0.054-0.144,0.078l1.056-1.951L83.518,66.5l-1.288,2.383c-0.057-0.174-0.084-0.375-0.084-0.599
								C82.141,67.024,83.028,65.491,84.125,64.858z"/>
						</g>
						<g enable-background="new    ">
							<defs>
								<path id="SVGID_27_" enable-background="new    " d="M82.229,68.883l-0.954-0.553c-0.054-0.174-0.081-0.375-0.081-0.602
									c-0.004-1.26,0.883-2.789,1.981-3.424l0.949,0.553c-1.097,0.633-1.984,2.166-1.979,3.427
									C82.146,68.508,82.173,68.709,82.229,68.883z"/>
							</defs>
							<clipPath id="SVGID_28_">
								<use xlink:href="#SVGID_27_"  overflow="visible"/>
							</clipPath>
							<g clip-path="url(#SVGID_28_)" enable-background="new    ">
								<path fill="#E74B3D" d="M82.229,68.883l-0.954-0.553c-0.054-0.174-0.081-0.375-0.081-0.602
									c-0.004-1.26,0.883-2.789,1.981-3.424l0.949,0.553c-1.097,0.633-1.984,2.166-1.979,3.427
									C82.146,68.508,82.173,68.709,82.229,68.883L82.229,68.883z"/>
							</g>
						</g>
						<g enable-background="new    ">
							<defs>
								<path id="SVGID_29_" enable-background="new    " d="M50.271,111.264l-0.951-0.551c0.363,0.21,0.861,0.181,1.412-0.137
									c1.099-0.633,1.98-2.168,1.978-3.424c0-0.22-0.028-0.416-0.08-0.59l0.948,0.553c0.053,0.172,0.081,0.369,0.082,0.587
									c0.003,1.257-0.881,2.792-1.979,3.425C51.135,111.446,50.633,111.476,50.271,111.264z"/>
							</defs>
							<clipPath id="SVGID_30_">
								<use xlink:href="#SVGID_29_"  overflow="visible"/>
							</clipPath>
							<g clip-path="url(#SVGID_30_)" enable-background="new    ">
								<path fill="#F2D541" d="M50.271,111.264l-0.951-0.551c0.363,0.21,0.861,0.181,1.412-0.137
									c1.099-0.633,1.98-2.168,1.978-3.424c0-0.22-0.028-0.416-0.08-0.59l0.948,0.553c0.053,0.172,0.081,0.369,0.082,0.587
									c0.003,1.257-0.881,2.792-1.979,3.425C51.135,111.446,50.633,111.476,50.271,111.264L50.271,111.264z"/>
							</g>
						</g>
						<g>
							<polygon fill="#A9372D" points="51.677,110.77 50.728,110.219 52.249,107.414 53.198,107.965 							"/>
						</g>
						<g>
							<polygon fill="#74261F" points="51.539,110.851 50.59,110.296 49.054,109.26 50.003,109.813 							"/>
						</g>
						<g>
							<polygon fill="#74261F" points="51.609,110.723 50.657,110.17 49.124,109.129 50.071,109.681 							"/>
						</g>
						<g>
							<polygon fill="#AA382D" points="50.003,109.813 49.054,109.26 49.124,109.129 50.071,109.681 							"/>
						</g>
						<g>
							<polygon fill="#74261F" points="50.071,109.681 49.124,109.129 48.792,108.903 49.743,109.456 							"/>
						</g>
						<g enable-background="new    ">
							<defs>
								<path id="SVGID_31_" enable-background="new    " d="M50.271,111.264l-0.951-0.551c-0.355-0.205-0.577-0.645-0.578-1.27
									c0-0.176,0.017-0.357,0.05-0.541l0.951,0.553c-0.035,0.183-0.052,0.365-0.052,0.54
									C49.694,110.62,49.917,111.059,50.271,111.264z"/>
							</defs>
							<clipPath id="SVGID_32_">
								<use xlink:href="#SVGID_31_"  overflow="visible"/>
							</clipPath>
							<g clip-path="url(#SVGID_32_)" enable-background="new    ">
								<path fill="#E74B3D" d="M50.271,111.264l-0.951-0.551c-0.355-0.205-0.577-0.645-0.578-1.27c0-0.176,0.017-0.357,0.05-0.541
									l0.951,0.553c-0.035,0.183-0.052,0.365-0.052,0.54C49.694,110.62,49.917,111.059,50.271,111.264L50.271,111.264z"/>
							</g>
						</g>
						<g>
							<path fill="#E14139" d="M53.578,107.116c0.053,0.172,0.081,0.369,0.082,0.587c0.003,1.257-0.881,2.792-1.979,3.425
								c-1.092,0.633-1.984,0.121-1.99-1.132c0-0.175,0.017-0.357,0.052-0.54l0.328,0.226l-0.068,0.132l1.536,1.038l0.07-0.128
								l0.067,0.047l1.521-2.805l-0.059-0.041L53.578,107.116z"/>
						</g>
						<g>
							<polygon fill="#74261F" points="51.677,110.77 50.728,110.219 50.657,110.17 51.609,110.723 							"/>
						</g>
						<g>
							<polygon fill="#AA382D" points="51.539,110.851 51.609,110.723 50.657,110.172 50.627,110.233 							"/>
						</g>
						<g>
							<polygon fill="#74261F" points="53.198,107.965 52.249,107.414 52.189,107.373 53.14,107.924 							"/>
						</g>
						<g>
							<polygon fill="#AA382D" points="53.14,107.924 52.189,107.373 52.63,106.563 53.578,107.116 							"/>
						</g>
						<g>
							<polygon fill="#A08C2B" points="63.746,89.495 62.796,88.941 68.488,91.188 69.437,91.739 							"/>
						</g>
						<g>
							<polygon fill="#993228" points="65.173,86.651 64.225,86.099 70.082,88.408 71.033,88.96 							"/>
						</g>
						<g enable-background="new    ">
							<defs>
								<path id="SVGID_33_" enable-background="new    " d="M64.225,86.099c0.003-0.061,0.003-0.118,0.003-0.173
									c0.319,0.184,0.634,0.365,0.95,0.551c0,0.057,0,0.111-0.005,0.174C64.888,86.482,64.508,86.264,64.225,86.099z"/>
							</defs>
							<clipPath id="SVGID_34_">
								<use xlink:href="#SVGID_33_"  overflow="visible"/>
							</clipPath>
							<g clip-path="url(#SVGID_34_)" enable-background="new    ">
								<path fill="#F2D541" d="M65.173,86.651l-0.948-0.552c0.003-0.061,0.003-0.118,0.003-0.173
									c-0.002-0.627-0.221-1.066-0.577-1.271l0.949,0.55c0.356,0.208,0.575,0.647,0.578,1.272
									C65.178,86.534,65.178,86.588,65.173,86.651L65.173,86.651z"/>
							</g>
						</g>
						<g enable-background="new    ">
							<defs>
								<path id="SVGID_35_" enable-background="new    " d="M62.918,90.038l-0.952-0.553c0.094-0.037,0.188-0.084,0.281-0.139
									c0.189-0.109,0.375-0.246,0.549-0.405l0.95,0.554c-0.175,0.156-0.359,0.292-0.548,0.404
									C63.103,89.955,63.009,89.998,62.918,90.038z"/>
							</defs>
							<clipPath id="SVGID_36_">
								<use xlink:href="#SVGID_35_"  overflow="visible"/>
							</clipPath>
							<g clip-path="url(#SVGID_36_)" enable-background="new    ">
								<path fill="#F2D541" d="M62.918,90.038l-0.952-0.553c0.094-0.037,0.188-0.084,0.281-0.139
									c0.189-0.109,0.375-0.246,0.549-0.405l0.95,0.554c-0.175,0.156-0.359,0.292-0.548,0.404
									C63.103,89.955,63.009,89.998,62.918,90.038L62.918,90.038z"/>
							</g>
						</g>
						<g>
							<polygon fill="#B29C2E" points="53.578,107.116 52.63,106.563 61.966,89.485 62.918,90.038 							"/>
						</g>
						<g>
							<polygon fill="#993228" points="63.307,89.325 62.358,88.771 62.796,88.941 63.746,89.495 							"/>
						</g>
						<g>
							<path fill="#E14139" d="M62.918,90.038l0.389-0.713l0.439,0.17c-0.175,0.156-0.359,0.292-0.548,0.404
								C63.103,89.955,63.009,89.998,62.918,90.038z"/>
						</g>
						<g>
							<polygon fill="#AA382D" points="62.918,90.038 61.966,89.485 62.358,88.771 63.307,89.325 							"/>
						</g>
						<g>
							<polygon fill="#AA382D" points="63.307,89.325 62.358,88.771 63.678,86.356 64.628,86.911 							"/>
						</g>
						<g enable-background="new    ">
							<defs>
								<path id="SVGID_37_" enable-background="new    " d="M64.228,85.926c-0.002-0.627-0.221-1.066-0.577-1.271l0.949,0.55
									c0.356,0.208,0.575,0.647,0.578,1.272C64.861,86.292,64.547,86.11,64.228,85.926z"/>
							</defs>
							<clipPath id="SVGID_38_">
								<use xlink:href="#SVGID_37_"  overflow="visible"/>
							</clipPath>
							<g clip-path="url(#SVGID_38_)" enable-background="new    ">
								<path fill="#F2D541" d="M65.173,86.651l-0.948-0.552c0.003-0.061,0.003-0.118,0.003-0.173
									c-0.002-0.627-0.221-1.066-0.577-1.271l0.949,0.55c0.356,0.208,0.575,0.647,0.578,1.272
									C65.178,86.534,65.178,86.588,65.173,86.651L65.173,86.651z"/>
							</g>
						</g>
						<g>
							<polygon fill="#E14139" points="50.003,109.813 50.071,109.681 51.609,110.723 51.539,110.851 							"/>
						</g>
						<g>
							<polygon fill="#74261F" points="53.14,107.924 52.189,107.373 50.653,106.329 51.603,106.883 							"/>
						</g>
						<g>
							<polygon fill="#AA382D" points="51.603,106.883 50.653,106.329 50.868,105.938 51.817,106.494 							"/>
						</g>
						<g enable-background="new    ">
							<defs>
								<path id="SVGID_39_" enable-background="new    " d="M51.402,106.747l-0.95-0.555c0.089-0.063,0.179-0.121,0.27-0.174
									c0.047-0.027,0.098-0.055,0.146-0.08l0.949,0.556c-0.049,0.022-0.099,0.05-0.146,0.077
									C51.58,106.624,51.489,106.68,51.402,106.747z"/>
							</defs>
							<clipPath id="SVGID_40_">
								<use xlink:href="#SVGID_39_"  overflow="visible"/>
							</clipPath>
							<g clip-path="url(#SVGID_40_)" enable-background="new    ">
								<path fill="#E74B3D" d="M51.402,106.747l-0.95-0.555c0.089-0.063,0.179-0.121,0.27-0.174
									c0.047-0.027,0.098-0.055,0.146-0.08l0.949,0.556c-0.049,0.022-0.099,0.05-0.146,0.077
									C51.58,106.624,51.489,106.68,51.402,106.747L51.402,106.747z"/>
							</g>
						</g>
						<g>
							<path fill="#E14139" d="M51.817,106.494l-0.215,0.39l-0.2-0.137c0.087-0.066,0.178-0.123,0.269-0.176
								C51.719,106.543,51.769,106.516,51.817,106.494z"/>
						</g>
						<g>
							<polygon fill="#74261F" points="51.603,106.883 50.653,106.329 50.452,106.192 51.402,106.747 							"/>
						</g>
						<g>
							<polygon fill="#AA382D" points="51.817,106.494 50.868,105.938 60.311,88.67 61.26,89.221 							"/>
						</g>
						<g>
							<polygon fill="#74261F" points="64.628,86.911 63.678,86.356 62.162,85.332 63.113,85.884 							"/>
						</g>
						<g>
							<polygon fill="#E14139" points="63.133,85.844 65.173,86.651 71.033,88.96 71.298,89.065 73.027,89.747 73.095,89.775 
								71.567,92.581 71.37,92.94 71.071,92.385 69.437,91.739 63.746,89.495 63.307,89.325 64.628,86.911 63.113,85.884 							"/>
						</g>
						<g>
							<polygon fill="#993228" points="63.133,85.844 62.185,85.293 64.225,86.099 65.173,86.651 							"/>
						</g>
						<g>
							<polygon fill="#AA382D" points="61.26,89.221 60.311,88.67 62.14,85.318 63.089,85.87 							"/>
						</g>
						<g>
							<polygon fill="#E14139" points="63.089,85.87 64.628,86.911 63.307,89.325 62.918,90.038 53.578,107.116 53.14,107.924 
								51.603,106.883 51.817,106.494 61.26,89.221 							"/>
						</g>
						<g>
							<polygon fill="#74261F" points="63.113,85.884 62.162,85.332 62.14,85.318 63.089,85.87 							"/>
						</g>
						<g enable-background="new    ">
							<defs>
								<path id="SVGID_41_" enable-background="new    " d="M63.65,84.655l0.949,0.55c-0.36-0.209-0.86-0.18-1.415,0.142
									l-0.949-0.553C62.787,84.475,63.288,84.442,63.65,84.655z"/>
							</defs>
							<clipPath id="SVGID_42_">
								<use xlink:href="#SVGID_41_"  overflow="visible"/>
							</clipPath>
							<g clip-path="url(#SVGID_42_)" enable-background="new    ">
								<path fill="#E74B3D" d="M63.185,85.346l-0.949-0.553c0.552-0.318,1.053-0.352,1.415-0.139l0.949,0.55
									C64.239,84.996,63.739,85.025,63.185,85.346L63.185,85.346z"/>
							</g>
						</g>
						<g>
							<path fill="#E14139" d="M63.185,85.346c1.097-0.633,1.99-0.131,1.993,1.131c0,0.057,0,0.111-0.005,0.174l-2.04-0.807
								l-0.02,0.04l-0.024-0.015l-1.829,3.352c-0.033-0.136-0.047-0.291-0.047-0.455C61.207,87.504,62.09,85.975,63.185,85.346z"/>
						</g>
						<g enable-background="new    ">
							<defs>
								<path id="SVGID_43_" enable-background="new    " d="M61.26,89.221l-0.949-0.551c-0.031-0.139-0.047-0.289-0.047-0.455
									c-0.005-1.26,0.878-2.792,1.972-3.422l0.949,0.553c-1.095,0.629-1.978,2.158-1.972,3.42
									C61.213,88.93,61.227,89.085,61.26,89.221z"/>
							</defs>
							<clipPath id="SVGID_44_">
								<use xlink:href="#SVGID_43_"  overflow="visible"/>
							</clipPath>
							<g clip-path="url(#SVGID_44_)" enable-background="new    ">
								<path fill="#E74B3D" d="M61.26,89.221l-0.949-0.551c-0.031-0.139-0.047-0.289-0.047-0.455
									c-0.005-1.26,0.878-2.792,1.972-3.422l0.949,0.553c-1.095,0.629-1.978,2.158-1.972,3.42
									C61.213,88.93,61.227,89.085,61.26,89.221L61.26,89.221z"/>
							</g>
						</g>
						<g>
							<polygon fill="#7A6B20" points="51.402,106.747 50.452,106.192 47.549,104.219 48.5,104.77 							"/>
						</g>
						<g>
							<polygon fill="#74261F" points="49.743,109.456 48.792,108.903 45.813,106.883 46.762,107.434 							"/>
						</g>
						<g enable-background="new    ">
							<defs>
								<path id="SVGID_45_" enable-background="new    " d="M47.549,104.219c0.046-0.221,0.07-0.438,0.07-0.647
									c0.316,0.183,0.634,0.366,0.949,0.549c0.001,0.213-0.022,0.432-0.068,0.649C48.213,104.606,47.834,104.385,47.549,104.219z"
									/>
							</defs>
							<clipPath id="SVGID_46_">
								<use xlink:href="#SVGID_45_"  overflow="visible"/>
							</clipPath>
							<g clip-path="url(#SVGID_46_)" enable-background="new    ">
								<path fill="#F2D541" d="M48.5,104.77l-0.951-0.551c0.046-0.221,0.07-0.438,0.07-0.647c-0.001-0.626-0.223-1.065-0.578-1.276
									l0.949,0.554c0.355,0.207,0.576,0.647,0.578,1.271C48.569,104.333,48.546,104.552,48.5,104.77L48.5,104.77z"/>
							</g>
						</g>
						<g>
							<polygon fill="#AE392E" points="46.504,107.258 45.554,106.706 46.728,104.745 47.677,105.297 							"/>
						</g>
						<g>
							<polygon fill="#74261F" points="46.762,107.434 45.813,106.883 45.554,106.706 46.504,107.258 							"/>
						</g>
						<g enable-background="new    ">
							<defs>
								<path id="SVGID_47_" enable-background="new    " d="M46.232,107.713l-0.951-0.551c0.117-0.047,0.238-0.103,0.359-0.172
									c0.06-0.035,0.116-0.07,0.172-0.107l0.949,0.551c-0.056,0.039-0.112,0.074-0.17,0.107
									C46.47,107.613,46.348,107.668,46.232,107.713z"/>
							</defs>
							<clipPath id="SVGID_48_">
								<use xlink:href="#SVGID_47_"  overflow="visible"/>
							</clipPath>
							<g clip-path="url(#SVGID_48_)" enable-background="new    ">
								<path fill="#F2D541" d="M46.232,107.713l-0.951-0.551c0.117-0.047,0.238-0.103,0.359-0.172
									c0.06-0.035,0.116-0.07,0.172-0.107l0.949,0.551c-0.056,0.039-0.112,0.074-0.17,0.107
									C46.47,107.613,46.348,107.668,46.232,107.713L46.232,107.713z"/>
							</g>
						</g>
						<g>
							<polygon fill="#AE392E" points="46.232,107.713 45.281,107.163 45.554,106.706 46.504,107.258 							"/>
						</g>
						<g enable-background="new    ">
							<defs>
								<path id="SVGID_49_" enable-background="new    " d="M34.954,124.819c1.091-0.634,1.976-2.162,1.971-3.418
									c0.319,0.183,0.635,0.367,0.951,0.553c0.004,1.255-0.881,2.783-1.973,3.415C35.588,125.184,35.271,125.001,34.954,124.819z"
									/>
							</defs>
							<clipPath id="SVGID_50_">
								<use xlink:href="#SVGID_49_"  overflow="visible"/>
							</clipPath>
							<g clip-path="url(#SVGID_50_)" enable-background="new    ">
								<path fill="#F2D541" d="M34.491,125.506l-0.949-0.553c0.361,0.211,0.86,0.182,1.412-0.135
									c1.091-0.634,1.976-2.162,1.971-3.418c0-0.084-0.001-0.166-0.012-0.242l0.95,0.55c0.008,0.079,0.013,0.159,0.013,0.245
									c0.004,1.255-0.881,2.783-1.973,3.415C35.352,125.686,34.854,125.717,34.491,125.506L34.491,125.506z"/>
							</g>
						</g>
						<g enable-background="new    ">
							<defs>
								<path id="SVGID_51_" enable-background="new    " d="M36.925,121.401c0-0.084-0.001-0.166-0.012-0.242l0.95,0.55
									c0.008,0.079,0.013,0.159,0.013,0.245C37.56,121.768,37.244,121.583,36.925,121.401z"/>
							</defs>
							<clipPath id="SVGID_52_">
								<use xlink:href="#SVGID_51_"  overflow="visible"/>
							</clipPath>
							<g clip-path="url(#SVGID_52_)" enable-background="new    ">
								<path fill="#F2D541" d="M34.491,125.506l-0.949-0.553c0.361,0.211,0.86,0.182,1.412-0.135
									c1.091-0.634,1.976-2.162,1.971-3.418c0-0.084-0.001-0.166-0.012-0.242l0.95,0.55c0.008,0.079,0.013,0.159,0.013,0.245
									c0.004,1.255-0.881,2.783-1.973,3.415C35.352,125.686,34.854,125.717,34.491,125.506L34.491,125.506z"/>
							</g>
						</g>
						<g>
							<polygon fill="#B69F2F" points="37.863,121.708 36.913,121.159 45.281,107.163 46.232,107.713 							"/>
						</g>
						<g>
							<polygon fill="#AE392E" points="36.453,124.073 35.501,123.518 36.913,121.159 37.863,121.708 							"/>
						</g>
						<g enable-background="new    ">
							<defs>
								<path id="SVGID_53_" enable-background="new    " d="M47.619,103.572c-0.001-0.626-0.223-1.065-0.578-1.276l0.949,0.554
									c0.355,0.207,0.576,0.647,0.578,1.271C48.253,103.938,47.936,103.754,47.619,103.572z"/>
							</defs>
							<clipPath id="SVGID_54_">
								<use xlink:href="#SVGID_53_"  overflow="visible"/>
							</clipPath>
							<g clip-path="url(#SVGID_54_)" enable-background="new    ">
								<path fill="#F2D541" d="M48.5,104.77l-0.951-0.551c0.046-0.221,0.07-0.438,0.07-0.647c-0.001-0.626-0.223-1.065-0.578-1.276
									l0.949,0.554c0.355,0.207,0.576,0.647,0.578,1.271C48.569,104.333,48.546,104.552,48.5,104.77L48.5,104.77z"/>
							</g>
						</g>
						<g enable-background="new    ">
							<defs>
								<path id="SVGID_55_" enable-background="new    " d="M33.542,124.954c0.361,0.211,0.86,0.182,1.412-0.135
									c0.316,0.183,0.634,0.365,0.949,0.55c-0.552,0.317-1.05,0.349-1.412,0.138C34.206,125.341,33.827,125.123,33.542,124.954z"
									/>
							</defs>
							<clipPath id="SVGID_56_">
								<use xlink:href="#SVGID_55_"  overflow="visible"/>
							</clipPath>
							<g clip-path="url(#SVGID_56_)" enable-background="new    ">
								<path fill="#F2D541" d="M34.491,125.506l-0.949-0.553c0.361,0.211,0.86,0.182,1.412-0.135
									c1.091-0.634,1.976-2.162,1.971-3.418c0-0.084-0.001-0.166-0.012-0.242l0.95,0.55c0.008,0.079,0.013,0.159,0.013,0.245
									c0.004,1.255-0.881,2.783-1.973,3.415C35.352,125.686,34.854,125.717,34.491,125.506L34.491,125.506z"/>
							</g>
						</g>
						<g>
							<polygon fill="#953127" points="46.457,104.719 45.507,104.168 46.728,104.745 47.677,105.297 							"/>
						</g>
						<g>
							<polygon fill="#74261F" points="48.5,104.77 47.549,104.219 46.036,103.192 46.986,103.743 							"/>
						</g>
						<g>
							<polygon fill="#E14139" points="46.986,103.743 48.5,104.77 51.402,106.747 51.603,106.883 53.14,107.924 53.198,107.965 
								51.677,110.77 51.609,110.723 50.071,109.681 49.743,109.456 46.762,107.434 46.504,107.258 47.677,105.297 46.457,104.719 
															"/>
						</g>
						<g>
							<polygon fill="#A9382D" points="46.457,104.719 45.507,104.168 46.036,103.192 46.986,103.743 							"/>
						</g>
						<g>
							<polygon fill="#953127" points="45.998,104.502 45.046,103.952 45.507,104.168 46.457,104.719 							"/>
						</g>
						<g>
							<polygon fill="#AE392E" points="44.635,106.779 43.686,106.227 45.046,103.952 45.998,104.502 							"/>
						</g>
						<g>
							<polygon fill="#AE392E" points="36.371,120.606 35.422,120.054 43.686,106.227 44.635,106.779 							"/>
						</g>
						<g enable-background="new    ">
							<defs>
								<path id="SVGID_57_" enable-background="new    " d="M47.041,102.295l0.949,0.554c-0.359-0.208-0.858-0.179-1.412,0.138
									l-0.949-0.549C46.183,102.119,46.678,102.086,47.041,102.295z"/>
							</defs>
							<clipPath id="SVGID_58_">
								<use xlink:href="#SVGID_57_"  overflow="visible"/>
							</clipPath>
							<g clip-path="url(#SVGID_58_)" enable-background="new    ">
								<path fill="#E74B3D" d="M46.578,102.987l-0.949-0.549c0.554-0.319,1.049-0.352,1.412-0.143l0.949,0.554
									C47.631,102.641,47.132,102.67,46.578,102.987L46.578,102.987z"/>
							</g>
						</g>
						<g>
							<polygon fill="#953127" points="34.774,123.279 33.821,122.727 35.501,123.518 36.453,124.073 							"/>
						</g>
						<g>
							<polygon fill="#AE392E" points="34.774,123.279 33.821,122.727 35.422,120.054 36.371,120.606 							"/>
						</g>
						<g enable-background="new    ">
							<defs>
								<path id="SVGID_59_" enable-background="new    " d="M35.89,120.817l-0.948-0.555c0.164-0.096,0.325-0.164,0.48-0.208
									l0.949,0.552C36.217,120.653,36.056,120.721,35.89,120.817z"/>
							</defs>
							<clipPath id="SVGID_60_">
								<use xlink:href="#SVGID_59_"  overflow="visible"/>
							</clipPath>
							<g clip-path="url(#SVGID_60_)" enable-background="new    ">
								<path fill="#E74B3D" d="M35.89,120.817l-0.948-0.555c0.164-0.096,0.325-0.164,0.48-0.208l0.949,0.552
									C36.217,120.653,36.056,120.721,35.89,120.817L35.89,120.817z"/>
							</g>
						</g>
						<g>
							<path fill="#E14139" d="M46.578,102.987c1.099-0.631,1.986-0.123,1.99,1.134c0.001,0.213-0.022,0.432-0.068,0.649
								l-1.514-1.027l-0.529,0.977l-0.459-0.217l-1.363,2.276c-0.018-0.112-0.028-0.235-0.029-0.366
								C44.603,105.15,45.486,103.62,46.578,102.987z"/>
						</g>
						<g enable-background="new    ">
							<defs>
								<path id="SVGID_61_" enable-background="new    " d="M44.635,106.779l-0.949-0.552c-0.017-0.116-0.028-0.238-0.028-0.369
									c-0.005-1.264,0.878-2.79,1.972-3.42l0.949,0.549c-1.092,0.633-1.976,2.163-1.973,3.426
									C44.606,106.543,44.617,106.667,44.635,106.779z"/>
							</defs>
							<clipPath id="SVGID_62_">
								<use xlink:href="#SVGID_61_"  overflow="visible"/>
							</clipPath>
							<g clip-path="url(#SVGID_62_)" enable-background="new    ">
								<path fill="#E74B3D" d="M44.635,106.779l-0.949-0.552c-0.017-0.116-0.028-0.238-0.028-0.369
									c-0.005-1.264,0.878-2.79,1.972-3.42l0.949,0.549c-1.092,0.633-1.976,2.163-1.973,3.426
									C44.606,106.543,44.617,106.667,44.635,106.779L44.635,106.779z"/>
							</g>
						</g>
						<g enable-background="new    ">
							<defs>
								<path id="SVGID_63_" enable-background="new    " d="M34.491,125.506l-0.949-0.553c-0.354-0.205-0.576-0.643-0.577-1.266
									c-0.004-1.261,0.88-2.791,1.977-3.426l0.948,0.555c-1.097,0.633-1.979,2.16-1.976,3.422
									C33.915,124.864,34.137,125.303,34.491,125.506z"/>
							</defs>
							<clipPath id="SVGID_64_">
								<use xlink:href="#SVGID_63_"  overflow="visible"/>
							</clipPath>
							<g clip-path="url(#SVGID_64_)" enable-background="new    ">
								<path fill="#E74B3D" d="M34.491,125.506l-0.949-0.553c-0.354-0.205-0.576-0.643-0.577-1.266
									c-0.004-1.261,0.88-2.791,1.977-3.426l0.948,0.555c-1.097,0.633-1.979,2.16-1.976,3.422
									C33.915,124.864,34.137,125.303,34.491,125.506L34.491,125.506z"/>
							</g>
						</g>
						<g>
							<path fill="#E14139" d="M35.89,120.817c0.166-0.096,0.327-0.164,0.481-0.211l-1.597,2.673l1.679,0.794l1.41-2.364
								c0.008,0.079,0.013,0.159,0.013,0.245c0.004,1.255-0.881,2.783-1.973,3.415c-1.097,0.633-1.986,0.13-1.989-1.13
								C33.911,122.977,34.793,121.45,35.89,120.817z"/>
						</g>
						<g>
							<path fill="#FFFFFF" d="M29.329,87.92l63.222-36.498L92.68,97.14l-63.221,36.499L29.329,87.92z M84.138,69.415
								c1.093-0.631,1.976-2.166,1.974-3.42c-0.005-1.264-0.896-1.77-1.986-1.137c-1.097,0.633-1.984,2.166-1.979,3.427
								c0,0.224,0.027,0.425,0.084,0.599L71.522,88.646c-0.047,0.024-0.095,0.05-0.143,0.077c-0.119,0.069-0.234,0.146-0.347,0.237
								l-5.86-2.31c0.005-0.063,0.005-0.117,0.005-0.174c-0.003-1.262-0.896-1.764-1.993-1.131c-1.095,0.629-1.978,2.158-1.972,3.42
								c0,0.164,0.014,0.319,0.047,0.455l-9.442,17.272c-0.049,0.022-0.099,0.05-0.146,0.077c-0.091,0.053-0.182,0.109-0.269,0.176
								L48.5,104.77c0.046-0.218,0.069-0.437,0.068-0.649c-0.004-1.257-0.892-1.765-1.99-1.134
								c-1.092,0.633-1.976,2.163-1.973,3.426c0.001,0.131,0.012,0.254,0.029,0.366l-8.264,13.827
								c-0.154,0.047-0.315,0.115-0.481,0.211c-1.097,0.633-1.979,2.16-1.976,3.422c0.003,1.26,0.893,1.763,1.989,1.13
								c1.092-0.632,1.977-2.16,1.973-3.415c0-0.086-0.005-0.166-0.013-0.245l8.369-13.995c0.115-0.045,0.237-0.101,0.359-0.172
								c0.058-0.033,0.114-0.068,0.17-0.107l2.981,2.021c-0.035,0.183-0.052,0.365-0.052,0.54c0.006,1.253,0.898,1.765,1.99,1.132
								c1.098-0.633,1.981-2.168,1.979-3.425c-0.001-0.218-0.029-0.415-0.082-0.587l9.34-17.078c0.091-0.04,0.185-0.083,0.28-0.139
								c0.188-0.112,0.373-0.248,0.548-0.404l5.69,2.244c-0.018,0.139-0.027,0.273-0.027,0.404c0.004,1.262,0.893,1.769,1.983,1.137
								c1.097-0.629,1.985-2.164,1.982-3.425c-0.001-0.224-0.028-0.427-0.084-0.598l10.703-19.765
								C84.043,69.468,84.089,69.443,84.138,69.415L84.138,69.415z"/>
						</g>
						<g>
							<path fill="#E14139" d="M46.232,107.713l0.271-0.455l0.258,0.176c-0.056,0.039-0.112,0.074-0.17,0.107
								C46.47,107.613,46.348,107.668,46.232,107.713z"/>
						</g>
						<g>
							<polygon fill="#E14139" points="45.998,104.502 46.457,104.719 47.677,105.297 46.504,107.258 46.232,107.713 
								37.863,121.708 36.453,124.073 34.774,123.279 36.371,120.606 44.635,106.779 							"/>
						</g>
						<g>
							<polygon fill="#B2B2B2" points="29.459,133.639 28.509,133.086 28.378,87.371 29.329,87.92 							"/>
						</g>
						<g>
							<polygon fill="#D1B737" points="29.329,87.92 28.378,87.371 91.6,50.869 92.551,51.422 							"/>
						</g>
					</g>
				</g>
				<g enable-background="new    ">
					<g enable-background="new    ">
						<defs>
							<path id="SVGID_65_" enable-background="new    " d="M92.948,49.631c0.635,0.367,1.268,0.739,1.903,1.104
								c-0.216-0.125-0.515-0.107-0.846,0.084l-1.897-1.105C92.437,49.524,92.733,49.506,92.948,49.631z"/>
						</defs>
						<clipPath id="SVGID_66_">
							<use xlink:href="#SVGID_65_"  overflow="visible"/>
						</clipPath>
						<g clip-path="url(#SVGID_66_)" enable-background="new    ">
							<path fill="#2C3E50" d="M94.006,50.819l-1.897-1.105c0.328-0.189,0.625-0.207,0.84-0.082l1.903,1.104
								C94.636,50.61,94.337,50.627,94.006,50.819L94.006,50.819z"/>
						</g>
					</g>
					<g>
						<polygon fill="#263545" points="28.478,88.653 26.577,87.549 92.108,49.713 94.006,50.819 						"/>
					</g>
					<g enable-background="new    ">
						<defs>
							<path id="SVGID_67_" enable-background="new    " d="M27.643,91.454l-1.9-1.1c-0.211-0.126-0.345-0.389-0.345-0.762
								c-0.002-0.751,0.524-1.664,1.18-2.043l1.9,1.104c-0.655,0.377-1.185,1.291-1.182,2.043
								C27.298,91.069,27.429,91.333,27.643,91.454z"/>
						</defs>
						<clipPath id="SVGID_68_">
							<use xlink:href="#SVGID_67_"  overflow="visible"/>
						</clipPath>
						<g clip-path="url(#SVGID_68_)" enable-background="new    ">
							<path fill="#2C3E50" d="M27.643,91.454l-1.9-1.1c-0.211-0.126-0.345-0.389-0.345-0.762c-0.002-0.751,0.524-1.664,1.18-2.043
								l1.9,1.104c-0.655,0.377-1.185,1.291-1.182,2.043C27.298,91.069,27.429,91.333,27.643,91.454L27.643,91.454z"/>
						</g>
					</g>
					<g>
						<path fill="#23313E" d="M94.006,50.819c0.654-0.377,1.188-0.074,1.188,0.676c0.003,0.751-0.527,1.664-1.18,2.044
							L28.482,91.374c-0.654,0.377-1.185,0.074-1.187-0.678c-0.003-0.752,0.526-1.666,1.182-2.043L94.006,50.819z"/>
					</g>
				</g>
			</g>
		</g>
		<g>
			<path fill="#383736" d="M101.207,140.483c0,0,0.025,4.102,0.022,4.188c-0.032,1.611,0.803,4.364,4.501,4.867
				c0.931,0.127,1.659,0.02,1.659,0.02s2.43-0.297,1.812-3.896c-0.215-1.254-0.968-5.527-0.968-5.527L101.207,140.483z"/>
			<path fill="#545454" d="M101.207,139.583c0,0-0.084-0.096,0.022,4.499c0.037,1.612,0.763,3.882,3.921,4.396
				c0.811,0.131,2.052,0.109,2.436-0.068c1.041-0.475,1.867-1.129,1.545-3.43c-0.143-1-1.114-5.384-1.187-5.384L101.207,139.583z"/>
			<g>
				<path fill="#E6C7B1" d="M118.436,105.969c0.223,0.852,1.518,1.113,2.29,0.914c0.271-0.07,0.846,1.484,1.397,1.979
					c0.579,0.518,1.129-0.022,1.185-0.238c0.046-0.166-1.271-2.315-1.583-2.867c-1.035-1.848-1.851-1.711-2.626-1.509
					C118.322,104.447,118.217,105.117,118.436,105.969z"/>
				<path fill="#6DC6C5" d="M118.452,105.297c-0.881,0.19-2.937-1.144-2.937-1.144s-0.083-0.21-0.225-0.579
					c-0.803-2.072-3.706-9.166-4.349-11.856c-0.707-2.95-1.608-8.326-1.608-8.326s-1.473-6.223,1.537-7.661
					c1.722-0.82,4.886,0.379,5.389,5.336c0.192,1.904,1.061,9.905,1.061,9.905l3.015,11.571
					C120.335,102.543,120.173,104.922,118.452,105.297z"/>
				<path fill="#E6C7B1" d="M117.091,104.792l2.232-0.604l1.531,2.432l0.107,0.434l0.556,3.553c0,0,0.402,1.688-1.376,2.169
					c-1.162,0.314-0.125,0.034-0.125,0.034c-1.593,0.43-2.18-1.249-2.18-1.249l-1.57-4.368
					C115.991,106.252,116.069,105.065,117.091,104.792z"/>
				<path fill="#B9E5E5" d="M121.082,103.909c0.087,0.393-0.615,1.352-1.751,1.711c-1.472,0.463-2.243,0.33-2.243,0.33
					c-0.747-0.09-1.187-0.283-1.347-0.761c0,0-0.605-1.767-0.768-2.333c-0.105-0.363,0.074-0.402,0.074-0.402
					s0.092,0.285,0.176,0.377c0.311,0.338,1.064,0.719,2.55,0.445c2.339-0.424,2.315-1.855,2.315-1.855
					c0.336-0.072,0.48,0.057,0.549,0.447L121.082,103.909z"/>
			</g>
			<g>
				<path fill="#545454" d="M122.964,136.023l1.417,1.015c0,0,5.703,2.014,6.098,2.16c0.446,0.17,1.425,0.447,1.39,1.246
					c-0.011,0.186,0.01,0.305-0.095,0.483c-0.369,0.64-1.211,0.987-2.004,1.202c-1.725,0.463-5.47,0.276-5.47,0.276
					c-1.087-0.028-2.927-0.385-3.137-0.522c0,0-0.953-0.182-1.087,0.152c-0.048,0.119,0.099,0.64,0.121,0.746l-2.389-0.705
					c-0.122-0.049-0.444-1.127-0.546-1.61l-0.266-3.22L122.964,136.023z"/>
				<g>
					<path fill="#282827" d="M130.71,141.477c-0.436,0.264-1.073,0.434-1.705,0.564c-2.535,0.523-6.491,0.023-6.491,0.023
						c-0.391-0.051-1.879-0.27-1.879-0.27s-0.591,0.105-0.559,0.24c-0.007-0.072,0.006-0.008-0.023,0.002
						c-0.056,0.027,0.145,0.744,0.145,0.744l0.577-0.444c0,0,1.812,0.22,2.136,0.291c0,0,3.807,0.472,6.36-0.028
						c0.806-0.158,2.136-0.756,2.55-1.543c0.073-0.139,0.145-0.468,0.023-0.685C131.838,140.414,131.304,141.123,130.71,141.477z"/>
					<path fill="#282827" d="M120.076,142.036l-2.621-0.875c0,0,0.298,0.939,0.33,0.922l2.388,0.703
						C120.157,142.713,120.103,142.238,120.076,142.036z"/>
				</g>
			</g>
			<path fill="#282827" d="M116.468,104.78c0,0,4.657,13.75,6.017,18.359c0.893,3.014,1.843,12.705,1.843,12.705
				c0.299,1.354,0.518,1.613,0.161,2.109c-1.34,1.86-6.094,4.852-7.268,2.037c0,0-1.826-10.311-3.064-13.405
				c-1.952-4.885-8.592-18.411-8.592-18.411L116.468,104.78z"/>
			<path fill="#81CFD3" d="M113.832,76.186c1.643,2.809,2.502,5.17,2.726,10.912l0.235,15.996c0.03,0.771,0.192,1.697-0.455,2.152
				c0,0-5.773,5.021-8.805,4.781c-1.932-0.152-6.042-1.859-6.042-1.859c-1.434-0.623-1.483-1.486-1.532-1.867L97.865,83.16
				c-0.141-1.788,6.204-5.86,7.265-6.539l4.348-1.515C109.478,75.106,112.717,74.275,113.832,76.186z"/>
			<path fill="#DCB9A2" d="M110.983,78.371c-2.366,2.356-3.756-0.083-5.298-1.905l-0.291-6.563l5.427,1.561L110.983,78.371z"/>
			<path fill="#B9E5E5" d="M105.584,74.254c0,0-0.001,0.887,0.035,1.045c0.613,2.656,3.9,3.629,3.9,3.629
				c0.419,0.2,0.41,0.688,0.372,1.329l-0.17,1.889c-0.039,0.618-0.363,0.565-0.614,0.318c0,0-2.54-2.046-3.256-2.741
				c-1.688-1.627-1.563-2.016-1.009-4.16C105.176,74.27,105.584,74.254,105.584,74.254z"/>
			<path fill="#B9E5E5" d="M110.295,78.813c-0.267,0.342-0.206,0.568-0.019,0.814l1.013,1.352c0.521,0.593,0.565,0.095,0.56-0.406
				l-0.009-3.592c-0.293-2.258-0.899-2.344-0.899-2.344s-0.014,0.522,0.043,0.987C111.079,76.399,111.024,77.875,110.295,78.813z"/>
			<path fill="#F6E8D9" d="M107.06,66.157c1.337-0.055,1.536,1.225,1.536,1.225l0.104,2.684c0,0-0.042,0.585-0.54,0.707
				c-0.754,0.188-1.111-0.465-1.479-1.184c-0.022-0.04-0.497-1.102-0.526-1.164C105.748,67.522,105.796,66.204,107.06,66.157z"/>
			<path fill="#E6C7B1" d="M109.732,62.168v0.002l-5.164,0.223l0.285,9.321c0.094,0.638,0.087,1.214,0.216,1.753
				c0.141,0.588,0.429,1.13,1.176,1.65c0,0,1.348,0.986,2.585,1.418c0.566,0.197,1.179,0.372,1.769,0.254
				c0.451-0.09,1.526-0.779,1.526-0.779c0.7-0.457,1.276-0.722,1.625-1.842c0.157-0.498,0.577-2.037,0.605-2.578l0.507-5.555
				l0.149-4.988L109.732,62.168z"/>
			<path fill="#8C8C8C" d="M113.93,60.049c1.479,0.756,2.208,1.816,1.579,4.093c-0.511,1.846-0.705,2.206-0.678,2.231
				c0.022,0.022,0.012-1.23,0.017-1.965c0.005-1.098-1.106-0.692-1.547-0.318c-0.647,0.553-2.196,1.59-2.233,1.615
				c-0.58,0.365-0.708,0.114-0.768-0.311c-0.013-0.097-0.038-0.665-0.038-0.665c-0.077,0.056-1.424,0.755-1.782,0.985
				c-1.027,0.665-1.176,1.575-1.097,2.387l0.032,0.813c0.017,0.424,0.109,0.904-0.309,0.874c-0.445-0.031-0.412-0.201-0.554-0.649
				c0,0-0.119-2.104-1.811-1.223c-0.892,0.463-0.154,2.475-0.091,2.59l0.44,3.045c-0.373,0.129-1.246-0.469-1.772-1.508
				c-0.972-1.91-1.588-3.285-1.859-3.869c-2.668-5.74,1.973-11.656,8.509-9.947C111.188,58.546,113.93,60.049,113.93,60.049z"/>
			<g>
				<g>
					<polygon fill="#232323" points="103.815,67.313 104.164,67.147 103.367,67.522 103.019,67.687 					"/>
				</g>
				<polygon fill="#222222" points="108.14,70.372 108.488,70.205 108.527,69.737 108.178,69.905 				"/>
				<path fill="#1F1F1F" d="M104.164,67.147c0.229-0.105,0.521-0.053,0.813,0.147l3.55,2.442l-0.35,0.168l-3.549-2.443
					c-0.292-0.201-0.587-0.254-0.813-0.148L104.164,67.147z"/>
				<path fill="#3A3A3A" d="M104.629,67.461c-0.292-0.201-0.587-0.254-0.813-0.148l-0.797,0.374
					c-0.085,0.04-0.098,0.196-0.027,0.344c0.036,0.073,0.084,0.135,0.138,0.169c0.052,0.037,0.106,0.049,0.149,0.027l0.858-0.402
					c0.114-0.053,0.262-0.027,0.407,0.074l3.596,2.473l0.038-0.467L104.629,67.461z"/>
				<g>
					<g enable-background="new    ">
						<path fill="#6B6B6B" d="M108.39,70.221l-0.009,0.109c-0.001,0.013,0.007,0.028,0.023,0.039c0.034,0.021,0.09,0.027,0.125,0.01
							l0.009-0.109c-0.035,0.016-0.093,0.012-0.126-0.011C108.398,70.247,108.39,70.233,108.39,70.221L108.39,70.221z"/>
					</g>
					<path fill="#6B6B6B" d="M108.42,70.184c-0.037,0.018-0.04,0.051-0.008,0.075c0.033,0.022,0.091,0.026,0.126,0.011l0.098-0.049
						c0.038-0.016,0.038-0.049,0.006-0.07c-0.031-0.022-0.09-0.028-0.125-0.01L108.42,70.184z"/>
					<path fill="#4F4F4F" d="M108.636,70.221c0.018-0.008,0.027-0.02,0.028-0.033l-0.009,0.11c0,0.015-0.01,0.026-0.029,0.036
						l-0.097,0.045l0.009-0.109L108.636,70.221z"/>
				</g>
				<g>
					<path fill="#4B4B4B" d="M108.313,70.063l0.087,0.06l-0.007,0.11l-0.088-0.061c-0.018-0.013-0.025-0.025-0.023-0.042l0.007-0.11
						C108.288,70.036,108.296,70.049,108.313,70.063z"/>
					<g enable-background="new    ">
						<path fill="#959595" d="M108.4,70.123l-0.007,0.11c0.034,0.025,0.095,0.029,0.131,0.011c0.021-0.009,0.03-0.022,0.031-0.038
							l0.009-0.107c-0.001,0.013-0.013,0.025-0.032,0.035C108.495,70.151,108.436,70.148,108.4,70.123L108.4,70.123z"/>
					</g>
					<path fill="#6B6B6B" d="M108.32,69.985c-0.038,0.02-0.042,0.054-0.007,0.078l0.087,0.06c0.035,0.025,0.095,0.028,0.132,0.011
						c0.038-0.017,0.043-0.053,0.007-0.077l-0.088-0.06C108.418,69.971,108.357,69.965,108.32,69.985z"/>
				</g>
				<g>
					<g enable-background="new    ">
						<path fill="#8D8D8D" d="M108.409,69.961l-0.006,0.111c-0.003,0.014,0.006,0.025,0.022,0.037
							c0.032,0.023,0.088,0.029,0.125,0.01l0.009-0.109c-0.037,0.018-0.094,0.015-0.127-0.009
							C108.418,69.99,108.409,69.975,108.409,69.961L108.409,69.961z"/>
					</g>
					<path fill="#959595" d="M108.441,69.928c-0.037,0.018-0.041,0.05-0.009,0.073c0.033,0.023,0.09,0.026,0.127,0.009l0.096-0.046
						c0.036-0.017,0.039-0.049,0.007-0.072c-0.033-0.022-0.091-0.027-0.126-0.01L108.441,69.928z"/>
					<path fill="#4F4F4F" d="M108.655,69.964c0.019-0.009,0.029-0.021,0.03-0.036l-0.01,0.111c0,0.014-0.01,0.025-0.029,0.035
						l-0.096,0.045l0.009-0.109L108.655,69.964z"/>
				</g>
				<polygon fill="#222222" points="116.209,67.103 116.558,66.937 116.597,66.467 116.248,66.636 				"/>
				<g>
					<g enable-background="new    ">
						<path fill="#6B6B6B" d="M116.459,66.952l-0.007,0.111c0,0.012,0.006,0.025,0.022,0.037c0.033,0.023,0.088,0.027,0.125,0.012
							l0.01-0.112c-0.037,0.018-0.095,0.015-0.128-0.011C116.466,66.979,116.459,66.965,116.459,66.952L116.459,66.952z"/>
					</g>
					<path fill="#6B6B6B" d="M116.488,66.92c-0.036,0.016-0.038,0.048-0.007,0.068c0.033,0.025,0.091,0.028,0.128,0.011l0.095-0.046
						c0.037-0.017,0.041-0.051,0.006-0.072c-0.032-0.022-0.09-0.027-0.125-0.01L116.488,66.92z"/>
					<path fill="#4F4F4F" d="M116.704,66.954c0.019-0.008,0.028-0.02,0.028-0.033l-0.006,0.109
						c-0.002,0.014-0.011,0.027-0.031,0.034l-0.096,0.048l0.01-0.112L116.704,66.954z"/>
				</g>
				<g>
					<path fill="#4B4B4B" d="M116.385,66.794l0.086,0.06l-0.009,0.109l-0.086-0.061c-0.019-0.013-0.027-0.025-0.026-0.041
						l0.008-0.109C116.357,66.768,116.366,66.78,116.385,66.794z"/>
					<g enable-background="new    ">
						<path fill="#959595" d="M116.471,66.854l-0.009,0.109c0.037,0.024,0.093,0.029,0.133,0.011
							c0.018-0.007,0.029-0.022,0.031-0.036l0.007-0.11c-0.001,0.017-0.013,0.028-0.029,0.036
							C116.565,66.883,116.506,66.877,116.471,66.854L116.471,66.854z"/>
					</g>
					<path fill="#6B6B6B" d="M116.388,66.716c-0.038,0.02-0.039,0.052-0.003,0.078l0.086,0.06c0.035,0.023,0.095,0.029,0.133,0.01
						c0.036-0.018,0.041-0.051,0.006-0.076l-0.089-0.061C116.484,66.704,116.427,66.7,116.388,66.716z"/>
				</g>
				<g>
					<g enable-background="new    ">
						<path fill="#8D8D8D" d="M116.48,66.694l-0.009,0.108c-0.001,0.015,0.008,0.028,0.022,0.042c0.035,0.02,0.09,0.025,0.126,0.007
							l0.01-0.11c-0.037,0.016-0.094,0.015-0.128-0.011C116.487,66.719,116.48,66.707,116.48,66.694L116.48,66.694z"/>
					</g>
					<path fill="#959595" d="M116.509,66.659c-0.034,0.018-0.038,0.049-0.007,0.071c0.034,0.025,0.091,0.026,0.128,0.011
						l0.095-0.045c0.036-0.017,0.04-0.05,0.006-0.073c-0.032-0.022-0.09-0.027-0.126-0.009L116.509,66.659z"/>
					<path fill="#4F4F4F" d="M116.725,66.696c0.021-0.008,0.029-0.02,0.029-0.035l-0.008,0.109c0,0.014-0.011,0.026-0.028,0.035
						l-0.098,0.046l0.01-0.11L116.725,66.696z"/>
				</g>
				<path fill="#2F2F2F" d="M115.887,67.565l0.09-1.16c0.007-0.103-0.022-0.176-0.077-0.212l0.317,0.221
					c0.054,0.036,0.085,0.11,0.077,0.21l-0.087,1.16c-0.018,0.201-0.18,0.438-0.361,0.526l-0.322-0.22
					C115.709,68.002,115.871,67.765,115.887,67.565z"/>
				<g enable-background="new    ">
					<defs>
						<path id="SVGID_69_" enable-background="new    " d="M116.537,65.949c-0.105-0.073-0.213-0.146-0.317-0.218
							c-0.125-0.088-0.308-0.092-0.515,0.008l0.318,0.221C116.231,65.86,116.413,65.864,116.537,65.949z"/>
					</defs>
					<clipPath id="SVGID_70_">
						<use xlink:href="#SVGID_69_"  overflow="visible"/>
					</clipPath>
					<g clip-path="url(#SVGID_70_)" enable-background="new    ">
						<path fill="#3A3A3A" d="M116.537,65.949l-0.317-0.218c-0.125-0.088-0.308-0.092-0.515,0.008l0.318,0.221
							C116.231,65.86,116.413,65.864,116.537,65.949L116.537,65.949z"/>
					</g>
				</g>
				<path fill="#1F1F1F" d="M113.615,69l1.908-0.909l0.322,0.22l-1.912,0.907c-0.093,0.047-0.171,0.045-0.229,0.007l-0.317-0.222
					C113.442,69.042,113.523,69.043,113.615,69z"/>
				<path opacity="0.67" fill="#B1D2D1" d="M113.95,67.215c-0.184,0.086-0.347,0.322-0.362,0.525l-0.089,1.16
					c-0.016,0.199,0.122,0.294,0.307,0.207l1.908-0.908c0.186-0.09,0.348-0.324,0.361-0.526l0.09-1.16
					c0.015-0.2-0.121-0.296-0.307-0.208L113.95,67.215z"/>
				<g>
					<polygon fill="#282828" points="116.023,65.959 115.705,65.739 113.797,66.648 114.114,66.868 					"/>
				</g>
				<path fill="#2F2F2F" d="M112.995,68.354c0.019,0.014,0.026,0.037,0.023,0.074l-0.009,0.115
					c-0.006,0.095,0.021,0.165,0.069,0.207l0.055,0.037c0.057,0.039,0.103,0.092,0.096,0.187l-0.018,0.237
					c-0.019,0.224,0.05,0.391,0.173,0.475l-0.318-0.221c-0.122-0.084-0.188-0.249-0.172-0.476l0.017-0.235
					c0.006-0.076-0.023-0.13-0.066-0.164l-0.075-0.053c-0.055-0.038-0.087-0.111-0.077-0.215l0.01-0.116
					c0.001-0.038-0.006-0.062-0.025-0.075L112.995,68.354z"/>
				<g enable-background="new    ">
					<path fill="#3A3A3A" d="M114.114,66.868l-0.317-0.22c-0.413,0.197-0.781,0.728-0.815,1.183l0.319,0.219
						C113.335,67.594,113.7,67.064,114.114,66.868L114.114,66.868z"/>
				</g>
				<polygon fill="#1D1D1D" points="113.304,68.012 112.984,67.792 112.978,67.911 113.294,68.131 				"/>
				<g enable-background="new    ">
					<path fill="#3A3A3A" d="M113.22,68.027l-0.316-0.222c-0.074-0.047-0.197-0.051-0.382,0.037
						c-0.253,0.122-0.402,0.298-0.479,0.469l0.319,0.221c0.075-0.172,0.226-0.348,0.478-0.467
						C113.026,67.975,113.147,67.975,113.22,68.027L113.22,68.027z"/>
				</g>
				<path fill="#2F2F2F" d="M111.539,69.635l0.089-1.162c0.008-0.098-0.023-0.172-0.076-0.21l0.318,0.22
					c0.053,0.039,0.081,0.112,0.075,0.212l-0.089,1.159c-0.014,0.202-0.176,0.438-0.359,0.526l-0.32-0.221
					C111.361,70.073,111.524,69.836,111.539,69.635z"/>
				<g enable-background="new    ">
					<path fill="#3A3A3A" d="M112.191,68.02l-0.319-0.219c-0.123-0.088-0.307-0.092-0.515,0.008l0.318,0.219
						C111.884,67.931,112.065,67.934,112.191,68.02L112.191,68.02z"/>
				</g>
				<path fill="#1F1F1F" d="M109.27,71.071l1.907-0.911l0.32,0.221l-1.91,0.911c-0.092,0.041-0.171,0.04-0.229,0.002l-0.317-0.219
					C109.098,71.112,109.177,71.114,109.27,71.071z"/>
				<path opacity="0.67" fill="#B1D2D1" d="M109.603,69.285c-0.184,0.089-0.346,0.323-0.359,0.525l-0.091,1.159
					c-0.014,0.204,0.122,0.296,0.304,0.209l1.912-0.908c0.184-0.088,0.344-0.324,0.36-0.527l0.089-1.158
					c0.016-0.204-0.121-0.297-0.305-0.208L109.603,69.285z"/>
				<path fill="#2F2F2F" d="M108.954,70.12l-0.088,1.16c-0.019,0.228,0.05,0.393,0.172,0.477l-0.317-0.221
					c-0.124-0.086-0.191-0.25-0.172-0.477l0.087-1.16L108.954,70.12z"/>
				<polygon fill="#282828" points="111.676,68.028 111.357,67.809 109.448,68.719 109.767,68.939 				"/>
				<path fill="#1F1F1F" d="M111.676,68.028c0.413-0.194,0.722,0.014,0.688,0.469l-0.002,0.035c0.075-0.172,0.226-0.348,0.478-0.467
					c0.277-0.133,0.411-0.065,0.455,0.066l0.007-0.082c0.034-0.455,0.399-0.985,0.813-1.182l1.909-0.908
					c0.414-0.197,0.723,0.012,0.687,0.465l-0.09,1.16c-0.033,0.455-0.397,0.986-0.811,1.184l-1.91,0.91
					c-0.415,0.195-0.724-0.015-0.688-0.467l0.018-0.237c0.01-0.114-0.062-0.169-0.131-0.21c-0.062-0.037-0.095-0.113-0.089-0.221
					l0.009-0.115c0.009-0.099-0.06-0.113-0.203-0.045c-0.216,0.104-0.223,0.201-0.229,0.249l-0.008,0.118
					c-0.008,0.1-0.051,0.207-0.115,0.304c-0.08,0.116-0.163,0.244-0.171,0.36l-0.019,0.241c-0.036,0.454-0.399,0.985-0.813,1.181
					l-1.91,0.912c-0.413,0.197-0.722-0.014-0.686-0.469l0.088-1.16c0.034-0.455,0.399-0.983,0.813-1.181L111.676,68.028z
					 M113.629,69.012c-0.016,0.201,0.121,0.294,0.305,0.205l1.912-0.907c0.182-0.089,0.344-0.325,0.361-0.526l0.087-1.16
					c0.015-0.202-0.121-0.295-0.306-0.206l-1.908,0.91c-0.187,0.085-0.347,0.321-0.363,0.524L113.629,69.012L113.629,69.012z
					 M109.281,71.081c-0.015,0.203,0.122,0.297,0.306,0.211l1.91-0.911c0.184-0.088,0.346-0.324,0.359-0.526l0.089-1.159
					c0.016-0.202-0.12-0.294-0.305-0.208l-1.909,0.908c-0.184,0.089-0.345,0.324-0.361,0.525L109.281,71.081L109.281,71.081z"/>
				<g enable-background="new    ">
					<path fill="#3A3A3A" d="M109.767,68.939l-0.318-0.22c-0.413,0.197-0.778,0.727-0.813,1.18l0.318,0.221
						C108.988,69.665,109.354,69.136,109.767,68.939L109.767,68.939z"/>
				</g>
			</g>
			<path fill="#E6C7B1" d="M104.657,67.538c1.336-0.054,1.536,1.225,1.536,1.225l0.104,2.682c0,0-0.041,0.588-0.54,0.711
				c-0.755,0.186-1.111-0.467-1.479-1.186c-0.022-0.039-0.497-1.104-0.527-1.166C103.344,68.905,103.39,67.586,104.657,67.538z"/>
			<polygon fill="#2E5770" points="110.289,80.235 111.535,81.711 111.12,83.745 109.964,82.635 			"/>
			<polygon fill="#2E5770" points="110.799,81.405 113.813,94.397 112.706,99.325 110.855,95.477 			"/>
			<path fill="#282827" d="M111.92,105.559c0,0,3.355-0.402,4.896-1.693l0.014,1.246l0.309,1.906l-3.633,1.727L111.92,105.559z"/>
			<path fill="#383736" d="M112.239,106.958l-3.253,31.788l-0.096,2.919c-0.011,0.994-1.314,2.061-2.967,2.349
				c-2.04,0.353-3.16-0.193-3.16-0.193c-1.341-0.382-1.952-1.856-1.987-2.204l-0.359-14.934l-0.285-19.031L112.239,106.958z"/>
			<path fill="#A5DDDF" d="M102.942,105.12c-0.769,1.148-3.042,0.659-3.042,0.659s-3.538-2.315-6.599-4.647
				c-3.064-2.332-3.278-4.138-1.716-7.092l4.827-8.822c0,0,1.543-3.904,3.973-3.781c2.776,0.139,4.324,3.995,2.939,6.551
				c-0.762,1.408-4.057,5.639-5.587,7.578c-0.512,0.648-0.432,1.195-0.099,1.438l5.272,4.881
				C102.912,101.883,104.119,103.358,102.942,105.12z"/>
			<path fill="#383736" d="M100.204,110.405l-0.493-4.615c0,0,9.959,0.215,12.948-0.355c0.441-0.084,1.398,3.926,0.23,5.648
				c-1.194,1.764-1.601,4.807-1.601,4.807L100.204,110.405z"/>
			<path fill="#E6C7B1" d="M101.423,106.361l-0.072-0.898l2.082-2.765l3.016,0.67c0,0,2.788,0.588,3.304,2.298
				c0.941,3.13-1.435,3.064-1.435,3.064c-0.125-0.033-1.557-0.718-2.06-0.718c-0.255,0-2.441-0.24-2.441-0.24
				C102.476,107.629,101.745,107.368,101.423,106.361z"/>
			<path fill="#DDF0F1" d="M104.511,102.733c0.322,0.289,0.357,1.904-0.646,3.125c-0.931,1.13-1.451,1.143-1.451,1.143
				c-0.646,0.287-1.092,0.346-1.448,0.031c0,0-1.316-0.974-1.715-1.355c-0.258-0.25-0.106-0.402-0.106-0.402
				s0.207,0.194,0.475,0.184c0.428-0.018,1.27-0.16,2.086-0.99c1.578-1.609,0.98-2.844,0.98-2.844
				c0.238-0.227,0.505-0.195,0.745,0.094L104.511,102.733z"/>
		</g>
	</g>
	<g>
		<path opacity="0.29" fill="#231F20" d="M147.595,141.411c8.467,0.995,5.514,1.955,5.514,3.781c0,2.586,4.498,2.785,9.846,2.785
			c9.532,0,14.063-2.908,14.063-6.234c0-3.322-5.889-6.623-15.426-6.623c-10.044,0-17.34,1.122-18.92,3.309
			C141.501,140.047,145.992,141.221,147.595,141.411z"/>
		<path fill="#383736" d="M172.526,137.028c0,0-0.024,3.818-0.021,3.897c0.029,1.499-0.712,4.53-4.186,4.53
			c-2.863,0-1.427,0-1.427,0s-2.377-0.264-1.806-3.609c0.204-1.168,0.905-5.142,0.905-5.142L172.526,137.028z"/>
		<path fill="#545454" d="M172.526,136.195c0,0,0.077-0.091-0.021,4.185c-0.034,1.499-0.736,3.997-4.144,3.997
			c-1.378,0-1.73,0.028-1.77,0.028c-1.002-0.028-1.734-1.055-1.436-3.19c0.133-0.929,1.036-5.011,1.103-5.011L172.526,136.195z"/>
		<g>
			<path fill="#76A5B2" d="M156.819,99.723c0.83,0.107,2.636-1.284,2.636-1.284s0.06-0.2,0.163-0.552
				c0.586-1.982,2.743-8.781,3.134-11.32c0.434-2.791,0.86-7.843,0.86-7.843s1.358-7.955-1.542-9.061
				c-1.656-0.63-4.66,1.108-4.751,5.739c-0.034,1.782-0.297,10.69-0.297,10.69l-2.157,11.22
				C154.865,97.313,155.196,99.508,156.819,99.723z"/>
			<path fill="#E6C5AC" d="M158.043,99.149l-2.115-0.391l-0.588-0.49l-1.089,3.464l0.127,3.145c0,0-0.244,1.595,1.441,1.907
				c1.101,0.202,0.119,0.021,0.119,0.021c1.51,0.277,1.925-1.324,1.925-1.324l1.127-4.167
				C159.173,100.422,159.011,99.329,158.043,99.149z"/>
			<path fill="#E5ECED" d="M154.275,98.634c-0.051,0.372,0.674,1.208,1.753,1.454c1.4,0.318,2.104,0.135,2.104,0.135
				c0.685-0.141,1.078-0.352,1.191-0.807c0,0,0.428-1.684,0.535-2.219c0.069-0.346-0.099-0.369-0.099-0.369s-0.066,0.271-0.137,0.36
				c-0.261,0.339-0.933,0.746-2.331,0.608c-2.196-0.217-2.286-1.543-2.286-1.543c-0.318-0.045-0.441,0.088-0.474,0.455
				L154.275,98.634z"/>
		</g>
		<g>
			<path fill="#545454" d="M152.288,132.881l-1.316,0.947c0,0-5.306,1.867-5.672,2.007c-0.417,0.159-1.324,0.417-1.292,1.156
				c0.008,0.176-0.009,0.286,0.085,0.454c0.347,0.596,1.13,0.916,1.864,1.113c1.608,0.434,5.089,0.259,5.089,0.259
				c1.012-0.024,2.722-0.356,2.92-0.486c0,0,0.886-0.168,1.012,0.143c0.044,0.11-0.093,0.595-0.115,0.692l2.223-0.656
				c0.112-0.043,0.413-1.047,0.507-1.494l0.247-2.996L152.288,132.881z"/>
			<g>
				<path fill="#282827" d="M145.082,137.954c0.409,0.244,0.999,0.402,1.589,0.526c2.356,0.489,6.037,0.021,6.037,0.021
					c0.362-0.047,1.748-0.248,1.748-0.248s0.55,0.097,0.521,0.221c0.004-0.063-0.008-0.007,0.021,0.003
					c0.051,0.024-0.136,0.689-0.136,0.689l-0.537-0.412c0,0-1.685,0.205-1.986,0.271c0,0-3.54,0.436-5.914-0.025
					c-0.749-0.146-1.988-0.705-2.372-1.436c-0.07-0.128-0.133-0.436-0.022-0.638C144.035,136.963,144.534,137.626,145.082,137.954z"
					/>
				<path fill="#282827" d="M154.978,138.474l2.436-0.813c0,0-0.276,0.875-0.306,0.857l-2.221,0.656
					C154.899,139.102,154.95,138.663,154.978,138.474z"/>
			</g>
		</g>
		<path fill="#282827" d="M158.111,97.772l-7.09,34.945c-0.279,1.258-0.482,1.498-0.148,1.961c1.245,1.729,5.667,4.516,6.759,1.895
			l10.279-40.779L158.111,97.772z"/>
		<path fill="#231F20" d="M163.357,96.412l1.933,39.004l0.088,2.714c0.014,0.925,1.224,1.914,2.762,2.182
			c1.896,0.332,2.938-0.176,2.938-0.176c1.248-0.357,1.816-1.728,1.849-2.05l0.451-19.626l0.594-20.416L163.357,96.412z"/>
		<path fill="#8CB9C9" d="M159.794,70.95c-1.528,2.615-1.722,5.863-1.623,22.887l-1.12,7.143c-0.028,0.721-0.84,3.222,0.35,3.711
			c0,0,3.362,2.242,8.055,2.521c6.326,0.377,8.193-0.42,8.193-0.42c1.12-0.07,1.215-3.845,1.26-4.201l0.509-25.676
			c0.133-1.665-5.771-5.451-6.756-6.084l-4.046-1.406C164.615,69.424,160.832,69.178,159.794,70.95z"/>
		<path fill="#E6C7B1" d="M172.108,98.491l0.066-0.835l-1.937-2.571l-2.806,0.625c0,0-2.594,0.545-3.073,2.137
			c-0.874,2.912,1.337,2.85,1.337,2.85c0.114-0.031,1.447-0.668,1.914-0.668c0.235,0,2.271-0.222,2.271-0.222
			C171.128,99.672,171.807,99.43,172.108,98.491z"/>
		<path fill="#BDCCCF" d="M162.16,75.209c-0.744-1.17-0.362-4.461,1.495-5.932c0.557,0.044,0.96,0.146,0.96,0.146l3.565,1.057
			c0,0,1.754,1.113,2.862,2.028c-0.564-0.007-1.897,0.622-3.878,2.362C165.32,76.494,163.189,76.829,162.16,75.209z"/>
		<path fill="#E6C5AC" d="M163.216,72.459c2.2,2.193,3.493-0.078,4.929-1.773l0.271-6.104l-5.048,1.451L163.216,72.459z"/>
		<path fill="#EDEDED" d="M168.238,68.629c0,0,0.002,0.824-0.033,0.973c-0.57,2.469-3.629,3.374-3.629,3.374
			c-0.389,0.187-0.38,0.64-0.345,1.237l0.157,1.758c0.036,0.574,0.335,0.525,0.57,0.295c0,0,2.364-1.904,3.03-2.549
			c1.57-1.516,1.454-1.875,0.939-3.869C168.618,68.645,168.238,68.629,168.238,68.629z"/>
		<path fill="#EDEDED" d="M163.858,72.87c0.245,0.318,0.189,0.526,0.012,0.758l-0.938,1.256c-0.487,0.554-0.528,0.088-0.52-0.377
			l0.006-3.342c0.275-2.098,0.84-2.18,0.84-2.18s0.008,0.485-0.043,0.92C163.126,70.624,163.179,71.996,163.858,72.87z"/>
		<path fill="#F6E8D9" d="M164.192,61.493c-1.243-0.051-1.429,1.141-1.429,1.141l-0.097,2.494c0,0,0.037,0.545,0.502,0.66
			c0.702,0.172,1.033-0.435,1.377-1.103c0.02-0.038,0.461-1.025,0.49-1.084C165.413,62.764,165.368,61.536,164.192,61.493z"/>
		<g>
			<path fill="#E6C7B1" d="M164.38,57.386l-0.001,0.003l4.803,0.209l-0.263,8.67c-0.089,0.593-0.016,0.842-0.133,1.342
				c-0.131,0.549-0.404,1.025-1.192,1.521c0,0-1.77,1.038-2.664,1.462c-0.506,0.238-0.797,0.386-1.355,0.396
				c-1.845,0.033-2.605-1.395-2.933-2.438c-0.144-0.465-0.535-1.897-0.563-2.4l-0.471-5.164l-0.142-4.643L164.38,57.386z"/>
			<path fill="#633A13" d="M160.476,55.417c-1.376,0.703-2.054,1.688-1.468,3.807c0.474,1.716,0.656,2.052,0.629,2.076
				c-0.021,0.019-0.012-1.147-0.016-1.831c-0.005-1.019,1.028-0.643,1.438-0.294c0.603,0.515,2.043,1.478,2.08,1.501
				c0.538,0.34,0.659,0.108,0.714-0.289c0.012-0.086,0.035-0.616,0.035-0.616c0.068,0.054,1.321,0.7,1.657,0.915
				c0.954,0.62,1.092,1.465,1.018,2.221l-0.028,0.756c-0.016,0.392-0.101,0.84,0.287,0.813c0.412-0.03,0.739-0.11,0.87-0.528
				c0,0,0.393-1.447,1.327-1.214c0.908,0.228,0.144,2.3,0.086,2.409l-0.409,2.834c0.348,0.119,1.158-0.438,1.647-1.401
				c0.906-1.778,1.479-3.059,1.73-3.602c2.482-5.339-1.836-10.841-7.911-9.255C163.023,54.018,160.476,55.417,160.476,55.417z"/>
			<path fill="#E6C7B1" d="M168.909,62.573c-1.244-0.049-1.43,1.139-1.43,1.139l-0.098,2.5c0,0,0.039,0.543,0.503,0.659
				c0.703,0.171,1.034-0.438,1.376-1.104c0.021-0.04,0.463-1.026,0.49-1.084C170.131,63.844,170.086,62.619,168.909,62.573z"/>
		</g>
		<path fill="#9EC8D1" d="M170.697,97.338c0.713,1.068,2.827,0.612,2.827,0.612s3.293-2.153,6.139-4.323
			c2.849-2.166,3.047-3.848,1.596-6.596l-4.489-8.205c0,0-1.437-3.633-3.697-3.518c-2.581,0.128-4.021,3.719-2.734,6.096
			c0.71,1.309,3.776,5.244,5.198,7.049c0.477,0.598,0.402,1.111,0.089,1.334l-4.9,4.541C170.725,94.329,169.6,95.698,170.697,97.338
			z"/>
		<path fill="#E5ECED" d="M169.236,95.12c-0.301,0.266-0.333,1.77,0.601,2.906c0.867,1.049,1.352,1.061,1.352,1.061
			c0.602,0.269,1.014,0.324,1.345,0.033c0,0,1.226-0.908,1.596-1.265c0.24-0.231,0.098-0.372,0.098-0.372s-0.191,0.18-0.439,0.17
			c-0.397-0.015-1.182-0.148-1.939-0.92c-1.471-1.498-0.913-2.646-0.913-2.646c-0.222-0.213-0.471-0.184-0.694,0.084L169.236,95.12z
			"/>
	</g>
	<g>
		<path opacity="0.29" fill="#231F20" d="M187.866,170.159c-0.827,0.967-2.763,3.596,1.211,5.527
			c3.975,1.928,12.804,2.85,14.849,0.654c2.043-2.195,2.688-3.391,4.593-5.701C211.343,167.208,197.315,159.133,187.866,170.159z"/>
		<g>
			<g>
				<path fill="#F6E8D9" d="M203.478,132.436c0.012,0.946-1.217,1.582-2.05,1.59c-0.291,0.002-0.447,1.78-0.866,2.449
					c-0.439,0.701-1.139,0.291-1.254,0.084c-0.09-0.16,0.647-2.76,0.811-3.422c0.539-2.207,1.396-2.297,2.23-2.305
					C203.181,130.823,203.467,131.49,203.478,132.436z"/>
				<path fill="#F6E8D9" d="M204.508,130.836l-2.403-0.001l-0.875,2.951l0.006,0.483l0.406,3.847c0,0,0.054,1.864,1.971,1.867
					c1.25,0,0.134,0,0.134,0c1.716,0.002,2.172-1.913,2.172-1.913l0.392-4.975C206.33,132.042,205.608,130.838,204.508,130.836z"/>
				<path fill="#107A7F" d="M201.553,131.319h3.86l1.872-14.271l-0.492-8.363c0.076-2.648-1.292-7.375-3.965-7.779
					c-3.139-0.473-2.249,4.886-2.249,4.886l1.313,11.046L201.553,131.319z"/>
			</g>
			<path fill="#E6C5AC" d="M207.172,141.987c0.015-1.682,0.579-10.783,0.303-12.008l-11.804,6.162
				c0.039,0.404,0.059,0.547,0.059,0.547l4.544,28.012l0.044,0.068c0,0,0.201,1.816-1.909,3.203
				c-0.473,0.324-3.124,2.041-3.166,2.055c-0.016,0.008-0.022,0.008-0.036,0.01c0.058,0.031,0.113,0.111,0.113,0.316
				c0,0.686,6.989,0.076,6.989,0.076s1.71,0.127,2.524-0.479c0.693-0.52,0.877-0.602,0.877-1.24L207.172,141.987z"/>
			<g>
				<path fill="#7C7676" d="M203.387,170.542l0.171,1.629c0,0,0.462,0.316,0.984,0.225c0.691-0.119,0.945-0.453,0.945-0.453
					l0.53-2.555c0,0-0.505,0.865-1.917,1.117C203.66,170.583,203.387,170.542,203.387,170.542z"/>
				<path fill="#0E0E0D" d="M201.981,168.385c-2.671,1.695-4.338,0.777-4.576,0.648c-0.963-0.52-0.563-1.127-0.043-1.496
					c0.216-0.15,0.532-0.223,0.532-0.223c0.029,0.004-2.55-0.217-3.281,0.287c-0.243,0.168-0.466,0.398-0.478,0.58
					c-0.027,0.391,0.255,0.674,0.255,0.674s1.539,0.623,2.603,1.166c1.808,0.93,6.205,0.367,7.851,0.438
					c0.563,0.025,1.322-0.842,1.381-1.924c0.085-1.553-0.419-2.135-0.419-2.135s-0.685-0.066-1.914,0.764
					C203.596,167.366,202.535,168.03,201.981,168.385z"/>
				<path fill="#7C7676" d="M204.674,170.202c-0.245,0.053-1.13,0.094-2.491,0.227c-2.495,0.242-3.589,0.107-5.119-0.521
					c-1.107-0.451-1.667-0.715-2.179-1.018c-0.264-0.156-0.813-0.473-0.749-0.707c-0.121,0.365,0.106,0.668,0.106,0.668
					s2.194,1.326,3.274,1.627c1.319,0.371,3.401,0.201,5.196,0.152c0.933-0.027,2.011-0.057,2.523-0.152
					c0.554-0.1,0.656-0.773,0.688-0.865C205.942,169.557,205.45,170.032,204.674,170.202z"/>
			</g>
			<path fill="#423B3B" d="M199.731,129.315l0.731,37.039c0,0,1.128,0.543,2.564,0.482c1.806-0.076,2.964-0.43,2.964-0.43
				l1.181-24.42c0.014-1.576,0.797-10.947,0.146-13.619c-0.043-0.179-0.115-0.377-0.162-0.563L199.731,129.315z"/>
			<path fill="#E6C5AC" d="M195.206,170.036C195.105,169.979,195.01,170.09,195.206,170.036L195.206,170.036z"/>
			<path fill="#E6C5AC" d="M195.206,170.036C195.105,169.979,195.01,170.09,195.206,170.036L195.206,170.036z"/>
			<path fill="#E6C7B1" d="M205.915,132.153c0.084-1.106-0.871-3.77-0.871-3.77l-12.681,1.36v1.72l0.176,2.739
				c0,0,3.137,34.187,3.139,34.479c0.009,1.135-1.117,1.742-3.284,2.422c-0.589,0.186-1.677,0.729-1.711,0.74
				c-0.388,0.127-1.106,1.242-0.151,1.615c2.015,0.785,6.744,0.684,6.744,0.684s2.391-0.521,3.078-0.574
				c0.865-0.066,0.699-2.467,0.699-2.467c0.249-2.717,2.881-31.437,2.997-32.439C204.25,136.942,205.653,135.551,205.915,132.153z"
				/>
			<g>
				<path fill="#7C7676" d="M199.136,174.02l0.361,1.598c0,0,0.512,0.258,1.037,0.105c0.698-0.205,0.923-0.568,0.923-0.568
					l0.254-2.604c0,0-0.827,1.395-2.105,1.432C199.144,173.999,199.136,174.02,199.136,174.02z"/>
				<path fill="#0E0E0D" d="M196.822,172.192c-2.45,1.457-4.361,0.834-4.589,0.748c-1.306-0.49-1.428-1.221,0.189-1.836
					c0.251-0.096-3.047,0.502-3.386,1.213c-0.13,0.271-0.246,0.449-0.238,0.633c0.02,0.391,0.34,0.637,0.34,0.637
					s1.655,0.434,2.81,0.844c1.968,0.699,6.977-0.537,8.679-0.668c0.582-0.045,1.28-1.002,1.2-2.08
					c-0.105-1.457-0.679-2.025-0.679-2.025s-0.707-0.027-1.875,0.945C198.988,170.84,197.249,171.94,196.822,172.192z"/>
				<path fill="#7C7676" d="M200.693,173.303c-0.245,0.084-1.487,0.289-2.849,0.518c-2.924,0.486-3.18,0.832-5.185,0.641
					c-1.226-0.115-2.345-0.533-2.896-0.793c-0.32-0.152-0.966-0.582-0.965-0.719c-0.015,0.518,0.186,0.652,0.186,0.652
					s1.142,1.033,3.637,1.391c2.65,0.379,4.8-0.732,6.258-0.895c1.038-0.115,1.614-0.139,2.082-0.404
					c0.629-0.361,0.657-0.811,0.679-0.904C201.652,172.729,201.472,173.04,200.693,173.303z"/>
			</g>
			<path fill="#5B5353" d="M192.363,129.744v1.72l0.176,2.739c0,0,2.932,34.294,2.935,34.589c0.001,0.176-0.033,0.336-0.086,0.49
				c0,0,0.611,0.518,2.657,0.641c2.415,0.145,3.422-0.734,3.422-0.734c0.652-7.111,2.747-29.527,2.85-30.412
				c0.2-1.723,1.524-3.1,1.777-6.5c0.114-1.533-0.396-3.993-0.396-3.993L192.363,129.744z"/>
			<path opacity="0.52" fill="#3A3535" d="M192.363,130.833c0,0,0.461,2.855,7.118,2.229c4.835-0.456,7.96-3.52,7.96-3.52
				c-0.035-0.597-0.078-0.796-0.213-1.476l-14.7,0.316c0.006,0.261-0.187,0.34-0.165,0.628
				C192.405,129.53,192.343,130.632,192.363,130.833z"/>
			<path fill="#1492A0" d="M194.835,101.969l-4.777,10.111c0,0-0.426,0.67-0.411,1.264c0.017,0.586,0.021,1.3,0.747,2.411
				c0.077,0.118,0.156,0.231,0.237,0.335c0.782,1.016,1.585,2.116,1.585,3.398l-0.205,8.556c0,0,0.002,1.241,0.05,1.402
				c0,0,1.784,2.2,5.613,2.243c3.654,0.038,7.849-2.126,9.203-2.766c0.267-0.125,0.502-0.32,0.549-0.351l-2.076-7.184
				c-0.298-1.239-0.35-1.979-0.3-2.714l0.911-8.402c0,0,0.161-3.302-0.304-5.072c-1.21-4.617-4.388-5.242-4.56-5.594
				C201.098,99.608,195.196,101.339,194.835,101.969z"/>
			<g>
				<path fill="#E6C7B1" d="M195.52,136.848c0.01,0.865-1.117,1.447-1.88,1.457c-0.267,0.003-0.409,1.632-0.795,2.246
					c-0.403,0.641-1.043,0.266-1.149,0.076c-0.083-0.146,0.594-2.531,0.743-3.139c0.495-2.023,1.28-2.105,2.045-2.111
					c0.452-0.006,0.729,0.208,0.883,0.564C195.47,136.184,195.516,136.495,195.52,136.848z"/>
				<path fill="#E6C7B1" d="M196.464,135.379h-2.205l-0.801,2.706l0.004,0.443l0.375,3.528c0,0,0.048,1.71,1.805,1.712
					c1.148,0,0.124,0,0.124,0c1.573,0.001,1.782-2.21,1.782-2.21l0.191-3.781C197.759,136.813,197.475,135.379,196.464,135.379z"/>
			</g>
			<path fill="#21A4AF" d="M193.33,135.702c0,0,0.994,0.439,2.341,0.439c0.963,0,1.616-0.297,1.616-0.297l0.269-2.641l1.053-11.541
				l-0.16-9.037c0.151-2.422-0.568-6.209-3.22-6.209c-3.173,0-2.672,4.294-2.672,4.294l1.312,11.047L193.33,135.702z"/>
			<path fill="#E6C7B1" d="M193.855,84.491l-4.584,0.217l2.339,12.125c0.455,2.27,1.799,3.246,2.827,3.279
				c1.988,0.064,3.385-1.453,5.196-3.885c1.604-2.155,1.272-3.502,1.288-3.822l0.687-7.914H193.855z"/>
			<path fill="#68400D" d="M205.034,92.302c0.39-3.633-0.037-9.261-5.185-10.823c-4.493-1.367-8.288-0.037-10.256,2.991
				c-1.591,2.446-0.979,5.368-0.845,5.435c0.317,0.159,0.565,0.241,0.766,0.294c-0.034-0.224-0.059-0.488-0.059-0.799
				c0-1.108,0.202-1.715,0.202-1.715s-0.012,1.249,0.411,2.647c2.299,0.813,3.019,4.182,2.768,6.738
				c-0.173,1.758-1.472,4.115-2.467,5.002c0,0,0.164,0.049,0.457,0.115c0.315-0.189,0.949,0.184,1.273-0.184
				c0.839-0.946,1.443-1.998,1.443-1.998s-0.108,0.699-0.767,2.205c-0.14,0.32-0.595,0.05-0.714,0.293
				c1.986,0.257,5.469,0.355,9.536-1.099c2.771-0.989,5.171-3.763,5.048-3.835C204.792,96.473,204.884,93.715,205.034,92.302z"/>
		</g>
	</g>
</g>
</svg>
