<?xml version="1.0" encoding="utf-8"?>
<!-- Generator: Adobe Illustrator 15.0.0, SVG Export Plug-In . SVG Version: 6.00 Build 0)  -->
<!DOCTYPE svg PUBLIC "-//W3C//DTD SVG 1.1//EN" "http://www.w3.org/Graphics/SVG/1.1/DTD/svg11.dtd">
<svg version="1.1" id="Capa_1" xmlns="http://www.w3.org/2000/svg" xmlns:xlink="http://www.w3.org/1999/xlink" x="0px" y="0px"
	 width="180.584px" height="181px" viewBox="11.584 15.02 180.584 181" enable-background="new 11.584 15.02 180.584 181"
	 xml:space="preserve">
<g>
	<path opacity="0.21" fill="#231F20" enable-background="new    " d="M183.2,162.889L80.494,104.127l-48.387,28.055l45.147,25.797
		c-1.143,0.395-1.891,0.68-1.891,0.68l-13.053,9.705l-16.595-5.67l-3.949,1.354c0,0-0.228,0.05-0.541,0.193
		c-0.739,0.338-1.586,0.805-1.473,2.645c0.152,2.427,3.183,3.939,3.183,3.939l7.271,4.243l-6.771,4.111c0,0-1.054,2.455-1.054,4.91
		s2.719,5.693,7.075,3.869c2.568-1.072,10.901-6.074,10.901-6.074l12.127,6.26c0,0,6.262,3.271,6.964-2.168
		c0.358-2.791-1.984-7.5-1.984-7.5l-4.077-2.197c0,0,11.158,5.285,25.607-0.909c2.121-0.908,3.938-2.574,4.24-3.334l31.696,18.903
		L183.2,162.889z"/>
	<g>
		<g enable-background="new    ">
			<g enable-background="new    ">
				<g>
					<path fill="#646D6D" d="M164.463,110.904l0.053,51.977c0,0.459,0.309,0.916,0.908,1.268c1.211,0.703,3.186,0.703,4.404,0
						c0.617-0.356,0.922-0.821,0.922-1.289l-0.049-51.971c0,0.465-0.306,0.93-0.92,1.286c-1.223,0.705-3.195,0.705-4.408,0
						C164.771,111.822,164.463,111.363,164.463,110.904L164.463,110.904z"/>
				</g>
			</g>
		</g>
	</g>
	<path fill="#173547" d="M80.406,133.802l-19.523-11.274c-0.643-0.371-1.222-0.406-1.64-0.163l-19.431,11.192
		c0.419-0.236,1.001-0.201,1.641,0.168l19.525,11.272c1.274,0.733,2.298,2.513,2.296,3.979c0,0.731-0.256,1.241-0.667,1.485
		c4.79-2.787,14.638-8.42,19.43-11.204c0.411-0.234,0.669-0.75,0.671-1.472C82.714,136.316,81.685,134.537,80.406,133.802z"/>
	<g>
		<g>
			<path fill="#E6C5AC" d="M87.23,157.811C87.364,157.738,87.49,157.882,87.23,157.811L87.23,157.811z"/>
			<path fill="#DCB9A2" d="M77.916,128.955c-0.021-2.242-15.786-4.863-15.41-6.498c0,0,18.157-5.662,21.595-5.57
				c8.003,0.219,5.983,6.898,5.983,6.898l-9.614,26.906l-0.06,0.09c0,0-0.268,2.428,2.55,4.277c0.631,0.43,4.165,2.719,4.214,2.739
				c0.029,0.009,0.036,0.009,0.036,0.009c-0.059,0.049-0.132,0.151-0.132,0.432c0,0.906-9.321,0.096-9.321,0.096
				s-2.285,0.176-3.367-0.639c-0.929-0.691-1.292-3.816-1.285-4.666C73.323,133.271,77.916,128.955,77.916,128.955z"/>
		</g>
		<g>
			<path fill="#7C7676" d="M76.319,158.482l-0.232,2.174c0,0-0.615,0.424-1.312,0.305c-0.921-0.168-1.262-0.605-1.262-0.605
				l-0.706-3.41c0,0,0.676,1.152,2.558,1.488C75.954,158.539,76.319,158.482,76.319,158.482z"/>
			<path fill="#0E293A" d="M78.193,155.609c3.562,2.262,5.788,1.039,6.101,0.867c1.285-0.693,0.751-1.511,0.063-1.998
				c-0.288-0.203-0.713-0.295-0.713-0.295c-0.041,0,3.403-0.289,4.379,0.385c0.324,0.223,0.622,0.529,0.635,0.77
				c0.034,0.525-0.338,0.904-0.338,0.904s-2.056,0.824-3.475,1.555c-2.411,1.232-8.277,0.484-10.473,0.576
				c-0.749,0.037-1.786-1.119-1.843-2.564c-0.074-1.942,0.574-2.778,0.574-2.778s0.895-0.154,2.54,0.95
				C76.039,154.25,77.454,155.136,78.193,155.609z"/>
			<path fill="#7C7676" d="M74.598,158.033c0.327,0.066,1.507,0.125,3.326,0.301c3.33,0.324,4.784,0.143,6.825-0.695
				c1.48-0.604,2.229-0.953,2.909-1.354c0.354-0.211,1.084-0.636,1-0.945c0.167,0.49-0.144,0.896-0.144,0.896
				s-2.925,1.764-4.362,2.17c-1.763,0.498-4.543,0.27-6.936,0.203c-1.249-0.031-2.682-0.078-3.368-0.203
				c-0.738-0.135-0.871-1.037-0.915-1.152C72.908,157.173,73.567,157.807,74.598,158.033z"/>
		</g>
		<path fill="#E6C7B1" d="M70.697,139.421c0,0-6.521-8.819-2.219-12.489c0,0,13.369-4.189,15.386-4.983
			c13.038-5.118,11.811,7.151,11.811,7.151l-9.034,25.936c0,0-0.057,1.184-0.015,1.572c0.098,0.955,1.151,1.369,3.78,2.156
			c0.795,0.237,2.713,0.895,2.757,0.909c0.518,0.168,1.683,0.871,0.334,1.111c-0.9,0.157-9.025,2.504-9.025,2.504
			s-3.192-0.695-4.111-0.769c-1.149-0.088-1.267-1.028-1.267-1.885l0.337-1.4c-0.319-19.213,3.988-21.957,3.835-23.295
			L70.697,139.421z"/>
		<g>
			<path fill="#7C7676" d="M81.992,163.125l-0.483,2.133c0,0-0.687,0.344-1.386,0.139c-0.936-0.274-1.229-0.758-1.229-0.758
				l-0.343-3.471c0,0,1.104,1.859,2.805,1.91C81.98,163.098,81.992,163.125,81.992,163.125z"/>
			<path fill="#144163" d="M84.471,160.236c3.626,1.711,5.642,0.854,5.993,0.725c1.4-0.531,1.513-1.248,0.855-1.818
				c-0.271-0.235-0.913-0.379-0.913-0.379c-0.039,0,4.37,0.805,4.949,1.539c0.253,0.314,0.328,0.6,0.319,0.846
				c-0.028,0.519-0.453,0.849-0.453,0.849s-2.21,0.578-3.75,1.125c-2.622,0.937-9.199-0.162-11.474-0.336
				c-0.774-0.063-1.709-1.336-1.604-2.781c0.145-1.938,0.908-2.698,0.908-2.698s0.941-0.037,2.509,1.27
				C82.182,158.889,83.871,159.947,84.471,160.236z"/>
			<path fill="#7C7676" d="M79.906,162.171c0.328,0.106,1.669,0.504,3.488,0.81c3.901,0.649,5.804,0.559,7.997-0.023
				c1.589-0.422,2.4-0.678,3.143-0.994c0.384-0.168,1.141-0.631,1.141-0.814c0.019,0.687-0.25,0.867-0.25,0.867
				s-1.985,0.859-4.738,1.625c-3.256,0.902-6.401-0.19-8.354-0.406c-1.391-0.155-1.94,0.064-2.559-0.297
				c-0.846-0.479-1.097-1.328-1.125-1.453C78.636,161.404,78.87,161.818,79.906,162.171z"/>
		</g>
	</g>
	<path fill="#144163" d="M72.526,119.111c2.318,0,11.6,4.918,11.6,4.918c5.156,2.847,3.607,10.055,2.646,10.508
		c0,0-9.482,3.516-11.673,4.404c-3.461,1.397-11.366,2.332-15.601,0.713c-1.187-0.451-4.36-1.135-6.972-3.201
		c-1.919-1.516-2.863-4.398-2.494-7.369c0.438-3.486,1.028-5.584,1.028-5.584S72.141,119.111,72.526,119.111z"/>
	<g>
		<g enable-background="new    ">
			<g enable-background="new    ">
				<g>
					<path fill="#646D6D" d="M135.972,128.494l0.051,51.971c0,0.461,0.306,0.918,0.903,1.266c1.97,1.152,5.338,0.316,5.336-1.28
						l-0.055-51.978c0.013,1.604-3.362,2.428-5.326,1.291C136.272,129.407,135.972,128.948,135.972,128.494L135.972,128.494z"/>
				</g>
			</g>
		</g>
	</g>
	<g enable-background="new    ">
		<g>
			<polygon fill="#FFFFFF" points="134.29,145.424 182.008,117.792 77.503,57.603 29.789,85.238 			"/>
		</g>
		<polygon fill="#E0E0E0" points="29.789,85.238 134.29,145.424 182.008,117.792 182,120.141 134.286,147.773 29.779,87.58 		"/>
	</g>
	<g>
		<path fill="#969696" d="M114.336,83.153l-11.129-6.464c0.615,0.346,0.972,1.111,0.972,2.1c0,0.652-0.457,1.447-1.026,1.771
			l-6.066,3.502c-0.309,0.182-0.556,0.616-0.556,0.971c0,0.176,0.06,0.307,0.16,0.361l11.129,6.47
			c-0.103-0.066-0.165-0.192-0.165-0.365c0-0.356,0.248-0.79,0.561-0.966l6.068-3.508c0.568-0.322,1.021-1.121,1.021-1.766
			C115.301,84.266,114.95,83.501,114.336,83.153z"/>
		<g>
			<polygon fill="#212525" points="107.262,77.3 96.135,70.835 95.351,72.204 106.475,78.669 			"/>
		</g>
		<g>
			<polygon fill="#1C1E1F" points="115.127,81.788 103.999,75.317 96.135,70.835 107.262,77.3 			"/>
		</g>
		<g>
			<path fill="#656868" d="M107.262,77.3l-0.787,1.369l7.861,4.483c0.613,0.349,0.965,1.113,0.969,2.106
				c0,0.645-0.453,1.443-1.021,1.766l-6.068,3.508c-0.313,0.176-0.561,0.609-0.561,0.966c0.002,0.356,0.256,0.503,0.563,0.322
				l6.066-3.501c1.184-0.686,2.146-2.352,2.143-3.711c-0.002-1.328-0.479-2.354-1.299-2.821L107.262,77.3z"/>
		</g>
		<path fill="#696E70" d="M83.357,23.144l-1.112,0.645c0.381-0.222,0.913-0.191,1.492,0.145l1.112-0.645
			C84.27,22.949,83.737,22.923,83.357,23.144z"/>
		<polygon fill="#464949" points="85.15,55.894 85.236,25.747 84.117,26.396 84.035,56.541 132.538,84.542 133.648,83.893 		"/>
		<path fill="#929292" d="M135.922,92.062v-3.836l-1.119,0.655l0.008,3.834l0.003-0.01c0,0.664-0.233,1.13-0.608,1.349l1.113-0.648
			c0.376-0.217,0.609-0.684,0.612-1.346L135.922,92.062z"/>
		<g>
			<path fill="#A8A8A8" d="M134.799,88.89L81.55,58.144l-0.014,3.814c-0.003,1.336,0.936,2.956,2.1,3.631l18.892,10.904l11.43,6.59
				l18.752,10.825c1.16,0.67,2.104,0.13,2.104-1.206L134.799,88.89z"/>
		</g>
		<g>
			<polygon fill="#31B1CC" points="84.768,25.99 84.683,56.134 133.186,84.136 133.27,53.992 			"/>
		</g>
		<g>
			<polygon fill="#AAAAAA" points="132.538,84.542 133.648,83.893 133.735,53.75 132.624,54.396 			"/>
		</g>
		<g>
			<polygon fill="#F2F2F2" points="132.624,54.396 133.735,53.75 85.236,25.747 84.117,26.396 			"/>
		</g>
		<path fill="#2B2F30" d="M135.997,55.234c0-1.238-0.883-2.93-2.1-3.633L84.85,23.289c-0.58-0.34-1.112-0.365-1.492-0.145
			l-1.112,0.645c0.381-0.222,0.913-0.191,1.492,0.145l49.048,28.318c1.106,0.635,2.102,2.273,2.096,3.629l-0.071,29.988
			l-0.013,3.027l1.127-0.662l-0.004-3.013L135.997,55.234z"/>
		<g>
			<path fill="#505556" d="M132.786,52.251c1.162,0.672,2.101,2.295,2.096,3.629l-0.072,29.988v0.525l-0.006,2.508L81.55,58.144
				c0-0.459-0.019,3.139,0.081-33.012c0.008-1.324,0.95-1.865,2.106-1.199L132.786,52.251z M84.035,56.541l48.502,28.002
				l0.086-30.146l-48.506-28L84.035,56.541L84.035,56.541z"/>
		</g>
	</g>
	<g>
		<path fill="#8C8C8C" d="M112.986,105.826l-29.03-15.691c-0.177-0.102-0.285-0.32-0.287-0.623c0-0.166,0.03-0.34,0.083-0.51
			l29.036,15.688c-0.055,0.17-0.082,0.348-0.082,0.508C112.706,105.507,112.815,105.722,112.986,105.826L112.986,105.826z"/>
		<path fill="#D6D8D8" d="M85.337,87.755c-0.286-0.168-0.624-0.003-0.886,0.193l0,0l-13.481,8.5l28.872,16.034l13.66-8.849l0,0
			l0.043-0.035l0,0c0.381-0.264,0.656-0.252,0.822-0.148L85.337,87.755z"/>
		<path fill="#C9C9C9" d="M70.858,96.562c0.03-0.042,0.065-0.076,0.105-0.105l28.864,16.027c-0.035,0.027-0.068,0.063-0.097,0.104
			c-0.078,0.102-0.117,0.223-0.11,0.326c0.006,0.061,0.032,0.102,0.064,0.123L70.818,97.008c-0.037-0.023-0.06-0.066-0.065-0.124
			C70.743,96.786,70.786,96.658,70.858,96.562z"/>
		<polygon fill="#E0E0E0" points="99.827,112.484 70.964,96.457 70.97,96.448 99.842,112.482 		"/>
		<path fill="#ADADAD" d="M113.674,103.515c0.539-0.307,0.979-0.063,0.98,0.561c0,0.617-0.435,1.37-0.976,1.682
			c-0.533,0.313-0.974,0.061-0.976-0.561c0-0.16,0.028-0.338,0.082-0.508l-0.209,0.145l-12.688,8.176
			c-0.149,0.088-0.252,0.041-0.269-0.096c-0.012-0.146,0.082-0.336,0.221-0.432l13.703-8.883c0,0,0.028-0.02,0.045-0.033
			l0.037-0.027C113.642,103.535,113.661,103.528,113.674,103.515z"/>
		<g>
			<path fill="#EAEAEA" d="M86.4,90.191c0.123,0.067,0.123,0.181,0.011,0.252l-1.229,0.769c-0.116,0.072-0.31,0.078-0.429,0.013
				l-1.282-0.686c-0.126-0.064-0.128-0.176-0.008-0.248l1.222-0.768c0.115-0.077,0.313-0.084,0.435-0.013L86.4,90.191z"/>
		</g>
		<g>
			<path fill="#EAEAEA" d="M88.636,91.388c0.121,0.065,0.127,0.182,0.01,0.25l-1.224,0.769c-0.121,0.073-0.313,0.08-0.438,0.015
				l-1.278-0.689c-0.127-0.063-0.128-0.178-0.009-0.246l1.224-0.768c0.117-0.076,0.311-0.08,0.437-0.013L88.636,91.388z"/>
		</g>
		<g>
			<path fill="#EAEAEA" d="M90.87,92.583c0.125,0.066,0.127,0.178,0.009,0.253l-1.225,0.765c-0.119,0.074-0.313,0.08-0.434,0.016
				l-1.28-0.685c-0.121-0.063-0.127-0.181-0.013-0.251l1.227-0.765c0.115-0.077,0.313-0.083,0.435-0.018L90.87,92.583z"/>
		</g>
		<g>
			<path fill="#EAEAEA" d="M93.106,93.781c0.123,0.063,0.123,0.174,0.005,0.248l-1.225,0.766c-0.116,0.078-0.314,0.08-0.429,0.018
				l-1.285-0.686c-0.119-0.067-0.125-0.176-0.011-0.252l1.226-0.766c0.123-0.074,0.313-0.08,0.438-0.012L93.106,93.781z"/>
		</g>
		<g>
			<path fill="#EAEAEA" d="M95.338,94.974c0.125,0.064,0.13,0.181,0.013,0.254l-1.227,0.767c-0.119,0.072-0.314,0.079-0.436,0.01
				l-1.281-0.686c-0.122-0.063-0.127-0.175-0.009-0.249l1.228-0.768c0.116-0.07,0.308-0.08,0.433-0.014L95.338,94.974z"/>
		</g>
		<g>
			<path fill="#EAEAEA" d="M97.573,96.172c0.124,0.063,0.125,0.177,0.01,0.249l-1.229,0.766c-0.113,0.074-0.309,0.082-0.43,0.014
				l-1.284-0.684c-0.121-0.064-0.126-0.18-0.008-0.254l1.227-0.764c0.117-0.074,0.312-0.08,0.433-0.014L97.573,96.172z"/>
		</g>
		<g>
			<path fill="#EAEAEA" d="M86.491,92.73c0.124,0.064,0.126,0.177,0.008,0.25l-1.221,0.768c-0.122,0.072-0.315,0.081-0.436,0.013
				l-3.518-1.882c-0.118-0.064-0.125-0.177-0.008-0.249l1.225-0.766c0.118-0.074,0.313-0.081,0.436-0.015L86.491,92.73z"/>
		</g>
		<g>
			<path fill="#EAEAEA" d="M88.727,93.923c0.121,0.07,0.123,0.178,0.009,0.25l-1.227,0.769c-0.118,0.076-0.313,0.083-0.431,0.017
				l-1.279-0.689c-0.124-0.066-0.132-0.178-0.014-0.25l1.227-0.767c0.113-0.069,0.311-0.078,0.434-0.013L88.727,93.923z"/>
		</g>
		<g>
			<path fill="#EAEAEA" d="M90.959,95.12c0.12,0.068,0.127,0.179,0.008,0.248l-1.225,0.771c-0.112,0.072-0.307,0.08-0.429,0.013
				l-1.286-0.683c-0.12-0.063-0.125-0.178-0.006-0.25l1.226-0.77c0.116-0.07,0.31-0.078,0.433-0.016L90.959,95.12z"/>
		</g>
		<g>
			<path fill="#EAEAEA" d="M93.191,96.316c0.126,0.066,0.13,0.176,0.016,0.249l-1.229,0.772c-0.12,0.067-0.312,0.078-0.432,0.01
				l-1.284-0.686c-0.119-0.068-0.125-0.176-0.006-0.25l1.223-0.769c0.12-0.071,0.312-0.075,0.436-0.015L93.191,96.316z"/>
		</g>
		<g>
			<path fill="#EAEAEA" d="M95.432,97.51c0.12,0.068,0.124,0.175,0.005,0.253l-1.225,0.766c-0.116,0.074-0.312,0.08-0.434,0.018
				l-1.282-0.691c-0.12-0.064-0.125-0.178-0.008-0.249l1.227-0.766c0.115-0.073,0.308-0.079,0.432-0.015L95.432,97.51z"/>
		</g>
		<g>
			<path fill="#EAEAEA" d="M84.323,94.083c0.124,0.067,0.126,0.18,0.009,0.252l-1.226,0.768c-0.114,0.072-0.311,0.08-0.436,0.014
				l-3.514-1.883c-0.121-0.063-0.126-0.174-0.008-0.25l1.225-0.766c0.119-0.072,0.313-0.08,0.437-0.018L84.323,94.083z"/>
		</g>
		<g>
			<path fill="#EAEAEA" d="M86.56,95.281c0.121,0.063,0.129,0.18,0.005,0.251l-1.223,0.767c-0.122,0.072-0.307,0.084-0.433,0.018
				l-1.283-0.691c-0.121-0.063-0.125-0.177-0.008-0.25l1.225-0.764c0.115-0.076,0.313-0.081,0.438-0.016L86.56,95.281z"/>
		</g>
		<g>
			<path fill="#EAEAEA" d="M88.793,96.476c0.122,0.066,0.126,0.179,0.011,0.248l-1.226,0.771c-0.12,0.071-0.315,0.08-0.438,0.012
				l-1.279-0.684c-0.123-0.067-0.127-0.181-0.007-0.249l1.224-0.768c0.117-0.077,0.307-0.084,0.431-0.018L88.793,96.476z"/>
		</g>
		<g>
			<path fill="#EAEAEA" d="M91.031,97.669c0.119,0.064,0.123,0.179,0.008,0.252l-1.228,0.766c-0.117,0.074-0.313,0.081-0.433,0.017
				l-1.282-0.685c-0.126-0.067-0.127-0.182-0.011-0.253L89.313,97c0.118-0.072,0.312-0.079,0.429-0.015L91.031,97.669z"/>
		</g>
		<g>
			<path fill="#EAEAEA" d="M99.809,97.367c0.122,0.064,0.124,0.18,0.009,0.25l-1.228,0.764c-0.116,0.078-0.311,0.082-0.434,0.018
				l-1.283-0.688c-0.115-0.064-0.121-0.174-0.006-0.25l1.227-0.762c0.115-0.078,0.311-0.082,0.433-0.017L99.809,97.367z"/>
		</g>
		<g>
			<path fill="#EAEAEA" d="M97.661,98.708c0.123,0.065,0.125,0.176,0.012,0.25l-1.226,0.766c-0.116,0.072-0.313,0.08-0.435,0.016
				l-1.281-0.691c-0.122-0.061-0.125-0.174-0.007-0.248l1.224-0.765c0.116-0.071,0.312-0.081,0.432-0.015L97.661,98.708z"/>
		</g>
		<g>
			<path fill="#EAEAEA" d="M93.258,98.867c0.125,0.068,0.129,0.173,0.014,0.25l-1.228,0.766c-0.115,0.075-0.31,0.078-0.435,0.016
				l-1.278-0.684c-0.124-0.069-0.126-0.182-0.01-0.256l1.227-0.763c0.119-0.071,0.311-0.079,0.431-0.015L93.258,98.867z"/>
		</g>
		<g>
			<path fill="#EAEAEA" d="M95.493,100.063c0.125,0.069,0.13,0.175,0.009,0.25l-1.225,0.767c-0.115,0.072-0.309,0.082-0.432,0.016
				l-1.28-0.686c-0.121-0.065-0.127-0.178-0.012-0.253l1.226-0.765c0.117-0.072,0.312-0.08,0.438-0.018L95.493,100.063z"/>
		</g>
		<g>
			<path fill="#EAEAEA" d="M84.493,96.574c0.125,0.063,0.128,0.172,0.014,0.249l-1.226,0.763c-0.119,0.076-0.313,0.084-0.436,0.018
				l-5.75-3.08c-0.122-0.064-0.13-0.176-0.013-0.248l1.225-0.767c0.12-0.076,0.314-0.079,0.437-0.015L84.493,96.574z"/>
		</g>
		<g>
			<path fill="#EAEAEA" d="M86.731,97.766c0.119,0.065,0.122,0.178,0.005,0.253l-1.223,0.766c-0.12,0.074-0.313,0.078-0.437,0.016
				l-1.28-0.686c-0.122-0.068-0.126-0.182-0.009-0.254l1.228-0.763c0.118-0.077,0.309-0.081,0.432-0.019L86.731,97.766z"/>
		</g>
		<g>
			<path fill="#EAEAEA" d="M88.958,98.958c0.126,0.068,0.131,0.186,0.014,0.256l-1.226,0.764c-0.116,0.07-0.311,0.08-0.432,0.018
				L86.03,99.31c-0.12-0.066-0.127-0.18-0.006-0.253l1.223-0.766c0.118-0.073,0.31-0.076,0.434-0.015L88.958,98.958z"/>
		</g>
		<g>
			<path fill="#EAEAEA" d="M91.194,100.157c0.125,0.063,0.131,0.175,0.011,0.253l-1.226,0.766c-0.116,0.072-0.312,0.08-0.434,0.012
				l-1.282-0.684c-0.12-0.066-0.123-0.176-0.006-0.254l1.223-0.764c0.115-0.076,0.314-0.078,0.438-0.014L91.194,100.157z"/>
		</g>
		<g>
			<path fill="#EAEAEA" d="M93.434,101.349c0.115,0.071,0.119,0.182,0.008,0.254l-1.226,0.766c-0.118,0.077-0.309,0.082-0.435,0.018
				l-1.279-0.686c-0.123-0.065-0.127-0.182-0.011-0.25l1.226-0.77c0.112-0.072,0.309-0.078,0.43-0.012L93.434,101.349z"/>
		</g>
		<g>
			<path fill="#EAEAEA" d="M102.042,98.562c0.123,0.064,0.125,0.178,0.01,0.25l-1.227,0.765c-0.117,0.074-0.31,0.083-0.435,0.015
				l-1.279-0.682c-0.122-0.064-0.129-0.181-0.008-0.252l1.228-0.766c0.113-0.072,0.309-0.082,0.431-0.016L102.042,98.562z"/>
		</g>
		<g>
			<path fill="#EAEAEA" d="M99.895,99.906c0.123,0.063,0.132,0.174,0.014,0.248l-1.228,0.768c-0.117,0.074-0.313,0.078-0.435,0.01
				l-1.283-0.685c-0.121-0.063-0.123-0.177-0.002-0.251l1.223-0.765c0.113-0.076,0.309-0.078,0.432-0.012L99.895,99.906z"/>
		</g>
		<g>
			<path fill="#EAEAEA" d="M97.731,101.255c0.12,0.069,0.126,0.182,0.01,0.251l-1.227,0.77c-0.12,0.074-0.311,0.079-0.433,0.015
				l-1.281-0.688c-0.124-0.065-0.126-0.174-0.01-0.254l1.226-0.762c0.114-0.075,0.311-0.08,0.434-0.016L97.731,101.255z"/>
		</g>
		<g>
			<path fill="#EAEAEA" d="M95.668,102.549c0.12,0.065,0.125,0.177,0.007,0.251l-1.224,0.766c-0.121,0.072-0.312,0.084-0.438,0.014
				l-1.276-0.684c-0.124-0.066-0.13-0.176-0.012-0.253l1.228-0.767c0.112-0.072,0.312-0.076,0.431-0.016L95.668,102.549z"/>
		</g>
		<g>
			<path fill="#EAEAEA" d="M78.001,95.448c0.119,0.065,0.12,0.177,0.008,0.251l-1.228,0.768c-0.115,0.07-0.313,0.076-0.433,0.01
				l-1.28-0.678c-0.122-0.074-0.127-0.186-0.012-0.26l1.225-0.762c0.118-0.072,0.316-0.078,0.435-0.014L78.001,95.448z"/>
		</g>
		<g>
			<path fill="#EAEAEA" d="M80.23,96.642c0.124,0.064,0.128,0.177,0.011,0.25l-1.229,0.768c-0.116,0.074-0.309,0.078-0.431,0.016
				l-1.28-0.688c-0.123-0.062-0.124-0.177-0.008-0.249l1.221-0.771c0.121-0.071,0.317-0.075,0.437-0.012L80.23,96.642z"/>
		</g>
		<g>
			<path fill="#EAEAEA" d="M82.471,97.837c0.117,0.066,0.122,0.177,0.001,0.252l-1.222,0.768c-0.116,0.07-0.313,0.078-0.434,0.013
				l-1.28-0.685c-0.124-0.066-0.125-0.179-0.01-0.252l1.223-0.766c0.123-0.073,0.313-0.079,0.436-0.016L82.471,97.837z"/>
		</g>
		<g>
			<path fill="#EAEAEA" d="M93.64,103.813c0.118,0.067,0.124,0.181,0.011,0.259l-1.229,0.762c-0.118,0.072-0.312,0.08-0.429,0.013
				l-10.227-5.464c-0.117-0.067-0.121-0.18-0.002-0.252l1.225-0.768c0.114-0.071,0.313-0.08,0.433-0.014L93.64,103.813z"/>
		</g>
		<g>
			<path fill="#EAEAEA" d="M104.277,99.757c0.119,0.066,0.122,0.179,0.011,0.253l-1.228,0.765c-0.114,0.072-0.313,0.076-0.433,0.015
				l-1.282-0.687c-0.125-0.066-0.128-0.179-0.009-0.252l1.224-0.767c0.119-0.067,0.315-0.077,0.437-0.016L104.277,99.757z"/>
		</g>
		<g>
			<path fill="#EAEAEA" d="M106.512,100.953c0.121,0.064,0.126,0.178,0.007,0.253l-1.226,0.765
				c-0.116,0.074-0.311,0.077-0.434,0.018l-1.277-0.691c-0.123-0.063-0.127-0.174-0.012-0.246l1.227-0.773
				c0.115-0.067,0.312-0.074,0.433-0.01L106.512,100.953z"/>
		</g>
		<g>
			<path fill="#EAEAEA" d="M110.98,103.345c0.119,0.063,0.126,0.178,0.008,0.247l-1.224,0.767c-0.121,0.077-0.313,0.082-0.438,0.017
				l-3.516-1.882c-0.12-0.066-0.125-0.178-0.008-0.249l1.225-0.768c0.121-0.074,0.311-0.079,0.436-0.015L110.98,103.345z"/>
		</g>
		<g>
			<path fill="#EAEAEA" d="M102.131,101.098c0.121,0.068,0.125,0.179,0.012,0.251l-1.229,0.768c-0.113,0.074-0.309,0.075-0.435,0.01
				l-1.278-0.682c-0.125-0.066-0.129-0.18-0.013-0.252l1.229-0.766c0.117-0.07,0.313-0.083,0.431-0.016L102.131,101.098z"/>
		</g>
		<g>
			<path fill="#EAEAEA" d="M104.37,102.291c0.119,0.068,0.125,0.182,0.004,0.258l-1.226,0.764c-0.114,0.069-0.312,0.08-0.435,0.014
				l-1.278-0.688c-0.124-0.063-0.13-0.178-0.013-0.252l1.228-0.76c0.118-0.076,0.312-0.086,0.435-0.017L104.37,102.291z"/>
		</g>
		<g>
			<path fill="#EAEAEA" d="M106.601,103.49c0.116,0.068,0.127,0.177,0.006,0.25l-1.221,0.768c-0.115,0.069-0.312,0.076-0.437,0.014
				l-1.277-0.687c-0.123-0.065-0.127-0.176-0.012-0.255l1.225-0.761c0.117-0.075,0.313-0.078,0.432-0.015L106.601,103.49z"/>
		</g>
		<g>
			<path fill="#EAEAEA" d="M108.833,104.681c0.123,0.065,0.127,0.178,0.008,0.256l-1.221,0.764
				c-0.121,0.074-0.313,0.074-0.435,0.015l-1.278-0.688c-0.127-0.061-0.129-0.174-0.01-0.246l1.225-0.768
				c0.114-0.07,0.311-0.08,0.435-0.011L108.833,104.681z"/>
		</g>
		<g>
			<path fill="#EAEAEA" d="M99.959,102.452c0.125,0.064,0.131,0.182,0.012,0.253l-1.225,0.764c-0.115,0.07-0.312,0.084-0.435,0.016
				l-1.28-0.684c-0.121-0.062-0.123-0.179-0.01-0.252l1.229-0.766c0.117-0.072,0.313-0.082,0.431-0.019L99.959,102.452z"/>
		</g>
		<g>
			<path fill="#EAEAEA" d="M102.2,103.653c0.118,0.063,0.123,0.176,0.006,0.249l-1.224,0.762c-0.119,0.075-0.313,0.083-0.437,0.018
				l-1.277-0.684c-0.124-0.068-0.129-0.182-0.012-0.254l1.224-0.766c0.123-0.072,0.313-0.078,0.438-0.013L102.2,103.653z"/>
		</g>
		<g>
			<path fill="#EAEAEA" d="M106.667,106.039c0.121,0.063,0.125,0.18,0.008,0.252l-1.219,0.766c-0.121,0.076-0.316,0.08-0.438,0.012
				l-3.52-1.879c-0.119-0.063-0.125-0.177-0.004-0.251l1.219-0.765c0.119-0.076,0.316-0.08,0.435-0.014L106.667,106.039z"/>
		</g>
		<g>
			<path fill="#EAEAEA" d="M97.897,103.744c0.122,0.064,0.126,0.174,0.01,0.254l-1.225,0.762c-0.117,0.079-0.312,0.079-0.432,0.016
				l-1.281-0.682c-0.12-0.07-0.127-0.182-0.011-0.254l1.228-0.771c0.114-0.068,0.311-0.076,0.43-0.01L97.897,103.744z"/>
		</g>
		<g>
			<path fill="#EAEAEA" d="M100.136,104.938c0.116,0.068,0.125,0.181,0.008,0.251l-1.226,0.768
				c-0.117,0.075-0.312,0.082-0.434,0.018l-1.281-0.686c-0.121-0.066-0.125-0.183-0.011-0.252l1.228-0.77
				c0.117-0.072,0.31-0.078,0.433-0.011L100.136,104.938z"/>
		</g>
		<g>
			<path fill="#EAEAEA" d="M104.603,107.33c0.123,0.066,0.126,0.178,0.008,0.254l-1.226,0.764c-0.116,0.074-0.311,0.08-0.432,0.013
				l-3.517-1.878c-0.12-0.065-0.125-0.178-0.008-0.253l1.226-0.769c0.112-0.07,0.311-0.078,0.43-0.012L104.603,107.33z"/>
		</g>
		<g>
			<path fill="#EAEAEA" d="M95.871,105.008c0.124,0.067,0.128,0.181,0.01,0.257l-1.22,0.761c-0.119,0.074-0.315,0.08-0.441,0.019
				l-1.278-0.688c-0.122-0.067-0.126-0.18-0.009-0.25l1.225-0.767c0.116-0.072,0.313-0.081,0.434-0.012L95.871,105.008z"/>
		</g>
		<g>
			<path fill="#EAEAEA" d="M102.579,108.595c0.118,0.066,0.121,0.182,0.006,0.251l-1.225,0.767
				c-0.123,0.076-0.313,0.082-0.436,0.018l-3.516-1.885c-0.121-0.063-0.125-0.176-0.012-0.252l1.229-0.763
				c0.117-0.073,0.313-0.077,0.435-0.015L102.579,108.595z"/>
		</g>
		<path fill="#8C8C8C" d="M84.754,91.224l-1.282-0.686c-0.06-0.029-0.095-0.078-0.095-0.12l0.005,0.247
			c0.005,0.047,0.037,0.093,0.096,0.124l1.281,0.687L84.754,91.224z"/>
		<path fill="#ADADAD" d="M86.497,90.314c0,0.049-0.026,0.094-0.086,0.129l-1.229,0.769c-0.116,0.072-0.31,0.078-0.429,0.013
			l0.005,0.252c0.121,0.066,0.316,0.059,0.431-0.017l1.228-0.766c0.061-0.034,0.089-0.083,0.082-0.126L86.497,90.314z"/>
		<path fill="#8C8C8C" d="M86.984,92.421l-1.278-0.689c-0.063-0.03-0.093-0.078-0.098-0.121l0.014,0.253
			c0,0.044,0.028,0.089,0.093,0.122l1.279,0.686L86.984,92.421z"/>
		<path fill="#ADADAD" d="M88.731,91.513c0,0.045-0.025,0.088-0.086,0.125l-1.224,0.769c-0.121,0.073-0.313,0.08-0.438,0.015
			l0.01,0.25c0.121,0.064,0.315,0.059,0.435-0.016l1.222-0.764c0.061-0.037,0.089-0.086,0.089-0.125L88.731,91.513z"/>
		<path fill="#8C8C8C" d="M89.221,93.617l-1.28-0.685c-0.063-0.032-0.094-0.079-0.094-0.125l0.004,0.253
			c0.002,0.043,0.033,0.089,0.097,0.123l1.281,0.684L89.221,93.617z"/>
		<path fill="#ADADAD" d="M90.964,92.706c0,0.046-0.028,0.099-0.085,0.131l-1.225,0.765c-0.119,0.074-0.313,0.08-0.434,0.016
			l0.008,0.25c0.122,0.064,0.314,0.057,0.43-0.014l1.23-0.765c0.056-0.04,0.083-0.09,0.083-0.13L90.964,92.706z"/>
		<path fill="#8C8C8C" d="M91.458,94.812l-1.285-0.686c-0.061-0.035-0.094-0.08-0.094-0.121l0.007,0.25
			c0,0.045,0.036,0.09,0.098,0.123l1.281,0.685L91.458,94.812z"/>
		<path fill="#ADADAD" d="M93.199,93.902c0.003,0.049-0.028,0.092-0.088,0.127l-1.225,0.766c-0.116,0.078-0.314,0.08-0.429,0.018
			l0.007,0.251c0.12,0.066,0.31,0.057,0.429-0.016l1.231-0.765c0.052-0.041,0.083-0.084,0.083-0.131L93.199,93.902z"/>
		<path fill="#8C8C8C" d="M93.688,96.004l-1.281-0.686c-0.06-0.028-0.092-0.075-0.093-0.12l0.008,0.249
			c0,0.046,0.034,0.089,0.094,0.145l1.278,0.683L93.688,96.004z"/>
		<path fill="#ADADAD" d="M95.437,95.099c0,0.045-0.033,0.092-0.086,0.129l-1.227,0.767c-0.119,0.072-0.314,0.079-0.436,0.01
			l0.006,0.253c0.126,0.065,0.318,0.059,0.438-0.012l1.223-0.771c0.059-0.037,0.087-0.076,0.087-0.125L95.437,95.099z"/>
		<path fill="#8C8C8C" d="M95.925,97.201l-1.284-0.684c-0.061-0.031-0.093-0.08-0.093-0.122l0.004,0.247
			c0.004,0.049,0.037,0.091,0.1,0.125l1.281,0.682L95.925,97.201z"/>
		<path fill="#ADADAD" d="M97.668,96.294c0,0.043-0.027,0.094-0.086,0.127l-1.229,0.766c-0.113,0.074-0.309,0.082-0.43,0.014
			l0.008,0.248c0.122,0.072,0.314,0.062,0.43-0.011l1.229-0.763c0.061-0.043,0.084-0.084,0.084-0.133L97.668,96.294z"/>
		<path fill="#8C8C8C" d="M84.843,93.76l-3.518-1.882c-0.06-0.031-0.095-0.078-0.095-0.119l0.007,0.244
			c0,0.048,0.036,0.096,0.098,0.127l3.511,1.881L84.843,93.76z"/>
		<path fill="#ADADAD" d="M86.587,92.855c0,0.045-0.026,0.088-0.088,0.125l-1.221,0.768c-0.122,0.072-0.315,0.081-0.436,0.013
			l0.003,0.251c0.123,0.066,0.319,0.059,0.436-0.016l1.229-0.765c0.055-0.034,0.083-0.082,0.083-0.126L86.587,92.855z"/>
		<path fill="#8C8C8C" d="M87.078,94.958l-1.279-0.689c-0.064-0.034-0.098-0.073-0.098-0.118l0.006,0.249
			c0.004,0.045,0.034,0.089,0.097,0.119l1.275,0.688L87.078,94.958z"/>
		<path fill="#ADADAD" d="M88.825,94.046c0,0.045-0.032,0.094-0.09,0.127l-1.227,0.769c-0.118,0.076-0.313,0.083-0.431,0.017
			l0.001,0.248c0.126,0.066,0.322,0.059,0.438-0.014l1.226-0.766c0.057-0.034,0.089-0.082,0.085-0.127L88.825,94.046z"/>
		<path fill="#8C8C8C" d="M89.313,96.151l-1.286-0.683c-0.058-0.035-0.091-0.08-0.091-0.125l0.008,0.249
			c0,0.047,0.031,0.093,0.094,0.122l1.281,0.688L89.313,96.151z"/>
		<path fill="#ADADAD" d="M91.052,95.244c0,0.047-0.021,0.092-0.085,0.124l-1.225,0.771c-0.112,0.072-0.307,0.08-0.429,0.013
			l0.006,0.251c0.123,0.065,0.313,0.059,0.431-0.014l1.227-0.767c0.063-0.036,0.084-0.084,0.084-0.128L91.052,95.244z"/>
		<path fill="#8C8C8C" d="M91.547,97.347l-1.284-0.686c-0.062-0.031-0.095-0.078-0.095-0.125l0.01,0.252
			c0,0.047,0.033,0.09,0.093,0.129l1.284,0.682L91.547,97.347z"/>
		<path fill="#ADADAD" d="M93.287,96.44c0.002,0.046-0.024,0.089-0.08,0.125l-1.229,0.772c-0.12,0.067-0.312,0.078-0.432,0.01
			l0.008,0.252c0.118,0.064,0.313,0.06,0.43-0.015l1.229-0.769c0.059-0.033,0.083-0.083,0.083-0.125L93.287,96.44z"/>
		<path fill="#8C8C8C" d="M93.778,98.546l-1.282-0.691c-0.058-0.033-0.091-0.074-0.093-0.121l0.006,0.25
			c0.004,0.045,0.035,0.09,0.097,0.126l1.278,0.685L93.778,98.546z"/>
		<path fill="#ADADAD" d="M95.523,97.634c0.005,0.043-0.025,0.092-0.087,0.129l-1.225,0.766c-0.116,0.074-0.312,0.08-0.434,0.018
			l0.006,0.248c0.128,0.064,0.319,0.057,0.436-0.016l1.229-0.765c0.054-0.039,0.082-0.081,0.082-0.123L95.523,97.634z"/>
		<path fill="#8C8C8C" d="M82.671,95.117l-3.514-1.883c-0.058-0.032-0.091-0.075-0.093-0.121l0.009,0.248
			c0,0.045,0.031,0.095,0.092,0.126l3.515,1.878L82.671,95.117z"/>
		<path fill="#ADADAD" d="M84.419,94.21c0,0.045-0.022,0.092-0.087,0.125l-1.226,0.768c-0.114,0.072-0.311,0.08-0.436,0.014
			l0.009,0.248c0.126,0.068,0.32,0.061,0.435-0.016l1.225-0.762c0.062-0.037,0.087-0.083,0.087-0.131L84.419,94.21z"/>
		<path fill="#8C8C8C" d="M84.909,96.316l-1.283-0.691c-0.063-0.03-0.096-0.078-0.096-0.121l0.008,0.248
			c0,0.051,0.035,0.09,0.098,0.125l1.279,0.688L84.909,96.316z"/>
		<path fill="#ADADAD" d="M86.651,95.404c0.005,0.044-0.025,0.09-0.087,0.128l-1.223,0.767c-0.122,0.072-0.307,0.084-0.433,0.018
			l0.006,0.249c0.121,0.061,0.314,0.056,0.435-0.017l1.224-0.768c0.059-0.038,0.087-0.082,0.087-0.129L86.651,95.404z"/>
		<path fill="#8C8C8C" d="M87.141,97.506l-1.279-0.684c-0.058-0.034-0.094-0.079-0.094-0.122l0.007,0.244
			c0,0.051,0.036,0.096,0.093,0.125l1.283,0.688L87.141,97.506z"/>
		<path fill="#ADADAD" d="M88.889,96.598c0.002,0.044-0.032,0.093-0.085,0.126l-1.226,0.771c-0.12,0.071-0.315,0.08-0.438,0.012
			l0.01,0.251c0.123,0.064,0.317,0.059,0.436-0.014l1.227-0.764c0.054-0.039,0.082-0.084,0.082-0.134L88.889,96.598z"/>
		<path fill="#8C8C8C" d="M89.379,98.704l-1.282-0.685c-0.063-0.035-0.095-0.08-0.097-0.121l0.007,0.247
			c0.006,0.043,0.038,0.091,0.097,0.118l1.282,0.69L89.379,98.704z"/>
		<path fill="#ADADAD" d="M91.123,97.794c0.001,0.043-0.026,0.097-0.084,0.127l-1.228,0.766c-0.117,0.074-0.313,0.081-0.433,0.017
			l0.007,0.25c0.12,0.065,0.315,0.063,0.432-0.019l1.229-0.764c0.059-0.035,0.084-0.082,0.084-0.127L91.123,97.794z"/>
		<path fill="#8C8C8C" d="M98.157,98.398l-1.283-0.688c-0.061-0.033-0.09-0.076-0.09-0.125l0.006,0.252
			c0.002,0.047,0.035,0.096,0.097,0.127l1.28,0.684L98.157,98.398z"/>
		<path fill="#ADADAD" d="M99.901,97.491c0,0.046-0.027,0.088-0.084,0.126l-1.227,0.764c-0.117,0.078-0.312,0.082-0.434,0.018
			l0.008,0.25c0.125,0.066,0.316,0.061,0.431-0.014l1.229-0.768c0.057-0.04,0.086-0.082,0.084-0.129L99.901,97.491z"/>
		<path fill="#8C8C8C" d="M96.013,99.74l-1.281-0.691c-0.06-0.027-0.092-0.074-0.092-0.121l0.007,0.252
			c0,0.047,0.03,0.092,0.095,0.123l1.277,0.685L96.013,99.74z"/>
		<path fill="#ADADAD" d="M97.76,98.831c0,0.044-0.028,0.089-0.088,0.128l-1.226,0.766c-0.116,0.072-0.313,0.08-0.435,0.016
			l0.006,0.247c0.125,0.064,0.32,0.058,0.432-0.012l1.23-0.768c0.059-0.034,0.086-0.081,0.086-0.126L97.76,98.831z"/>
		<path fill="#8C8C8C" d="M91.609,99.898l-1.278-0.684c-0.064-0.035-0.094-0.076-0.096-0.127l0.009,0.252
			c0,0.046,0.03,0.089,0.095,0.121l1.281,0.689L91.609,99.898z"/>
		<path fill="#ADADAD" d="M93.356,98.994c0.006,0.039-0.028,0.088-0.085,0.123l-1.228,0.766c-0.115,0.075-0.31,0.078-0.435,0.016
			l0.011,0.252c0.121,0.064,0.313,0.057,0.433-0.017l1.224-0.769c0.06-0.035,0.088-0.08,0.088-0.125L93.356,98.994z"/>
		<path fill="#8C8C8C" d="M93.846,101.095l-1.28-0.686c-0.06-0.034-0.093-0.078-0.098-0.128l0.01,0.252
			c0,0.05,0.033,0.092,0.098,0.122l1.276,0.688L93.846,101.095z"/>
		<path fill="#ADADAD" d="M95.59,100.186c0,0.046-0.03,0.088-0.088,0.127l-1.225,0.767c-0.115,0.072-0.309,0.082-0.432,0.016
			l0.006,0.248c0.123,0.067,0.313,0.06,0.436-0.012l1.224-0.77c0.063-0.035,0.086-0.08,0.086-0.125L95.59,100.186z"/>
		<path fill="#8C8C8C" d="M82.846,97.603l-5.75-3.08c-0.064-0.029-0.092-0.074-0.096-0.12l0.008,0.249
			c0,0.047,0.032,0.088,0.096,0.125l5.749,3.076L82.846,97.603z"/>
		<path fill="#ADADAD" d="M84.587,96.694c0.006,0.048-0.026,0.092-0.08,0.129l-1.226,0.763c-0.119,0.076-0.313,0.084-0.436,0.018
			l0.007,0.25c0.122,0.068,0.315,0.058,0.434-0.016l1.226-0.768c0.058-0.037,0.083-0.083,0.083-0.128L84.587,96.694z"/>
		<path fill="#8C8C8C" d="M85.077,98.8l-1.28-0.686c-0.06-0.033-0.095-0.079-0.095-0.125l0.007,0.25
			c0.007,0.045,0.034,0.094,0.098,0.123l1.28,0.682L85.077,98.8z"/>
		<path fill="#ADADAD" d="M86.821,97.892c0.003,0.044-0.027,0.088-0.085,0.127l-1.223,0.766c-0.12,0.074-0.313,0.078-0.437,0.016
			l0.01,0.244c0.122,0.068,0.313,0.063,0.434-0.012l1.224-0.77c0.061-0.031,0.088-0.078,0.084-0.121L86.821,97.892z"/>
		<path fill="#8C8C8C" d="M87.314,99.996L86.03,99.31c-0.063-0.035-0.091-0.079-0.091-0.127l0.003,0.248
			c0.004,0.047,0.038,0.094,0.099,0.123l1.278,0.692L87.314,99.996z"/>
		<path fill="#ADADAD" d="M89.057,99.084c0.006,0.051-0.029,0.091-0.085,0.13l-1.226,0.764c-0.116,0.07-0.311,0.08-0.432,0.018
			l0.005,0.251c0.119,0.063,0.318,0.056,0.435-0.015l1.224-0.771c0.061-0.035,0.087-0.078,0.086-0.125L89.057,99.084z"/>
		<path fill="#8C8C8C" d="M89.546,101.187l-1.282-0.684c-0.058-0.036-0.093-0.076-0.093-0.127l0.006,0.254
			c0,0.044,0.036,0.088,0.097,0.126l1.28,0.686L89.546,101.187z"/>
		<path fill="#ADADAD" d="M91.292,100.277c0,0.053-0.026,0.098-0.087,0.133l-1.226,0.766c-0.116,0.072-0.312,0.08-0.434,0.012
			l0.008,0.255c0.123,0.063,0.317,0.054,0.434-0.013l1.229-0.773c0.055-0.031,0.083-0.078,0.083-0.126L91.292,100.277z"/>
		<path fill="#8C8C8C" d="M91.781,102.386l-1.279-0.686c-0.06-0.035-0.096-0.074-0.096-0.127l0.01,0.249
			c0,0.048,0.03,0.095,0.09,0.127l1.283,0.687L91.781,102.386z"/>
		<path fill="#ADADAD" d="M93.524,101.477c0,0.044-0.027,0.093-0.083,0.126l-1.226,0.766c-0.118,0.077-0.309,0.082-0.435,0.018
			l0.008,0.25c0.121,0.063,0.314,0.061,0.433-0.015l1.225-0.769c0.062-0.037,0.087-0.08,0.085-0.127L93.524,101.477z"/>
		<path fill="#8C8C8C" d="M100.391,99.591l-1.279-0.682c-0.061-0.035-0.095-0.079-0.095-0.124l0.007,0.247
			c0,0.047,0.037,0.094,0.096,0.122l1.28,0.69L100.391,99.591z"/>
		<path fill="#ADADAD" d="M102.139,98.683c0.002,0.046-0.029,0.094-0.088,0.129l-1.227,0.765c-0.117,0.074-0.31,0.083-0.435,0.015
			l0.009,0.254c0.12,0.066,0.316,0.057,0.434-0.014l1.225-0.768c0.057-0.037,0.088-0.087,0.086-0.129L102.139,98.683z"/>
		<path fill="#8C8C8C" d="M98.247,100.931l-1.283-0.685c-0.06-0.028-0.09-0.079-0.09-0.119l0.006,0.248
			c0,0.047,0.031,0.092,0.095,0.122l1.284,0.689L98.247,100.931z"/>
		<path fill="#ADADAD" d="M99.995,100.025c0,0.045-0.035,0.096-0.086,0.129l-1.229,0.768c-0.117,0.074-0.313,0.078-0.434,0.01
			l0.01,0.256c0.119,0.063,0.313,0.057,0.436-0.018l1.223-0.768c0.057-0.034,0.084-0.08,0.082-0.128L99.995,100.025z"/>
		<path fill="#8C8C8C" d="M96.082,102.291l-1.281-0.688c-0.063-0.033-0.097-0.076-0.097-0.121l0.004,0.249
			c0,0.042,0.036,0.089,0.101,0.122l1.278,0.687L96.082,102.291z"/>
		<path fill="#ADADAD" d="M97.823,101.382c0.002,0.047-0.027,0.089-0.082,0.124l-1.227,0.77c-0.12,0.074-0.311,0.079-0.433,0.015
			l0.005,0.249c0.125,0.064,0.317,0.058,0.433-0.014l1.228-0.766c0.058-0.038,0.086-0.083,0.086-0.128L97.823,101.382z"/>
		<path fill="#8C8C8C" d="M94.013,103.58l-1.276-0.684c-0.063-0.037-0.096-0.077-0.096-0.125l0.011,0.25
			c0,0.044,0.026,0.092,0.089,0.121l1.282,0.688L94.013,103.58z"/>
		<path fill="#ADADAD" d="M95.762,102.669c0,0.051-0.027,0.096-0.087,0.131l-1.224,0.766c-0.121,0.072-0.312,0.084-0.438,0.014
			l0.01,0.25c0.124,0.066,0.315,0.058,0.433-0.017l1.229-0.763c0.057-0.034,0.082-0.085,0.08-0.129L95.762,102.669z"/>
		<path fill="#8C8C8C" d="M76.349,96.476l-1.28-0.678c-0.063-0.037-0.095-0.084-0.099-0.129l0.008,0.251
			c0.006,0.042,0.035,0.091,0.092,0.119l1.285,0.69L76.349,96.476z"/>
		<path fill="#ADADAD" d="M78.091,95.572c0,0.041-0.025,0.09-0.082,0.127l-1.228,0.768c-0.115,0.07-0.313,0.076-0.433,0.01
			l0.006,0.254c0.119,0.066,0.32,0.056,0.437-0.016l1.223-0.762c0.061-0.041,0.086-0.088,0.086-0.133L78.091,95.572z"/>
		<path fill="#8C8C8C" d="M78.582,97.675l-1.28-0.688c-0.061-0.035-0.092-0.069-0.097-0.12l0.01,0.25
			c0,0.044,0.03,0.089,0.093,0.122l1.281,0.687L78.582,97.675z"/>
		<path fill="#ADADAD" d="M80.324,96.767c0.005,0.043-0.021,0.09-0.083,0.125l-1.229,0.768c-0.116,0.074-0.309,0.078-0.431,0.016
			l0.007,0.25c0.12,0.064,0.316,0.057,0.432-0.016l1.226-0.767c0.059-0.034,0.091-0.083,0.086-0.126L80.324,96.767z"/>
		<path fill="#8C8C8C" d="M80.816,98.87l-1.28-0.685c-0.063-0.035-0.092-0.076-0.099-0.125l0.011,0.254
			c0.003,0.043,0.032,0.09,0.095,0.118l1.279,0.69L80.816,98.87z"/>
		<path fill="#ADADAD" d="M82.56,97.964c0,0.042-0.026,0.086-0.088,0.125l-1.222,0.768c-0.116,0.07-0.313,0.078-0.434,0.013
			l0.006,0.253c0.126,0.061,0.315,0.057,0.436-0.016l1.229-0.768c0.055-0.036,0.081-0.08,0.081-0.124L82.56,97.964z"/>
		<path fill="#8C8C8C" d="M91.992,104.846l-10.227-5.464c-0.056-0.035-0.087-0.08-0.088-0.129l0.006,0.255
			c0.001,0.044,0.035,0.089,0.095,0.124l10.217,5.465L91.992,104.846z"/>
		<path fill="#ADADAD" d="M93.732,103.943c0,0.038-0.027,0.089-0.082,0.129l-1.229,0.762c-0.118,0.072-0.312,0.08-0.429,0.013
			l0.003,0.251c0.122,0.066,0.319,0.063,0.434-0.015l1.226-0.763c0.061-0.037,0.088-0.088,0.088-0.131L93.732,103.943z"/>
		<path fill="#8C8C8C" d="M102.627,100.79l-1.281-0.687c-0.063-0.035-0.094-0.078-0.098-0.125l0.01,0.254
			c0,0.042,0.033,0.09,0.096,0.125l1.279,0.68L102.627,100.79z"/>
		<path fill="#ADADAD" d="M104.372,99.882c0.002,0.047-0.031,0.093-0.084,0.128l-1.228,0.765c-0.114,0.072-0.313,0.076-0.433,0.015
			l0.006,0.247c0.123,0.069,0.318,0.062,0.433-0.014l1.226-0.765c0.063-0.038,0.086-0.083,0.086-0.126L104.372,99.882z"/>
		<path fill="#8C8C8C" d="M104.86,101.988l-1.277-0.691c-0.064-0.031-0.098-0.075-0.098-0.121l0.006,0.254
			c0.002,0.042,0.031,0.085,0.096,0.121l1.283,0.686L104.86,101.988z"/>
		<path fill="#ADADAD" d="M106.603,101.077c0,0.046-0.022,0.092-0.084,0.129l-1.226,0.765c-0.117,0.074-0.311,0.077-0.434,0.018
			l0.01,0.248c0.123,0.063,0.313,0.055,0.43-0.016l1.229-0.768c0.059-0.032,0.084-0.083,0.084-0.125L106.603,101.077z"/>
		<path fill="#8C8C8C" d="M109.329,104.375l-3.517-1.882c-0.062-0.033-0.093-0.076-0.093-0.125l0.008,0.253
			c0,0.046,0.029,0.091,0.093,0.122l3.517,1.884L109.329,104.375z"/>
		<path fill="#ADADAD" d="M111.075,103.465c0.002,0.048-0.027,0.098-0.087,0.127l-1.224,0.767c-0.121,0.077-0.313,0.082-0.438,0.017
			l0.01,0.252c0.119,0.062,0.315,0.054,0.435-0.019l1.228-0.765c0.053-0.036,0.084-0.081,0.082-0.127L111.075,103.465z"/>
		<path fill="#8C8C8C" d="M100.48,102.126l-1.278-0.682c-0.063-0.034-0.099-0.08-0.099-0.123l0.011,0.248
			c0.002,0.047,0.033,0.09,0.09,0.123l1.284,0.686L100.48,102.126z"/>
		<path fill="#ADADAD" d="M102.223,101.221c0.004,0.044-0.023,0.094-0.08,0.128l-1.229,0.768c-0.113,0.074-0.309,0.075-0.435,0.01
			l0.008,0.252c0.124,0.067,0.316,0.061,0.437-0.016l1.225-0.764c0.057-0.037,0.083-0.08,0.083-0.128L102.223,101.221z"/>
		<path fill="#8C8C8C" d="M102.715,103.326l-1.279-0.688c-0.063-0.031-0.092-0.077-0.092-0.124l0.004,0.253
			c0,0.043,0.033,0.088,0.096,0.12l1.282,0.688L102.715,103.326z"/>
		<path fill="#ADADAD" d="M104.461,102.417c0,0.043-0.027,0.092-0.088,0.131l-1.226,0.764c-0.114,0.069-0.312,0.08-0.435,0.014
			l0.012,0.248c0.119,0.068,0.314,0.061,0.432-0.011l1.227-0.767c0.057-0.037,0.088-0.084,0.084-0.129L104.461,102.417z"/>
		<path fill="#8C8C8C" d="M104.95,104.521l-1.277-0.687c-0.067-0.036-0.092-0.075-0.096-0.125l0.008,0.251
			c0,0.043,0.029,0.088,0.092,0.125l1.279,0.686L104.95,104.521z"/>
		<path fill="#ADADAD" d="M106.698,103.613c0,0.046-0.029,0.09-0.092,0.127l-1.221,0.768c-0.115,0.069-0.313,0.076-0.436,0.014
			l0.006,0.25c0.123,0.067,0.316,0.055,0.435-0.014l1.224-0.764c0.061-0.041,0.09-0.088,0.09-0.133L106.698,103.613z"/>
		<path fill="#8C8C8C" d="M107.186,105.715l-1.279-0.688c-0.066-0.029-0.094-0.074-0.099-0.119l0.008,0.253
			c0,0.042,0.033,0.085,0.099,0.117l1.278,0.688L107.186,105.715z"/>
		<path fill="#ADADAD" d="M108.931,104.808c0,0.045-0.028,0.092-0.091,0.129l-1.221,0.764c-0.121,0.074-0.313,0.074-0.435,0.015
			l0.007,0.251c0.126,0.065,0.316,0.059,0.438-0.014l1.221-0.767c0.064-0.038,0.09-0.083,0.086-0.127L108.931,104.808z"/>
		<path fill="#8C8C8C" d="M98.313,103.484l-1.279-0.684c-0.06-0.033-0.095-0.08-0.095-0.126l0.009,0.254
			c0.004,0.045,0.029,0.089,0.09,0.122l1.289,0.686L98.313,103.484z"/>
		<path fill="#ADADAD" d="M100.058,102.576c0.004,0.047-0.026,0.092-0.087,0.129l-1.225,0.764c-0.115,0.07-0.312,0.084-0.435,0.016
			l0.015,0.252c0.116,0.063,0.312,0.059,0.426-0.014l1.229-0.77c0.058-0.035,0.084-0.082,0.084-0.123L100.058,102.576z"/>
		<path fill="#8C8C8C" d="M100.547,104.681l-1.278-0.684c-0.063-0.033-0.095-0.082-0.095-0.129l0.007,0.253
			c0.002,0.046,0.03,0.092,0.096,0.125l1.278,0.685L100.547,104.681z"/>
		<path fill="#ADADAD" d="M102.292,103.772c0,0.044-0.024,0.094-0.086,0.13l-1.224,0.762c-0.119,0.075-0.313,0.083-0.437,0.018
			l0.009,0.25c0.124,0.066,0.315,0.058,0.434-0.016l1.224-0.77c0.063-0.029,0.092-0.074,0.088-0.123L102.292,103.772z"/>
		<path fill="#8C8C8C" d="M105.019,107.068l-3.519-1.879c-0.059-0.028-0.094-0.076-0.094-0.121l0.008,0.252
			c0,0.039,0.028,0.088,0.094,0.117l3.515,1.882L105.019,107.068z"/>
		<path fill="#ADADAD" d="M106.76,106.164c0.002,0.047-0.024,0.09-0.086,0.127l-1.219,0.766c-0.121,0.076-0.316,0.08-0.438,0.012
			l0.004,0.251c0.124,0.07,0.314,0.062,0.436-0.011l1.228-0.769c0.058-0.034,0.088-0.081,0.085-0.126L106.76,106.164z"/>
		<path fill="#8C8C8C" d="M96.251,104.775l-1.281-0.682c-0.063-0.037-0.095-0.082-0.095-0.123l0.006,0.248
			c0.005,0.04,0.032,0.085,0.097,0.121l1.277,0.688L96.251,104.775z"/>
		<path fill="#ADADAD" d="M97.995,103.869c0,0.043-0.025,0.089-0.088,0.129l-1.225,0.762c-0.117,0.079-0.312,0.079-0.432,0.016
			l0.004,0.252c0.12,0.063,0.318,0.056,0.431-0.019l1.229-0.762c0.057-0.036,0.088-0.083,0.088-0.13L97.995,103.869z"/>
		<path fill="#8C8C8C" d="M98.485,105.974l-1.281-0.686c-0.06-0.038-0.094-0.078-0.097-0.125l0.009,0.25
			c0,0.045,0.032,0.09,0.096,0.119l1.281,0.689L98.485,105.974z"/>
		<path fill="#ADADAD" d="M100.228,105.062c0.004,0.051-0.026,0.088-0.084,0.127l-1.226,0.768c-0.117,0.075-0.312,0.082-0.434,0.018
			l0.008,0.248c0.121,0.066,0.315,0.059,0.432-0.017l1.227-0.763c0.057-0.035,0.085-0.084,0.085-0.131L100.228,105.062z"/>
		<path fill="#8C8C8C" d="M102.954,108.36l-3.517-1.878c-0.062-0.033-0.091-0.076-0.097-0.127l0.011,0.25
			c0,0.051,0.032,0.094,0.094,0.126l3.517,1.88L102.954,108.36z"/>
		<path fill="#ADADAD" d="M104.696,107.455c0,0.045-0.025,0.09-0.086,0.129l-1.227,0.764c-0.115,0.074-0.309,0.08-0.432,0.013
			l0.01,0.251c0.117,0.063,0.313,0.061,0.43-0.016l1.227-0.762c0.059-0.045,0.088-0.088,0.082-0.129L104.696,107.455z"/>
		<path fill="#8C8C8C" d="M94.22,106.044l-1.278-0.688c-0.064-0.034-0.095-0.078-0.095-0.121l0.008,0.249
			c0,0.045,0.029,0.091,0.098,0.123l1.277,0.684L94.22,106.044z"/>
		<path fill="#ADADAD" d="M95.969,105.135c0,0.045-0.029,0.091-0.088,0.13l-1.22,0.761c-0.119,0.074-0.315,0.08-0.441,0.019
			l0.01,0.246c0.124,0.064,0.318,0.061,0.435-0.01l1.227-0.771c0.058-0.037,0.086-0.08,0.086-0.127L95.969,105.135z"/>
		<path fill="#8C8C8C" d="M96.456,107.239l-1.278-0.688c-0.064-0.035-0.097-0.072-0.097-0.125l0.006,0.252
			c0,0.045,0.035,0.092,0.096,0.124l1.283,0.685L96.456,107.239z"/>
		<path fill="#ADADAD" d="M98.202,106.327c0,0.047-0.025,0.098-0.086,0.132l-1.227,0.765c-0.112,0.073-0.313,0.077-0.434,0.016
			l0.01,0.249c0.122,0.066,0.319,0.061,0.431-0.014l1.224-0.766c0.063-0.037,0.094-0.084,0.09-0.129L98.202,106.327z"/>
		<g>
			<path fill="#EAEAEA" d="M98.104,106.206c0.123,0.066,0.126,0.175,0.012,0.253l-1.227,0.765c-0.112,0.073-0.313,0.077-0.434,0.016
				l-1.278-0.688c-0.123-0.065-0.126-0.179-0.011-0.252l1.228-0.768c0.113-0.072,0.308-0.081,0.431-0.012L98.104,106.206z"/>
		</g>
		<path fill="#8C8C8C" d="M100.926,109.63l-3.518-1.885c-0.063-0.029-0.093-0.072-0.096-0.121l0.01,0.251
			c0,0.046,0.032,0.092,0.096,0.123l3.513,1.878L100.926,109.63z"/>
		<path fill="#ADADAD" d="M102.672,108.72c0,0.043-0.033,0.092-0.088,0.126l-1.225,0.767c-0.123,0.076-0.313,0.082-0.436,0.018
			l0.006,0.246c0.125,0.068,0.316,0.062,0.436-0.012l1.225-0.771c0.061-0.033,0.09-0.078,0.09-0.124L102.672,108.72z"/>
	</g>
	<g>
		<g enable-background="new    ">
			<path fill="#C40D0B" d="M69.818,56.913l0.025,9.792c0.003,0.691,0.456,1.381,1.364,1.904c1.829,1.064,4.795,1.064,6.634,0
				c0.928-0.529,1.386-1.232,1.382-1.934l-0.021-9.789c0.003,0.696-0.463,1.397-1.389,1.934c-1.837,1.061-4.808,1.061-6.637,0
				C70.27,58.292,69.819,57.603,69.818,56.913L69.818,56.913z"/>
		</g>
		<path fill="#E41409" d="M71.2,54.976c-1.837,1.063-1.847,2.783-0.023,3.844c1.829,1.061,4.8,1.061,6.637,0
			c1.839-1.061,1.85-2.781,0.021-3.844C76.009,53.917,73.041,53.917,71.2,54.976z"/>
		<path fill="#8C0F06" d="M71.471,55.157c-1.696,0.919-1.706,2.415-0.023,3.339c1.68,0.928,4.416,0.928,6.11,0
			c1.688-0.924,1.697-2.42,0.019-3.339C75.895,54.23,73.159,54.23,71.471,55.157z"/>
		<path fill="#8C0F06" d="M68.313,65.447l1.734-0.997c0,0,0.17,0.128,0.647,0.404c0.372,0.22,0.559,0.295,0.559,0.295l-1.729,1.001
			c-0.111,0.062-0.21,0.071-0.282,0.028l-1.21-0.706C68.108,65.518,68.201,65.51,68.313,65.447z"/>
		<path fill="#AF0B0B" d="M68.147,60.74l1.888-1.094c0,0,0.189,0.211,0.559,0.415c0.354,0.198,0.651,0.292,0.651,0.292l-1.887,1.091
			c-0.441,0.249-0.797,0.863-0.793,1.365l0.01,3.61c0,0.251,0.087,0.422,0.23,0.506L67.6,66.221
			c-0.143-0.077-0.229-0.255-0.234-0.508l-0.009-3.612C67.356,61.604,67.71,60.988,68.147,60.74z"/>
		<path fill="#E41409" d="M69.358,61.444c-0.441,0.249-0.797,0.863-0.793,1.365l0.01,3.61c0,0.501,0.362,0.703,0.795,0.453
			l1.884-1.089v-0.635l-1.729,1.001c-0.217,0.125-0.396,0.027-0.396-0.229l-0.01-3.252c0-0.252,0.178-0.559,0.397-0.684l1.729-1
			v-0.633L69.358,61.444z"/>
		<path fill="#351A0C" d="M71.471,56.99c1.688-0.925,4.424-0.925,6.105,0c0.402,0.221,0.707,0.474,0.913,0.747
			c-0.208,0.276-0.523,0.539-0.932,0.759c-1.694,0.928-4.431,0.928-6.11,0c-0.401-0.22-0.707-0.475-0.915-0.745
			C70.743,57.474,71.056,57.216,71.471,56.99z"/>
		<path fill="#683315" d="M71.447,58.496c-0.173-0.089-0.319-0.191-0.457-0.291c0.063-0.209,0.207-0.434,0.488-0.637
			c0.96-0.666,2.245-0.74,2.245-0.74s-0.768,0.258-0.929,1.252c-0.057,0.357,0.106,0.711,0.278,0.975
			C72.479,58.943,71.921,58.757,71.447,58.496z"/>
	</g>
	<g>
		<path fill="#C1C1C1" d="M111.974,115.973c2.055-1.184,3.964-1.457,5.037-1.438l4.764,2.768c-1.077-0.016-2.981,0.261-5.026,1.439
			c-1.541,0.887-2.981,2.18-4.119,3.368c-0.541,0.566-1.402,0.717-2.084,0.32l-2.127-1.236c-0.605-0.354-0.918-1.366-0.435-1.873
			C109.116,118.136,110.439,116.857,111.974,115.973z"/>
		<path fill="#999999" d="M116.747,118.742c-1.99,1.146-3.814,2.975-5.031,4.369l0.106,0.039c0.257,0.1,0.804-0.176,1.289-0.455
			c0.257-0.15,0.495-0.299,0.669-0.399l5.932-3.424c0.176-0.103,0.418-0.228,0.672-0.376c0.486-0.283,1.029-0.641,1.297-1.036
			l0.095-0.157C120.697,117.287,118.793,117.563,116.747,118.742z"/>
		<path fill="#B5B5B5" d="M121.735,116.634c0.396,0.242,0.314,0.75-0.04,0.894c-0.18,0.076-1.019,0.244-1.313,0.318
			c-0.986,0.271-2.086,0.76-2.998,1.286c-1.327,0.769-3.088,2.158-4.235,3.476c-0.272,0.313-0.655,0.547-1.153,0.605
			c-0.828,0.092-1.258,0-2.092-0.52l-1.521-0.952c-0.834-0.484-1.123-1.652-0.4-2.519c-0.09-0.092,1.175,2.59,1.372,2.699
			c1.021,0.594,1.431,0.893,2.126,0.893c0.654,0,1.252-0.295,1.544-0.608c1.336-1.435,2.81-2.657,4.358-3.552
			c1.283-0.745,2.52-1.186,3.666-1.396c0.279-0.053,0.69-0.104,0.744-0.275C121.852,116.809,121.735,116.634,121.735,116.634z"/>
		<g>
			<path fill="#E0E0E0" d="M108.225,118.943c1.264-1.307,2.632-2.412,4.074-3.244c1.478-0.854,2.914-1.34,4.215-1.473
				c0.676-0.07,1.345,0.145,1.933,0.483l3.289,1.924c0.252,0.147,0.146,0.525-0.142,0.558c-0.225,0.022-0.461,0.057-0.691,0.1
				c-1.109,0.213-2.301,0.658-3.521,1.364c-1.322,0.765-2.588,1.759-3.756,2.925c-0.119,0.121-0.277,0.287-0.442,0.475
				c-0.716,0.793-1.89,1.002-2.81,0.463l-0.17-0.098l-1.742-1.012c-0.832-0.486-1.022-1.61-0.371-2.317
				C108.137,119.036,108.191,118.989,108.225,118.943z"/>
		</g>
		<path fill="#F2F2F2" d="M119.258,116.639c0,0-1.547,0-2.87,0.663c-1.323,0.662-2.226,1.896-2.226,1.896s1.203-0.916,2.332-1.55
			C117.618,117.018,119.258,116.639,119.258,116.639z"/>
	</g>
	<g>
		<g>
			<g enable-background="new    ">
				<g>
					<polygon fill="#E1E8E7" points="121.159,110.751 133.27,129.73 151.467,123.99 138.245,105.326 					"/>
				</g>
			</g>
		</g>
	</g>
	<g>
		<g>
			<g enable-background="new    ">
				<g>
					<polygon fill="#8C8B8B" points="130.767,115.68 130.767,115.845 144.217,128 144.217,127.835 					"/>
				</g>
				<g>
					<polygon fill="#6C6C6C" points="149.642,127.835 149.645,128 161.049,121.441 161.049,121.279 					"/>
				</g>
				<g>
					<polygon fill="#B8CCCA" points="128.749,114.001 144.217,127.835 149.642,127.835 161.049,121.279 143.125,106.955 					"/>
				</g>
			</g>
		</g>
		<g>
			<g enable-background="new    ">
				<g>
					<rect x="144.209" y="127.835" fill="#8C8B8B" width="5.422" height="0.166"/>
				</g>
				<g>
					<polygon fill="#E1E8E7" points="146.93,126.264 144.209,127.835 149.631,127.835 					"/>
				</g>
			</g>
		</g>
	</g>
	<g>
		<g>
			<g enable-background="new    ">
				<g>
					<polygon fill="#8C8B8B" points="136.845,114.739 136.845,114.9 155.661,125.832 155.661,125.667 					"/>
				</g>
				<g>
					<polygon fill="#616161" points="155.661,125.667 155.661,125.832 169.981,117.563 169.981,117.398 					"/>
				</g>
				<g>
					<polygon fill="#9C9B9B" points="136.845,114.739 155.661,125.667 169.981,117.398 151.211,106.496 					"/>
				</g>
			</g>
		</g>
		<g>
			<g enable-background="new    ">
				<g>
					<polygon fill="#8C8B8B" points="136.845,113.912 136.845,114.076 155.661,125.009 155.661,124.85 					"/>
				</g>
				<g>
					<polygon fill="#616161" points="155.661,124.85 155.661,125.009 169.981,116.74 169.981,116.578 					"/>
				</g>
				<g>
					<polygon fill="#9C9B9B" points="136.845,113.912 155.661,124.85 169.981,116.578 151.211,105.671 					"/>
				</g>
			</g>
		</g>
		<g>
			<g enable-background="new    ">
				<g>
					<polygon fill="#8C8B8B" points="136.845,113.096 136.845,113.257 155.661,124.188 155.661,124.029 					"/>
				</g>
				<g>
					<polygon fill="#616161" points="155.661,124.029 155.661,124.188 169.981,115.921 169.981,115.755 					"/>
				</g>
				<g>
					<polygon fill="#9C9B9B" points="136.845,113.096 155.661,124.029 169.981,115.755 151.211,104.849 					"/>
				</g>
			</g>
		</g>
		<g>
			<g enable-background="new    ">
				<g>
					<polygon fill="#8C8B8B" points="136.845,112.27 136.845,112.438 155.661,123.365 155.661,123.201 					"/>
				</g>
				<g>
					<polygon fill="#616161" points="155.661,123.201 155.661,123.365 169.981,115.1 169.981,114.938 					"/>
				</g>
				<g>
					<polygon fill="#9C9B9B" points="136.845,112.27 155.661,123.201 169.981,114.938 151.211,104.032 					"/>
				</g>
			</g>
		</g>
		<g>
			<g enable-background="new    ">
				<g>
					<polygon fill="#8C8B8B" points="136.845,111.455 136.845,111.611 155.661,122.542 155.661,122.386 					"/>
				</g>
				<g>
					<polygon fill="#616161" points="155.661,122.386 155.661,122.542 169.981,114.273 169.981,114.115 					"/>
				</g>
				<g>
					<polygon fill="#9C9B9B" points="136.845,111.455 155.661,122.386 169.981,114.115 151.211,103.21 					"/>
				</g>
			</g>
		</g>
		<g>
			<g enable-background="new    ">
				<g>
					<polygon fill="#8C8B8B" points="136.845,110.63 136.845,110.789 155.661,121.727 155.661,121.563 					"/>
				</g>
				<g>
					<polygon fill="#616161" points="155.661,121.563 155.661,121.727 169.981,113.456 169.981,113.292 					"/>
				</g>
				<g>
					<polygon fill="#A8AFAF" points="136.845,110.63 155.661,121.563 169.981,113.292 151.211,102.386 					"/>
				</g>
			</g>
		</g>
		<g>
			<g enable-background="new    ">
				<g>
					<polygon fill="#8C8B8B" points="136.845,109.707 136.845,109.868 153.019,119.266 153.019,119.111 					"/>
				</g>
				<g>
					<polygon fill="#6C6C6C" points="158.322,119.111 158.322,119.266 169.981,112.535 169.981,112.375 					"/>
				</g>
				<g>
					<polygon fill="#D2D8D7" points="136.845,109.707 153.019,119.111 158.322,119.111 169.981,112.375 151.165,101.442 					"/>
				</g>
			</g>
		</g>
		<g>
			<g enable-background="new    ">
				<g>
					<polygon fill="#858585" points="140.961,110.785 140.961,110.822 142.883,111.939 142.883,111.9 					"/>
				</g>
				<g>
					<polygon fill="#5D5D5D" points="142.883,111.9 142.883,111.939 155.137,104.859 155.133,104.824 					"/>
				</g>
				<g>
					<polygon fill="#959595" points="140.961,110.785 142.883,111.9 155.133,104.824 153.215,103.705 					"/>
				</g>
			</g>
			<g enable-background="new    ">
				<g>
					<polygon fill="#858585" points="143.918,112.447 143.918,112.484 145.838,113.604 145.838,113.566 					"/>
				</g>
				<g>
					<polygon fill="#5D5D5D" points="145.838,113.566 145.838,113.604 158.092,106.531 158.092,106.487 					"/>
				</g>
				<g>
					<polygon fill="#959595" points="143.918,112.447 145.838,113.566 158.092,106.487 156.172,105.375 					"/>
				</g>
			</g>
			<g enable-background="new    ">
				<g>
					<polygon fill="#858585" points="146.883,114.171 146.883,114.212 148.809,115.327 148.809,115.287 					"/>
				</g>
				<g>
					<polygon fill="#5D5D5D" points="148.809,115.287 148.809,115.327 161.063,108.253 161.063,108.212 					"/>
				</g>
				<g>
					<polygon fill="#959595" points="146.883,114.171 148.809,115.287 161.063,108.212 159.14,107.096 					"/>
				</g>
			</g>
			<g enable-background="new    ">
				<g>
					<polygon fill="#858585" points="149.961,115.958 149.961,115.996 151.883,117.113 151.883,117.074 					"/>
				</g>
				<g>
					<polygon fill="#5D5D5D" points="151.883,117.074 151.883,117.113 164.141,110.04 164.141,109.998 					"/>
				</g>
				<g>
					<polygon fill="#959595" points="149.961,115.958 151.883,117.074 164.141,109.998 162.215,108.882 					"/>
				</g>
			</g>
			<g enable-background="new    ">
				<g>
					<polygon fill="#858585" points="153.071,117.768 153.071,117.805 154.995,118.925 154.995,118.884 					"/>
				</g>
				<g>
					<polygon fill="#5D5D5D" points="154.995,118.884 154.995,118.925 167.25,111.845 167.25,111.807 					"/>
				</g>
				<g>
					<polygon fill="#959595" points="153.071,117.768 154.995,118.884 167.25,111.807 165.325,110.688 					"/>
				</g>
			</g>
		</g>
		<g>
			<g enable-background="new    ">
				<g>
					<rect x="153.006" y="119.111" fill="#8C8B8B" width="5.311" height="0.154"/>
				</g>
				<g>
					<polygon fill="#C3C3C3" points="155.668,117.574 153.006,119.111 158.316,119.111 					"/>
				</g>
			</g>
		</g>
	</g>
	<g>
		<g>
			<path fill="#4C4C4C" d="M46.661,182.125c-1.227,0.711-2.218,2.424-2.218,3.838c0.009,1.412,1.004,1.977,2.234,1.268
				c1.225-0.705,2.219-2.422,2.214-3.832C48.889,181.982,47.891,181.419,46.661,182.125z M46.675,186.22
				c-0.742,0.433-1.343,0.082-1.348-0.762c0-0.863,0.598-1.897,1.341-2.324c0.742-0.43,1.344-0.09,1.344,0.771
				C48.019,184.753,47.413,185.8,46.675,186.22z"/>
			<g>
				<path fill="#747474" d="M46.668,183.134c0.742-0.43,1.344-0.09,1.344,0.771c0.007,0.85-0.599,1.896-1.337,2.315
					c-0.742,0.433-1.343,0.082-1.348-0.762C45.327,184.595,45.925,183.561,46.668,183.134z"/>
			</g>
			<path fill="#3B3B3B" d="M46.395,180.893c-0.406-0.23-0.964-0.205-1.585,0.159c-1.23,0.703-2.213,2.418-2.208,3.843
				c0,0.692,0.245,1.182,0.643,1.418l1.849,1.073c-0.396-0.225-0.649-0.723-0.649-1.424c0-1.414,0.991-3.127,2.218-3.838
				c0.617-0.356,1.182-0.388,1.588-0.154L46.395,180.893z"/>
			<path fill="#4C4C4C" d="M79.104,163.393c-1.228,0.715-2.215,2.43-2.21,3.84c0,1.408,0.997,1.979,2.22,1.271
				c1.233-0.711,2.227-2.428,2.218-3.836C81.327,163.251,80.332,162.691,79.104,163.393z M79.114,167.496
				c-0.744,0.426-1.34,0.082-1.345-0.768c0-0.859,0.594-1.896,1.335-2.32c0.742-0.434,1.353-0.092,1.353,0.764
				C80.457,166.025,79.855,167.068,79.114,167.496z"/>
			<g>
				<path fill="#747474" d="M79.104,164.408c0.742-0.434,1.353-0.092,1.353,0.764c0,0.854-0.602,1.896-1.343,2.324
					c-0.744,0.426-1.34,0.082-1.345-0.768C77.77,165.869,78.363,164.833,79.104,164.408z"/>
			</g>
			<path fill="#3B3B3B" d="M78.835,162.162c-0.404-0.236-0.967-0.199-1.59,0.156c-1.223,0.709-2.209,2.428-2.206,3.842
				c0,0.699,0.246,1.189,0.646,1.422l1.854,1.072c-0.403-0.229-0.646-0.725-0.646-1.422c-0.005-1.41,0.982-3.125,2.21-3.84
				c0.618-0.357,1.18-0.394,1.581-0.15L78.835,162.162z"/>
		</g>
		<g>
			<path fill="#4C4C4C" d="M77.708,181.666c-0.612-0.359-1.175-0.395-1.577-0.16c-0.154,0.092-0.304,0.186-0.462,0.268
				c-0.216,0.125-0.431,0.252-0.65,0.382c-0.246,0.143-0.492,0.284-0.737,0.438c0.405-0.243,0.963-0.211,1.582,0.146
				c0.26,0.147,0.51,0.356,0.739,0.584l-0.739,0.43c0.739,0.426,1.337,1.469,1.337,2.318c-0.009,0.426-0.16,0.723-0.397,0.863
				l1.245-0.722c0.012,0.125,0.036,0.25,0.036,0.367c-0.008,0.703-0.26,1.19-0.652,1.428l1.851-1.073
				c0.398-0.23,0.643-0.728,0.648-1.433C79.935,184.087,78.946,182.371,77.708,181.666z"/>
			<g enable-background="new    ">
				<g>
					<defs>
						<path id="SVGID_1_" d="M76.756,182.58c-0.243,0.139-0.391,0.441-0.396,0.863c-0.61,0.358-1.23,0.715-1.846,1.076
							c0-0.427,0.146-0.726,0.391-0.859C75.462,183.335,76.2,182.908,76.756,182.58z"/>
					</defs>
					<clipPath id="SVGID_2_">
						<use xlink:href="#SVGID_1_"  overflow="visible"/>
					</clipPath>
					<g clip-path="url(#SVGID_2_)" enable-background="new    ">
						<path fill="#4C4C4C" d="M74.905,183.66l1.851-1.08c-0.243,0.139-0.391,0.441-0.396,0.863c0,0.85,0.598,1.891,1.337,2.32
							l-1.847,1.071c-0.741-0.424-1.343-1.461-1.336-2.315C74.515,184.093,74.661,183.794,74.905,183.66L74.905,183.66z"/>
					</g>
				</g>
			</g>
			<path fill="#3F3F3F" d="M75.863,182.736c-1.228-0.711-2.231-0.137-2.231,1.271c-0.008,1.412,0.984,3.132,2.212,3.841
				c1.228,0.706,2.23,0.143,2.24-1.271C78.084,185.167,77.09,183.443,75.863,182.736z M75.851,186.835
				c-0.741-0.424-1.343-1.461-1.336-2.315c0-0.853,0.604-1.199,1.349-0.771c0.739,0.426,1.337,1.469,1.337,2.317
				C77.191,186.917,76.591,187.261,75.851,186.835z"/>
			<path fill="#7B7B7B" d="M75.863,183.75c-0.744-0.43-1.349-0.082-1.349,0.77c-0.007,0.855,0.595,1.894,1.336,2.316
				c0.74,0.426,1.341,0.082,1.35-0.768C77.2,185.218,76.603,184.175,75.863,183.75z"/>
			<path fill="#4C4C4C" d="M45.27,162.932c-0.622-0.357-1.178-0.392-1.585-0.156c-0.15,0.09-0.304,0.178-0.462,0.266
				c-0.205,0.133-0.43,0.262-0.647,0.379c-0.244,0.146-0.49,0.289-0.738,0.432c0.405-0.231,0.966-0.199,1.584,0.152
				c0.263,0.154,0.507,0.359,0.737,0.588l-0.737,0.43c0.737,0.431,1.333,1.463,1.333,2.318c-0.004,0.424-0.152,0.717-0.391,0.861
				l1.239-0.723c0.017,0.125,0.038,0.25,0.038,0.364c-0.003,0.703-0.256,1.197-0.657,1.433l1.855-1.082
				c0.399-0.229,0.648-0.724,0.648-1.42C47.49,165.357,46.494,163.641,45.27,162.932z"/>
			<path fill="#3F3F3F" d="M43.421,164.003c-1.229-0.701-2.228-0.135-2.237,1.272c-0.006,1.414,0.996,3.136,2.221,3.845
				c1.228,0.707,2.233,0.135,2.236-1.277C45.641,166.434,44.647,164.714,43.421,164.003z M43.407,168.109
				c-0.74-0.433-1.339-1.469-1.336-2.318c0.003-0.855,0.605-1.199,1.35-0.77c0.737,0.43,1.333,1.463,1.333,2.317
				C44.75,168.191,44.147,168.541,43.407,168.109z"/>
			<path fill="#7B7B7B" d="M43.421,165.021c-0.744-0.431-1.347-0.086-1.35,0.77c-0.003,0.85,0.596,1.887,1.336,2.318
				c0.74,0.431,1.343,0.082,1.347-0.771C44.754,166.484,44.158,165.451,43.421,165.021z"/>
		</g>
		<g>
			<path fill="#3E3E3E" d="M79.051,160.369L63.85,169.21l-0.008,2.933l15.205-8.834c0.427-0.246,0.641-0.57,0.641-0.898l0.013-2.939
				C79.7,159.796,79.48,160.125,79.051,160.369z"/>
			<path fill="#303030" d="M42.293,160.373c-0.437-0.248-0.655-0.578-0.655-0.912l-0.01,2.938c0,0.326,0.215,0.656,0.658,0.91
				l15.307,8.84l0.007-2.934L42.293,160.373z"/>
			<path fill="#414141" d="M79.042,158.564c-0.857-0.504-2.261-0.504-3.118,0l-15.208,8.834l0.006,0.619l16.318-9.479
				c0.246-0.146,0.647-0.146,0.895,0c0.25,0.137,0.25,0.371,0.004,0.517l-16.317,9.485l2.229,0.67l15.201-8.842
				C79.914,159.871,79.908,159.068,79.042,158.564z"/>
			<path fill="#494949" d="M43.399,158.539c0.249-0.146,0.656-0.146,0.897-0.01l16.425,9.488l-0.006-0.619l-15.314-8.836
				c-0.865-0.502-2.263-0.502-3.124,0.002c-0.858,0.504-0.856,1.307,0.016,1.809l15.307,8.842l2.226-0.674l-16.421-9.486
				C43.152,158.91,43.152,158.675,43.399,158.539z"/>
			<path fill="#303030" d="M77.935,158.539c0.25,0.137,0.25,0.371,0.004,0.516l-16.317,9.486l16.427,9.48
				c0.249,0.141,0.249,0.375,0,0.52c-0.241,0.143-0.642,0.143-0.894,0l-16.433-9.486l-16.313,9.486
				c-0.251,0.143-0.653,0.143-0.904,0c-0.241-0.145-0.243-0.375,0-0.52l16.32-9.48l-16.421-9.486
				c-0.252-0.145-0.252-0.379-0.005-0.516c0.249-0.146,0.656-0.146,0.897-0.01l16.425,9.488l16.318-9.479
				C77.286,158.393,77.688,158.393,77.935,158.539z"/>
			<path fill="#303030" d="M79.165,179.857c-0.863,0.5-2.255,0.5-3.124,0l-15.313-8.832l-0.006,2.934l15.311,8.836
				c0.875,0.5,2.265,0.5,3.125,0c0.425-0.248,0.639-0.578,0.645-0.904l0.008-2.93C79.81,179.277,79.597,179.609,79.165,179.857z"/>
			<path fill="#4C4C4C" d="M79.157,178.048L63.85,169.21l-2.229-0.67l16.427,9.479c0.249,0.142,0.249,0.375,0,0.521
				c-0.241,0.144-0.642,0.144-0.894,0l-16.433-9.485l0.006,1.971l15.313,8.832c0.869,0.5,2.261,0.5,3.124,0
				C80.025,179.361,80.025,178.548,79.157,178.048z"/>
			<path fill="#4C4C4C" d="M60.722,169.055l-16.313,9.485c-0.251,0.144-0.653,0.144-0.904,0c-0.241-0.146-0.243-0.375,0-0.521
				l16.32-9.479l-2.226,0.674l-15.206,8.834c-0.87,0.502-0.861,1.313,0.003,1.816c0.867,0.491,2.263,0.491,3.13-0.009l15.201-8.832
				L60.722,169.055z"/>
			<path fill="#3E3E3E" d="M45.526,179.857c-0.867,0.5-2.263,0.5-3.13,0.008c-0.435-0.256-0.649-0.588-0.649-0.912l-0.01,2.934
				c-0.003,0.324,0.217,0.654,0.656,0.908c0.861,0.5,2.254,0.5,3.124,0l15.204-8.836l0.006-2.934L45.526,179.857z"/>
		</g>
		<path fill="#303030" d="M63.469,161.294c0-0.389-0.253-0.797-0.776-1.104c-1.048-0.629-2.789-0.65-3.881-0.037
			c-0.556,0.307-0.831,0.725-0.836,1.137l-0.021,7.662c0,0.055,0.015,0.115,0.025,0.17c0.012,0.043,0.012,0.08,0.02,0.129
			c0.021,0.055,0.06,0.113,0.088,0.174c0.021,0.039,0.034,0.074,0.058,0.117c0.047,0.061,0.105,0.121,0.167,0.186
			c0.024,0.025,0.043,0.063,0.079,0.092c0.101,0.089,0.21,0.171,0.341,0.244c1.063,0.638,2.801,0.65,3.884,0.043
			c0.134-0.073,0.261-0.153,0.359-0.244c0.038-0.032,0.063-0.061,0.089-0.094c0.063-0.059,0.126-0.123,0.174-0.188
			c0.025-0.039,0.038-0.082,0.065-0.117c0.029-0.061,0.067-0.117,0.091-0.176c0.021-0.047,0.021-0.094,0.025-0.137
			c0.014-0.055,0.028-0.111,0.028-0.17v-0.015C63.456,166.667,63.463,163.602,63.469,161.294z"/>
		<path fill="#819DA8" d="M61.721,146.337c-0.537-0.321-1.415-0.33-1.971-0.021c-0.281,0.158-0.423,0.369-0.426,0.578l-0.008,13.916
			c0,0.027,0.001,0.056,0.008,0.08c0.003,0.021,0.003,0.043,0.011,0.063c0.007,0.03,0.03,0.057,0.044,0.086
			c0.009,0.022,0.012,0.045,0.028,0.069c0.021,0.025,0.05,0.058,0.078,0.08c0.017,0.021,0.023,0.031,0.05,0.056
			c0.045,0.045,0.103,0.088,0.169,0.129c0.536,0.319,1.422,0.33,1.978,0.022c0.068-0.043,0.127-0.082,0.18-0.133
			c0.019-0.02,0.029-0.029,0.046-0.045c0.03-0.035,0.061-0.059,0.086-0.09c0.016-0.02,0.025-0.045,0.035-0.066
			c0.017-0.026,0.032-0.059,0.042-0.086c0.009-0.022,0.009-0.051,0.015-0.071c0.008-0.029,0.016-0.056,0.016-0.091v-0.004
			c0.001-0.856,0.004-10.043,0.01-11.043l0.005-2.869C62.119,146.697,61.988,146.496,61.721,146.337z"/>
	</g>
	<g>
		<path fill="#4C4C4C" d="M77.381,146.104c-0.039-0.045-0.079-0.08-0.116-0.125c-0.097-0.092-0.188-0.181-0.291-0.262
			c-0.039-0.027-0.071-0.064-0.12-0.099c-0.136-0.103-0.271-0.2-0.404-0.272l-7.443-4.302l0.736-0.431l7.436,4.301
			c0.137,0.079,0.276,0.177,0.407,0.275c0.045,0.035,0.09,0.076,0.129,0.108c0.093,0.08,0.187,0.161,0.276,0.247
			c0.041,0.044,0.086,0.086,0.129,0.133c0.091,0.1,0.183,0.208,0.271,0.314c0.025,0.045,0.064,0.076,0.091,0.119l0.029,0.027
			c0.115,0.145,0.213,0.303,0.312,0.463l3.924,6.44l-0.736,0.426l-3.921-6.438c-0.102-0.174-0.221-0.342-0.339-0.504
			c-0.026-0.028-0.063-0.065-0.083-0.094C77.576,146.318,77.482,146.204,77.381,146.104z"/>
		<g enable-background="new    ">
			<path fill="#4C4C4C" d="M82.469,153.51l0.733-0.423c-0.175-0.101-0.331-0.108-0.447-0.045l-0.727,0.419
				C82.132,153.4,82.298,153.411,82.469,153.51L82.469,153.51z"/>
		</g>
		<path fill="#6B6B6B" d="M82.755,153.042c0.116-0.063,0.272-0.056,0.447,0.045l3.427,1.978c0.056,0.033,0.107,0.078,0.162,0.123
			c0.016,0.01,0.03,0.022,0.03,0.022c0.056,0.06,0.1,0.106,0.132,0.161l0.022,0.005l0.002,0.017c0.028,0.041,0.07,0.096,0.101,0.149
			c0,0.015,0.012,0.022,0.018,0.045c0.026,0.037,0.045,0.086,0.06,0.131l0.011,0.017l0.007,0.024
			c0.021,0.05,0.032,0.104,0.046,0.146c0,0.021,0.006,0.035,0.006,0.055c0.017,0.061,0.022,0.119,0.022,0.186
			c0,0.191-0.073,0.332-0.18,0.4l-0.73,0.422c0.113-0.066,0.181-0.199,0.181-0.404c0-0.055-0.012-0.117-0.019-0.178
			c-0.002-0.018-0.012-0.039-0.012-0.039c-0.014-0.063-0.026-0.1-0.048-0.147c-0.004-0.021-0.014-0.041-0.017-0.062
			c-0.013-0.045-0.035-0.078-0.058-0.117c-0.004-0.016-0.014-0.035-0.022-0.053c-0.028-0.055-0.066-0.1-0.102-0.156
			c-0.004-0.01-0.02-0.014-0.023-0.026c-0.036-0.045-0.072-0.091-0.116-0.132c-0.016-0.01-0.03-0.028-0.044-0.038
			c-0.053-0.048-0.103-0.089-0.163-0.121l-3.426-1.981c-0.171-0.1-0.337-0.109-0.44-0.049L82.755,153.042z"/>
		<g>
			<path fill="#2A2A2A" d="M69.006,141.044v0.499l7.443,4.296c0.497,0.29,0.982,0.781,1.347,1.392l4.046,6.635
				c-0.005,0.396,0.271,0.878,0.621,1.078l3.432,1.979c0.343,0.197,0.615,0.037,0.623-0.36c0-0.388-0.276-0.875-0.623-1.07
				l-3.426-1.981c-0.176-0.104-0.341-0.11-0.459-0.04l-3.921-6.438c-0.446-0.739-1.036-1.34-1.64-1.688L69.006,141.044z"/>
		</g>
	</g>
	<path fill="#2E5B68" d="M60.979,144.998c1.274,0.734,2.298,2.513,2.296,3.979c-0.004,1.465-1.039,2.059-2.313,1.323L41.44,139.023
		c-1.276-0.735-2.305-2.518-2.304-3.979c0.005-1.471,1.04-2.053,2.318-1.317L60.979,144.998z"/>
	<path fill="#EDEDED" d="M58.769,84.291c0.304-1.308,0.556-1.108,1.161-0.648l4.897,1.457c0.598,0.555,3.535,1.973,4.038,3.435
		l1.008,3.651c-0.101-0.105-0.906-1.416-2.626-2.739c-3.128-2.427-9.078-3.442-9.078-3.442
		C57.962,86.003,58.769,84.291,58.769,84.291z"/>
	<g>
		<path fill="#C1C1C1" d="M79.998,87.019c1.831-1.055,3.53-1.301,4.495-1.28l4.249,2.47c-0.958-0.016-2.661,0.225-4.492,1.279
			c-1.371,0.797-2.653,1.948-3.672,3.012c-0.481,0.504-1.25,0.635-1.858,0.281l-1.897-1.102c-0.545-0.314-0.819-1.211-0.385-1.671
			C77.449,88.951,78.626,87.813,79.998,87.019z"/>
		<path fill="#999999" d="M84.25,89.488c-1.769,1.028-3.404,2.659-4.487,3.898l0.096,0.043c0.23,0.082,0.714-0.158,1.151-0.407
			c0.228-0.132,0.446-0.271,0.598-0.358l5.289-3.055c0.162-0.092,0.377-0.204,0.606-0.339c0.438-0.245,0.922-0.569,1.147-0.925
			l0.092-0.137C87.784,88.193,86.081,88.433,84.25,89.488z"/>
		<path fill="#B5B5B5" d="M88.708,87.608c0.355,0.216,0.274,0.675-0.034,0.802c-0.16,0.063-0.92,0.217-1.171,0.283
			c-0.88,0.24-1.86,0.676-2.685,1.152c-1.183,0.678-2.75,1.922-3.776,3.094c-0.25,0.283-0.585,0.49-1.032,0.54
			c-0.733,0.084-1.124,0-1.865-0.462l-1.352-0.846c-0.741-0.436-1.002-1.478-0.362-2.246c-0.076-0.08,1.052,2.301,1.222,2.409
			c0.911,0.526,1.276,0.792,1.901,0.792c0.581,0,1.114-0.266,1.374-0.54c1.19-1.286,2.51-2.374,3.891-3.173
			c1.144-0.66,2.249-1.057,3.272-1.24c0.252-0.051,0.617-0.092,0.666-0.25C88.813,87.767,88.708,87.608,88.708,87.608z"/>
		<g>
			<path fill="#E0E0E0" d="M76.653,89.671c1.122-1.162,2.343-2.156,3.631-2.892c1.32-0.767,2.604-1.196,3.761-1.317
				c0.604-0.067,1.204,0.128,1.727,0.433l2.937,1.713c0.219,0.136,0.137,0.474-0.132,0.502c-0.197,0.019-0.405,0.05-0.617,0.089
				c-0.983,0.189-2.046,0.589-3.141,1.215c-1.179,0.678-2.308,1.572-3.352,2.613c-0.11,0.104-0.243,0.255-0.393,0.42
				c-0.638,0.705-1.685,0.895-2.511,0.414l-0.148-0.09l-1.558-0.896c-0.741-0.438-0.913-1.445-0.326-2.076
				C76.575,89.755,76.619,89.709,76.653,89.671z"/>
		</g>
		<path fill="#F2F2F2" d="M86.497,87.617c0,0-1.387,0-2.563,0.592c-1.182,0.596-1.986,1.693-1.986,1.693s1.074-0.822,2.084-1.385
			C85.035,87.958,86.497,87.617,86.497,87.617z"/>
	</g>
	<path fill="#E6C7B1" d="M80.948,97.331c0,0,6.299-1.41,7.472-1.613c2.317-0.405,6.612,1.613,6.612,1.613l2.675,2.474
		c0,0,0.354,0.555-0.604,0.758c-0.957,0.201-2.399-1.514-2.399-1.514L91.9,98.24c0,0-1.8-0.059-1.869,0.809
		c-0.047,0.658,1.51,0.996,2.17,1.109c0.463,0.078,1.487,0.39,1.67,0.857c0.27,0.704-0.353,1.01-0.353,1.01
		s-0.392,0.074-2.523-0.303c-1.718-0.3-2.998-0.374-3.989-0.555c-1.363-0.255-2.17-1.262-2.17-1.262l-3.13,0.807L80.948,97.331z"/>
	<path fill="#E6C7B1" d="M97.652,112.197c0,0,4.327-0.344,5.97,0c1.648,0.346,6.491,2.255,6.491,2.255s1.388,0.517,0.608,1.383
		c-0.369,0.412-1.473,1.038-1.908,1.383c-0.432,0.345-1.727,0.437-4.318-0.085c-1.365-0.273-1.996-0.26-3.554-0.09
		c-1.558,0.175-3.378-0.52-3.378-0.52L97.652,112.197z"/>
	<path fill="#0E293A" d="M59.265,85.53c0,0-4.164-0.896-4.436,6.237c-0.049,1.318,2.808,6.727,4.595,9.868
		c0,0,2.983,4.249,7.493,3.831c7.733-0.721,16.939-4.792,16.939-4.792s0.484-0.642,0.156-2.029c-0.411-1.703-1.18-1.899-1.18-1.899
		l-15.916,1.92L59.265,85.53z"/>
	<path fill="#195184" d="M67.731,87.644l6.363,13.49c0,0,0.573,0.896,0.556,1.686c-0.026,0.784-0.028,1.731-0.997,3.219
		c-0.105,0.158-0.213,0.305-0.32,0.447c-1.039,1.357-2.11,2.82-2.11,4.528l0.271,11.413c0,0-0.147,1.789-0.199,2.916
		c0,0-2.307,3.123-7.414,3.136c-5.333,0.027-12.905-4.59-12.819-4.979l2.834-10.641c0.199-0.959,0.274-1.947,0.211-2.928
		l-1.219-11.209c0,0-0.215-4.404,0.404-6.762c1.611-6.161,5.851-6.994,6.082-7.464C59.374,84.497,67.244,86.802,67.731,87.644z"/>
	<path fill="#E6C7B1" d="M69.035,64.333l5.266,1.322L72.03,80.796c-0.609,3.029-2.401,4.334-3.77,4.371
		c-2.654,0.089-4.516-1.937-6.933-5.182c-2.143-2.875-1.698-4.672-1.724-5.095l-0.911-10.558L69.035,64.333L69.035,64.333z"/>
	<path fill="#ECA72B" d="M70.749,88.6c0,0-15.224-0.767-17.84-11.982c-1.414-6.052,1.017-15.003,7.877-17.089
		c5.998-1.83,11.309,0.74,13.931,4.771c2.123,3.268,1.821,8.685-0.399,11.313c-3.4,4.018-4.444,4.038-5.256,6.864
		C68.223,85.437,69.424,87.417,70.749,88.6z"/>
	<path fill="#156799" d="M99.073,114.775c-0.109,2.322-1.27,2.33-1.27,2.33s-12.481-0.32-14.113-0.205
		c-2.355,0.173-3.504-0.756-5.486-1.953c-1.73-1.039-12.151-12.008-12.151-12.008s-4.272-3.965-2.538-7.074
		c1.907-3.418,5.847-2.544,7.968,0.14c1.979,2.507,6.438,9.233,8.987,12.243c0.945,1.121,1.934,1.914,3.395,1.861l13.387,1.867
		c0,0,0.502,0.117,1.021,0.735C98.719,113.245,99.104,114.18,99.073,114.775z"/>
	<g>
		<path fill="#303030" d="M49.753,117.568v27l0,0c1.251,0.678,2.777-0.238,2.777-1.66v-24.484L49.753,117.568z"/>
		<path fill="#4C4C4C" d="M50.071,117.999c-0.688-0.217-1.39,0.304-1.39,1.03v23.359c0,0.979,0.536,1.885,1.39,2.36
			c0.625,0.351,1.392-0.101,1.392-0.813v-24.058C51.463,119.014,50.897,118.251,50.071,117.999z"/>
		<g>
			<path fill="#1C4351" d="M40.287,104.213c0,0,1.803-1.774,2.67,0.128c1.017,2.229,1.386,3.509,6.272,5.635
				c3.479,1.508,6.361,1.682,8.907,1.725c4.729,0.094,7.256,2.178,7.181,5.547c-0.09,4.092-4.362,5.145-4.756,5.18
				c-5.331,0.484-7.103-0.959-13.173-3.656c-5.415-2.402-5.936-4-6.197-4.903C40.664,112.083,40.287,104.213,40.287,104.213z"/>
			<path fill="#2E5B68" d="M40.287,104.21c0,0-0.658,4.377,7.189,7.188c4.391,1.576,7.3,2.104,9.843,2.304
				c3.454,0.272,6.181,1.092,5.908,4.274c-0.217,2.558-1.437,4.324-3.91,4.638c-2.903,0.358-5.396,1.088-11.632-1.185
				c-5.306-1.938-6.708-5.281-6.976-7.824C40.52,111.75,40.287,104.21,40.287,104.21z"/>
		</g>
	</g>
</g>
</svg>
