<?xml version="1.0" encoding="utf-8"?>
<!-- Generator: Adobe Illustrator 15.0.0, SVG Export Plug-In . SVG Version: 6.00 Build 0)  -->
<!DOCTYPE svg PUBLIC "-//W3C//DTD SVG 1.1//EN" "http://www.w3.org/Graphics/SVG/1.1/DTD/svg11.dtd">
<svg version="1.1" id="Capa_1" xmlns="http://www.w3.org/2000/svg" xmlns:xlink="http://www.w3.org/1999/xlink" x="0px" y="0px"
	 width="149px" height="188.652px" viewBox="28.583 0 149 188.652" enable-background="new 28.583 0 149 188.652"
	 xml:space="preserve">
<path fill="#177F73" d="M48.765,52.953c-0.246,0-0.495-0.008-0.739-0.02l0.045-0.771c0.978,0.05,1.979-0.008,2.941-0.172
	l0.143,0.762C50.371,52.885,49.566,52.953,48.765,52.953z M44.936,52.431c-1.004-0.281-1.976-0.675-2.887-1.17l0.404-0.671
	c0.855,0.465,1.768,0.835,2.711,1.1L44.936,52.431z M54.158,51.892l-0.325-0.709c0.901-0.373,1.758-0.847,2.548-1.407l0.486,0.618
	C56.028,50.991,55.117,51.495,54.158,51.892z M39.526,49.49c-0.766-0.682-1.448-1.444-2.028-2.272l0.676-0.429
	c0.547,0.777,1.188,1.497,1.908,2.136L39.526,49.49z M59.145,48.345l-0.624-0.496c0.634-0.719,1.178-1.508,1.619-2.342l0.727,0.346
	C60.397,46.741,59.818,47.579,59.145,48.345z M36.072,44.564c-0.363-0.932-0.612-1.905-0.74-2.896l0.807-0.095
	c0.12,0.932,0.354,1.847,0.697,2.723L36.072,44.564z M61.938,43.052l-0.792-0.178c0.226-0.906,0.339-1.845,0.339-2.783h0.813
	C62.297,41.091,62.177,42.086,61.938,43.052z M61.483,39.928c-0.013-0.94-0.14-1.875-0.378-2.777l0.789-0.188
	c0.253,0.962,0.388,1.956,0.401,2.955L61.483,39.928z M36.119,38.772l-0.809-0.084c0.113-0.992,0.349-1.97,0.699-2.905l0.766,0.258
	C36.447,36.921,36.226,37.84,36.119,38.772z M60.063,34.531c-0.453-0.829-1.009-1.61-1.651-2.319l0.616-0.504
	c0.684,0.755,1.275,1.586,1.757,2.468L60.063,34.531z M38.08,33.528l-0.683-0.42c0.569-0.835,1.241-1.607,1.997-2.297l0.564,0.559
	C39.246,32.016,38.615,32.744,38.08,33.528z M56.244,30.311c-0.797-0.551-1.662-1.015-2.568-1.376l0.314-0.712
	c0.965,0.384,1.883,0.876,2.732,1.463L56.244,30.311z M42.306,29.674l-0.413-0.666c0.902-0.507,1.867-0.913,2.867-1.207L45,28.54
	C44.061,28.816,43.154,29.198,42.306,29.674z M50.842,28.162c-0.963-0.15-1.965-0.195-2.944-0.134l-0.056-0.771
	c1.041-0.066,2.107-0.018,3.133,0.141L50.842,28.162z"/>
<path fill="#177F73" d="M145.408,88.872c-0.246,0-0.495-0.006-0.739-0.019l0.044-0.771c0.979,0.051,1.979-0.007,2.943-0.169
	l0.143,0.76C147.017,88.806,146.211,88.872,145.408,88.872z M141.578,88.351c-1.004-0.281-1.976-0.675-2.886-1.17l0.404-0.672
	c0.854,0.467,1.769,0.836,2.711,1.102L141.578,88.351z M150.801,87.812l-0.323-0.709c0.9-0.373,1.758-0.846,2.547-1.407l0.486,0.618
	C152.671,86.911,151.76,87.415,150.801,87.812z M136.171,85.41c-0.768-0.682-1.449-1.444-2.029-2.271l0.678-0.429
	c0.545,0.776,1.188,1.496,1.906,2.135L136.171,85.41z M155.787,84.265l-0.623-0.496c0.633-0.719,1.178-1.506,1.619-2.342
	l0.727,0.347C157.041,82.662,156.461,83.5,155.787,84.265z M132.716,80.485c-0.363-0.933-0.611-1.906-0.74-2.896l0.809-0.095
	c0.119,0.931,0.354,1.847,0.695,2.722L132.716,80.485z M158.581,78.971l-0.792-0.177c0.226-0.906,0.34-1.844,0.34-2.783h0.813
	C158.94,77.011,158.819,78.007,158.581,78.971z M158.127,75.848c-0.013-0.938-0.142-1.874-0.378-2.778l0.789-0.188
	c0.253,0.962,0.388,1.957,0.402,2.956L158.127,75.848z M132.765,74.692l-0.81-0.084c0.112-0.991,0.349-1.97,0.698-2.905l0.767,0.259
	C133.09,72.841,132.869,73.76,132.765,74.692z M156.706,70.45c-0.454-0.829-1.01-1.609-1.65-2.319l0.616-0.505
	c0.685,0.756,1.272,1.586,1.757,2.469L156.706,70.45z M134.724,69.448l-0.683-0.421c0.567-0.835,1.24-1.606,1.998-2.298l0.563,0.558
	C135.892,67.937,135.258,68.663,134.724,69.448z M152.888,66.231c-0.798-0.551-1.66-1.015-2.568-1.376l0.313-0.712
	c0.966,0.383,1.886,0.875,2.732,1.463L152.888,66.231z M138.949,65.594l-0.414-0.665c0.903-0.508,1.868-0.913,2.866-1.207
	l0.242,0.738C140.704,64.735,139.797,65.117,138.949,65.594z M147.485,64.082c-0.965-0.15-1.965-0.195-2.944-0.132l-0.056-0.772
	c1.041-0.065,2.106-0.019,3.132,0.142L147.485,64.082z"/>
<path fill="#177F73" d="M126.666,48.122c-1.037-0.002-2.08-0.082-3.099-0.236l0.129-0.764c0.977,0.147,1.977,0.225,2.974,0.227
	L126.666,48.122z M129.769,47.901l-0.125-0.764c0.979-0.145,1.957-0.363,2.899-0.652l0.25,0.736
	C131.81,47.521,130.791,47.751,129.769,47.901z M120.547,47.188c-0.983-0.308-1.948-0.69-2.868-1.143l0.37-0.688
	c0.884,0.433,1.81,0.802,2.752,1.097L120.547,47.188z M135.668,46.095l-0.369-0.688c0.884-0.428,1.74-0.925,2.543-1.479l0.479,0.626
	C137.479,45.132,136.59,45.649,135.668,46.095z M115.032,44.49c-0.833-0.581-1.627-1.23-2.354-1.931l0.577-0.544
	c0.698,0.671,1.457,1.293,2.259,1.852L115.032,44.49z M140.687,42.638l-0.574-0.548c0.703-0.666,1.355-1.39,1.941-2.152l0.655,0.456
	C142.101,41.188,141.418,41.942,140.687,42.638z M110.668,40.306c-0.604-0.799-1.147-1.647-1.614-2.523l0.727-0.35
	c0.447,0.841,0.968,1.655,1.549,2.422L110.668,40.306z M144.34,37.876l-0.725-0.353c0.452-0.842,0.838-1.721,1.145-2.618
	l0.773,0.239C145.213,36.08,144.813,36.999,144.34,37.876z M107.878,35.046c-0.314-0.938-0.552-1.906-0.708-2.879l0.804-0.115
	c0.149,0.933,0.377,1.861,0.68,2.759L107.878,35.046z M146.258,32.272l-0.803-0.121c0.151-0.928,0.231-1.879,0.231-2.824h0.813
	C146.5,30.313,146.418,31.304,146.258,32.272z M107.758,29.225l-0.813-0.004c0.007-0.987,0.095-1.978,0.261-2.943l0.802,0.124
	C107.849,27.327,107.765,28.279,107.758,29.225z M145.485,26.701c-0.144-0.935-0.364-1.864-0.661-2.764l0.776-0.23
	c0.31,0.938,0.541,1.908,0.689,2.883L145.485,26.701z M108.718,23.65l-0.771-0.242c0.326-0.935,0.732-1.851,1.211-2.726l0.721,0.356
	C109.42,21.876,109.028,22.754,108.718,23.65z M143.712,21.311c-0.439-0.844-0.957-1.661-1.531-2.43l0.661-0.448
	c0.601,0.802,1.138,1.654,1.599,2.533L143.712,21.311z M111.455,18.633l-0.654-0.459c0.615-0.791,1.3-1.542,2.037-2.233l0.57,0.55
	C112.701,17.154,112.044,17.875,111.455,18.633z M140.265,16.708c-0.693-0.673-1.451-1.3-2.248-1.862l0.485-0.621
	c0.83,0.586,1.619,1.239,2.345,1.942L140.265,16.708z M115.688,14.665l-0.475-0.629c0.842-0.572,1.738-1.086,2.662-1.525l0.363,0.69
	C117.354,13.624,116.496,14.116,115.688,14.665z M135.49,13.341c-0.882-0.438-1.806-0.813-2.745-1.111l0.259-0.731
	c0.979,0.312,1.942,0.701,2.862,1.158L135.49,13.341z M121.004,12.137l-0.246-0.737c0.986-0.296,2.007-0.52,3.029-0.665l0.121,0.766
	C122.926,11.639,121.949,11.853,121.004,12.137z M129.854,11.547c-0.977-0.154-1.976-0.235-2.972-0.244l0.007-0.772
	c1.037,0.009,2.079,0.095,3.098,0.255L129.854,11.547z"/>
<path fill="#177F73" d="M77.021,117.474h-1.145v-0.771h1.145V117.474z M72.827,117.474h-3.05v-0.771h3.05V117.474z M66.729,117.474
	H63.68v-0.771h3.049V117.474z M60.63,117.474h-3.05v-0.771h3.05V117.474z M54.448,117.116c-1.024-0.3-1.973-0.771-2.817-1.406
	l0.506-0.605c0.764,0.575,1.622,1.002,2.549,1.273L54.448,117.116z M49.542,113.432c-0.545-0.881-0.907-1.839-1.075-2.846
	l0.803-0.122c0.152,0.91,0.48,1.777,0.973,2.575L49.542,113.432z M49.172,107.631h-0.814v-2.897h0.814V107.631z M49.172,101.835
	h-0.814v-2.898h0.814V101.835z M49.172,96.039h-0.814v-2.898h0.814V96.039z M49.172,90.243h-0.814v-2.898h0.814V90.243z
	 M49.172,84.446h-0.814v-2.897h0.814V84.446z M49.172,78.649h-0.814v-2.896h0.814V78.649z M49.172,72.854h-0.814v-2.897h0.814
	V72.854z M49.172,67.058h-0.814V64.16h0.814V67.058z M49.172,61.261h-0.814v-2.898h0.814V61.261z M49.172,55.464h-0.814v-2.897
	h0.814V55.464z"/>
<path fill="#177F73" d="M114.269,87.87h-3.051v-0.772h3.051V87.87z M108.168,87.87h-3.049v-0.772h3.049V87.87z M102.069,87.87
	h-3.049v-0.772h3.049V87.87z M95.971,87.87h-3.049v-0.772h3.049V87.87z M89.873,87.87h-3.05v-0.772h3.05V87.87z M117.321,87.87
	l-0.012-0.773c0.978-0.014,1.926-0.197,2.823-0.545l0.308,0.716C119.449,87.651,118.399,87.854,117.321,87.87z M123.112,85.628
	l-0.559-0.562c0.707-0.637,1.277-1.384,1.691-2.218l0.736,0.331C124.522,84.103,123.896,84.925,123.112,85.628z M125.785,80.256
	l-0.812-0.054c0.012-0.172,0.019-0.349,0.019-0.521V77.33h0.813v2.351C125.806,79.872,125.799,80.065,125.785,80.256z
	 M125.806,74.433h-0.813v-2.897h0.813V74.433z M125.806,68.636h-0.813V65.74h0.813V68.636z M125.806,62.841h-0.813v-2.898h0.813
	V62.841z M125.806,57.044h-0.813v-2.898h0.813V57.044z M125.806,51.247h-0.813v-1.896h0.813V51.247z"/>
<path fill="#177F73" d="M120.599,144.248h-3.05v-0.772h3.05V144.248z M114.499,144.248h-3.05v-0.772h3.05V144.248z M108.399,144.248
	h-3.049v-0.772h3.049V144.248z M102.302,144.248h-3.05v-0.772h3.05V144.248z M96.203,144.248h-3.049v-0.772h3.049V144.248z
	 M123.728,143.962l-0.213-0.744c0.938-0.242,1.809-0.645,2.592-1.196l0.483,0.62C125.726,143.251,124.763,143.695,123.728,143.962z
	 M128.754,140.427l-0.688-0.414c0.521-0.782,0.877-1.637,1.061-2.545l0.799,0.146C129.722,138.615,129.328,139.563,128.754,140.427z
	 M130.08,134.653h-0.813v-2.897h0.813V134.653z M130.187,128.927l-0.802-0.129c0.177-1.006,0.548-1.961,1.099-2.838l0.697,0.396
	C130.683,127.151,130.349,128.016,130.187,128.927z M133.09,124.306l-0.5-0.608c0.849-0.632,1.802-1.098,2.827-1.388l0.232,0.74
	C134.722,123.313,133.858,123.735,133.09,124.306z M138.58,122.714l-0.063-0.77c0.971-0.074,1.905-0.315,2.777-0.722l0.355,0.695
	C140.687,122.366,139.651,122.634,138.58,122.714z M144.205,120.118l-0.599-0.526c0.664-0.68,1.181-1.459,1.537-2.317l0.756,0.284
	C145.507,118.506,144.937,119.366,144.205,120.118z M146.5,114.59l-0.813-0.005v-2.896h0.813V114.59z M146.5,108.791h-0.813v-2.897
	h0.813V108.791z M146.5,102.996h-0.813v-2.898h0.813V102.996z M146.5,97.199h-0.813v-2.898h0.813V97.199z M146.5,91.402h-0.813
	v-2.896h0.813V91.402z"/>
<g>
	<g>
		<polygon fill="#F79537" points="96.781,65.085 101.176,61.034 95.828,59.924 		"/>
		<ellipse fill="#F79537" cx="99.888" cy="55.417" rx="7.621" ry="7.242"/>
		<g>
			<path fill="#FFFFFF" d="M100.688,56.585h-1.937l-0.299-5.271h2.532L100.688,56.585z M98.478,58.534
				c0-0.339,0.104-0.601,0.315-0.787c0.211-0.188,0.519-0.282,0.92-0.282c0.397,0,0.701,0.095,0.906,0.282
				c0.205,0.187,0.308,0.448,0.308,0.787c0,0.334-0.105,0.596-0.318,0.782c-0.213,0.188-0.512,0.283-0.896,0.283
				c-0.387,0-0.688-0.096-0.907-0.283C98.586,59.13,98.478,58.868,98.478,58.534z"/>
		</g>
	</g>
	<g>
		<path fill="#231F20" d="M75.529,167.07c0.139-0.408-0.121,1.114,0.208,1.104c0.62-0.019,1.278,0.018,1.894,0.198
			c0.176-0.519,0.004-1.98,0.458-1.557c1.238,1.162,1.574,4.388,1.585,6.091c0.012,1.789-0.085,3.887-1.643,4.772
			c-2.537,1.445-3.598-2.693-3.543-4.688C74.525,171.667,74.33,170.584,75.529,167.07z"/>
		<path fill="#F0C185" d="M78.473,167.436c0,0,1.17,4.432-0.184,5.39c-1.355,0.961-2.557,0.478-2.756,0
			c-0.768-1.841-0.279-5.39-0.279-5.39H78.473z"/>
		<path fill="#231F20" d="M105.37,169.673c-1.258-1.448-4.862-0.892-6.503-0.64c-0.632,0.096-1.261,0.099-1.896,0.021
			c-0.26-0.029-1.586-0.173-1.598-0.531c-0.013-0.457-0.346-0.718-0.715-0.778c0.074-0.313-0.01-0.667-0.343-0.903
			c-0.024-0.02-0.05-0.036-0.075-0.056c-0.261-0.186,0.141-0.842-0.126-0.732c-0.842,0.346-1.425,2.404-1.602,3.064
			c-0.483,1.806,0.884,2.385,2.089,2.4c3.722,0.056,7.652,0.277,10.386-0.471C105.657,170.865,105.776,170.142,105.37,169.673z"/>
		<path fill="#F0C185" d="M101.263,168.746c0,0-2.896-0.286-3.363-0.731c-0.467-0.442-1.167-3.638-1.167-3.638l-3.577,2.893
			c0,0,0.35,1.747,2.083,1.767C96.971,169.056,99.209,169.477,101.263,168.746z"/>
		<path fill="#4C2A1B" d="M88.207,62.421c0.119-0.369,0.189-0.749,0.196-1.141c0.069-3.547-4.437-5.083-7.569-4.486
			c-3.791,0.722-8.032,2.317-7.264,6.896c0.059,0.353,0.152,0.677,0.275,0.979c1.287,3.181,3.705,7.181,7.035,7.76
			c2.3,0.4,2.79-2.569,3.379-3.976C85.094,66.466,87.5,64.623,88.207,62.421z"/>
		<path fill="#194B8E" d="M82.643,117.669c0.109,0.026,0.221,0.047,0.331,0.063c0.362,0.05,0.733,0.033,1.104,0
			c0.128,1.396,0.192,2.795,0.341,4.152c0.396,3.639,1.723,7.111,2.874,10.58c0.611,1.846,1.177,3.701,1.582,5.599
			c0.413,1.934,0.591,3.921,0.792,5.879c0.207,2.03,0.313,4.077,0.59,6.102c0.273,2.012,0.625,12.896,1.504,16.667
			c0.941,0.862,4.27,0.868,5.769,0.478c0.05-0.013,1.48-0.369,1.48-1.673c-1.264-3.93-2.548-21.933-2.817-27.146
			c-0.211-4.091-0.69-8.146-1.301-12.188c-0.012-0.979-0.097-1.965-0.205-2.92c-0.178-1.598-1.491-8.311-2.175-12.191v-0.001
			c-0.196-1.112-0.34-1.994-0.39-2.453c-1.899-3.856-0.893,0.213-2.922-3.575c0.026,0.35,0.041,0.702,0.044,1.054
			c0.008,0.969-1.075,1.461-1.876,1.146c-0.08,0.438-0.205,0.866-0.405,1.289c-0.306,0.639-1.423,0.838-1.977,0.372
			c0.01,0.24,0.018,0.482,0.024,0.723c0.002,0.022,0.002,0.048,0.003,0.07c-0.277,0.056-0.532,0.229-0.702,0.553
			c-0.119,0.228-0.271,0.427-0.434,0.62c-0.176,0.208-0.361,0.409-0.529,0.633c-0.324,0.427-0.523,0.922-0.693,1.42
			c-0.159,0.464-0.272,0.928-0.545,1.348c-0.262,0.406-0.593,0.75-0.762,1.204C80.979,116.46,81.595,117.401,82.643,117.669z"/>
		<path fill="#194B8E" d="M71.281,128.303c0.676,5.302,1.508,10.714,1.108,16.067c-0.269,3.591,0.038,7.259,0.192,10.847
			c0.16,3.725,0.402,7.451,0.481,11.178c0.03,1.433,0.034,2.123,1.828,2.374c1.537,0.218,5.635-0.255,5.546-2.219
			c0.205-9.045-1.313-18.966-1.062-28.035c0.176-1.228,0.374-2.453,0.589-3.678c0.753-4.336,1.629-8.656,2.261-13.007
			c0.188-1.301,0.509-2.712,0.748-4.1c0.039-0.227,0.075-0.451,0.109-0.676c0.028-0.185,0.056-0.372,0.081-0.561
			c0.491-0.097,0.925-0.45,0.938-1.064c0.017-0.754,0.484-1.394,0.877-2.02c0.457-0.733,0.9-1.5,1.034-2.351
			c0.009-0.055,0.015-0.109,0.019-0.168c0.023-0.429-0.109-0.92-0.566-1.109c-0.15-0.063-0.303-0.116-0.455-0.162
			c-0.819-0.246-1.655-0.258-2.53-0.274c-1.134-0.021-2.205-0.375-3.274-0.711c-0.85-0.268-1.616-0.607-2.426-0.959
			c-0.806-0.346-1.646-0.66-2.547-0.57c-0.875,0.088-1.824,0.637-2.095,1.476c-0.069,0.217-0.089,0.438-0.065,0.651
			c-0.363,0.311-0.594,0.761-0.618,1.252C71.147,116.581,70.503,122.217,71.281,128.303z"/>
		<path fill="#14396F" d="M71.454,110.485c3.508,1.845,4.876-1.311,4.876-1.311s3.031,0.931,6.422,1.53
			c0.393,0.066,0.767,0.123,1.125,0.158c0.793,0.08,1.506,0.088,2.154,0.029c1.588-0.136,2.799-0.635,3.883-1.279
			c1.516,1.707,2.597,1.455,2.597,1.455v-0.001c-0.196-1.112-0.34-1.994-0.39-2.454c-1.899-3.855-0.893,0.214-2.922-3.574
			c0.026,0.35,0.041,0.702,0.044,1.054c0.008,0.969-1.075,1.461-1.876,1.145c-0.08,0.438-0.205,0.867-0.405,1.29
			c-0.306,0.639-1.423,0.838-1.977,0.372c0.01,0.24,0.018,0.482,0.024,0.723c-0.819-0.246-1.655-0.257-2.53-0.274
			c-1.134-0.021-2.205-0.375-3.274-0.711c-0.85-0.268-1.616-0.607-2.426-0.959c-0.806-0.346-1.646-0.66-2.547-0.57
			c-0.875,0.088-1.824,0.637-2.095,1.476c-0.069,0.217-0.089,0.438-0.065,0.651C71.709,109.543,71.479,109.993,71.454,110.485z"/>
		<path fill="#F0C185" d="M105.099,105.719c0.059-0.172,0.168-0.345,0.311-0.495c-0.027-0.012-0.055-0.02-0.08-0.033
			c-0.374-0.173-0.066-0.711,0.306-0.538c0.14,0.065,0.298,0.095,0.46,0.107c0.04,0.003,0.08-0.001,0.12-0.009
			c0.056-0.01,0.111-0.019,0.167-0.019c0.041-0.002,0.076,0.007,0.109,0.017c0.041,0.014,0.086,0.018,0.128,0.018
			c0.126-0.001,0.249-0.001,0.362,0.008c0.596,0.045,1.199,0.114,1.787,0.205c0.223,0.033,0.422,0.079,0.604,0.142
			c0.125,0.032,0.25,0.073,0.375,0.124c0.027,0.012,0.057,0.019,0.086,0.023c0.617,0.105,1.294,0.135,1.852,0.309
			c0.021,0.006,0.039,0.011,0.061,0.013c0.624,0.08,1.177,0.36,1.794,0.523c0.375,0.101,0.308,0.661-0.095,0.652
			c-0.016,0-0.032-0.001-0.051-0.001c0.219,0.09,0.422,0.199,0.58,0.355c0.219,0.219,0.051,0.55-0.248,0.569
			c-0.176,0.011-0.344,0-0.51-0.025c-0.119-0.019-0.238,0.015-0.335,0.085c-0.054,0.04-0.123,0.064-0.208,0.069
			c-0.646,0.037-1.236-0.143-1.855-0.291c-0.369-0.09-0.797-0.232-1.205-0.309c-0.049-0.01-0.098-0.009-0.146-0.001
			c-0.14,0.022-0.278,0.04-0.42,0.054h0.001c0.151,0.147,0.133,0.439,0.309,0.563c0.25,0.177,0.797,0.279,1.078,0.406
			c0.276,0.128,0.19,0.536-0.084,0.608c-0.972,0.252-2.037-0.043-2.918-0.438c-0.449-0.203-0.882-0.449-1.277-0.738
			c-0.434-0.315-0.49-0.602-0.76-1.028C105.199,106.338,104.965,106.107,105.099,105.719z"/>
		<path fill="#F0C185" d="M83.541,76.878c-1.064,0.949-3.398,1.334-4.395-0.023c-0.469,0.021-0.955-0.442-0.79-1.17
			c0.018-0.074,0.032-0.146,0.05-0.219c0.004-0.121,0.027-0.248,0.076-0.376c0.078-0.44,0.133-0.886,0.186-1.333
			c0.022-0.179,0.044-0.359,0.068-0.538c0.002-0.118,0.004-0.234,0-0.353c-0.004-0.265,0.057-0.471,0.158-0.619
			c0.008-0.035,0.016-0.072,0.023-0.108c0.02-0.095,0.042-0.188,0.065-0.28c0.257-0.993,1.284-0.8,1.476,0.004
			c0.181,0.099,0.338,0.28,0.423,0.566c0.015,0.046,0.028,0.097,0.039,0.146c0.054,0.215,0.081,0.439,0.09,0.668
			c0.003,0.002,0.005,0.002,0.008,0.003c0.007,0.003,0.015,0.007,0.022,0.01c0.273-0.184,0.634-0.168,0.877,0.098
			c0.112-0.047,0.231-0.061,0.35-0.043c0.021-0.048,0.047-0.091,0.076-0.131c0.021-0.104,0.054-0.195,0.094-0.273
			c0.326-0.649,1.193-0.411,1.373,0.3c0.041,0.147,0.048,0.319,0.013,0.508c-0.039,0.215-0.063,0.43-0.075,0.649
			c0.014,0.173,0.027,0.345,0.041,0.519v0.001c0.025,0.312,0.05,0.622,0.059,0.935C83.922,76.183,83.85,76.603,83.541,76.878z"/>
		<path fill="#E2A971" d="M83.823,73.712c-0.039,0.215-0.063,0.43-0.075,0.648c0.014,0.174,0.027,0.346,0.041,0.52v0.001
			c0,0-1.734,3.138-5.307,0.209c0.022-0.18,0.229-1.692,0.254-1.871c0.002-0.118,0.004-0.234,0-0.353
			c-0.004-0.265,0.057-0.471,0.158-0.619c0.008-0.035,0.016-0.072,0.023-0.108l2.003,0.437l1.517,0.329l1.373,0.301
			C83.852,73.353,83.858,73.524,83.823,73.712z"/>
		<path fill="#F0C185" d="M86.01,60.616c-0.271-0.201-0.609-0.362-1.023-0.478c-0.799-0.217-1.945,0.252-2.757,0.213
			c-1.388-0.066-3.368-0.36-4.327,0.814c-0.892,1.093-0.462,2.547-0.453,3.873c0.002,0.275-0.016,0.552-0.04,0.826
			c-0.015-0.012-0.03-0.022-0.044-0.031c-0.338-0.222-0.719-0.32-1.127-0.262c-0.306,0.043-0.654,0.295-0.669,0.616
			c-0.05,1.063,0.634,1.927,1.536,2.494c0.008,0.006,0.017,0.01,0.024,0.015c0.003,0.445,0.048,0.896,0.175,1.35
			c0.438,1.576,1.688,2.576,2.984,3.545c1.195,0.894,2.457,0.922,3.834,0.339c1.392-0.591,1.949-1.708,2.342-3.042
			c0.428-1.447,0.809-2.866,0.65-4.378C86.921,64.657,87.706,61.873,86.01,60.616z"/>
		<path fill="#FFFFFF" d="M74.871,100.057c0.791-2.054,0.885-3.781,0.392-5.946c-0.263-1.153-0.628-2.28-1.008-3.402
			c0.44-1.034,0.747-2.11,0.868-3.225c0.002-0.004,0.002-0.01,0.002-0.014c0.042-0.386,0.062-0.777,0.055-1.172
			c-0.019-1.192-0.252-2.41-0.455-3.582c-0.26-1.499-0.674-3.332-1.629-4.646c0.389-0.157,4.873-2.227,5.261-2.385
			c0,0,4.054,1.373,5.497-0.102c0.656-0.226,5.548,0.475,6.061,0.87c0.057,1.976-0.061,3.96,0.744,5.838
			c0.973,2.265,3.059,4.956,2.168,7.521c-0.225,0.651-0.723,1.044-1.066,1.595c-0.014,0.021-0.028,0.043-0.041,0.064
			c-0.003,0.005-0.006,0.01-0.008,0.013c-0.227,0.39-0.383,0.857-0.503,1.33c-0.1,0.384-0.179,0.77-0.255,1.116
			c-0.367,1.673-0.459,3.411-0.191,5.104c0.1,0.645,0.257,1.28,0.366,1.926c0.051,0.298,0.095,0.596,0.141,0.895
			c0.007,0.062,0.029,0.203,0.032,0.235c0.025,0.17,0.047,0.341,0.07,0.513c0.17,1.236,0.334,2.474,0.588,3.697
			c0.064,0.77,0.121,1.541,0.161,2.314c-0.808,0.591-1.962,0.955-2.753,1.145c-1.567,0.373-3.209,0.359-4.809,0.234
			c-2.618-0.202-5.223-0.795-7.736-1.504c-0.487-0.138-1.4-0.3-2.264-0.568c-1.11-0.343-2.141-0.86-2.097-1.713
			c0.038-0.729,0.603-1.452,0.86-2.123C73.839,102.741,74.356,101.399,74.871,100.057z"/>
		<path fill="#E5E5E5" d="M77.102,93.073c0.561,2.473,0.678,6.555,0,8.151c-0.509,1.205-1.894,4.937-2.543,6.695
			c-1.11-0.343-2.141-0.86-2.097-1.713c0.038-0.729,0.603-1.452,0.86-2.123c0.517-1.344,1.034-2.687,1.549-4.028
			c0.791-2.054,0.885-3.781,0.392-5.946c-0.263-1.153-0.628-2.28-1.008-3.402c0.44-1.034,0.747-2.11,0.868-3.225
			c-0.021,0.365,0.162,4.398,1.979,4.632c1.848,0.235,3.098,0,3.098,0S78.807,93.44,77.102,93.073z"/>
		<path fill="#F0C185" d="M69.529,105.686c0.716-0.618,1.378-1.276,2.023-1.966c0.13,0.268,0.264,0.533,0.4,0.799
			c0.541,1.037,5.742,6.551,1.542,6.551c-1.161,0-1.864-1.495-1.829-2.352C71.113,107.694,70.311,106.626,69.529,105.686z"/>
		<path fill="#4C2A1B" d="M75.932,62.292c0.117-0.065,0.235-0.105,0.354-0.127c0.075-0.279,0.27-0.537,0.523-0.701
			c2.26-1.46,4.775-1.969,7.375-2.607c0.646-0.158,1.12,0.195,1.306,0.654c1.35-0.345,1.913,1.668,0.552,2.064
			c-0.148,0.043-0.285,0.1-0.414,0.166c-0.216,0.176-0.439,0.338-0.673,0.487c-0.334,0.324-0.608,0.714-0.882,1.098
			c-0.651,0.917-1.346,1.861-2.419,2.369c-2.321,1.095-4.733-0.09-6.124-1.946C75.18,63.281,75.441,62.563,75.932,62.292z"/>
		<path fill="#FFFFFF" d="M73.096,78.069c0,0-2.1,0.309-4.289,5.527c-2.191,5.221-4.907,9.868-4.879,12.798
			c0.027,2.93,5.597,10.821,5.597,10.821l3.329-2.177c0,0-5.166-8.389-4.441-9.315c0.726-0.928,5.01-7.518,5.01-7.518l0.833,2.501
			l1.312-3.225C75.566,87.483,75.515,80.115,73.096,78.069z"/>
		<path fill="#FFFFFF" d="M89.914,76.453c0,0,4.705-0.915,7.793,16.367c8.969,11.208,8.969,11.208,8.969,11.208
			s-0.467,2.217-1.282,2.615c-0.817,0.399-9.644-7.189-10.202-8.94c-0.561-1.751-5.032-9.896-5.032-9.896L89.914,76.453z"/>
		<polygon fill="#E5E5E5" points="83.875,74.428 82.186,76.323 78.526,74.495 77.738,75.964 81.893,78.795 82.186,76.323 
			83.846,78.466 85.189,75.573 		"/>
		<path fill="#E5E5E5" d="M82.186,76.323c0,0,3.865,6.651,3.848,15.791c-0.017,9.139-0.844,17.958-0.844,17.958l-0.879,0.037
			c0,0,0.879-14.755,0.879-18.342c0-7.156-3.297-14.758-3.297-14.758L82.186,76.323z"/>
		<path fill="#E5E5E5" d="M91.76,91.407c-0.014,0.021-0.028,0.043-0.041,0.064c-0.003,0.005-0.006,0.01-0.008,0.013
			c-0.227,0.39-0.383,0.857-0.503,1.33c-0.682,0.039-1.549-0.108-2.649-0.571C89.832,92.437,90.925,91.99,91.76,91.407z"/>
		<g>
			<polygon fill="#E6E7E7" points="121.963,121.349 125.397,100.136 110.865,97.331 107.875,118.402 			"/>
			<polygon fill="#D1D3D3" points="121.353,101.146 114.103,99.825 114.067,100.505 121.284,101.841 			"/>
			<polygon fill="#D1D3D3" points="123.263,103.398 111.901,101.179 111.847,101.855 123.158,104.087 			"/>
			<polygon fill="#D1D3D3" points="122.981,104.851 111.621,102.633 111.565,103.31 122.877,105.538 			"/>
			<polygon fill="#D1D3D3" points="122.703,106.305 111.341,104.087 111.287,104.763 122.599,106.992 			"/>
			<polygon fill="#D1D3D3" points="122.422,107.758 111.06,105.538 111.006,106.216 122.315,108.444 			"/>
			<polygon fill="#D1D3D3" points="122.144,109.212 110.78,106.992 110.728,107.669 122.037,109.899 			"/>
			<polygon fill="#D1D3D3" points="121.86,110.664 110.5,108.444 110.446,109.122 121.757,111.353 			"/>
			<polygon fill="#D1D3D3" points="121.582,112.117 110.22,109.899 110.166,110.575 121.478,112.806 			"/>
			<polygon fill="#D1D3D3" points="117.168,112.924 109.729,111.319 109.692,111.999 117.101,113.617 			"/>
			<polygon fill="#D1D3D3" points="116.985,114.393 109.544,112.788 109.51,113.468 116.916,115.085 			"/>
			<polygon fill="#D1D3D3" points="116.801,115.86 109.36,114.256 109.325,114.935 116.731,116.555 			"/>
			<polygon fill="#FAAA0C" points="118.599,115.406 117.168,118.285 117.742,118.054 117.965,118.897 119.106,115.698 
				118.5,119.829 118.955,119.339 119.388,119.829 119.795,115.406 			"/>
			<polygon fill="#F79537" points="119.233,113.534 118.761,113.245 118.504,113.721 117.94,113.696 117.967,114.23 
				117.467,114.476 117.771,114.927 117.467,115.378 117.967,115.622 117.94,116.157 118.504,116.132 118.761,116.606 
				119.233,116.318 119.708,116.606 119.967,116.132 120.528,116.157 120.502,115.622 121.003,115.378 120.699,114.927 
				121.003,114.476 120.502,114.23 120.528,113.696 119.967,113.721 119.708,113.245 			"/>
		</g>
		<path fill="#F0C185" d="M110.517,107.216h-1.82c-1.081,0-1.082,1.598,0,1.598h1.82
			C111.599,108.813,111.601,107.216,110.517,107.216z"/>
		<path fill="#4C2A1B" d="M76.33,60.622c0,0-4.949-4.127-1.209-6.523c3.74-2.396,7.037,0.533,5.879,3.462
			C79.842,60.49,76.33,60.622,76.33,60.622z"/>
	</g>
</g>
<path fill="#177F73" d="M52.473,46.031c-0.171,0-0.342-0.053-0.491-0.154l-3.013-2.081c-0.008-0.004-0.018-0.004-0.025,0
	l-3.012,2.081c-0.299,0.205-0.686,0.205-0.983,0c-0.298-0.206-0.418-0.556-0.304-0.89l1.15-3.364c0.004-0.008,0-0.019-0.008-0.023
	l-3.012-2.08c-0.299-0.206-0.418-0.556-0.305-0.889c0.114-0.334,0.427-0.549,0.795-0.549h3.724c0.01,0,0.019-0.006,0.022-0.016
	l1.148-3.363c0.115-0.335,0.428-0.551,0.795-0.551c0.369,0,0.682,0.216,0.797,0.551l1.149,3.363c0.003,0.01,0.013,0.016,0.021,0.016
	h3.724c0.368,0,0.68,0.215,0.794,0.549c0.114,0.333-0.005,0.683-0.304,0.889l-3.012,2.08c-0.008,0.006-0.012,0.017-0.008,0.023
	l1.15,3.364c0.114,0.334-0.006,0.683-0.304,0.89C52.814,45.979,52.644,46.031,52.473,46.031z M43.266,38.854
	c-0.012,0-0.016,0-0.021,0.017c-0.005,0.015-0.001,0.019,0.009,0.023l3.012,2.08c0.294,0.201,0.416,0.562,0.304,0.889l-1.15,3.363
	c-0.004,0.012-0.005,0.017,0.008,0.024c0.014,0.01,0.018,0.007,0.027,0l3.012-2.079c0.293-0.203,0.689-0.203,0.982,0l3.012,2.079
	c0.009,0.007,0.014,0.01,0.027,0c0.013-0.009,0.012-0.014,0.008-0.024l-1.15-3.363c-0.111-0.327,0.01-0.688,0.305-0.889l3.011-2.08
	c0.009-0.006,0.013-0.01,0.009-0.023c-0.006-0.017-0.01-0.017-0.021-0.017h-3.724c-0.362,0-0.683-0.22-0.794-0.549l-1.15-3.364
	c-0.005-0.011-0.006-0.016-0.023-0.016c-0.016,0-0.018,0.005-0.021,0.016l-1.15,3.364c-0.111,0.329-0.431,0.549-0.794,0.549H43.266z
	"/>
<g>
	<path fill="#177F73" d="M140.551,83.823h-1.586c-0.937,0-1.698-0.726-1.698-1.616v-9.18c0-0.89,0.762-1.614,1.698-1.614h1.586
		c0.938,0,1.701,0.726,1.701,1.614v9.18C142.252,83.099,141.489,83.823,140.551,83.823z M138.965,72.187
		c-0.487,0-0.887,0.377-0.887,0.842v9.18c0,0.466,0.397,0.843,0.887,0.843h1.586c0.49,0,0.89-0.377,0.89-0.843v-9.18
		c0-0.465-0.398-0.842-0.89-0.842H138.965z"/>
	<path fill="#177F73" d="M151.813,82.255H141.44v-8.871l0.205-0.111c0.041-0.021,4.227-2.328,4.227-5.287v-0.229l0.209-0.109
		c0.836-0.438,1.482-0.479,1.924-0.114c0.607,0.499,0.656,1.65,0.148,3.623c-0.211,0.815-0.469,1.583-0.645,2.067h5.504
		c0.479,0,0.93,0.201,1.233,0.552c0.305,0.351,0.428,0.809,0.339,1.256l-1.199,5.986C153.242,81.735,152.58,82.255,151.813,82.255z
		 M142.252,81.483h9.562c0.379,0,0.703-0.257,0.773-0.608l1.2-5.988c0.043-0.221-0.019-0.445-0.168-0.618s-0.371-0.271-0.606-0.271
		h-6.668l0.207-0.521c0.881-2.217,1.483-4.896,0.922-5.356c-0.129-0.105-0.414-0.066-0.798,0.106
		c-0.086,1.354-0.887,2.752-2.334,4.063c-0.858,0.776-1.709,1.315-2.09,1.542V81.483L142.252,81.483z"/>
	<path fill="#177F73" d="M139.758,82.255c-0.735,0-1.336-0.569-1.336-1.271c0-0.7,0.601-1.271,1.336-1.271
		c0.738,0,1.339,0.569,1.339,1.271S140.496,82.255,139.758,82.255z M139.758,80.487c-0.288,0-0.522,0.225-0.522,0.498
		s0.234,0.498,0.522,0.498c0.289,0,0.522-0.225,0.522-0.498C140.281,80.711,140.047,80.487,139.758,80.487z"/>
</g>
<g>
	<path fill="#177F73" d="M116.33,31.876l-2.324-3.162l9.382-6.352l2.566,2.827l5.527-3.762l-1.729-2.33l9.771-0.844l-4.117,8.464
		l-1.571-2.118l-8.733,6.08l-2.627-2.884L116.33,31.876z M115.135,28.899l1.396,1.901l6.079-4.035l2.615,2.871l8.799-6.123
		l1.235,1.666l2.937-6.034l-6.967,0.602l1.383,1.863l-6.788,4.618l-2.569-2.827L115.135,28.899z"/>
	<rect x="114.569" y="39.839" fill="#177F73" width="22.664" height="0.772"/>
	<rect x="115.985" y="33.124" fill="#177F73" width="0.813" height="7.102"/>
	<rect x="118.342" y="31.773" fill="#177F73" width="0.813" height="8.452"/>
	<rect x="120.696" y="30.615" fill="#177F73" width="0.814" height="9.609"/>
	<rect x="123.054" y="31.619" fill="#177F73" width="0.813" height="8.605"/>
	<rect x="125.408" y="32.545" fill="#177F73" width="0.813" height="7.681"/>
	<rect x="127.765" y="30.615" fill="#177F73" width="0.813" height="9.609"/>
	<rect x="130.119" y="29.187" fill="#177F73" width="0.813" height="11.039"/>
	<rect x="132.476" y="27.952" fill="#177F73" width="0.813" height="12.272"/>
	<rect x="134.83" y="27.952" fill="#177F73" width="0.813" height="12.272"/>
</g>
</svg>
