 <svg id="divtotal_malaysialist" baseprofile="tiny" xmlns="http://www.w3.org/2000/svg" xmlns:xlink="http://www.w3.org/1999/xlink" x="0px" y="0px"
              viewBox="-34.5 232.5 735 309" enable-background="new -34.5 232.5 735 309" xml:space="preserve">
         
          <path fill="#7BEA05" class="zoom-map-area vanish-on-zoom" id="area-eleven-zoom" stroke="#000000" stroke-width="0.3636" stroke-miterlimit="10" d="M708.606,367.733l-1.634-2.542l1.361-0.121
             l3.177,0.544l0.317,1.271l-2.587,0.242L708.606,367.733z M700.482,357.931l0.727,0.544l1.679-0.666l2.179,0.968l-1.044,0.666
             l-0.136,1.15l-1.044-0.908l-0.545,0.908l-3.721-1.755l-4.448-1.21l3.404-0.302l2.178-0.787L700.482,357.931z M687.549,307.526
             l-1.316-0.363l1.181-1.15l1.724,0.121l-0.09,0.847L687.549,307.526z M655.101,272.067l-2.632-0.182l-1.498-0.666l0.816-1.271
             l2.179-0.061l1.18-0.605l-0.227-1.089l-1.498-0.061l0.318-1.15l2.45-0.666l1.815,2.723l-0.182,1.331L655.101,272.067z
              M637.038,242.296l-0.544,1.694l-0.817-0.726l-0.862,1.089l0.499,0.787l-4.13,1.029l0.817,0.907l-1.226,0.727l-1.089-0.303
             l2.087-3.812l2.633-0.968l1.77-2.058L637.038,242.296z M647.34,247.379l-4.72,1.271l-2.314,1.271l-1.18,1.815l-0.636-4.417
             l0.318-2.904l4.039-3.086l3.767-0.666l1.044,0.363l0.544,1.694L647.34,247.379z M675.205,380.017l-7.307-0.061l-1.452-0.242
             l-2.587-2.299l0.907-1.573l1.589-0.666l3.585,0.908l1.771,2.058l3.04,0.787L675.205,380.017z M568.012,344.86l2.496-2.783
             l2.27-0.787l1.089-1.029l0.636-3.994l1.452-2.299l-1.906,0.182l-3.086-0.605l-3.813-3.449l-0.499-1.15l-1.271,0.363l0.681-2.723
             l1.271-1.815l2.224-1.392l0.999-1.513l3.04-2.178l1.543-3.328l0.817-0.787l0.635,0.908l-1.497,2.844l0.862,1.271l0.635-2.118
             l2.36,1.694l3.812,0.303l2.36-0.484l1.361-1.15l1.951-3.63l1.135-4.478l1.089-1.21l3.858-2.239l0.681-0.727l0.681-3.872l2.632-4.296
             l0.636-1.876l-0.682-1.271l-0.952,0.363l0.091-1.392l2.042-0.908l2.042-3.086l2.224-1.21l1.679,0.605l0.046-1.876l-2.45,0.121
             l2.042-1.513l1.588-0.303l1.181-2.904l6.716-4.962l0.727-3.268l1.361-0.787l3.993-5.627l0.091-3.025l0.908-1.513l0.045-2.42
             l1.589-1.21l0.545-3.086l2.541-2.238l0.545,1.149l1.77,1.149l0.862,3.631l-1.271-0.544l-0.5,1.754l1.815,1.089l0.272,0.908
             l-0.635,2.844l-1.453,2.058l-1.361,3.388l0.228,1.513l1.725,0.423l6.444-5.446l0.408-2.058l3.177-3.993l-1.226-2.784l0.408-1.452
             l1.271,0.242l0.453-2.359l1.771,0.302l1.044-0.787l2.178,0.908l2.632,1.936l-0.227,2.844l-0.953,1.513l0.317,1.634l1.544,1.997
             l0.362,3.51l1.226,1.997l2.405,0.121l3.313,3.146l1.906-0.423l2.042-2.542l0.182,1.876l0.862,1.634l2.496,1.21l1.09-0.363
             l2.314,3.025h1.361l0.726,2.663l-0.635,1.21l0.453,1.15l-0.681,3.57l-2.087-0.182l-1.589,0.787l-1.588,1.876l2.768,5.083
             l-1.225,1.271l0.136,1.21l1.498,1.513l-2.36,2.239l-5.445,1.875l-1.044,1.15l4.312-1.513l5.944-0.363l2.904,0.121l-0.136-1.573
             l4.855-0.423l2.451-2.239l1.406-1.876l1.861-0.544l2.314,3.146l0.272,2.481l2.087,2.904l-1.271,1.755l-1.588,0.666l-5.22-0.242
             l-1.271,1.331l0.59,0.545l1.316,3.388l0.545,0.363l3.131-1.271l2.95,0.121l1.18,0.968l1.452-3.268l-0.272-1.271l4.357-1.513
             l3.357,1.513l1.09-0.908l1.951,0.787l4.402,2.602l3.494,2.299l-0.681,1.573l-0.816,4.356l0.59,0.908l1.226-2.42l0.09-1.634
             l1.09-0.787l1.815,0.605l2.858,3.268l2.724,1.089l0.862,1.937l0.544-1.21l2.042,1.573l1.68,0.666l1.271,2.844l1.226-0.303
             l-0.228-1.392l1.589-0.363l2.042,1.089l1.316,0.061l3.358-1.694l1.77,0.182l2.995,3.57l-0.408,3.873l0.136,3.086l-3.086,3.207
             l-1.725,0.968l-7.851,2.905l-8.033,2.36l-1.543,0.968l-2.995,0.908l-4.175-1.21l-1.044,0.242l-2.224,1.513l-0.953-0.363
             l-2.541-3.449l-3.041-0.848l-2.859,2.663l-1.679-0.363l-1.498,0.907l-3.494,3.631l-0.045,1.029l1.543,0.968l2.087,3.51l2.542,2.663
             l2.405,1.875l1.679,0.242l1.089,1.513l1.316,0.726l0.727-0.908l1.361,0.605l0.544,1.149l-0.862,1.634l1.543,1.513l2.043-1.331
             l2.042,0.605l-0.227,0.605l2.224,2.663l-0.817,1.089l-1.497-0.424l0.045,1.392l-2.179,1.634h-2.404l-4.085,0.545l-1.679-0.605
             l-0.908,0.968l-3.902,1.15l-4.493,0.605l-5.718,2.965l-4.856-1.089l-3.177-2.36l-0.454-1.029l-3.403-0.908l-0.953-0.605
             l-1.588-2.481l-2.814,1.937l1.226,1.331v1.815l0.771,1.089l-0.499,1.452l-1.77,1.937l1.225,1.331l-2.586,0.726l-1.09-0.605
             l-1.906,0.061l-2.678-0.544l-3.448-3.268l-3.495-1.815l-2.496-2.239l-2.269,0.847l-7.942,0.121l-2.45-0.605l-5.128,0.605
             l-4.039-1.573l-1.361,1.21l-2.769-0.182l-1.68,0.484l-1.86-2.784l-2.042,2.058l0.317,1.028l-2.042,0.363l-1.044,1.089l-1.361-0.182
             l-1.68-2.723l-1.77-1.089l-3.54,1.149l-4.447-0.968l-0.681,1.453l-3.857,3.207l-1.18-0.787l-0.409-1.392l-1.86-0.968l-2.678-0.363
             l-1.497-1.634l-0.953,1.997l-0.182,2.723l-2.632,2.542l-1.044-0.726l-4.039,4.054l-0.545-1.634l0.272-2.118l1.271-1.754l0.59-1.694
             l-1.725-2.481l-1.679-0.544l-0.681-3.328l-0.862-1.694l-0.046-3.994l1.453-2.42l0.862-3.994l0.861-0.847l1.135-3.086l-0.953-5.022
             l-0.59-0.787l-4.674,0.242L568.012,344.86z"/>
         <path fill="#8CD5F7" class="zoom-map-area vanish-on-zoom" id="area-twelve-zoom" stroke="#000000"  stroke-width="0.3636" stroke-miterlimit="10" d="M394.107,456.562l-1.861,1.21l-1.18-2.359
             l-1.498-1.694l0.454-3.631l-0.771-7.321l0.091-2.179l0.636-1.392l1.497,0.545l1.316,3.207v7.685l0.363,3.268L394.107,456.562z
              M568.012,344.86l3.994,0.424l4.674-0.242l0.59,0.787l0.953,5.022l-1.135,3.086l-0.861,0.847l-0.862,3.994l-1.453,2.42l0.046,3.994
             l0.862,1.694l0.681,3.328l1.679,0.544l1.725,2.481l-0.59,1.694l-1.271,1.754l-0.272,2.118l0.545,1.634l-1.271,6.475l-1.271,2.239
             l-1.814,1.149v0.908l2.178,1.755v1.513l-1.679,5.022l-0.091,4.478l1.089,2.602l-0.045,1.815l1.18,2.784l-0.636,1.028l-1.225-0.363
             l-1.725,2.965l-1.498,6.535l1.452,2.179l-1.497,1.996l-0.771,3.449l-2.496,0.545l-4.176,1.452l-2.949-2.42l-1.952,3.207
             l-2.495,1.694l-1.725,3.025l-1.407,1.331l1.634,2.904l-1.815,1.694l0.408,2.238l-0.681,2.724l1.135,0.665l1.407-0.604l1.996,0.726
             l1.316,1.755l0.59,1.815l-0.544,0.847l-2.905,0.484l-2.541,2.421l-4.085,2.844l-1.679-0.121l-0.817,1.271l0.182,1.513l-1.452,0.969
             l-3.313,0.423l-1.316,0.727l-1.18,4.114l1.226,5.083l2.224-0.363l0.59,0.908l-0.681,2.844l0.091,2.48l-2.995,1.452l-2.314,0.303
             l-1.634,1.755l0.362,2.542l-0.499,3.025l-1.905,4.175l-2.678,2.723l0.227,2.844l-0.998,1.573l-1.952-0.06l-4.401-2.966l-1.861,0.061
             l-6.535,2.784l-1.905,0.544l-1.271-1.271l-3.357-0.424l-6.263,0.908l-1.771,1.149l-2.632,3.328l-6.853,4.659l-2.314-0.363
             l-2.179-2.602l-1.86-0.605l-2.587,0.969l-1.997-0.061l-3.177-2.542l-2.088-0.726l-5.083-0.908l-2.995-1.876l-1.679-0.12
             l-3.994,0.847l0.137-0.847l2.45-2.542l0.228-1.937l-2.179-1.392l-2.813-0.061l-2.314-0.544l-2.314,1.694l-1.407-0.363l-12.934-0.666
             l-3.132,1.876l-4.493,0.847l-4.991,2.421l-0.908,2.118l1.044,1.331l-1.361,2.723l-2.27,6.656l-1.996,0.907h-3.54l-2.724,0.848
             l-3.812,4.599l-2.587,0.727l-4.674-1.694h-1.407l-3.676,1.452l-1.543,1.694l-0.908-2.36l-1.226-0.424l-2.541,0.666l-1.906-0.303
             l-5.809-2.662l-0.907-0.061l-9.758,2.541l-2.723,0.061l-2.496,0.787l-2.451,2.057l-0.544,1.876l-3.494,0.242l-2.451,1.21
             l-1.498-0.847l-2.586,1.876l-2.088-0.303l-3.631-2.3l-1.815-2.541l-1.271-0.848l-3.857-0.302l-0.272-1.997l-3.767-5.93l-3.313-0.787
             l-1.815-1.028l-0.953-1.694l-2.36-1.513l-1.043-1.392l-0.817-2.603l-1.361-1.089h-2.587l-1.815-2.783l-1.089,0.362l-0.408-1.694
             l-3.857-3.327l-1.543-2.845l0.271-5.506l-0.227-0.848l-2.723-0.302l-1.452-1.15l-0.771-3.328l0.408-1.21l1.588-1.331l2.314-3.57
             l0.817-2.299l0.771,4.356l-0.408,1.997l1.679,2.844l1.68,1.513l2.677,1.149l4.085,2.3l1.77,3.025l2.769,0.061l2.133-0.545
             l5.537,0.121l1.906,0.848l1.86-1.029l1.588,1.392l0.727-1.815l-0.228-2.42l1.815-1.149l0.999,3.569l2.405,0.848l0.953-0.968
             l2.813-0.969l0.545,0.787l-1.362,3.207l-1.044,1.271l2.406-0.303l0.681,1.331l2.858-0.182l5.4,2.421l0.272,2.117l-2.405,1.876
             l2.042,0.121l2.134-1.997l-0.318-2.299l1.181-0.908l1.996,0.242l3.722,1.573l1.86,1.211l3.313,3.327l4.811,2.663l3.403-1.21
             l4.675,2.723l1.86-0.908l-2.496-0.604l-0.59-1.513l-2.224-0.787l-2.723,0.787l-1.771-0.182l-2.088-1.755l-2.677-1.331l-1.771-3.449
             v-1.694l1.361-3.691l2.496-0.423l1.815,0.242l1.815,2.42l1.77-1.089l-2.042-0.363l-0.771-1.573l-1.089-0.242l-1.452-3.207
             l1.406-1.028l-0.816-0.787l0.545-1.634l2.314-4.356l1.588-5.265l2.451,0.242l-1.09-0.907l0.499-1.634l3.223,0.665l2.042-1.875
             l-0.272-0.666l-1.315,1.694l-2.95-1.028l-3.722,0.362l-0.272-1.452l0.953-1.452l1.725-0.182l-2.359-1.694l1.044-5.869l1.634-2.058
             l2.405,1.573l2.768,2.603l3.586-1.393l1.951,1.211l-2.995-3.57l-0.817-2.48l3.586,0.423l1.497-0.726l-2.587-0.787l-1.679-1.392
             l-0.228-1.755l0.999-4.356l0.771-1.149l3.131-2.36l6.081-3.57l8.306-1.573l6.626-0.241l24.37-6.354l6.626-1.393l10.71-3.327
             l1.452-0.787l2.314-2.48l0.907-1.694l-0.544-0.969l4.221-3.63l1.452-2.3l3.358-2.965l1.361-3.268l3.585-3.873l1.044-1.755
             l0.862-2.844l2.587-1.634l10.528-9.137l9.122-11.86l0.907-2.057l-0.317-1.755l0.953-1.452l0.453-3.873l-0.952-4.114l1.271-0.968
             l2.813,1.331l2.36,0.363l5.445,3.57l0.998,1.876l1.181,5.264l-0.59,2.299l3.358,0.484l2.541-0.242l2.496,4.962l3.948,3.57
             l0.726,1.876l1.771,0.242l2.042-1.21l3.994-3.812l0.907-3.328l1.271-2.239l-1.497-1.089l2.359-3.207l0.499-2.904l-1.815-0.363
             l-0.998-2.844l-0.227-5.083l-1.498-4.296l0.454-1.089l5.445-3.207l3.041-0.302l0.454-2.058l2.45-2.178l0.59,4.175l-0.317,3.449
             l0.545,5.265l1.905,5.083l0.5,4.296l0.907,1.029l3.358,1.149l1.316-0.121l4.447,1.937l1.588-0.605l-0.726-1.876l-2.542-2.783
             l-0.544-1.694l-0.228-3.57l0.272-3.509l-2.813-8.229l-2.587-2.663l-0.045-0.968l1.86-0.363l0.408-1.452l1.09-0.303l0.861,0.968
             l2.134,0.423l0.453,0.847l2.36,0.182L568.012,344.86z"/>
         <path fill="#FF0066" class="zoom-map-area vanish-on-zoom" stroke="#000000" stroke-width="0.3636" stroke-miterlimit="10" d="M561.023,330.52l-0.727,0.787l-1.271-0.545
             l-2.314,1.452l1.315-4.054l2.27-1.875L561.023,330.52z"/>
         <path fill="#7BEA05"  class="zoom-map-area vanish-on-zoom" id="area-thirteen-zoom" stroke="#000000" stroke-width="0.3636" stroke-miterlimit="10" d="M36.18,318.281l1.682,1.767l-0.918,1.767
             l-0.458,2.922l-1.479,3.262l-5.556-0.815l0.867-1.156l-0.103-5.097l-0.713-1.427l0.663-1.835l1.325,0.883l0.866-0.952l1.988-0.204
             L36.18,318.281z M40.818,335.407l1.427-3.602l-0.611-2.991l0.611-2.786l-2.293-3.874l-0.306-1.903l0.357-4.35l-1.529-3.602
             l7.442,0.476l1.682,0.543l-0.458,4.146l0.815,10.602l0.764,5.981L47.495,335l-1.58-0.34l-1.172-0.136L40.818,335.407z"/>
         <path fill="#55B6D7" class="zoom-map-area vanish-on-zoom" id="area-nine-zoom" stroke="#000000" stroke-width="0.3636" stroke-miterlimit="10" d="M16.403,269.756l-0.663,1.359l0.765,1.699
             l-3.415,1.563l-0.204-1.292L11,273.494l-1.529,1.767l-2.498,1.088l-0.663-2.583l0.204-2.175l-3.058-0.543l-0.663-1.631v-2.107
             l1.223,0.407l2.65-0.34l0.765,0.544l2.498,0.067l1.478-1.563l1.886-0.611l0.765,1.902L16.403,269.756z M12.631,275.533l-0.816,1.02
             l0.255,2.65l-1.274,1.767l-1.886-2.719l1.682-2.514l1.886-1.087L12.631,275.533z M38.474,312.3l-0.459-5.165l1.02,0.339l1.122-0.883
             l-1.122-0.748l0.611-6.049l-1.273-10.33l-1.733-2.99l-0.917-2.379l-1.784-3.398l-0.611-2.039l-2.447-2.107l0.816-1.903l5.658-6.389
             l2.09-1.631l0.611-3.67l1.631,0.612l2.956,0.136l2.498,1.631l4.842,1.767l1.835,0.068l3.262-2.311h0.867l0.611,2.242l1.58,0.136
             l1.631,1.699l0.102,2.447l1.071,2.583l-0.408,2.922l0.561,1.155l1.121-0.543l2.804,0.68l2.294-1.699l0.968-0.136l2.446,1.63
             l3.007-0.271l0.357,2.922l-1.835,1.631l-0.051,1.155l1.733,1.563l0.356,1.019l-0.356,4.894l-0.867,3.602l-2.854,1.087l-2.599,5.437
             l0.356,0.952l-0.867,0.408l1.479,2.243l-0.764,3.262l-1.937,1.971l0.866,1.767l-0.153,1.767l-1.478,2.65l-0.968-0.067l-1.275,1.902
             l-0.663,4.757l-1.121,1.631l-3.924,0.952l-1.02,1.903l-2.039,1.767l-0.867,2.107l-3.619,3.262l-0.51,1.155l-2.498,2.039
             l-1.988-0.952l-0.713-1.835l1.58,0.34l1.223-0.952l-0.764-5.981l-0.815-10.602l0.458-4.146l-1.682-0.543L38.474,312.3z"/>
         <path fill="#ED8080" class="zoom-map-area vanish-on-zoom" id="area-seven-zoom" name="Kuala Lumpur" stroke="#000000" stroke-width="0.3636" stroke-miterlimit="10" d="M83.889,443.127l-0.815,0.204l0.051-1.156
             l1.376,0.137L83.889,443.127z M84.705,446.39l-0.408-0.748l1.988-4.213l1.528-0.068l-0.05,2.854L84.705,446.39z M107.387,465.554
             l-2.446-1.631l-2.804-0.544l-3.874-1.223l-2.039-1.427l-3.67-5.302l-1.58-1.427l-4.485-0.748l-1.274-0.815l0.917-2.311l-1.07-0.884
             l2.549-3.126l2.038-1.495l-0.356-3.873l-2.141-2.447l-1.274-7.679l-2.498-2.38l-0.663-1.223l-1.937-0.816l-2.905-4.282l-1.581-1.631
             l-1.733-3.126l-0.866-3.397l-0.867-1.088l-5.708-3.873l-2.09-3.127l-3.772-1.495l0.561-2.175l0.867-0.747l5.199-0.815l0.153,1.427
             l1.58,1.291V405l1.07-1.223l1.325-0.203l1.886,0.882l0.153,1.495l1.478-1.224l0.51,1.428l-1.172,0.816h1.529l0.867-0.952
             l2.294,1.834l1.478-0.271l0.917,0.68l1.58-0.137l0.306,1.972l3.058-0.204l1.58-1.359l-1.122-3.262l1.224-1.291l1.631,0.203
             l0.611,1.02l2.396,1.019l1.224,1.836l3.108,1.902l1.988-1.698l2.294-2.923l0.917-0.271l1.427,2.311l1.835,1.224l2.09,0.544
             l1.733,1.019l2.395,3.942l-0.306,1.971l-1.07,0.883l-1.122,2.515l1.02,3.942l-1.02,2.174l3.313,4.35l2.753,1.224l1.631,0.272
             l0.663,0.271l0.867,2.107l-0.153,1.358l0.917,2.719l-0.306,2.311l0.408,2.72l-1.274,1.291l-0.408,2.379l-1.58,1.563l-0.612,2.719
             l-1.428,1.224l-3.924-0.408l-1.224,0.136l0.663,6.388l-1.784,3.67L107.387,465.554z M104.838,442.924l2.04-0.137l1.07,0.477
             l1.071-1.429l-0.459-3.872l1.02-2.244l-1.224-2.038l-1.529,0.408l-2.191-1.225l-1.172,0.748l-1.02,1.767l0.103,1.972l1.325,1.358
             l0.765,1.835l-0.51,1.291L104.838,442.924z M105.144,451.146l1.326-0.68l1.427-2.037l-0.866-2.719l-2.039,0.815L105.144,451.146z"/>
         <path class="zoom-map-area vanish-on-zoom divtotal_statesbtn" id="divtotal_statesbtn" name="Pahang"  fill="#C7A27B" stroke="#000000" stroke-width="0.3636" stroke-miterlimit="10" d="M229.922,456.447l1.784-2.106l-0.356-2.379
             l0.867-1.359l0.765,0.272l1.886,5.164l0.102,2.516l-0.714,1.087l-2.701,0.067l-1.376-1.698L229.922,456.447z M195.262,384.951
             l-2.447,2.719l0.306,2.515l1.886,4.759l-0.204,1.29l-1.172-0.748l-1.376,3.737l-0.306,4.555h-0.866l-1.173,2.242l0.306,1.903
             l3.058,6.252l2.905,3.331l-0.713,1.495l1.733-0.272l-2.498,5.232l-0.255,2.176l0.815,6.321l0.561,2.037l-1.07,12.438l0.305,2.037
             l1.682,3.603l2.345,3.264l6.116,6.047l-2.039,2.176l1.172,1.223l-0.662,1.359l-0.306,2.651l1.528,1.291l-0.051,1.291l-1.223,1.359
             l-7.238-4.351l-1.07-1.223l-4.18-1.835l-2.854,0.408l-7.646,2.854l-8.462-3.331l-1.835-1.563l-7.187-8.768l-5.607-2.242
             l-0.867-2.922l-0.968,0.202l-10.296-7.135l-3.925-4.486l-4.281-0.747l-6.372-2.106l-2.804-1.156l-3.007,1.089l-0.459-2.04
             l-2.396-0.68l-3.874-2.99l-0.867,1.224l-1.631-0.272l-2.753-1.224l-3.313-4.35l1.02-2.174l-1.02-3.942l1.122-2.515l1.07-0.883
             l0.306-1.971l-2.395-3.942l-1.733-1.019l-2.09-0.544l-1.835-1.224l-1.427-2.311l-1.274-1.087v-3.806l-1.07-2.039l-0.254-3.738
             l-0.714-1.292l1.275-4.01l-2.345-2.515l-0.866,0.205l-0.663-2.243l0.153-1.496l-2.242-0.882v-2.04l-0.663-1.087l-0.103-2.106
             l-0.968-1.292l0.51-2.107l-3.925-1.155l-1.223-1.292l2.242-3.262l-0.815-1.767l-0.204-2.311l0.713-1.971l2.651,0.815l1.529,1.292
             L95.867,363l2.702-0.272l2.6,1.835l1.376,0.204l2.09-0.611l3.415-2.787l2.192-0.952l0.356-4.894l0.611-1.223l1.479,0.339
             l0.152,1.428l3.364,2.65l0.714,2.65l2.191-2.582l1.02-4.417l1.886-0.136l2.65,1.495l3.211-1.292l0.765,2.107l1.835,1.359l1.63,2.514
             l4.231-0.951l3.058,0.884l1.479-2.04v-0.951l1.58-0.748l2.396,0.34l1.988,1.63l1.376,0.205l1.631-1.564l2.549,0.68v-2.447
             l0.866-2.039l2.293,0.612l1.529,2.65l3.824,1.903l3.975,0.272l1.377,1.427l0.458,1.835l-0.713,2.243l-1.172,1.087l0.356,1.903
             l1.886,2.107l3.109,0.748l0.867-1.088l2.192,1.699l0.815,2.243l-0.713,3.262l-1.326-0.068l-1.274,0.884l-1.376,2.447l-0.867,5.708
             l-0.713,1.224l1.835,1.495l2.752-1.223l3.72,1.019l2.498,1.292l3.109,2.65l1.224-0.204l0.663,1.291l1.172-0.204l2.141,3.398v1.155
             l1.224,2.038l1.784-1.902l0.255-1.495l-1.02-2.854l0.051-1.902l-0.867-0.816l0.051-2.242l0.866-2.107l-0.204-2.243l1.273,0.748
             l3.721,0.136L195.262,384.951z"/>
          
         <path fill="#FF0066" class="zoom-map-area vanish-on-zoom" id="area-ten-zoom" stroke="#000000" stroke-width="0.3636" stroke-miterlimit="10" d="M30.878,276.552l-1.223-1.495l-1.835-4.689
             l-0.51-3.195l0.867-1.903l0.102-3.058l1.122-1.359l-0.561-2.787l0.611-3.874l1.07-0.679l1.224,1.019l1.581-0.543l1.886,0.611
             l1.835,5.777l1.581,1.835l1.427,0.747l-0.611,3.67l-2.09,1.631l-5.658,6.389L30.878,276.552z"/>
         <path  class="zoom-map-area vanish-on-zoom" id="area-two-zoom" name="Johor" fill="#FF0066" stroke="#000000" stroke-width="0.3636" stroke-miterlimit="10" d="M205.201,461.884l2.293,0.409l2.039,1.019
             l2.039-0.339l0.102,1.291l2.344,2.175l1.326,2.922l-0.458,2.175l0.356,0.951l3.771,4.825l1.886,1.564l0.357,2.105l1.427,2.311
             l-0.765,2.107l0.357,1.019l2.396,2.991l1.326,3.193l3.67,6.05l-0.102,3.263l0.815,2.174l1.631,0.067l1.427,2.447l0.459,2.379
             l1.223,2.174l0.051,1.7l1.325,2.038l0.408,3.398l1.07,2.786l0.51,3.603l-0.765,1.086l-0.101,2.991h-1.938l-1.02,1.088l-3.313-0.272
             l-2.447-1.223l-0.306-2.175l-1.835-1.563l-0.255-1.835l3.262-1.699l1.224-1.426h-1.835l-2.956,2.038l-2.09-4.689l-2.345-2.65
             l0.204,2.039l1.937,3.126l-0.255,2.106l0.306,2.99l-1.784,1.495l-2.447-0.61l-4.435-2.312l-1.274,0.067l-3.108,1.359l-2.09-0.136
             l-1.58,0.476l-2.6,3.331l-1.529,1.223l-1.835-0.341l-0.866-1.154l0.204,2.038l-1.784,3.67l-2.446-2.515l-1.122-1.971l-1.682-5.641
             l-0.917-1.971l-1.428-1.63l-2.14-1.361l-6.066-2.31l-8.615-5.437l-2.089-1.021l-3.161-0.68l-3.619-4.077l-3.007-1.698l-4.18,0.679
             l-1.172-0.611l-2.498-4.146l-4.129-3.398l-0.612-2.038l-3.466-2.446l0.866-1.428l1.274-0.136l0.255-2.446l-2.446-0.953l-0.306-1.153
             l1.02-1.088l0.051-1.971l0.969-2.719l-0.102-1.291l1.784-2.447l2.293-1.223l1.071-3.263l0.102-4.35l1.019-1.971l-0.408-1.292
             l3.364-8.971l0.255-1.563l5.607,2.242l7.187,8.768l1.835,1.563l8.462,3.331l7.646-2.854l2.854-0.408l4.18,1.835l1.07,1.223
             l7.238,4.351l1.223-1.359l0.051-1.291l-1.528-1.291l0.306-2.651l0.662-1.359l-1.172-1.223L205.201,461.884z"/>
         <path fill="#71C2B2" class="zoom-map-area vanish-on-zoom" id="area-six-zoom" name="Perak" stroke="#000000" stroke-width="0.3636" stroke-miterlimit="10" d="M62.685,401.263l-0.306-0.612l-2.548,0.747
             l-3.263-1.494l-0.968-2.516v-2.581l0.917-1.155h4.23l0.815-1.088l2.753-0.34l-0.51-1.155l-2.956,1.087l-1.325-0.068l-0.051-3.397
             l-0.509-0.68l-4.486-3.398l-2.294,0.476l-1.02-2.719l-1.07-4.688l-1.274-1.02l1.172-4.757l0.969-0.748l1.325-5.505l-0.103-1.088
             l-1.682-0.883l-0.306-1.019l0.662-1.971h1.428l1.732-2.039l-3.16,0.204l-0.458-3.942l1.937-0.815l-1.019-0.68l0.255-1.087
             l-2.09-0.34l0.102-2.854l-1.376-1.155l-2.854,0.204l1.019-1.563l-1.63-1.155l-1.428,0.815l-1.375-2.854l-1.275-1.428l-1.478-3.602
             l-0.306-1.563l1.937-1.427l3.926-0.884l1.172,0.136l0.713,1.835l1.988,0.952l2.498-2.039l0.51-1.155l3.619-3.262l0.867-2.107
             l2.039-1.767l1.02-1.903l3.924-0.952l1.121-1.631l0.663-4.757l1.275-1.902l0.968,0.067l1.478-2.65l0.153-1.767l-0.866-1.767
             l1.937-1.971l0.764-3.262l-1.479-2.243l0.867-0.408l0.969,1.903l2.345,0.679l2.09,1.903l1.325,2.582l2.294-0.068l2.396-1.427
             l1.427-1.699l1.224-4.485l3.568-1.156l3.771-2.106l7.238-2.718l2.243-0.068l1.325,2.107l1.479,0.543l-0.204,1.427l1.784,3.194h1.58
             l-0.153,3.67l-1.375,1.292v2.922l0.969,2.242l-0.867,2.583l3.619,0.476l0.561,1.224l-0.306,6.388l-3.772,1.359l-2.701-1.292
             l-1.988,1.631l-1.53,2.718h-0.968l-0.867,3.126l-0.968,1.495l-0.306,3.059l-1.122,3.262l-0.663,3.466l-1.121,1.02l1.07,1.767
             l0.357,2.039l-0.612,2.106l-2.09,1.428l0.357,2.174l-1.58,1.767l-0.103,2.515l-1.529,0.271l-0.611,0.951l1.784,3.534l-0.713,1.971
             l0.204,2.311l0.815,1.767l-2.242,3.262l1.223,1.292l3.925,1.155l-0.51,2.107l0.968,1.292l0.103,2.106l0.663,1.087v2.04l2.242,0.882
             l-0.153,1.496l0.663,2.243l0.866-0.205l2.345,2.515l-1.275,4.01l0.714,1.292l0.254,3.738l1.07,2.039v3.806l1.274,1.087l-0.917,0.271
             l-2.294,2.923l-1.988,1.698l-3.108-1.902l-1.224-1.836l-2.396-1.019l-0.611-1.02l-1.631-0.203l-1.224,1.291l1.122,3.262l-1.58,1.359
             l-3.058,0.204l-0.306-1.972l-1.58,0.137l-0.917-0.68l-1.478,0.271l-2.294-1.834l-0.867,0.952h-1.529l1.172-0.816l-0.51-1.428
             l-1.478,1.224l-0.153-1.495l-1.886-0.882l-1.325,0.203L69.618,405v-1.835l-1.58-1.291l-0.153-1.427L62.685,401.263z"/>
         <path fill="#BCD26D" class="zoom-map-area vanish-on-zoom" id="area-seven-zoom"  stroke="#000000" stroke-width="0.3636" stroke-miterlimit="10" d="M90.312,361.776l-1.784-3.534l0.611-0.951
             l1.529-0.271l0.103-2.515l1.58-1.767l-0.357-2.174l2.09-1.428l0.612-2.106l-0.357-2.039l-1.07-1.767l1.121-1.02l0.663-3.466
             l1.122-3.262l0.306-3.059l0.968-1.495l0.867-3.126h0.968l1.53-2.718l1.988-1.631l2.701,1.292l3.772-1.359l0.306-6.388l-0.561-1.224
             l-3.619-0.476l0.867-2.583l-0.969-2.242v-2.922l1.375-1.292l0.153-3.67l2.192-0.815l1.121,1.699l1.937,0.475l1.274-1.971
             l1.478-0.952l0.765-1.359l2.243-1.767l0.356-4.146l0.766-2.106l1.274-1.563l3.771-2.922l1.325-1.359l0.612-1.631l-0.205-4.009
             l0.307-2.718l4.586,3.125l1.173-0.339l-0.407-1.496h1.069l5.862,2.243l3.262,2.923l6.014,12.165l2.141,2.243l-1.988,2.379
             l-3.874,3.67l-2.09,2.583l0.968,3.941l-0.051,3.602l-0.612,1.155l0.357,2.991l-0.204,1.835l2.243,2.718l-0.917,2.787l-0.408,6.932
             l2.141,0.815l3.619,2.99l-1.326,1.835l0.612,2.515l-0.713,0.815l0.663,3.262l-0.153,1.358l0.815,0.748l2.446,0.272l3.365,2.447
             l1.223,3.398l-0.306,0.68l-2.293-0.612l-0.866,2.039v2.447l-2.549-0.68l-1.631,1.564l-1.376-0.205l-1.988-1.63l-2.396-0.34
             l-1.58,0.748v0.951l-1.479,2.04l-3.058-0.884l-4.231,0.951l-1.63-2.514l-1.835-1.359l-0.765-2.107l-3.211,1.292l-2.65-1.495
             l-1.886,0.136l-1.02,4.417l-2.191,2.582l-0.714-2.65l-3.364-2.65l-0.152-1.428l-1.479-0.339l-0.611,1.223l-0.356,4.894l-2.192,0.952
             l-3.415,2.787l-2.09,0.611l-1.376-0.204l-2.6-1.835L95.867,363l-1.375,0.883l-1.529-1.292L90.312,361.776z"/>
         <path class="zoom-map-area vanish-on-zoom" id="area-five-zoom" name="Melaka" fill="#FAE273" stroke="#000000" stroke-width="0.3636" stroke-miterlimit="10" d="M152.14,474.594l-2.293,1.223l-1.784,2.447
             l0.102,1.291l-0.969,2.719l-0.051,1.971l-1.02,1.088l0.306,1.153l2.446,0.953l-0.255,2.446l-1.274,0.136l-0.866,1.428l-15.342-6.321
             l-3.11-2.175l-3.822-4.281l-1.682-0.475l-1.632-1.36l0.102-0.747l1.631-0.884l1.325-1.496l0.713,0.545l0.714-1.632l1.682,0.137
             l2.141-0.545l1.733-1.29l2.192,1.019l2.498,0.477l3.465-1.224l2.04-0.067l3.72,1.698L152.14,474.594z"/>
         <path fill="#F4A7DE"  class="zoom-map-area vanish-on-zoom" id="area-four-zoom" name="Negeri Sembilan"   stroke="#000000" stroke-width="0.3636" stroke-miterlimit="10" d="M157.543,453.186l-0.255,1.563l-3.364,8.971
             l0.408,1.292l-1.019,1.971l-0.102,4.35l-1.071,3.263l-7.289-1.768l-3.72-1.698l-2.04,0.067l-3.465,1.224l-2.498-0.477l-2.192-1.019
             l-1.733,1.29l-2.141,0.545l-1.682-0.137l-0.714,1.632l-0.713-0.545l-1.325,1.496l-1.631,0.884l-3.16-1.563l-2.498,0.68l-0.663,0.68
             l-0.714-4.35l-2.396-1.972l-1.019-2.99l-1.122-0.815l-2.039-0.204l0.867-3.67l1.784-3.67l-0.663-6.388l1.224-0.136l3.924,0.408
             l1.428-1.224l0.612-2.719l1.58-1.563l0.408-2.379l1.274-1.291l-0.408-2.72l0.306-2.311l-0.917-2.719l0.153-1.358l-0.867-2.107
             l-0.663-0.271l0.867-1.224l3.874,2.99l2.396,0.68l0.459,2.04l3.007-1.089l2.804,1.156l6.372,2.106l4.281,0.747l3.925,4.486
             l10.296,7.135l0.968-0.202L157.543,453.186z"/>
         <path fill="#55B6D7" class="zoom-map-area vanish-on-zoom" id="area-eight-zoom" stroke="#000000" stroke-width="0.3636" stroke-miterlimit="10" d="M155.555,354.029l0.306-0.68l-1.223-3.398
             l-3.365-2.447l-2.446-0.272l-0.815-0.748l0.153-1.358l-0.663-3.262l0.713-0.815l-0.612-2.515l1.326-1.835l-3.619-2.99l-2.141-0.815
             l0.408-6.932l0.917-2.787l-2.243-2.718l0.204-1.835l-0.357-2.991l0.612-1.155l0.051-3.602l-0.968-3.941l2.09-2.583l3.874-3.67
             l1.988-2.379l3.109,1.971l2.141,2.243l1.172,2.447l1.376,0.679l9.073,7.272l2.192,1.087l2.09,0.407l3.415,2.923l4.689,5.369
             l5.199,8.224l1.733,4.417l5.046,8.495l2.957,5.438l1.682,3.534l-0.357,1.564l0.561,3.33l0.816,7.748l-0.918,3.126l0.51,3.058
             l1.631,4.757l0.153,1.563l-0.815,2.311l-1.479,1.835l0.153,2.174l-0.611,0.68l-1.224-0.407l-3.721-0.136l-1.273-0.748l0.204,2.243
             l-0.866,2.107l-0.051,2.242l0.867,0.816l-0.051,1.902l1.02,2.854l-0.255,1.495l-1.784,1.902l-1.224-2.038v-1.155l-2.141-3.398
             l-1.172,0.204l-0.663-1.291l-1.224,0.204l-3.109-2.65l-2.498-1.292l-3.72-1.019l-2.752,1.223l-1.835-1.495l0.713-1.224l0.867-5.708
             l1.376-2.447l1.274-0.884l1.326,0.068l0.713-3.262l-0.815-2.243l-2.192-1.699l-0.867,1.088l-3.109-0.748l-1.886-2.107l-0.356-1.903
             l1.172-1.087l0.713-2.243l-0.458-1.835l-1.377-1.427l-3.975-0.272l-3.824-1.903L155.555,354.029z"/>
         <path fill="#F5FC98" stroke="#000000" stroke-width="0.3636" stroke-miterlimit="10" enable-background="new    " d="
             M-38.461,181.814"/>
         <path fill="none" d="M731.275,462.285h9.792v9.792h-9.792V462.285z"/>
         <path fill="none" enable-background="new    " d="M-33.5,193.821"/>
         
        <!-- <g id="area-two" class="hotspot vanish-on-zoom">
          <circle class="circle-marker" cx="210" cy="500" r="5px"></circle>
          <circle class="circle-marker circle-fill" cx="210" cy="500" r="4px"></circle>
          <circle class="circle-marker circle-pulse" cx="210" cy="500" r="20px"></circle>
        </g> -->
         <text class="zoom-map-area vanish-on-zoom" transform="matrix(1 0 0 1 633.3633 335.7314)" font-family="'Tahoma'" font-size="6">Sabah</text>
         <text class="zoom-map-area vanish-on-zoom" transform="matrix(1 0 0 1 471.4307 448.6953)" font-family="'Tahoma'" font-size="6">Sarawak</text>
         <text class="zoom-map-area vanish-on-zoom" transform="matrix(1 0 0 1 530.2197 326.2842)" font-family="'Tahoma'" font-size="6">Labuan</text>
         <text class="zoom-map-area vanish-on-zoom" transform="matrix(1 0 0 1 -22.9077 335.4082)" font-family="'Tahoma'" font-size="6">Pulau Pinang</text>
         <text class="zoom-map-area vanish-on-zoom" transform="matrix(1 0 0 1 37.8623 291.7197)" font-family="'Tahoma'" font-size="6">Kedah</text>
         <text class="zoom-map-area vanish-on-zoom" transform="matrix(1 0 0 1 20.9307 425.1504)" font-family="'Tahoma'" font-size="6">Selangor</text>
         <text class="zoom-map-area vanish-on-zoom" transform="matrix(1 0 0 1 138.3037 413.3271)" font-family="'Tahoma'" font-size="6">Pahang</text>
         <text class="zoom-map-area vanish-on-zoom" transform="matrix(1 0 0 1 38.8818 441.3613)" font-family="'Tahoma'" font-size="6">Kuala Lumpur</text>
         <text class="zoom-map-area vanish-on-zoom" transform="matrix(1 0 0 1 20.9307 250.2344)" font-family="'Tahoma'" font-size="6">Perlis</text>
         <text class="zoom-map-area vanish-on-zoom" transform="matrix(1 0 0 1 177.832 502.6455)" font-family="'Tahoma'" font-size="6">Johor</text>
         <text class="zoom-map-area vanish-on-zoom" transform="matrix(1 0 0 1 53.5879 346.5547)" font-family="'Tahoma'" font-size="6">Perak</text>
         <text class="zoom-map-area vanish-on-zoom" transform="matrix(1 0 0 1 102.4434 346.5547)" font-family="'Tahoma'" font-size="6">Kelantan</text>
         <text class="zoom-map-area vanish-on-zoom" transform="matrix(0.6473 -0.7622 0.7622 0.6473 126 505)" font-family="'Tahoma'" font-size="6">Melaka</text>
         <text class="zoom-map-area vanish-on-zoom" transform="matrix(0.7276 -0.686 0.686 0.7276 84 510)" font-family="'Tahoma'" font-size="6">Negeri Sembilan</text>
         <text class="zoom-map-area vanish-on-zoom" transform="matrix(0.4765 0.8792 -0.8792 0.4765 160 330)" font-family="'Tahoma'" font-size="6">Terengganu</text>
         </svg>